<svg width="238" height="246" viewBox="0 0 238 246" fill="none" xmlns="http://www.w3.org/2000/svg">
<g filter="url(#filter0_d_111_2000)">
<path d="M106.409 236.806C101.089 238.232 95.6204 235.075 94.1948 229.755L92.9902 225.259C91.9805 221.491 94.2164 217.617 97.9846 216.607L103.605 215.101C107.373 214.092 111.246 216.329 112.256 220.097L113.461 224.593C114.886 229.913 111.729 235.381 106.409 236.806Z" fill="url(#paint0_linear_111_2000)"/>
<path d="M106.409 236.806C101.089 238.232 95.6204 235.075 94.1948 229.755L92.9902 225.259C91.9805 221.491 94.2164 217.617 97.9846 216.607L103.605 215.101C107.373 214.092 111.246 216.329 112.256 220.097L113.461 224.593C114.886 229.913 111.729 235.381 106.409 236.806Z" stroke="black"/>
<path d="M106.409 236.806C101.089 238.232 95.6204 235.075 94.1948 229.755L92.9902 225.259C91.9805 221.491 94.2164 217.617 97.9846 216.607L103.605 215.101C107.373 214.092 111.246 216.329 112.256 220.097L113.461 224.593C114.886 229.913 111.729 235.381 106.409 236.806Z" stroke="black" stroke-opacity="0.2"/>
<path d="M121.694 219.469C117.066 216.483 115.735 210.31 118.722 205.683L121.245 201.772C123.36 198.494 127.733 197.551 131.011 199.666L135.9 202.821C139.177 204.936 140.119 209.309 138.004 212.586L135.48 216.497C132.494 221.125 126.322 222.456 121.694 219.469Z" fill="url(#paint1_linear_111_2000)"/>
<path d="M121.694 219.469C117.066 216.483 115.735 210.31 118.722 205.683L121.245 201.772C123.36 198.494 127.733 197.551 131.011 199.666L135.9 202.821C139.177 204.936 140.119 209.309 138.004 212.586L135.48 216.497C132.494 221.125 126.322 222.456 121.694 219.469Z" stroke="black"/>
<path d="M121.694 219.469C117.066 216.483 115.735 210.31 118.722 205.683L121.245 201.772C123.36 198.494 127.733 197.551 131.011 199.666L135.9 202.821C139.177 204.936 140.119 209.309 138.004 212.586L135.48 216.497C132.494 221.125 126.322 222.456 121.694 219.469Z" stroke="black" stroke-opacity="0.2"/>
<path d="M89.5429 221.063C88.7944 218.269 93.6602 214.539 100.411 212.73C107.162 210.921 113.241 211.719 113.99 214.512C114.738 217.306 109.872 221.037 103.121 222.846C96.3707 224.654 90.2913 223.856 89.5429 221.063Z" fill="url(#paint2_linear_111_2000)"/>
<path d="M89.5429 221.063C88.7944 218.269 93.6602 214.539 100.411 212.73C107.162 210.921 113.241 211.719 113.99 214.512C114.738 217.306 109.872 221.037 103.121 222.846C96.3707 224.654 90.2913 223.856 89.5429 221.063Z" stroke="black"/>
<path d="M89.5429 221.063C88.7944 218.269 93.6602 214.539 100.411 212.73C107.162 210.921 113.241 211.719 113.99 214.512C114.738 217.306 109.872 221.037 103.121 222.846C96.3707 224.654 90.2913 223.856 89.5429 221.063Z" stroke="black" stroke-opacity="0.2"/>
<path d="M91.6568 220.512C91.6623 220.522 91.6751 220.544 91.7028 220.575C91.7605 220.641 91.8798 220.749 92.1012 220.873C92.5593 221.131 93.3054 221.378 94.3656 221.517C96.4756 221.794 99.3887 221.587 102.557 220.738C105.725 219.889 108.351 218.612 110.04 217.317C110.889 216.666 111.411 216.08 111.679 215.627C111.809 215.409 111.858 215.256 111.875 215.17C111.883 215.129 111.884 215.104 111.884 215.093C111.883 215.082 111.882 215.078 111.882 215.077C111.882 215.076 111.881 215.072 111.876 215.063C111.87 215.053 111.857 215.032 111.83 215C111.772 214.935 111.653 214.827 111.431 214.702C110.973 214.444 110.227 214.198 109.167 214.059C107.057 213.782 104.144 213.988 100.976 214.837C97.8075 215.686 95.1813 216.964 93.4926 218.258C92.644 218.909 92.1211 219.496 91.8532 219.948C91.7238 220.167 91.6745 220.32 91.6573 220.405C91.6491 220.447 91.6487 220.471 91.6489 220.483C91.6491 220.493 91.6501 220.497 91.6504 220.498C91.6506 220.499 91.6517 220.503 91.6568 220.512ZM87.4354 221.628C87.0502 220.19 87.4488 218.824 88.099 217.725C88.7439 216.636 89.719 215.653 90.8371 214.796C93.0818 213.075 96.2638 211.582 99.8463 210.622C103.429 209.662 106.931 209.364 109.735 209.732C111.132 209.915 112.468 210.279 113.571 210.9C114.684 211.526 115.712 212.51 116.097 213.948C116.482 215.386 116.084 216.752 115.434 217.85C114.789 218.939 113.814 219.922 112.695 220.78C110.451 222.501 107.269 223.993 103.686 224.953C100.104 225.913 96.6019 226.212 93.7973 225.843C92.4004 225.66 91.0644 225.296 89.9611 224.675C88.849 224.049 87.8207 223.065 87.4354 221.628Z" fill="url(#paint3_linear_111_2000)"/>
<path d="M91.6568 220.512C91.6623 220.522 91.6751 220.544 91.7028 220.575C91.7605 220.641 91.8798 220.749 92.1012 220.873C92.5593 221.131 93.3054 221.378 94.3656 221.517C96.4756 221.794 99.3887 221.587 102.557 220.738C105.725 219.889 108.351 218.612 110.04 217.317C110.889 216.666 111.411 216.08 111.679 215.627C111.809 215.409 111.858 215.256 111.875 215.17C111.883 215.129 111.884 215.104 111.884 215.093C111.883 215.082 111.882 215.078 111.882 215.077C111.882 215.076 111.881 215.072 111.876 215.063C111.87 215.053 111.857 215.032 111.83 215C111.772 214.935 111.653 214.827 111.431 214.702C110.973 214.444 110.227 214.198 109.167 214.059C107.057 213.782 104.144 213.988 100.976 214.837C97.8075 215.686 95.1813 216.964 93.4926 218.258C92.644 218.909 92.1211 219.496 91.8532 219.948C91.7238 220.167 91.6745 220.32 91.6573 220.405C91.6491 220.447 91.6487 220.471 91.6489 220.483C91.6491 220.493 91.6501 220.497 91.6504 220.498C91.6506 220.499 91.6517 220.503 91.6568 220.512ZM87.4354 221.628C87.0502 220.19 87.4488 218.824 88.099 217.725C88.7439 216.636 89.719 215.653 90.8371 214.796C93.0818 213.075 96.2638 211.582 99.8463 210.622C103.429 209.662 106.931 209.364 109.735 209.732C111.132 209.915 112.468 210.279 113.571 210.9C114.684 211.526 115.712 212.51 116.097 213.948C116.482 215.386 116.084 216.752 115.434 217.85C114.789 218.939 113.814 219.922 112.695 220.78C110.451 222.501 107.269 223.993 103.686 224.953C100.104 225.913 96.6019 226.212 93.7973 225.843C92.4004 225.66 91.0644 225.296 89.9611 224.675C88.849 224.049 87.8207 223.065 87.4354 221.628Z" stroke="black"/>
<path d="M91.6568 220.512C91.6623 220.522 91.6751 220.544 91.7028 220.575C91.7605 220.641 91.8798 220.749 92.1012 220.873C92.5593 221.131 93.3054 221.378 94.3656 221.517C96.4756 221.794 99.3887 221.587 102.557 220.738C105.725 219.889 108.351 218.612 110.04 217.317C110.889 216.666 111.411 216.08 111.679 215.627C111.809 215.409 111.858 215.256 111.875 215.17C111.883 215.129 111.884 215.104 111.884 215.093C111.883 215.082 111.882 215.078 111.882 215.077C111.882 215.076 111.881 215.072 111.876 215.063C111.87 215.053 111.857 215.032 111.83 215C111.772 214.935 111.653 214.827 111.431 214.702C110.973 214.444 110.227 214.198 109.167 214.059C107.057 213.782 104.144 213.988 100.976 214.837C97.8075 215.686 95.1813 216.964 93.4926 218.258C92.644 218.909 92.1211 219.496 91.8532 219.948C91.7238 220.167 91.6745 220.32 91.6573 220.405C91.6491 220.447 91.6487 220.471 91.6489 220.483C91.6491 220.493 91.6501 220.497 91.6504 220.498C91.6506 220.499 91.6517 220.503 91.6568 220.512ZM87.4354 221.628C87.0502 220.19 87.4488 218.824 88.099 217.725C88.7439 216.636 89.719 215.653 90.8371 214.796C93.0818 213.075 96.2638 211.582 99.8463 210.622C103.429 209.662 106.931 209.364 109.735 209.732C111.132 209.915 112.468 210.279 113.571 210.9C114.684 211.526 115.712 212.51 116.097 213.948C116.482 215.386 116.084 216.752 115.434 217.85C114.789 218.939 113.814 219.922 112.695 220.78C110.451 222.501 107.269 223.993 103.686 224.953C100.104 225.913 96.6019 226.212 93.7973 225.843C92.4004 225.66 91.0644 225.296 89.9611 224.675C88.849 224.049 87.8207 223.065 87.4354 221.628Z" stroke="black" stroke-opacity="0.2"/>
<path d="M122.037 196.4C123.605 193.97 129.636 195.072 135.509 198.861C141.381 202.651 144.87 207.693 143.302 210.123C141.734 212.552 135.703 211.45 129.83 207.661C123.958 203.871 120.469 198.83 122.037 196.4Z" fill="url(#paint4_linear_111_2000)"/>
<path d="M122.037 196.4C123.605 193.97 129.636 195.072 135.509 198.861C141.381 202.651 144.87 207.693 143.302 210.123C141.734 212.552 135.703 211.45 129.83 207.661C123.958 203.871 120.469 198.83 122.037 196.4Z" stroke="black"/>
<path d="M122.037 196.4C123.605 193.97 129.636 195.072 135.509 198.861C141.381 202.651 144.87 207.693 143.302 210.123C141.734 212.552 135.703 211.45 129.83 207.661C123.958 203.871 120.469 198.83 122.037 196.4Z" stroke="black" stroke-opacity="0.2"/>
<path d="M123.864 197.597C123.86 197.608 123.853 197.631 123.848 197.673C123.838 197.76 123.838 197.921 123.894 198.168C124.011 198.681 124.329 199.4 124.937 200.279C126.149 202.029 128.257 204.049 131.013 205.828C133.769 207.606 136.479 208.695 138.572 209.078C139.624 209.27 140.41 209.264 140.925 209.159C141.174 209.108 141.321 209.042 141.396 208.997C141.432 208.975 141.45 208.959 141.459 208.951C141.466 208.944 141.469 208.94 141.469 208.94C141.47 208.939 141.472 208.935 141.475 208.925C141.479 208.915 141.486 208.891 141.491 208.849C141.501 208.762 141.501 208.601 141.444 208.354C141.328 207.841 141.01 207.122 140.401 206.243C139.19 204.493 137.082 202.473 134.326 200.694C131.57 198.916 128.86 197.827 126.767 197.445C125.715 197.252 124.929 197.258 124.414 197.364C124.165 197.414 124.018 197.481 123.943 197.525C123.907 197.547 123.888 197.563 123.88 197.571C123.873 197.578 123.87 197.582 123.87 197.583C123.869 197.583 123.867 197.587 123.864 197.597ZM120.203 195.217C121.01 193.966 122.291 193.344 123.541 193.089C124.781 192.836 126.165 192.899 127.551 193.152C130.333 193.66 133.575 195.017 136.692 197.028C139.808 199.039 142.38 201.434 143.99 203.76C144.792 204.919 145.419 206.153 145.699 207.388C145.982 208.632 145.943 210.055 145.136 211.306C144.328 212.556 143.048 213.178 141.798 213.433C140.557 213.686 139.174 213.624 137.788 213.37C135.006 212.862 131.764 211.505 128.647 209.494C125.531 207.483 122.959 205.088 121.349 202.762C120.547 201.604 119.92 200.369 119.64 199.134C119.357 197.89 119.396 196.467 120.203 195.217Z" fill="url(#paint5_linear_111_2000)"/>
<path d="M123.864 197.597C123.86 197.608 123.853 197.631 123.848 197.673C123.838 197.76 123.838 197.921 123.894 198.168C124.011 198.681 124.329 199.4 124.937 200.279C126.149 202.029 128.257 204.049 131.013 205.828C133.769 207.606 136.479 208.695 138.572 209.078C139.624 209.27 140.41 209.264 140.925 209.159C141.174 209.108 141.321 209.042 141.396 208.997C141.432 208.975 141.45 208.959 141.459 208.951C141.466 208.944 141.469 208.94 141.469 208.94C141.47 208.939 141.472 208.935 141.475 208.925C141.479 208.915 141.486 208.891 141.491 208.849C141.501 208.762 141.501 208.601 141.444 208.354C141.328 207.841 141.01 207.122 140.401 206.243C139.19 204.493 137.082 202.473 134.326 200.694C131.57 198.916 128.86 197.827 126.767 197.445C125.715 197.252 124.929 197.258 124.414 197.364C124.165 197.414 124.018 197.481 123.943 197.525C123.907 197.547 123.888 197.563 123.88 197.571C123.873 197.578 123.87 197.582 123.87 197.583C123.869 197.583 123.867 197.587 123.864 197.597ZM120.203 195.217C121.01 193.966 122.291 193.344 123.541 193.089C124.781 192.836 126.165 192.899 127.551 193.152C130.333 193.66 133.575 195.017 136.692 197.028C139.808 199.039 142.38 201.434 143.99 203.76C144.792 204.919 145.419 206.153 145.699 207.388C145.982 208.632 145.943 210.055 145.136 211.306C144.328 212.556 143.048 213.178 141.798 213.433C140.557 213.686 139.174 213.624 137.788 213.37C135.006 212.862 131.764 211.505 128.647 209.494C125.531 207.483 122.959 205.088 121.349 202.762C120.547 201.604 119.92 200.369 119.64 199.134C119.357 197.89 119.396 196.467 120.203 195.217Z" stroke="black"/>
<path d="M123.864 197.597C123.86 197.608 123.853 197.631 123.848 197.673C123.838 197.76 123.838 197.921 123.894 198.168C124.011 198.681 124.329 199.4 124.937 200.279C126.149 202.029 128.257 204.049 131.013 205.828C133.769 207.606 136.479 208.695 138.572 209.078C139.624 209.27 140.41 209.264 140.925 209.159C141.174 209.108 141.321 209.042 141.396 208.997C141.432 208.975 141.45 208.959 141.459 208.951C141.466 208.944 141.469 208.94 141.469 208.94C141.47 208.939 141.472 208.935 141.475 208.925C141.479 208.915 141.486 208.891 141.491 208.849C141.501 208.762 141.501 208.601 141.444 208.354C141.328 207.841 141.01 207.122 140.401 206.243C139.19 204.493 137.082 202.473 134.326 200.694C131.57 198.916 128.86 197.827 126.767 197.445C125.715 197.252 124.929 197.258 124.414 197.364C124.165 197.414 124.018 197.481 123.943 197.525C123.907 197.547 123.888 197.563 123.88 197.571C123.873 197.578 123.87 197.582 123.87 197.583C123.869 197.583 123.867 197.587 123.864 197.597ZM120.203 195.217C121.01 193.966 122.291 193.344 123.541 193.089C124.781 192.836 126.165 192.899 127.551 193.152C130.333 193.66 133.575 195.017 136.692 197.028C139.808 199.039 142.38 201.434 143.99 203.76C144.792 204.919 145.419 206.153 145.699 207.388C145.982 208.632 145.943 210.055 145.136 211.306C144.328 212.556 143.048 213.178 141.798 213.433C140.557 213.686 139.174 213.624 137.788 213.37C135.006 212.862 131.764 211.505 128.647 209.494C125.531 207.483 122.959 205.088 121.349 202.762C120.547 201.604 119.92 200.369 119.64 199.134C119.357 197.89 119.396 196.467 120.203 195.217Z" stroke="black" stroke-opacity="0.2"/>
<path d="M138.944 113.018L162.601 154.232C171.188 169.192 168.745 188.042 156.629 200.32L151.448 205.57C144.677 212.431 133.626 212.505 126.764 205.734C119.903 198.963 119.83 187.912 126.601 181.05L131.782 175.8C132.883 174.684 133.105 172.97 132.325 171.61L118.731 147.927H117.13L108.262 168.217C107.962 168.903 107.89 169.667 108.058 170.397L115.235 201.618C117.395 211.013 111.529 220.38 102.135 222.54C92.7401 224.699 83.3738 218.834 81.2139 209.439L74.036 178.218C72.1906 170.191 72.976 161.782 76.275 154.235L94.2903 113.018H138.944Z" fill="url(#paint6_radial_111_2000)"/>
<path d="M138.944 113.018L162.601 154.232C171.188 169.192 168.745 188.042 156.629 200.32L151.448 205.57C144.677 212.431 133.626 212.505 126.764 205.734C119.903 198.963 119.83 187.912 126.601 181.05L131.782 175.8C132.883 174.684 133.105 172.97 132.325 171.61L118.731 147.927H117.13L108.262 168.217C107.962 168.903 107.89 169.667 108.058 170.397L115.235 201.618C117.395 211.013 111.529 220.38 102.135 222.54C92.7401 224.699 83.3738 218.834 81.2139 209.439L74.036 178.218C72.1906 170.191 72.976 161.782 76.275 154.235L94.2903 113.018H138.944Z" stroke="black" stroke-linecap="round"/>
<path d="M138.944 113.018L162.601 154.232C171.188 169.192 168.745 188.042 156.629 200.32L151.448 205.57C144.677 212.431 133.626 212.505 126.764 205.734C119.903 198.963 119.83 187.912 126.601 181.05L131.782 175.8C132.883 174.684 133.105 172.97 132.325 171.61L118.731 147.927H117.13L108.262 168.217C107.962 168.903 107.89 169.667 108.058 170.397L115.235 201.618C117.395 211.013 111.529 220.38 102.135 222.54C92.7401 224.699 83.3738 218.834 81.2139 209.439L74.036 178.218C72.1906 170.191 72.976 161.782 76.275 154.235L94.2903 113.018H138.944Z" stroke="black" stroke-opacity="0.2" stroke-linecap="round"/>
<path d="M152.834 86.0273L157.136 120.099C157.417 122.328 157.312 124.59 156.825 126.783C147.702 167.894 89.2175 168.234 79.6046 127.233C79.0226 124.751 78.9315 122.178 79.337 119.66L84.755 86.0273H152.834Z" fill="url(#paint7_linear_111_2000)"/>
<path d="M152.834 86.0273L157.136 120.099C157.417 122.328 157.312 124.59 156.825 126.783C147.702 167.894 89.2175 168.234 79.6046 127.233C79.0226 124.751 78.9315 122.178 79.337 119.66L84.755 86.0273H152.834Z" stroke="black"/>
<path d="M152.834 86.0273L157.136 120.099C157.417 122.328 157.312 124.59 156.825 126.783C147.702 167.894 89.2175 168.234 79.6046 127.233C79.0226 124.751 78.9315 122.178 79.337 119.66L84.755 86.0273H152.834Z" stroke="black" stroke-opacity="0.2"/>
<path d="M80.0534 108.699C90.1373 103.931 88.6967 94.6265 87.1575 90.5304L90.7038 91.0857C90.7038 91.0857 93.9501 97.8022 90.1942 104.714C87.9069 108.924 84.1699 111.477 81.5972 112.83C80.3947 113.463 79.1748 112.387 79.4897 111.066L80.0534 108.699Z" fill="url(#paint8_linear_111_2000)"/>
<path d="M80.0534 108.699C90.1373 103.931 88.6967 94.6265 87.1575 90.5304L90.7038 91.0857C90.7038 91.0857 93.9501 97.8022 90.1942 104.714C87.9069 108.924 84.1699 111.477 81.5972 112.83C80.3947 113.463 79.1748 112.387 79.4897 111.066L80.0534 108.699Z" stroke="black"/>
<path d="M80.0534 108.699C90.1373 103.931 88.6967 94.6265 87.1575 90.5304L90.7038 91.0857C90.7038 91.0857 93.9501 97.8022 90.1942 104.714C87.9069 108.924 84.1699 111.477 81.5972 112.83C80.3947 113.463 79.1748 112.387 79.4897 111.066L80.0534 108.699Z" stroke="black" stroke-opacity="0.2"/>
<path d="M157.441 108.699C147.357 103.931 148.798 94.6265 150.337 90.5304L146.791 91.0857C146.791 91.0857 143.544 97.8022 147.3 104.714C149.588 108.924 153.324 111.477 155.897 112.83C157.1 113.463 158.32 112.387 158.005 111.066L157.441 108.699Z" fill="url(#paint9_linear_111_2000)"/>
<path d="M157.441 108.699C147.357 103.931 148.798 94.6265 150.337 90.5304L146.791 91.0857C146.791 91.0857 143.544 97.8022 147.3 104.714C149.588 108.924 153.324 111.477 155.897 112.83C157.1 113.463 158.32 112.387 158.005 111.066L157.441 108.699Z" stroke="black"/>
<path d="M157.441 108.699C147.357 103.931 148.798 94.6265 150.337 90.5304L146.791 91.0857C146.791 91.0857 143.544 97.8022 147.3 104.714C149.588 108.924 153.324 111.477 155.897 112.83C157.1 113.463 158.32 112.387 158.005 111.066L157.441 108.699Z" stroke="black" stroke-opacity="0.2"/>
<path d="M223.909 71.3294C219.442 66.2722 211.721 65.794 206.663 70.2615C199.756 76.3632 197.727 78.0169 187.267 84.6564C183.784 86.8673 176.976 88.9247 163.922 85.299L163.617 85.218C157.211 83.6124 150.657 87.4011 148.879 93.8013C147.073 100.303 150.88 107.038 157.382 108.844L158.201 109.067C175.365 113.667 189.54 112.157 200.363 105.287C211.864 97.987 214.929 95.5643 222.841 88.5751C227.898 84.1076 228.376 76.3866 223.909 71.3294Z" fill="url(#paint10_radial_111_2000)"/>
<path d="M223.909 71.3294C219.442 66.2722 211.721 65.794 206.663 70.2615C199.756 76.3632 197.727 78.0169 187.267 84.6564C183.784 86.8673 176.976 88.9247 163.922 85.299L163.617 85.218C157.211 83.6124 150.657 87.4011 148.879 93.8013C147.073 100.303 150.88 107.038 157.382 108.844L158.201 109.067C175.365 113.667 189.54 112.157 200.363 105.287C211.864 97.987 214.929 95.5643 222.841 88.5751C227.898 84.1076 228.376 76.3866 223.909 71.3294Z" stroke="black" stroke-linecap="round"/>
<path d="M223.909 71.3294C219.442 66.2722 211.721 65.794 206.663 70.2615C199.756 76.3632 197.727 78.0169 187.267 84.6564C183.784 86.8673 176.976 88.9247 163.922 85.299L163.617 85.218C157.211 83.6124 150.657 87.4011 148.879 93.8013C147.073 100.303 150.88 107.038 157.382 108.844L158.201 109.067C175.365 113.667 189.54 112.157 200.363 105.287C211.864 97.987 214.929 95.5643 222.841 88.5751C227.898 84.1076 228.376 76.3866 223.909 71.3294Z" stroke="black" stroke-opacity="0.2" stroke-linecap="round"/>
<path d="M207.203 69.8665C205.32 72.0614 208.093 77.5298 213.397 82.0806C218.702 86.6314 224.528 88.5412 226.411 86.3463C228.294 84.1514 225.521 78.683 220.217 74.1322C214.912 69.5815 209.086 67.6716 207.203 69.8665Z" fill="url(#paint11_linear_111_2000)"/>
<path d="M207.203 69.8665C205.32 72.0614 208.093 77.5298 213.397 82.0806C218.702 86.6314 224.528 88.5412 226.411 86.3463C228.294 84.1514 225.521 78.683 220.217 74.1322C214.912 69.5815 209.086 67.6716 207.203 69.8665Z" stroke="black"/>
<path d="M207.203 69.8665C205.32 72.0614 208.093 77.5298 213.397 82.0806C218.702 86.6314 224.528 88.5412 226.411 86.3463C228.294 84.1514 225.521 78.683 220.217 74.1322C214.912 69.5815 209.086 67.6716 207.203 69.8665Z" stroke="black" stroke-opacity="0.2"/>
<path d="M208.871 71.2772C208.88 71.2707 208.901 71.257 208.939 71.2405C209.02 71.2063 209.174 71.1606 209.427 71.144C209.952 71.1097 210.731 71.2101 211.747 71.5432C213.77 72.2061 216.307 73.6525 218.796 75.7881C221.285 77.9238 223.101 80.2116 224.063 82.1094C224.547 83.0631 224.765 83.8182 224.81 84.3418C224.833 84.5949 224.811 84.7542 224.789 84.839C224.779 84.8796 224.768 84.9023 224.763 84.9123C224.759 84.9218 224.756 84.9249 224.755 84.9256C224.755 84.9264 224.752 84.9294 224.743 84.9356C224.734 84.9422 224.713 84.9558 224.675 84.9723C224.594 85.0066 224.44 85.0523 224.187 85.0688C223.662 85.1031 222.883 85.0027 221.867 84.6696C219.845 84.0068 217.307 82.5604 214.818 80.4247C212.329 78.289 210.513 76.0013 209.551 74.1034C209.067 73.1497 208.849 72.3947 208.804 71.871C208.781 71.6179 208.803 71.4586 208.825 71.3738C208.835 71.3332 208.846 71.3105 208.851 71.3005C208.855 71.291 208.858 71.2879 208.859 71.2872C208.859 71.2865 208.862 71.2834 208.871 71.2772ZM205.547 68.4458C204.578 69.5756 204.346 70.9798 204.457 72.2511C204.568 73.5123 205.022 74.8204 205.659 76.077C206.938 78.5997 209.162 81.3215 211.977 83.7365C214.792 86.1515 217.82 87.9354 220.508 88.8164C221.847 89.2553 223.208 89.505 224.472 89.4224C225.745 89.339 227.098 88.8968 228.067 87.767C229.036 86.6372 229.268 85.233 229.157 83.9617C229.046 82.7005 228.592 81.3924 227.955 80.1358C226.676 77.6131 224.452 74.8913 221.637 72.4763C218.822 70.0613 215.794 68.2775 213.106 67.3964C211.767 66.9576 210.406 66.7078 209.142 66.7905C207.869 66.8738 206.516 67.3161 205.547 68.4458Z" fill="url(#paint12_linear_111_2000)"/>
<path d="M208.871 71.2772C208.88 71.2707 208.901 71.257 208.939 71.2405C209.02 71.2063 209.174 71.1606 209.427 71.144C209.952 71.1097 210.731 71.2101 211.747 71.5432C213.77 72.2061 216.307 73.6525 218.796 75.7881C221.285 77.9238 223.101 80.2116 224.063 82.1094C224.547 83.0631 224.765 83.8182 224.81 84.3418C224.833 84.5949 224.811 84.7542 224.789 84.839C224.779 84.8796 224.768 84.9023 224.763 84.9123C224.759 84.9218 224.756 84.9249 224.755 84.9256C224.755 84.9264 224.752 84.9294 224.743 84.9356C224.734 84.9422 224.713 84.9558 224.675 84.9723C224.594 85.0066 224.44 85.0523 224.187 85.0688C223.662 85.1031 222.883 85.0027 221.867 84.6696C219.845 84.0068 217.307 82.5604 214.818 80.4247C212.329 78.289 210.513 76.0013 209.551 74.1034C209.067 73.1497 208.849 72.3947 208.804 71.871C208.781 71.6179 208.803 71.4586 208.825 71.3738C208.835 71.3332 208.846 71.3105 208.851 71.3005C208.855 71.291 208.858 71.2879 208.859 71.2872C208.859 71.2865 208.862 71.2834 208.871 71.2772ZM205.547 68.4458C204.578 69.5756 204.346 70.9798 204.457 72.2511C204.568 73.5123 205.022 74.8204 205.659 76.077C206.938 78.5997 209.162 81.3215 211.977 83.7365C214.792 86.1515 217.82 87.9354 220.508 88.8164C221.847 89.2553 223.208 89.505 224.472 89.4224C225.745 89.339 227.098 88.8968 228.067 87.767C229.036 86.6372 229.268 85.233 229.157 83.9617C229.046 82.7005 228.592 81.3924 227.955 80.1358C226.676 77.6131 224.452 74.8913 221.637 72.4763C218.822 70.0613 215.794 68.2775 213.106 67.3964C211.767 66.9576 210.406 66.7078 209.142 66.7905C207.869 66.8738 206.516 67.3161 205.547 68.4458Z" stroke="black"/>
<path d="M208.871 71.2772C208.88 71.2707 208.901 71.257 208.939 71.2405C209.02 71.2063 209.174 71.1606 209.427 71.144C209.952 71.1097 210.731 71.2101 211.747 71.5432C213.77 72.2061 216.307 73.6525 218.796 75.7881C221.285 77.9238 223.101 80.2116 224.063 82.1094C224.547 83.0631 224.765 83.8182 224.81 84.3418C224.833 84.5949 224.811 84.7542 224.789 84.839C224.779 84.8796 224.768 84.9023 224.763 84.9123C224.759 84.9218 224.756 84.9249 224.755 84.9256C224.755 84.9264 224.752 84.9294 224.743 84.9356C224.734 84.9422 224.713 84.9558 224.675 84.9723C224.594 85.0066 224.44 85.0523 224.187 85.0688C223.662 85.1031 222.883 85.0027 221.867 84.6696C219.845 84.0068 217.307 82.5604 214.818 80.4247C212.329 78.289 210.513 76.0013 209.551 74.1034C209.067 73.1497 208.849 72.3947 208.804 71.871C208.781 71.6179 208.803 71.4586 208.825 71.3738C208.835 71.3332 208.846 71.3105 208.851 71.3005C208.855 71.291 208.858 71.2879 208.859 71.2872C208.859 71.2865 208.862 71.2834 208.871 71.2772ZM205.547 68.4458C204.578 69.5756 204.346 70.9798 204.457 72.2511C204.568 73.5123 205.022 74.8204 205.659 76.077C206.938 78.5997 209.162 81.3215 211.977 83.7365C214.792 86.1515 217.82 87.9354 220.508 88.8164C221.847 89.2553 223.208 89.505 224.472 89.4224C225.745 89.339 227.098 88.8968 228.067 87.767C229.036 86.6372 229.268 85.233 229.157 83.9617C229.046 82.7005 228.592 81.3924 227.955 80.1358C226.676 77.6131 224.452 74.8913 221.637 72.4763C218.822 70.0613 215.794 68.2775 213.106 67.3964C211.767 66.9576 210.406 66.7078 209.142 66.7905C207.869 66.8738 206.516 67.3161 205.547 68.4458Z" stroke="black" stroke-opacity="0.2"/>
<path d="M229.221 62.9675C225.04 59.3812 218.744 59.8626 215.158 64.0427L212.127 67.5751C209.587 70.5359 209.928 74.9959 212.888 77.5361L217.304 81.3247C220.265 83.8647 224.725 83.5231 227.265 80.5624L230.296 77.0299C233.882 72.8498 233.401 66.5539 229.221 62.9675Z" fill="url(#paint13_linear_111_2000)"/>
<path d="M229.221 62.9675C225.04 59.3812 218.744 59.8626 215.158 64.0427L212.127 67.5751C209.587 70.5359 209.928 74.9959 212.888 77.5361L217.304 81.3247C220.265 83.8647 224.725 83.5231 227.265 80.5624L230.296 77.0299C233.882 72.8498 233.401 66.5539 229.221 62.9675Z" stroke="black"/>
<path d="M229.221 62.9675C225.04 59.3812 218.744 59.8626 215.158 64.0427L212.127 67.5751C209.587 70.5359 209.928 74.9959 212.888 77.5361L217.304 81.3247C220.265 83.8647 224.725 83.5231 227.265 80.5624L230.296 77.0299C233.882 72.8498 233.401 66.5539 229.221 62.9675Z" stroke="black" stroke-opacity="0.2"/>
<path d="M117.861 0.5C144.577 0.500149 166.233 22.1576 166.233 48.873C166.233 75.5884 144.576 97.245 117.861 97.2451C91.1456 97.2451 69.4882 75.5885 69.488 48.873C69.488 22.1575 91.1455 0.5 117.861 0.5Z" fill="url(#paint14_radial_111_2000)"/>
<path d="M117.861 0.5C144.577 0.500149 166.233 22.1576 166.233 48.873C166.233 75.5884 144.576 97.245 117.861 97.2451C91.1456 97.2451 69.4882 75.5885 69.488 48.873C69.488 22.1575 91.1455 0.5 117.861 0.5Z" stroke="black"/>
<path d="M117.861 0.5C144.577 0.500149 166.233 22.1576 166.233 48.873C166.233 75.5884 144.576 97.245 117.861 97.2451C91.1456 97.2451 69.4882 75.5885 69.488 48.873C69.488 22.1575 91.1455 0.5 117.861 0.5Z" stroke="black" stroke-opacity="0.2"/>
<path d="M13.5853 71.3294C18.0528 66.2722 25.7739 65.794 30.8311 70.2615C37.7382 76.3632 39.7675 78.0169 50.2271 84.6564C53.7102 86.8673 60.5185 88.9247 73.5726 85.299L73.8777 85.218C80.2838 83.6124 86.8376 87.4011 88.6152 93.8013C90.4211 100.303 86.6139 107.038 80.1121 108.844L79.2931 109.067C62.1292 113.667 47.954 112.157 37.1311 105.287C25.6304 97.987 22.565 95.5643 14.6532 88.5751C9.59604 84.1076 9.1179 76.3866 13.5853 71.3294Z" fill="url(#paint15_radial_111_2000)"/>
<path d="M13.5853 71.3294C18.0528 66.2722 25.7739 65.794 30.8311 70.2615C37.7382 76.3632 39.7675 78.0169 50.2271 84.6564C53.7102 86.8673 60.5185 88.9247 73.5726 85.299L73.8777 85.218C80.2838 83.6124 86.8376 87.4011 88.6152 93.8013C90.4211 100.303 86.6139 107.038 80.1121 108.844L79.2931 109.067C62.1292 113.667 47.954 112.157 37.1311 105.287C25.6304 97.987 22.565 95.5643 14.6532 88.5751C9.59604 84.1076 9.1179 76.3866 13.5853 71.3294Z" stroke="black" stroke-linecap="round"/>
<path d="M13.5853 71.3294C18.0528 66.2722 25.7739 65.794 30.8311 70.2615C37.7382 76.3632 39.7675 78.0169 50.2271 84.6564C53.7102 86.8673 60.5185 88.9247 73.5726 85.299L73.8777 85.218C80.2838 83.6124 86.8376 87.4011 88.6152 93.8013C90.4211 100.303 86.6139 107.038 80.1121 108.844L79.2931 109.067C62.1292 113.667 47.954 112.157 37.1311 105.287C25.6304 97.987 22.565 95.5643 14.6532 88.5751C9.59604 84.1076 9.1179 76.3866 13.5853 71.3294Z" stroke="black" stroke-opacity="0.2" stroke-linecap="round"/>
<path d="M118.066 10.9727C133.504 10.9729 146.914 18.1499 153.89 28.7032C155.222 30.718 154.846 33.3817 153.837 35.8048C152.699 38.5394 152.038 41.838 152.038 45.3819C152.038 48.9258 152.699 52.2246 153.837 54.9591C154.846 57.3819 155.222 60.045 153.89 62.0596C146.914 72.6134 133.505 79.791 118.066 79.7911C102.13 79.7911 88.3572 72.1442 81.5884 61.0313C80.4404 59.1466 80.7323 56.7406 81.5981 54.5147C82.6267 51.8706 83.2192 48.7363 83.2192 45.3819C83.2192 42.0272 82.6267 38.8925 81.5981 36.2481C80.7323 34.0221 80.4404 31.6164 81.5884 29.7315C88.2516 18.7929 101.701 11.2129 117.32 10.9786L118.066 10.9727Z" fill="url(#paint16_radial_111_2000)"/>
<path d="M118.066 10.9727C133.504 10.9729 146.914 18.1499 153.89 28.7032C155.222 30.718 154.846 33.3817 153.837 35.8048C152.699 38.5394 152.038 41.838 152.038 45.3819C152.038 48.9258 152.699 52.2246 153.837 54.9591C154.846 57.3819 155.222 60.045 153.89 62.0596C146.914 72.6134 133.505 79.791 118.066 79.7911C102.13 79.7911 88.3572 72.1442 81.5884 61.0313C80.4404 59.1466 80.7323 56.7406 81.5981 54.5147C82.6267 51.8706 83.2192 48.7363 83.2192 45.3819C83.2192 42.0272 82.6267 38.8925 81.5981 36.2481C80.7323 34.0221 80.4404 31.6164 81.5884 29.7315C88.2516 18.7929 101.701 11.2129 117.32 10.9786L118.066 10.9727Z" stroke="black"/>
<path d="M118.066 10.9727C133.504 10.9729 146.914 18.1499 153.89 28.7032C155.222 30.718 154.846 33.3817 153.837 35.8048C152.699 38.5394 152.038 41.838 152.038 45.3819C152.038 48.9258 152.699 52.2246 153.837 54.9591C154.846 57.3819 155.222 60.045 153.89 62.0596C146.914 72.6134 133.505 79.791 118.066 79.7911C102.13 79.7911 88.3572 72.1442 81.5884 61.0313C80.4404 59.1466 80.7323 56.7406 81.5981 54.5147C82.6267 51.8706 83.2192 48.7363 83.2192 45.3819C83.2192 42.0272 82.6267 38.8925 81.5981 36.2481C80.7323 34.0221 80.4404 31.6164 81.5884 29.7315C88.2516 18.7929 101.701 11.2129 117.32 10.9786L118.066 10.9727Z" stroke="black" stroke-opacity="0.2"/>
<path d="M118.065 10.9727C133.504 10.9727 146.914 18.1499 153.89 28.7032C155.222 30.718 154.846 33.3818 153.837 35.8048C152.699 38.5394 152.038 41.8381 152.038 45.3819C152.038 48.9255 152.699 52.2237 153.837 54.9581C154.329 56.1389 154.676 57.3953 154.738 58.6075C147.81 63.1284 139.105 65.8272 129.642 65.8272C106.94 65.827 88.688 50.3445 88.688 31.418C88.6881 27.1757 89.6049 23.1136 91.2779 19.3595C98.228 14.303 107.228 11.1741 117.102 10.9825L118.065 10.9727Z" fill="url(#paint17_radial_111_2000)"/>
<path d="M118.065 10.9727C133.504 10.9727 146.914 18.1499 153.89 28.7032C155.222 30.718 154.846 33.3818 153.837 35.8048C152.699 38.5394 152.038 41.8381 152.038 45.3819C152.038 48.9255 152.699 52.2237 153.837 54.9581C154.329 56.1389 154.676 57.3953 154.738 58.6075C147.81 63.1284 139.105 65.8272 129.642 65.8272C106.94 65.827 88.688 50.3445 88.688 31.418C88.6881 27.1757 89.6049 23.1136 91.2779 19.3595C98.228 14.303 107.228 11.1741 117.102 10.9825L118.065 10.9727Z" stroke="black"/>
<path d="M118.065 10.9727C133.504 10.9727 146.914 18.1499 153.89 28.7032C155.222 30.718 154.846 33.3818 153.837 35.8048C152.699 38.5394 152.038 41.8381 152.038 45.3819C152.038 48.9255 152.699 52.2237 153.837 54.9581C154.329 56.1389 154.676 57.3953 154.738 58.6075C147.81 63.1284 139.105 65.8272 129.642 65.8272C106.94 65.827 88.688 50.3445 88.688 31.418C88.6881 27.1757 89.6049 23.1136 91.2779 19.3595C98.228 14.303 107.228 11.1741 117.102 10.9825L118.065 10.9727Z" stroke="black" stroke-opacity="0.2"/>
<path d="M165.426 30.1728C171.174 30.1728 175.833 34.8325 175.833 40.58V50.1845C175.833 55.9319 171.174 60.5907 165.426 60.5907C161.611 60.5905 158.279 58.0077 157.329 54.3124L156.789 52.2138C155.636 47.7321 155.636 43.0314 156.789 38.5497L157.329 36.4521C158.279 32.7566 161.611 30.173 165.426 30.1728Z" fill="url(#paint18_linear_111_2000)"/>
<path d="M165.426 30.1728C171.174 30.1728 175.833 34.8325 175.833 40.58V50.1845C175.833 55.9319 171.174 60.5907 165.426 60.5907C161.611 60.5905 158.279 58.0077 157.329 54.3124L156.789 52.2138C155.636 47.7321 155.636 43.0314 156.789 38.5497L157.329 36.4521C158.279 32.7566 161.611 30.173 165.426 30.1728Z" stroke="black"/>
<path d="M165.426 30.1728C171.174 30.1728 175.833 34.8325 175.833 40.58V50.1845C175.833 55.9319 171.174 60.5907 165.426 60.5907C161.611 60.5905 158.279 58.0077 157.329 54.3124L156.789 52.2138C155.636 47.7321 155.636 43.0314 156.789 38.5497L157.329 36.4521C158.279 32.7566 161.611 30.173 165.426 30.1728Z" stroke="black" stroke-opacity="0.2"/>
<path d="M70.2953 30.1728C64.5478 30.1728 59.8881 34.8325 59.8881 40.58V50.1845C59.8882 55.9319 64.5479 60.5907 70.2953 60.5907C74.1108 60.5905 77.4423 58.0077 78.3929 54.3124L78.933 52.2138C80.0857 47.7321 80.0857 43.0314 78.933 38.5497L78.3929 36.4521C77.4425 32.7566 74.111 30.173 70.2953 30.1728Z" fill="url(#paint19_linear_111_2000)"/>
<path d="M70.2953 30.1728C64.5478 30.1728 59.8881 34.8325 59.8881 40.58V50.1845C59.8882 55.9319 64.5479 60.5907 70.2953 60.5907C74.1108 60.5905 77.4423 58.0077 78.3929 54.3124L78.933 52.2138C80.0857 47.7321 80.0857 43.0314 78.933 38.5497L78.3929 36.4521C77.4425 32.7566 74.111 30.173 70.2953 30.1728Z" stroke="black"/>
<path d="M70.2953 30.1728C64.5478 30.1728 59.8881 34.8325 59.8881 40.58V50.1845C59.8882 55.9319 64.5479 60.5907 70.2953 60.5907C74.1108 60.5905 77.4423 58.0077 78.3929 54.3124L78.933 52.2138C80.0857 47.7321 80.0857 43.0314 78.933 38.5497L78.3929 36.4521C77.4425 32.7566 74.111 30.173 70.2953 30.1728Z" stroke="black" stroke-opacity="0.2"/>
<path d="M77.8742 79.1832C78.2804 78.856 79.0005 78.7404 79.9894 79.191C86.7488 82.2712 100.917 87.9419 117.861 87.942C134.804 87.942 148.973 82.2712 155.733 79.191C156.721 78.7406 157.441 78.8562 157.847 79.1832C158.254 79.5109 158.522 80.1925 158.296 81.2564C157.345 85.7436 155.456 89.8374 151.574 91.9547C144.901 95.5953 132.727 99.8639 117.861 99.8639C102.994 99.8638 90.8204 95.5953 84.1467 91.9547C80.2654 89.8374 78.3772 85.7436 77.426 81.2564C77.2005 80.1926 77.4675 79.511 77.8742 79.1832Z" fill="url(#paint20_linear_111_2000)"/>
<path d="M77.8742 79.1832C78.2804 78.856 79.0005 78.7404 79.9894 79.191C86.7488 82.2712 100.917 87.9419 117.861 87.942C134.804 87.942 148.973 82.2712 155.733 79.191C156.721 78.7406 157.441 78.8562 157.847 79.1832C158.254 79.5109 158.522 80.1925 158.296 81.2564C157.345 85.7436 155.456 89.8374 151.574 91.9547C144.901 95.5953 132.727 99.8639 117.861 99.8639C102.994 99.8638 90.8204 95.5953 84.1467 91.9547C80.2654 89.8374 78.3772 85.7436 77.426 81.2564C77.2005 80.1926 77.4675 79.511 77.8742 79.1832Z" stroke="black"/>
<path d="M77.8742 79.1832C78.2804 78.856 79.0005 78.7404 79.9894 79.191C86.7488 82.2712 100.917 87.9419 117.861 87.942C134.804 87.942 148.973 82.2712 155.733 79.191C156.721 78.7406 157.441 78.8562 157.847 79.1832C158.254 79.5109 158.522 80.1925 158.296 81.2564C157.345 85.7436 155.456 89.8374 151.574 91.9547C144.901 95.5953 132.727 99.8639 117.861 99.8639C102.994 99.8638 90.8204 95.5953 84.1467 91.9547C80.2654 89.8374 78.3772 85.7436 77.426 81.2564C77.2005 80.1926 77.4675 79.511 77.8742 79.1832Z" stroke="black" stroke-opacity="0.2"/>
<path d="M110.76 109.591H127.58C130.779 109.591 133.5 111.925 133.986 115.087L135.329 123.815C135.933 127.741 132.895 131.282 128.923 131.282H109.417C105.445 131.282 102.407 127.741 103.011 123.815L104.354 115.087C104.84 111.925 107.561 109.591 110.76 109.591Z" fill="url(#paint21_radial_111_2000)"/>
<path d="M110.76 109.591H127.58C130.779 109.591 133.5 111.925 133.986 115.087L135.329 123.815C135.933 127.741 132.895 131.282 128.923 131.282H109.417C105.445 131.282 102.407 127.741 103.011 123.815L104.354 115.087C104.84 111.925 107.561 109.591 110.76 109.591Z" stroke="black"/>
<path d="M110.76 109.591H127.58C130.779 109.591 133.5 111.925 133.986 115.087L135.329 123.815C135.933 127.741 132.895 131.282 128.923 131.282H109.417C105.445 131.282 102.407 127.741 103.011 123.815L104.354 115.087C104.84 111.925 107.561 109.591 110.76 109.591Z" stroke="black" stroke-opacity="0.2"/>
<path d="M162.096 65.4757C163.241 64.9613 164.097 65.0915 164.59 65.4933C165.084 65.8958 165.388 66.7107 165.123 67.9386C164.008 73.1151 161.795 77.8463 157.277 80.2774C149.488 84.4683 135.251 89.3907 117.861 89.3907C100.47 89.3907 86.2334 84.4683 78.4446 80.2774C73.9264 77.8463 71.7129 73.1151 70.598 67.9386C70.3335 66.7106 70.6378 65.8958 71.1321 65.4933C71.6257 65.0916 72.4806 64.9614 73.6253 65.4757C81.4711 69.001 98.0374 75.5547 117.861 75.5548C137.684 75.5548 154.25 69.001 162.096 65.4757Z" fill="url(#paint22_linear_111_2000)"/>
<path d="M162.096 65.4757C163.241 64.9613 164.097 65.0915 164.59 65.4933C165.084 65.8958 165.388 66.7107 165.123 67.9386C164.008 73.1151 161.795 77.8463 157.277 80.2774C149.488 84.4683 135.251 89.3907 117.861 89.3907C100.47 89.3907 86.2334 84.4683 78.4446 80.2774C73.9264 77.8463 71.7129 73.1151 70.598 67.9386C70.3335 66.7106 70.6378 65.8958 71.1321 65.4933C71.6257 65.0916 72.4806 64.9614 73.6253 65.4757C81.4711 69.001 98.0374 75.5547 117.861 75.5548C137.684 75.5548 154.25 69.001 162.096 65.4757Z" stroke="black"/>
<path d="M162.096 65.4757C163.241 64.9613 164.097 65.0915 164.59 65.4933C165.084 65.8958 165.388 66.7107 165.123 67.9386C164.008 73.1151 161.795 77.8463 157.277 80.2774C149.488 84.4683 135.251 89.3907 117.861 89.3907C100.47 89.3907 86.2334 84.4683 78.4446 80.2774C73.9264 77.8463 71.7129 73.1151 70.598 67.9386C70.3335 66.7106 70.6378 65.8958 71.1321 65.4933C71.6257 65.0916 72.4806 64.9614 73.6253 65.4757C81.4711 69.001 98.0374 75.5547 117.861 75.5548C137.684 75.5548 154.25 69.001 162.096 65.4757Z" stroke="black" stroke-opacity="0.2"/>
<path d="M149.576 133.048C152.4 132.019 155.056 130.79 157.371 129.336C159.386 128.07 160.246 125.657 159.91 123.301L159.491 120.364C159.213 118.414 156.921 117.409 155.154 118.28C153.111 119.287 150.822 120.152 148.406 120.89C140.306 123.366 129.505 124.8 117.861 124.8C106.216 124.8 95.4157 123.366 87.3153 120.89C84.8995 120.152 82.6112 119.287 80.5678 118.28C78.8008 117.409 76.509 118.415 76.2312 120.365L75.8129 123.302C75.4773 125.657 76.3374 128.069 78.3519 129.335C80.6667 130.79 83.3232 132.019 86.1477 133.048C94.558 136.115 105.772 137.891 117.862 137.891C129.952 137.891 141.165 136.115 149.576 133.048Z" fill="url(#paint23_linear_111_2000)"/>
<path d="M149.576 133.048C152.4 132.019 155.056 130.79 157.371 129.336C159.386 128.07 160.246 125.657 159.91 123.301L159.491 120.364C159.213 118.414 156.921 117.409 155.154 118.28C153.111 119.287 150.822 120.152 148.406 120.89C140.306 123.366 129.505 124.8 117.861 124.8C106.216 124.8 95.4157 123.366 87.3153 120.89C84.8995 120.152 82.6112 119.287 80.5678 118.28C78.8008 117.409 76.509 118.415 76.2312 120.365L75.8129 123.302C75.4773 125.657 76.3374 128.069 78.3519 129.335C80.6667 130.79 83.3232 132.019 86.1477 133.048C94.558 136.115 105.772 137.891 117.862 137.891C129.952 137.891 141.165 136.115 149.576 133.048Z" stroke="black"/>
<path d="M149.576 133.048C152.4 132.019 155.056 130.79 157.371 129.336C159.386 128.07 160.246 125.657 159.91 123.301L159.491 120.364C159.213 118.414 156.921 117.409 155.154 118.28C153.111 119.287 150.822 120.152 148.406 120.89C140.306 123.366 129.505 124.8 117.861 124.8C106.216 124.8 95.4157 123.366 87.3153 120.89C84.8995 120.152 82.6112 119.287 80.5678 118.28C78.8008 117.409 76.509 118.415 76.2312 120.365L75.8129 123.302C75.4773 125.657 76.3374 128.069 78.3519 129.335C80.6667 130.79 83.3232 132.019 86.1477 133.048C94.558 136.115 105.772 137.891 117.862 137.891C129.952 137.891 141.165 136.115 149.576 133.048Z" stroke="black" stroke-opacity="0.2"/>
<path d="M153.421 137.971C146.788 148.012 131.375 156.138 123.298 158.159C122.698 158.309 122.299 158.883 122.393 159.494C122.781 162.02 125.159 163.766 127.611 163.047C139.859 159.459 151.764 149.737 156.672 143.862C158.252 141.971 157.765 139.395 156.022 137.653C155.271 136.902 154.006 137.085 153.421 137.971Z" fill="url(#paint24_linear_111_2000)"/>
<path d="M153.421 137.971C146.788 148.012 131.375 156.138 123.298 158.159C122.698 158.309 122.299 158.883 122.393 159.494C122.781 162.02 125.159 163.766 127.611 163.047C139.859 159.459 151.764 149.737 156.672 143.862C158.252 141.971 157.765 139.395 156.022 137.653C155.271 136.902 154.006 137.085 153.421 137.971Z" stroke="black" stroke-linecap="round"/>
<path d="M153.421 137.971C146.788 148.012 131.375 156.138 123.298 158.159C122.698 158.309 122.299 158.883 122.393 159.494C122.781 162.02 125.159 163.766 127.611 163.047C139.859 159.459 151.764 149.737 156.672 143.862C158.252 141.971 157.765 139.395 156.022 137.653C155.271 136.902 154.006 137.085 153.421 137.971Z" stroke="black" stroke-opacity="0.2" stroke-linecap="round"/>
<path d="M83.1737 137.971C89.8066 148.012 105.22 156.138 113.297 158.159C113.897 158.309 114.296 158.883 114.202 159.494C113.813 162.02 111.436 163.766 108.983 163.047C96.7356 159.459 84.8303 149.737 79.9221 143.862C78.342 141.971 78.8292 139.395 80.5719 137.653C81.323 136.902 82.5882 137.085 83.1737 137.971Z" fill="url(#paint25_linear_111_2000)"/>
<path d="M83.1737 137.971C89.8066 148.012 105.22 156.138 113.297 158.159C113.897 158.309 114.296 158.883 114.202 159.494C113.813 162.02 111.436 163.766 108.983 163.047C96.7356 159.459 84.8303 149.737 79.9221 143.862C78.342 141.971 78.8292 139.395 80.5719 137.653C81.323 136.902 82.5882 137.085 83.1737 137.971Z" stroke="black" stroke-linecap="round"/>
<path d="M83.1737 137.971C89.8066 148.012 105.22 156.138 113.297 158.159C113.897 158.309 114.296 158.883 114.202 159.494C113.813 162.02 111.436 163.766 108.983 163.047C96.7356 159.459 84.8303 149.737 79.9221 143.862C78.342 141.971 78.8292 139.395 80.5719 137.653C81.323 136.902 82.5882 137.085 83.1737 137.971Z" stroke="black" stroke-opacity="0.2" stroke-linecap="round"/>
<path d="M30.2917 69.8665C32.1748 72.0614 29.4014 77.5298 24.0971 82.0806C18.7928 86.6314 12.9663 88.5412 11.0832 86.3463C9.20012 84.1514 11.9736 78.683 17.2778 74.1322C22.5821 69.5815 28.4086 67.6716 30.2917 69.8665Z" fill="url(#paint26_linear_111_2000)"/>
<path d="M30.2917 69.8665C32.1748 72.0614 29.4014 77.5298 24.0971 82.0806C18.7928 86.6314 12.9663 88.5412 11.0832 86.3463C9.20012 84.1514 11.9736 78.683 17.2778 74.1322C22.5821 69.5815 28.4086 67.6716 30.2917 69.8665Z" stroke="black"/>
<path d="M30.2917 69.8665C32.1748 72.0614 29.4014 77.5298 24.0971 82.0806C18.7928 86.6314 12.9663 88.5412 11.0832 86.3463C9.20012 84.1514 11.9736 78.683 17.2778 74.1322C22.5821 69.5815 28.4086 67.6716 30.2917 69.8665Z" stroke="black" stroke-opacity="0.2"/>
<path d="M28.6238 71.2772C28.6146 71.2707 28.5938 71.257 28.5553 71.2405C28.4748 71.2063 28.3206 71.1606 28.0671 71.144C27.5425 71.1097 26.7631 71.2101 25.747 71.5432C23.7249 72.2061 21.1878 73.6525 18.6984 75.7881C16.2091 77.9238 14.3938 80.2116 13.4312 82.1094C12.9476 83.0631 12.7298 83.8182 12.6839 84.3418C12.6618 84.5949 12.6835 84.7542 12.7052 84.839C12.7155 84.8796 12.7259 84.9023 12.731 84.9123C12.7358 84.9218 12.7384 84.9249 12.739 84.9256C12.7397 84.9264 12.7423 84.9294 12.751 84.9356C12.7601 84.9422 12.7809 84.9558 12.8195 84.9723C12.9 85.0066 13.0542 85.0523 13.3077 85.0688C13.8322 85.1031 14.6116 85.0027 15.6277 84.6696C17.6499 84.0068 20.187 82.5604 22.6763 80.4247C25.1656 78.289 26.9809 76.0013 27.9435 74.1034C28.4272 73.1497 28.645 72.3947 28.6908 71.871C28.713 71.6179 28.6912 71.4586 28.6696 71.3738C28.6592 71.3332 28.6489 71.3105 28.6438 71.3005C28.639 71.291 28.6364 71.2879 28.6357 71.2872C28.6351 71.2865 28.6324 71.2834 28.6238 71.2772ZM31.9475 68.4458C32.9168 69.5756 33.1483 70.9798 33.0371 72.2511C32.9267 73.5123 32.4728 74.8204 31.8355 76.077C30.5561 78.5997 28.3325 81.3215 25.5177 83.7365C22.7028 86.1515 19.6746 87.9354 16.9867 88.8164C15.6479 89.2553 14.2859 89.505 13.0226 89.4224C11.7492 89.339 10.3965 88.8968 9.42721 87.767C8.45794 86.6372 8.22646 85.233 8.33769 83.9617C8.44804 82.7005 8.90197 81.3924 9.53925 80.1358C10.8187 77.6131 13.0422 74.8913 15.8571 72.4763C18.672 70.0613 21.7002 68.2775 24.3881 67.3964C25.7269 66.9576 27.0889 66.7078 28.3522 66.7905C29.6256 66.8738 30.9783 67.3161 31.9475 68.4458Z" fill="url(#paint27_linear_111_2000)"/>
<path d="M28.6238 71.2772C28.6146 71.2707 28.5938 71.257 28.5553 71.2405C28.4748 71.2063 28.3206 71.1606 28.0671 71.144C27.5425 71.1097 26.7631 71.2101 25.747 71.5432C23.7249 72.2061 21.1878 73.6525 18.6984 75.7881C16.2091 77.9238 14.3938 80.2116 13.4312 82.1094C12.9476 83.0631 12.7298 83.8182 12.6839 84.3418C12.6618 84.5949 12.6835 84.7542 12.7052 84.839C12.7155 84.8796 12.7259 84.9023 12.731 84.9123C12.7358 84.9218 12.7384 84.9249 12.739 84.9256C12.7397 84.9264 12.7423 84.9294 12.751 84.9356C12.7601 84.9422 12.7809 84.9558 12.8195 84.9723C12.9 85.0066 13.0542 85.0523 13.3077 85.0688C13.8322 85.1031 14.6116 85.0027 15.6277 84.6696C17.6499 84.0068 20.187 82.5604 22.6763 80.4247C25.1656 78.289 26.9809 76.0013 27.9435 74.1034C28.4272 73.1497 28.645 72.3947 28.6908 71.871C28.713 71.6179 28.6912 71.4586 28.6696 71.3738C28.6592 71.3332 28.6489 71.3105 28.6438 71.3005C28.639 71.291 28.6364 71.2879 28.6357 71.2872C28.6351 71.2865 28.6324 71.2834 28.6238 71.2772ZM31.9475 68.4458C32.9168 69.5756 33.1483 70.9798 33.0371 72.2511C32.9267 73.5123 32.4728 74.8204 31.8355 76.077C30.5561 78.5997 28.3325 81.3215 25.5177 83.7365C22.7028 86.1515 19.6746 87.9354 16.9867 88.8164C15.6479 89.2553 14.2859 89.505 13.0226 89.4224C11.7492 89.339 10.3965 88.8968 9.42721 87.767C8.45794 86.6372 8.22646 85.233 8.33769 83.9617C8.44804 82.7005 8.90197 81.3924 9.53925 80.1358C10.8187 77.6131 13.0422 74.8913 15.8571 72.4763C18.672 70.0613 21.7002 68.2775 24.3881 67.3964C25.7269 66.9576 27.0889 66.7078 28.3522 66.7905C29.6256 66.8738 30.9783 67.3161 31.9475 68.4458Z" stroke="black"/>
<path d="M28.6238 71.2772C28.6146 71.2707 28.5938 71.257 28.5553 71.2405C28.4748 71.2063 28.3206 71.1606 28.0671 71.144C27.5425 71.1097 26.7631 71.2101 25.747 71.5432C23.7249 72.2061 21.1878 73.6525 18.6984 75.7881C16.2091 77.9238 14.3938 80.2116 13.4312 82.1094C12.9476 83.0631 12.7298 83.8182 12.6839 84.3418C12.6618 84.5949 12.6835 84.7542 12.7052 84.839C12.7155 84.8796 12.7259 84.9023 12.731 84.9123C12.7358 84.9218 12.7384 84.9249 12.739 84.9256C12.7397 84.9264 12.7423 84.9294 12.751 84.9356C12.7601 84.9422 12.7809 84.9558 12.8195 84.9723C12.9 85.0066 13.0542 85.0523 13.3077 85.0688C13.8322 85.1031 14.6116 85.0027 15.6277 84.6696C17.6499 84.0068 20.187 82.5604 22.6763 80.4247C25.1656 78.289 26.9809 76.0013 27.9435 74.1034C28.4272 73.1497 28.645 72.3947 28.6908 71.871C28.713 71.6179 28.6912 71.4586 28.6696 71.3738C28.6592 71.3332 28.6489 71.3105 28.6438 71.3005C28.639 71.291 28.6364 71.2879 28.6357 71.2872C28.6351 71.2865 28.6324 71.2834 28.6238 71.2772ZM31.9475 68.4458C32.9168 69.5756 33.1483 70.9798 33.0371 72.2511C32.9267 73.5123 32.4728 74.8204 31.8355 76.077C30.5561 78.5997 28.3325 81.3215 25.5177 83.7365C22.7028 86.1515 19.6746 87.9354 16.9867 88.8164C15.6479 89.2553 14.2859 89.505 13.0226 89.4224C11.7492 89.339 10.3965 88.8968 9.42721 87.767C8.45794 86.6372 8.22646 85.233 8.33769 83.9617C8.44804 82.7005 8.90197 81.3924 9.53925 80.1358C10.8187 77.6131 13.0422 74.8913 15.8571 72.4763C18.672 70.0613 21.7002 68.2775 24.3881 67.3964C25.7269 66.9576 27.0889 66.7078 28.3522 66.7905C29.6256 66.8738 30.9783 67.3161 31.9475 68.4458Z" stroke="black" stroke-opacity="0.2"/>
<path d="M8.27386 62.9675C12.454 59.3812 18.7499 59.8626 22.3363 64.0427L25.3669 67.5751C27.9071 70.5359 27.5668 74.9959 24.606 77.5361L20.1901 81.3247C17.2293 83.8647 12.7694 83.5231 10.2293 80.5624L7.19865 77.0299C3.61238 72.8498 4.09377 66.5539 8.27386 62.9675Z" fill="url(#paint28_linear_111_2000)"/>
<path d="M8.27386 62.9675C12.454 59.3812 18.7499 59.8626 22.3363 64.0427L25.3669 67.5751C27.9071 70.5359 27.5668 74.9959 24.606 77.5361L20.1901 81.3247C17.2293 83.8647 12.7694 83.5231 10.2293 80.5624L7.19865 77.0299C3.61238 72.8498 4.09377 66.5539 8.27386 62.9675Z" stroke="black"/>
<path d="M8.27386 62.9675C12.454 59.3812 18.7499 59.8626 22.3363 64.0427L25.3669 67.5751C27.9071 70.5359 27.5668 74.9959 24.606 77.5361L20.1901 81.3247C17.2293 83.8647 12.7694 83.5231 10.2293 80.5624L7.19865 77.0299C3.61238 72.8498 4.09377 66.5539 8.27386 62.9675Z" stroke="black" stroke-opacity="0.2"/>
<path d="M112.624 113.955C114.758 113.955 116.488 115.684 116.488 117.818C116.488 119.952 114.758 121.682 112.624 121.682C110.49 121.682 108.761 119.952 108.761 117.818C108.761 115.684 110.491 113.955 112.624 113.955Z" fill="url(#paint29_radial_111_2000)"/>
<path d="M112.624 113.955C114.758 113.955 116.488 115.684 116.488 117.818C116.488 119.952 114.758 121.682 112.624 121.682C110.49 121.682 108.761 119.952 108.761 117.818C108.761 115.684 110.491 113.955 112.624 113.955Z" stroke="black"/>
<path d="M112.624 113.955C114.758 113.955 116.488 115.684 116.488 117.818C116.488 119.952 114.758 121.682 112.624 121.682C110.49 121.682 108.761 119.952 108.761 117.818C108.761 115.684 110.491 113.955 112.624 113.955Z" stroke="black" stroke-opacity="0.2"/>
<path d="M121.352 115.7C122.522 115.7 123.47 116.648 123.47 117.818C123.47 118.988 122.522 119.936 121.352 119.936C120.182 119.936 119.234 118.988 119.234 117.818C119.234 116.648 120.182 115.7 121.352 115.7Z" fill="url(#paint30_radial_111_2000)"/>
<path d="M121.352 115.7C122.522 115.7 123.47 116.648 123.47 117.818C123.47 118.988 122.522 119.936 121.352 119.936C120.182 119.936 119.234 118.988 119.234 117.818C119.234 116.648 120.182 115.7 121.352 115.7Z" stroke="black"/>
<path d="M121.352 115.7C122.522 115.7 123.47 116.648 123.47 117.818C123.47 118.988 122.522 119.936 121.352 119.936C120.182 119.936 119.234 118.988 119.234 117.818C119.234 116.648 120.182 115.7 121.352 115.7Z" stroke="black" stroke-opacity="0.2"/>
<path d="M128.333 115.7C129.503 115.7 130.452 116.648 130.452 117.818C130.452 118.988 129.503 119.936 128.333 119.936C127.164 119.936 126.215 118.988 126.215 117.818C126.215 116.648 127.164 115.7 128.333 115.7Z" fill="url(#paint31_radial_111_2000)"/>
<path d="M128.333 115.7C129.503 115.7 130.452 116.648 130.452 117.818C130.452 118.988 129.503 119.936 128.333 119.936C127.164 119.936 126.215 118.988 126.215 117.818C126.215 116.648 127.164 115.7 128.333 115.7Z" stroke="black"/>
<path d="M128.333 115.7C129.503 115.7 130.452 116.648 130.452 117.818C130.452 118.988 129.503 119.936 128.333 119.936C127.164 119.936 126.215 118.988 126.215 117.818C126.215 116.648 127.164 115.7 128.333 115.7Z" stroke="black" stroke-opacity="0.2"/>
<path d="M135.202 21.9674L133.203 21.4161C131.069 20.8273 129.113 22.8013 129.721 24.93L130.993 29.3809C131.53 31.262 132.706 32.8971 134.318 34.0055L138.595 36.9456C141.866 39.1943 146.355 37.165 146.828 33.224C147 31.792 146.578 30.352 145.662 29.2386L144.804 28.1971C142.321 25.1818 138.967 23.0062 135.202 21.9674Z" fill="white" fill-opacity="0.5"/>
<path d="M135.202 21.9674L133.203 21.4161C131.069 20.8273 129.113 22.8013 129.721 24.93L130.993 29.3809C131.53 31.262 132.706 32.8971 134.318 34.0055L138.595 36.9456C141.866 39.1943 146.355 37.165 146.828 33.224C147 31.792 146.578 30.352 145.662 29.2386L144.804 28.1971C142.321 25.1818 138.967 23.0062 135.202 21.9674Z" stroke="black"/>
<path d="M135.202 21.9674L133.203 21.4161C131.069 20.8273 129.113 22.8013 129.721 24.93L130.993 29.3809C131.53 31.262 132.706 32.8971 134.318 34.0055L138.595 36.9456C141.866 39.1943 146.355 37.165 146.828 33.224C147 31.792 146.578 30.352 145.662 29.2386L144.804 28.1971C142.321 25.1818 138.967 23.0062 135.202 21.9674Z" stroke="black" stroke-opacity="0.2"/>
</g>
<defs>
<filter id="filter0_d_111_2000" x="0.294678" y="0" width="236.905" height="245.649" filterUnits="userSpaceOnUse" color-interpolation-filters="sRGB">
<feFlood flood-opacity="0" result="BackgroundImageFix"/>
<feColorMatrix in="SourceAlpha" type="matrix" values="0 0 0 0 0 0 0 0 0 0 0 0 0 0 0 0 0 0 127 0" result="hardAlpha"/>
<feOffset dy="4"/>
<feGaussianBlur stdDeviation="2"/>
<feComposite in2="hardAlpha" operator="out"/>
<feColorMatrix type="matrix" values="0 0 0 0 0 0 0 0 0 0 0 0 0 0 0 0 0 0 0.25 0"/>
<feBlend mode="normal" in2="BackgroundImageFix" result="effect1_dropShadow_111_2000"/>
<feBlend mode="normal" in="SourceGraphic" in2="effect1_dropShadow_111_2000" result="shape"/>
</filter>
<linearGradient id="paint0_linear_111_2000" x1="106.538" y1="237.289" x2="100.665" y2="215.372" gradientUnits="userSpaceOnUse">
<stop stop-color="#A6F9E1"/>
<stop offset="1" stop-color="#4ED0AA"/>
</linearGradient>
<linearGradient id="paint1_linear_111_2000" x1="121.423" y1="219.889" x2="133.726" y2="200.824" gradientUnits="userSpaceOnUse">
<stop stop-color="#A6F9E1"/>
<stop offset="1" stop-color="#4ED0AA"/>
</linearGradient>
<linearGradient id="paint2_linear_111_2000" x1="103.121" y1="222.846" x2="100.411" y2="212.73" gradientUnits="userSpaceOnUse">
<stop stop-color="#3618A3"/>
<stop offset="1" stop-color="#5E35F1"/>
</linearGradient>
<linearGradient id="paint3_linear_111_2000" x1="103.122" y1="222.846" x2="100.411" y2="212.73" gradientUnits="userSpaceOnUse">
<stop stop-color="#A187FF"/>
<stop offset="1" stop-color="#4823CF"/>
</linearGradient>
<linearGradient id="paint4_linear_111_2000" x1="129.83" y1="207.661" x2="135.509" y2="198.861" gradientUnits="userSpaceOnUse">
<stop stop-color="#3618A3"/>
<stop offset="1" stop-color="#5E35F1"/>
</linearGradient>
<linearGradient id="paint5_linear_111_2000" x1="129.83" y1="207.661" x2="135.509" y2="198.861" gradientUnits="userSpaceOnUse">
<stop stop-color="#A187FF"/>
<stop offset="1" stop-color="#4823CF"/>
</linearGradient>
<radialGradient id="paint6_radial_111_2000" cx="0" cy="0" r="1" gradientUnits="userSpaceOnUse" gradientTransform="translate(122.224 146.618) rotate(73.9577) scale(71.3201 86.015)">
<stop offset="0.197115" stop-color="#87EFD0"/>
<stop offset="1" stop-color="#7B56FF"/>
</radialGradient>
<linearGradient id="paint7_linear_111_2000" x1="113.497" y1="61.091" x2="104.77" y2="168" gradientUnits="userSpaceOnUse">
<stop offset="0.139111" stop-color="#5E35F1"/>
<stop offset="0.581145" stop-color="#EFEAFF"/>
<stop offset="0.895219" stop-color="#4ED0AA"/>
</linearGradient>
<linearGradient id="paint8_linear_111_2000" x1="84.067" y1="90.8101" x2="86.1126" y2="113.409" gradientUnits="userSpaceOnUse">
<stop stop-color="#4823CF"/>
<stop offset="1" stop-color="#A187FF"/>
</linearGradient>
<linearGradient id="paint9_linear_111_2000" x1="153.427" y1="90.8101" x2="151.382" y2="113.409" gradientUnits="userSpaceOnUse">
<stop stop-color="#4823CF"/>
<stop offset="1" stop-color="#A187FF"/>
</linearGradient>
<radialGradient id="paint10_radial_111_2000" cx="0" cy="0" r="1" gradientUnits="userSpaceOnUse" gradientTransform="translate(184.215 71.1274) rotate(75.9638) scale(43.1802 59.788)">
<stop stop-color="#4ED0AA"/>
<stop offset="1" stop-color="#5E35F1"/>
</radialGradient>
<linearGradient id="paint11_linear_111_2000" x1="220.217" y1="74.1322" x2="213.397" y2="82.0806" gradientUnits="userSpaceOnUse">
<stop stop-color="#3618A3"/>
<stop offset="1" stop-color="#5E35F1"/>
</linearGradient>
<linearGradient id="paint12_linear_111_2000" x1="220.217" y1="74.1322" x2="213.397" y2="82.0806" gradientUnits="userSpaceOnUse">
<stop stop-color="#A187FF"/>
<stop offset="1" stop-color="#4823CF"/>
</linearGradient>
<linearGradient id="paint13_linear_111_2000" x1="229.546" y1="62.588" x2="214.771" y2="79.8094" gradientUnits="userSpaceOnUse">
<stop stop-color="#A6F9E1"/>
<stop offset="1" stop-color="#4ED0AA"/>
</linearGradient>
<radialGradient id="paint14_radial_111_2000" cx="0" cy="0" r="1" gradientUnits="userSpaceOnUse" gradientTransform="translate(145.788 14.4) rotate(108.525) scale(87.9)">
<stop stop-color="#A187FF"/>
<stop offset="1" stop-color="#A6F9E1"/>
</radialGradient>
<radialGradient id="paint15_radial_111_2000" cx="0" cy="0" r="1" gradientUnits="userSpaceOnUse" gradientTransform="translate(53.2789 71.1274) rotate(104.036) scale(43.1802 59.788)">
<stop stop-color="#4ED0AA"/>
<stop offset="1" stop-color="#5E35F1"/>
</radialGradient>
<radialGradient id="paint16_radial_111_2000" cx="0" cy="0" r="1" gradientUnits="userSpaceOnUse" gradientTransform="translate(136.694 25.9062) rotate(142.515) scale(55.5522 53.8857)">
<stop stop-color="#4823CF"/>
<stop offset="1" stop-color="#261172"/>
</radialGradient>
<radialGradient id="paint17_radial_111_2000" cx="0" cy="0" r="1" gradientUnits="userSpaceOnUse" gradientTransform="translate(151.024 11.9426) rotate(142.509) scale(55.5455 53.882)">
<stop stop-color="#7B56FF"/>
<stop offset="1" stop-color="#3618A3"/>
</radialGradient>
<linearGradient id="paint18_linear_111_2000" x1="176.334" y1="45.3819" x2="154.515" y2="45.3819" gradientUnits="userSpaceOnUse">
<stop stop-color="#7B56FF"/>
<stop offset="1" stop-color="#3618A3"/>
</linearGradient>
<linearGradient id="paint19_linear_111_2000" x1="59.388" y1="45.3819" x2="81.2062" y2="45.3819" gradientUnits="userSpaceOnUse">
<stop stop-color="#7B56FF"/>
<stop offset="1" stop-color="#3618A3"/>
</linearGradient>
<linearGradient id="paint20_linear_111_2000" x1="117.861" y1="76.8" x2="117.861" y2="98.0833" gradientUnits="userSpaceOnUse">
<stop stop-color="#A187FF"/>
<stop offset="1" stop-color="#4823CF"/>
</linearGradient>
<radialGradient id="paint21_radial_111_2000" cx="0" cy="0" r="1" gradientUnits="userSpaceOnUse" gradientTransform="translate(131.388 109.091) rotate(139.086) scale(34.6463 54.6346)">
<stop stop-color="#EFEAFF"/>
<stop offset="1" stop-color="#4ED0AA"/>
</radialGradient>
<linearGradient id="paint22_linear_111_2000" x1="117.861" y1="62.8365" x2="117.861" y2="87.2728" gradientUnits="userSpaceOnUse">
<stop stop-color="#A187FF"/>
<stop offset="1" stop-color="#4823CF"/>
</linearGradient>
<linearGradient id="paint23_linear_111_2000" x1="117.862" y1="137.891" x2="117.862" y2="116.073" gradientUnits="userSpaceOnUse">
<stop stop-color="#5E35F1"/>
<stop offset="1" stop-color="#A187FF"/>
</linearGradient>
<linearGradient id="paint24_linear_111_2000" x1="158.879" y1="150.109" x2="122.224" y2="150.109" gradientUnits="userSpaceOnUse">
<stop stop-color="#A187FF"/>
<stop offset="1" stop-color="#5E35F1"/>
</linearGradient>
<linearGradient id="paint25_linear_111_2000" x1="77.7153" y1="150.109" x2="114.37" y2="150.109" gradientUnits="userSpaceOnUse">
<stop stop-color="#A187FF"/>
<stop offset="1" stop-color="#5E35F1"/>
</linearGradient>
<linearGradient id="paint26_linear_111_2000" x1="17.2778" y1="74.1322" x2="24.0971" y2="82.0806" gradientUnits="userSpaceOnUse">
<stop stop-color="#3618A3"/>
<stop offset="1" stop-color="#5E35F1"/>
</linearGradient>
<linearGradient id="paint27_linear_111_2000" x1="17.2778" y1="74.1322" x2="24.097" y2="82.0806" gradientUnits="userSpaceOnUse">
<stop stop-color="#A187FF"/>
<stop offset="1" stop-color="#4823CF"/>
</linearGradient>
<linearGradient id="paint28_linear_111_2000" x1="7.94835" y1="62.588" x2="22.7233" y2="79.8094" gradientUnits="userSpaceOnUse">
<stop stop-color="#A6F9E1"/>
<stop offset="1" stop-color="#4ED0AA"/>
</linearGradient>
<radialGradient id="paint29_radial_111_2000" cx="0" cy="0" r="1" gradientUnits="userSpaceOnUse" gradientTransform="translate(112.624 117.818) rotate(90) scale(4.36364)">
<stop stop-color="#7B56FF"/>
<stop offset="1" stop-color="#A187FF"/>
</radialGradient>
<radialGradient id="paint30_radial_111_2000" cx="0" cy="0" r="1" gradientUnits="userSpaceOnUse" gradientTransform="translate(121.352 117.818) rotate(90) scale(2.61818)">
<stop stop-color="#7B56FF"/>
<stop offset="1" stop-color="#A187FF"/>
</radialGradient>
<radialGradient id="paint31_radial_111_2000" cx="0" cy="0" r="1" gradientUnits="userSpaceOnUse" gradientTransform="translate(128.334 117.818) rotate(90) scale(2.61818)">
<stop stop-color="#7B56FF"/>
<stop offset="1" stop-color="#A187FF"/>
</radialGradient>
</defs>
</svg>
