<svg width="279" height="314" viewBox="0 0 279 314" fill="none" xmlns="http://www.w3.org/2000/svg">
<path d="M115.34 273.787C115.848 280.395 110.903 286.163 104.295 286.671C97.6871 287.179 91.9186 282.234 91.4108 275.626L91.0021 270.308C90.6354 265.536 94.2068 261.369 98.9792 261.003L105.626 260.492C110.399 260.125 114.565 263.697 114.932 268.469L115.34 273.787Z" fill="url(#paint0_linear_156_1300)"/>
<path d="M141.693 269.751C137.136 274.563 129.54 274.77 124.728 270.213C119.916 265.656 119.709 258.061 124.266 253.248L127.933 249.376C131.225 245.9 136.71 245.751 140.185 249.042L145.026 253.626C148.501 256.917 148.651 262.403 145.36 265.878L141.693 269.751Z" fill="url(#paint1_linear_156_1300)"/>
<path d="M88.5759 264.812C88.322 261.508 94.589 258.332 102.574 257.718C110.558 257.104 117.237 259.285 117.491 262.589C117.745 265.893 111.478 269.069 103.493 269.683C95.5085 270.296 88.8299 268.116 88.5759 264.812Z" fill="url(#paint2_linear_156_1300)"/>
<path d="M91.0729 264.637C91.0769 264.65 91.0869 264.676 91.1113 264.718C91.1626 264.804 91.2741 264.95 91.4972 265.137C91.9588 265.524 92.7471 265.959 93.9119 266.34C96.2298 267.097 99.5543 267.478 103.301 267.19C107.049 266.902 110.276 266.017 112.451 264.915C113.544 264.361 114.257 263.811 114.654 263.358C114.845 263.139 114.933 262.977 114.971 262.884C114.989 262.839 114.994 262.811 114.996 262.799C114.998 262.787 114.998 262.782 114.998 262.781C114.998 262.78 114.998 262.775 114.994 262.764C114.99 262.751 114.98 262.725 114.955 262.683C114.904 262.597 114.792 262.45 114.569 262.263C114.108 261.877 113.319 261.441 112.155 261.061C109.837 260.304 106.512 259.923 102.765 260.211C99.0179 260.499 95.7907 261.384 93.6157 262.486C92.5228 263.04 91.8101 263.59 91.4131 264.043C91.2212 264.262 91.1334 264.424 91.0959 264.517C91.078 264.562 91.0723 264.589 91.0702 264.602C91.0682 264.614 91.0685 264.619 91.0686 264.62C91.0687 264.621 91.0691 264.626 91.0729 264.637ZM86.0833 265.003C85.9526 263.302 86.6897 261.848 87.6535 260.748C88.6096 259.657 89.9152 258.756 91.3552 258.026C94.2462 256.561 98.1447 255.551 102.382 255.225C106.619 254.9 110.626 255.302 113.707 256.308C115.242 256.809 116.67 257.501 117.781 258.433C118.902 259.372 119.853 260.697 119.983 262.398C120.114 264.098 119.377 265.553 118.413 266.653C117.457 267.744 116.151 268.645 114.711 269.375C111.82 270.84 107.922 271.85 103.685 272.175C99.4474 272.501 95.4404 272.099 92.3594 271.093C90.8248 270.592 89.3968 269.9 88.2852 268.968C87.1647 268.029 86.214 266.704 86.0833 265.003Z" fill="url(#paint3_linear_156_1300)"/>
<path d="M130.373 243.887C132.652 241.481 139.213 243.994 145.027 249.5C150.842 255.006 153.709 261.421 151.43 263.827C149.152 266.233 142.591 263.72 136.776 258.213C130.961 252.707 128.095 246.293 130.373 243.887Z" fill="url(#paint4_linear_156_1300)"/>
<path d="M132.179 245.62C132.172 245.632 132.159 245.657 132.145 245.703C132.115 245.799 132.082 245.98 132.093 246.271C132.116 246.873 132.323 247.749 132.822 248.867C133.817 251.094 135.766 253.814 138.495 256.398C141.224 258.982 144.046 260.78 146.323 261.652C147.468 262.091 148.354 262.249 148.956 262.24C149.247 262.235 149.426 262.191 149.52 262.157C149.565 262.14 149.59 262.126 149.601 262.119C149.611 262.112 149.614 262.109 149.615 262.108C149.616 262.107 149.619 262.104 149.625 262.093C149.631 262.082 149.644 262.056 149.659 262.011C149.688 261.915 149.722 261.734 149.711 261.443C149.688 260.841 149.481 259.964 148.981 258.846C147.986 256.62 146.037 253.899 143.308 251.315C140.58 248.731 137.757 246.933 135.48 246.061C134.336 245.623 133.45 245.464 132.847 245.474C132.556 245.478 132.377 245.522 132.283 245.557C132.238 245.573 132.214 245.588 132.203 245.595C132.193 245.601 132.189 245.605 132.189 245.606C132.188 245.606 132.185 245.61 132.179 245.62ZM128.558 242.168C129.731 240.929 131.304 240.499 132.766 240.475C134.216 240.452 135.761 240.814 137.269 241.392C140.295 242.551 143.661 244.763 146.746 247.685C149.832 250.607 152.224 253.847 153.546 256.806C154.205 258.28 154.651 259.803 154.706 261.252C154.762 262.713 154.418 264.307 153.245 265.546C152.073 266.784 150.5 267.214 149.038 267.238C147.587 267.262 146.043 266.899 144.535 266.322C141.508 265.162 138.143 262.951 135.057 260.029C131.972 257.106 129.58 253.866 128.257 250.907C127.599 249.434 127.153 247.911 127.097 246.461C127.041 245 127.385 243.406 128.558 242.168Z" fill="url(#paint5_linear_156_1300)"/>
<path d="M167 153.543L184.952 204.949C191.468 223.609 184.742 244.324 168.507 255.597L161.564 260.417C152.491 266.717 140.03 264.469 133.73 255.396C127.43 246.323 129.678 233.862 138.751 227.562L145.693 222.741C147.169 221.717 147.78 219.833 147.188 218.137L136.872 188.597L135.07 188.26L120.802 209.24C120.32 209.95 120.078 210.796 120.113 211.653L121.612 248.33C122.064 259.366 113.483 268.679 102.446 269.13C91.41 269.581 82.098 261 81.6465 249.964L80.1464 213.287C79.7609 203.857 82.4186 194.553 87.7257 186.748L116.708 144.126L167 153.543Z" fill="url(#paint6_radial_156_1300)"/>
<path d="M111.286 111.064L188.936 125.603L186.566 165.387C186.409 168.023 185.799 170.613 184.762 173.041C165.578 217.981 98.8047 205.878 96.5972 157.065C96.4618 154.071 96.9133 151.08 97.9262 148.26L111.286 111.064Z" fill="url(#paint7_linear_156_1300)"/>
<path d="M187.673 150.801C176.687 144.268 179.34 133.811 181.54 129.305L177.435 129.554C177.435 129.554 173.003 136.863 176.538 145.155C178.69 150.205 182.676 153.523 185.464 155.345C186.767 156.197 188.275 155.103 188.059 153.562L187.673 150.801Z" fill="url(#paint8_linear_156_1300)"/>
<path d="M101.584 136.26C113.947 133.016 114.286 122.233 113.416 117.295L117.293 118.668C117.293 118.668 119.533 126.917 113.845 133.91C110.382 138.169 105.634 140.256 102.451 141.238C100.964 141.696 99.8166 140.228 100.45 138.806L101.584 136.26Z" fill="url(#paint9_linear_156_1300)"/>
<path d="M211.825 87.159C206.133 117.559 176.874 137.588 146.475 131.896C116.075 126.204 96.0457 96.9458 101.738 66.5461C107.43 36.1465 136.688 16.1171 167.088 21.8091C197.487 27.5012 217.517 56.7593 211.825 87.159Z" fill="url(#paint10_radial_156_1300)"/>
<path d="M56.8994 63.2414C64.4659 64.8322 69.311 72.2553 67.7203 79.8218C66.0528 87.753 67.3358 97.5495 73.0618 102.891C76.5184 106.116 83.7524 109.869 99.2194 108.538C106.923 107.875 113.705 113.583 114.368 121.286C115.031 128.99 109.324 135.772 101.62 136.435C80.8472 138.222 64.8726 133.544 53.9616 123.365C37.8944 108.376 37.7252 86.3998 40.3192 74.0613C41.91 66.4948 49.333 61.6508 56.8994 63.2414Z" fill="url(#paint11_radial_156_1300)"/>
<path d="M198.763 211.307C193.203 205.935 193.049 197.072 198.421 191.511C204.052 185.683 208.177 176.705 206.17 169.135C204.959 164.566 200.83 157.54 187.025 150.439C180.15 146.902 177.442 138.461 180.979 131.585C184.516 124.71 192.957 122.003 199.832 125.539C218.373 135.077 229.411 147.536 233.235 161.959C238.867 183.199 227.319 201.898 218.559 210.966C213.187 216.526 204.324 216.679 198.763 211.307Z" fill="url(#paint12_radial_156_1300)"/>
<path d="M165.109 33.6472C182.664 36.9343 196.427 47.9576 202.141 61.5115C203.331 64.3334 202.213 67.4727 200.536 70.0348C198.721 72.806 197.306 76.3097 196.572 80.2335C195.837 84.1572 195.889 87.9351 196.578 91.1748C197.215 94.1701 197.121 97.5009 194.991 99.7011C184.76 110.27 167.941 115.568 150.386 112.281C132.266 108.888 118.187 97.2527 112.828 83.0999C111.837 80.483 112.786 77.6342 114.263 75.2576C115.939 72.5613 117.243 69.2238 117.938 65.51C118.634 61.7961 118.626 58.2126 118.039 55.0925C117.522 52.3422 117.668 49.3429 119.539 47.2617C129.655 36.0073 146.99 30.2546 165.109 33.6472Z" fill="url(#paint13_radial_156_1300)"/>
<path d="M165.11 33.6475C182.665 36.9346 196.426 47.9582 202.141 61.5119C203.331 64.3337 202.213 67.4728 200.536 70.035C198.722 72.8062 197.308 76.31 196.573 80.2337C195.838 84.1572 195.889 87.9348 196.578 91.1745C196.915 92.7615 197.047 94.4429 196.78 96.0002C187.856 99.7719 177.254 101.034 166.37 98.9955C140.584 94.1674 122.977 72.6507 127.043 50.9367C127.963 46.0242 129.915 41.5239 132.681 37.5544C142.002 33.0842 153.392 31.4533 165.11 33.6475Z" fill="url(#paint14_radial_156_1300)"/>
<path d="M203.332 70.9438C205.293 66.7452 209.847 64.4064 214.402 65.2592C221.186 66.5295 225.656 73.0589 224.386 79.8432L222.36 90.6604C221.09 97.4446 214.56 101.915 207.776 100.644C203.222 99.7914 199.822 95.9633 199.513 91.3398L199.348 88.8629C198.989 83.4758 199.998 78.0852 202.282 73.1931L203.332 70.9438Z" fill="url(#paint15_linear_156_1300)"/>
<path d="M92.6746 55.1814C93.9449 48.3971 100.474 43.9272 107.259 45.1975C111.813 46.0503 115.213 49.8784 115.521 54.502L115.687 56.9789C116.046 62.366 115.037 67.7565 112.753 72.6486L111.702 74.8979C109.742 79.0965 105.188 81.4354 100.633 80.5826C93.8488 79.3123 89.3789 72.7828 90.6492 65.9986L92.6746 55.1814Z" fill="url(#paint16_linear_156_1300)"/>
<path d="M148.648 120.291C167.612 123.842 184.672 120.465 192.903 118.429C195.574 117.768 197.078 119.531 196.022 122.072C193.981 126.981 190.9 131.384 185.844 133.028C177.476 135.748 162.768 137.999 145.923 134.845C129.078 131.691 116.18 124.271 109.363 118.708C105.244 115.346 103.965 110.126 103.839 104.811C103.773 102.061 105.813 100.962 108.064 102.544C115.001 107.42 129.683 116.74 148.648 120.291Z" fill="url(#paint17_linear_156_1300)"/>
<path d="M127.064 148.389C128.373 144.663 132.203 142.45 136.084 143.176L155.029 146.724C158.91 147.45 161.68 150.9 161.552 154.846L161.224 164.959C161.065 169.859 156.575 173.465 151.756 172.563L129.787 168.449C124.968 167.547 122.087 162.561 123.712 157.935L127.064 148.389Z" fill="url(#paint18_radial_156_1300)"/>
<path d="M151.26 106.34C173.469 110.499 193.417 106.631 202.966 104.323C206.018 103.585 207.733 105.618 206.519 108.514C204.147 114.166 200.565 119.219 194.725 121.08C184.986 124.184 167.818 126.736 148.131 123.05C128.445 119.364 113.363 110.773 105.406 104.356C100.635 100.508 99.1239 94.5015 98.9582 88.3741C98.8732 85.2352 101.208 83.9602 103.787 85.7524C111.854 91.3593 129.051 102.182 151.26 106.34Z" fill="url(#paint19_linear_156_1300)"/>
<path d="M174.749 178.344C178.147 177.78 181.398 176.957 184.311 175.807C186.848 174.806 188.325 172.269 188.444 169.545L188.591 166.149C188.689 163.894 186.32 162.279 184.147 162.887C181.633 163.591 178.873 164.082 175.996 164.404C166.351 165.484 153.884 164.822 140.769 162.366C127.654 159.911 115.793 156.018 107.192 151.521C104.627 150.18 102.232 148.724 100.143 147.159C98.3363 145.805 95.5432 146.454 94.819 148.592L93.7286 151.811C92.854 154.394 93.3139 157.292 95.3158 159.143C97.6161 161.269 100.349 163.213 103.313 164.968C112.138 170.195 124.393 174.561 138.01 177.11C151.626 179.66 164.63 180.024 174.749 178.344Z" fill="url(#paint20_linear_156_1300)"/>
<path d="M178.042 184.699C168.454 194.61 149.381 200.511 139.858 201.084C139.15 201.126 138.58 201.688 138.557 202.397C138.462 205.323 140.772 207.791 143.685 207.499C158.236 206.041 173.695 197.601 180.461 192.02C182.64 190.223 182.634 187.22 181.039 184.889C180.351 183.885 178.888 183.825 178.042 184.699Z" fill="url(#paint21_linear_156_1300)"/>
<path d="M98.9252 169.885C104.278 182.593 119.924 194.996 128.594 198.975C129.238 199.27 129.567 200.001 129.332 200.669C128.362 203.432 125.316 204.897 122.705 203.57C109.668 196.947 98.3098 183.486 94.0208 175.834C92.64 173.371 93.7319 170.573 96.0621 168.978C97.0664 168.291 98.4527 168.764 98.9252 169.885Z" fill="url(#paint22_linear_156_1300)"/>
<path d="M68.8747 73.6187C68.2649 76.8758 61.3895 78.3214 53.5182 76.8476C45.6468 75.3737 39.7602 71.5386 40.3701 68.2815C40.98 65.0243 47.8553 63.5787 55.7267 65.0526C63.598 66.5264 69.4846 70.3616 68.8747 73.6187Z" fill="url(#paint23_linear_156_1300)"/>
<path d="M66.4178 73.1408C66.4171 73.1279 66.4144 73.0995 66.4014 73.0533C66.3742 72.9567 66.3044 72.7862 66.1374 72.5478C65.7917 72.0546 65.1427 71.4303 64.1162 70.7615C62.0731 69.4305 58.9606 68.2016 55.2666 67.5099C51.5725 66.8182 48.2262 66.8378 45.84 67.3395C44.641 67.5916 43.8102 67.9388 43.3095 68.2735C43.0675 68.4353 42.9407 68.569 42.8805 68.6492C42.8517 68.6876 42.8388 68.7131 42.8335 68.7248C42.8285 68.7359 42.8276 68.7405 42.8274 68.7416C42.8272 68.7427 42.8264 68.7473 42.827 68.7594C42.8278 68.7723 42.8305 68.8007 42.8434 68.8469C42.8706 68.9434 42.9404 69.114 43.1075 69.3524C43.4531 69.8456 44.1021 70.4698 45.1287 71.1387C47.1717 72.4697 50.2842 73.6986 53.9783 74.3903C57.6723 75.082 61.0186 75.0624 63.4048 74.5607C64.6038 74.3086 65.4346 73.9614 65.9354 73.6267C66.1773 73.4649 66.3041 73.3312 66.3644 73.251C66.3932 73.2126 66.406 73.1871 66.4113 73.1754C66.4163 73.1643 66.4172 73.1597 66.4174 73.1586C66.4176 73.1575 66.4185 73.1529 66.4178 73.1408ZM71.332 74.0788C71.0181 75.7554 69.9297 76.9696 68.7141 77.7823C67.5082 78.5886 66.0138 79.1217 64.4339 79.4538C61.2622 80.1207 57.2352 80.087 53.058 79.3049C48.8809 78.5228 45.1145 77.0972 42.3989 75.328C41.0463 74.4467 39.846 73.4091 39.0135 72.2212C38.1743 71.0237 37.5989 69.4979 37.9128 67.8214C38.2267 66.1448 39.3152 64.9306 40.5307 64.1178C41.7367 63.3115 43.2311 62.7785 44.8109 62.4464C47.9826 61.7795 52.0096 61.8132 56.1868 62.5953C60.3639 63.3774 64.1303 64.803 66.8459 66.5722C68.1985 67.4535 69.3988 68.4911 70.2314 69.679C71.0706 70.8765 71.6459 72.4023 71.332 74.0788Z" fill="url(#paint24_linear_156_1300)"/>
<path d="M196.073 191.922C198.469 189.633 204.896 192.472 210.427 198.263C215.958 204.054 218.499 210.604 216.103 212.893C213.707 215.182 207.28 212.343 201.749 206.552C196.218 200.761 193.676 194.211 196.073 191.922Z" fill="url(#paint25_linear_156_1300)"/>
<path d="M197.789 193.744C197.782 193.755 197.768 193.78 197.751 193.825C197.717 193.919 197.674 194.098 197.671 194.389C197.663 194.991 197.826 195.877 198.269 197.019C199.151 199.293 200.961 202.107 203.557 204.825C206.153 207.543 208.881 209.48 211.112 210.465C212.232 210.96 213.11 211.163 213.712 211.184C214.003 211.194 214.184 211.159 214.279 211.129C214.325 211.115 214.35 211.102 214.362 211.095C214.372 211.089 214.375 211.086 214.376 211.085C214.377 211.084 214.38 211.081 214.387 211.071C214.394 211.06 214.408 211.035 214.425 210.99C214.459 210.896 214.502 210.717 214.505 210.426C214.513 209.824 214.35 208.938 213.907 207.796C213.025 205.522 211.215 202.708 208.619 199.99C206.023 197.272 203.295 195.335 201.064 194.35C199.943 193.854 199.066 193.651 198.464 193.631C198.173 193.621 197.992 193.656 197.897 193.686C197.851 193.7 197.826 193.713 197.814 193.72C197.804 193.726 197.8 193.729 197.8 193.73C197.799 193.73 197.795 193.734 197.789 193.744ZM194.346 190.114C195.58 188.936 197.172 188.585 198.634 188.635C200.083 188.684 201.608 189.123 203.085 189.776C206.049 191.086 209.299 193.463 212.235 196.537C215.17 199.61 217.396 202.966 218.569 205.987C219.152 207.492 219.521 209.035 219.504 210.486C219.487 211.948 219.063 213.523 217.83 214.701C216.596 215.879 215.004 216.23 213.542 216.18C212.093 216.131 210.568 215.692 209.091 215.039C206.127 213.729 202.876 211.352 199.941 208.278C197.006 205.205 194.78 201.849 193.607 198.828C193.023 197.323 192.654 195.78 192.672 194.329C192.689 192.867 193.113 191.292 194.346 190.114Z" fill="url(#paint26_linear_156_1300)"/>
<path d="M45.3434 58.0215C46.5631 51.5073 52.8327 47.2153 59.3469 48.435C65.8611 49.6547 70.1531 55.9243 68.9334 62.4385L67.9518 67.6808C67.0709 72.3855 62.5429 75.4853 57.8382 74.6043L51.2854 73.3774C46.5807 72.4965 43.4809 67.9684 44.3618 63.2637L45.3434 58.0215Z" fill="url(#paint27_linear_156_1300)"/>
<path d="M206.075 218.321C201.283 222.899 193.687 222.724 189.109 217.932C184.532 213.139 184.706 205.543 189.499 200.966L193.355 197.282C196.817 193.976 202.303 194.102 205.609 197.563L210.213 202.384C213.519 205.845 213.393 211.331 209.932 214.637L206.075 218.321Z" fill="url(#paint28_linear_156_1300)"/>
<path d="M141.259 154.319C140.751 157.033 138.138 158.822 135.424 158.313C132.71 157.805 130.921 155.193 131.43 152.479C131.938 149.764 134.55 147.976 137.264 148.484C139.979 148.992 141.767 151.605 141.259 154.319Z" fill="url(#paint29_radial_156_1300)"/>
<path d="M149.122 155.791C148.817 157.42 147.25 158.493 145.621 158.188C143.993 157.883 142.92 156.316 143.225 154.687C143.53 153.059 145.097 151.986 146.726 152.291C148.354 152.595 149.427 154.163 149.122 155.791Z" fill="url(#paint30_radial_156_1300)"/>
<path d="M156.986 157.264C156.681 158.892 155.113 159.965 153.485 159.66C151.856 159.355 150.783 157.788 151.088 156.159C151.393 154.531 152.96 153.458 154.589 153.763C156.217 154.068 157.29 155.635 156.986 157.264Z" fill="url(#paint31_radial_156_1300)"/>
<path d="M181.985 50.2071L179.851 49.1647C177.571 48.0516 174.952 49.8622 175.188 52.388L175.682 57.6691C175.891 59.901 176.87 61.9905 178.452 63.5788L182.648 67.792C185.858 71.0144 191.342 69.6756 192.706 65.3367C193.201 63.7601 193.03 62.0494 192.233 60.6021L191.486 59.2483C189.325 55.3285 186.007 52.1711 181.985 50.2071Z" fill="white" fill-opacity="0.5"/>
<defs>
<linearGradient id="paint0_linear_156_1300" x1="104.295" y1="286.671" x2="102.303" y2="260.747" gradientUnits="userSpaceOnUse">
<stop stop-color="#A6F9E1"/>
<stop offset="1" stop-color="#4ED0AA"/>
</linearGradient>
<linearGradient id="paint1_linear_156_1300" x1="124.728" y1="270.213" x2="142.606" y2="251.334" gradientUnits="userSpaceOnUse">
<stop stop-color="#A6F9E1"/>
<stop offset="1" stop-color="#4ED0AA"/>
</linearGradient>
<linearGradient id="paint2_linear_156_1300" x1="103.493" y1="269.683" x2="102.574" y2="257.718" gradientUnits="userSpaceOnUse">
<stop stop-color="#3618A3"/>
<stop offset="1" stop-color="#5E35F1"/>
</linearGradient>
<linearGradient id="paint3_linear_156_1300" x1="103.493" y1="269.683" x2="102.574" y2="257.718" gradientUnits="userSpaceOnUse">
<stop stop-color="#A187FF"/>
<stop offset="1" stop-color="#4823CF"/>
</linearGradient>
<linearGradient id="paint4_linear_156_1300" x1="136.776" y1="258.213" x2="145.027" y2="249.5" gradientUnits="userSpaceOnUse">
<stop stop-color="#3618A3"/>
<stop offset="1" stop-color="#5E35F1"/>
</linearGradient>
<linearGradient id="paint5_linear_156_1300" x1="136.776" y1="258.213" x2="145.027" y2="249.5" gradientUnits="userSpaceOnUse">
<stop stop-color="#A187FF"/>
<stop offset="1" stop-color="#4823CF"/>
</linearGradient>
<radialGradient id="paint6_radial_156_1300" cx="0" cy="0" r="1" gradientUnits="userSpaceOnUse" gradientTransform="translate(141.083 187.86) rotate(84.5631) scale(81.7209 98.5587)">
<stop offset="0.197115" stop-color="#87EFD0"/>
<stop offset="1" stop-color="#7B56FF"/>
</radialGradient>
<linearGradient id="paint7_linear_156_1300" x1="149.29" y1="89.6932" x2="116.916" y2="208.26" gradientUnits="userSpaceOnUse">
<stop offset="0.139111" stop-color="#5E35F1"/>
<stop offset="0.581145" stop-color="#EFEAFF"/>
<stop offset="0.895219" stop-color="#4ED0AA"/>
</linearGradient>
<linearGradient id="paint8_linear_156_1300" x1="185.035" y1="129.96" x2="180.25" y2="155.516" gradientUnits="userSpaceOnUse">
<stop stop-color="#4823CF"/>
<stop offset="1" stop-color="#A187FF"/>
</linearGradient>
<linearGradient id="paint9_linear_156_1300" x1="109.877" y1="116.958" x2="107.415" y2="142.842" gradientUnits="userSpaceOnUse">
<stop stop-color="#4823CF"/>
<stop offset="1" stop-color="#A187FF"/>
</linearGradient>
<radialGradient id="paint10_radial_156_1300" cx="0" cy="0" r="1" gradientUnits="userSpaceOnUse" gradientTransform="translate(195.504 43.9167) rotate(119.13) scale(100.719)">
<stop stop-color="#A187FF"/>
<stop offset="1" stop-color="#A6F9E1"/>
</radialGradient>
<radialGradient id="paint11_radial_156_1300" cx="0" cy="0" r="1" gradientUnits="userSpaceOnUse" gradientTransform="translate(79.3522 88.2978) rotate(114.642) scale(49.4773 68.507)">
<stop stop-color="#4ED0AA"/>
<stop offset="1" stop-color="#5E35F1"/>
</radialGradient>
<radialGradient id="paint12_radial_156_1300" cx="0" cy="0" r="1" gradientUnits="userSpaceOnUse" gradientTransform="translate(193.081 178.146) rotate(-33.2196) scale(49.4773 68.507)">
<stop stop-color="#5E35F1"/>
<stop offset="1" stop-color="#4ED0AA"/>
</radialGradient>
<radialGradient id="paint13_radial_156_1300" cx="0" cy="0" r="1" gradientUnits="userSpaceOnUse" gradientTransform="translate(182.835 54.9579) rotate(153.12) scale(63.6539 61.7443)">
<stop stop-color="#4823CF"/>
<stop offset="1" stop-color="#261172"/>
</radialGradient>
<radialGradient id="paint14_radial_156_1300" cx="0" cy="0" r="1" gradientUnits="userSpaceOnUse" gradientTransform="translate(201.92 42.2533) rotate(153.115) scale(63.6461 61.7398)">
<stop stop-color="#7B56FF"/>
<stop offset="1" stop-color="#3618A3"/>
</radialGradient>
<linearGradient id="paint15_linear_156_1300" x1="223.373" y1="85.2518" x2="198.8" y2="80.6507" gradientUnits="userSpaceOnUse">
<stop stop-color="#7B56FF"/>
<stop offset="1" stop-color="#3618A3"/>
</linearGradient>
<linearGradient id="paint16_linear_156_1300" x1="91.6619" y1="60.59" x2="116.235" y2="65.1911" gradientUnits="userSpaceOnUse">
<stop stop-color="#7B56FF"/>
<stop offset="1" stop-color="#3618A3"/>
</linearGradient>
<linearGradient id="paint17_linear_156_1300" x1="150.892" y1="108.306" x2="146.404" y2="132.276" gradientUnits="userSpaceOnUse">
<stop stop-color="#A187FF"/>
<stop offset="1" stop-color="#4823CF"/>
</linearGradient>
<radialGradient id="paint18_radial_156_1300" cx="0" cy="0" r="1" gradientUnits="userSpaceOnUse" gradientTransform="translate(159.317 147.527) rotate(149.691) scale(39.6989 62.6021)">
<stop stop-color="#EFEAFF"/>
<stop offset="1" stop-color="#4ED0AA"/>
</radialGradient>
<linearGradient id="paint19_linear_156_1300" x1="153.837" y1="92.5792" x2="148.683" y2="120.101" gradientUnits="userSpaceOnUse">
<stop stop-color="#A187FF"/>
<stop offset="1" stop-color="#4823CF"/>
</linearGradient>
<linearGradient id="paint20_linear_156_1300" x1="138.01" y1="177.11" x2="142.611" y2="152.537" gradientUnits="userSpaceOnUse">
<stop stop-color="#5E35F1"/>
<stop offset="1" stop-color="#A187FF"/>
</linearGradient>
<linearGradient id="paint21_linear_156_1300" x1="181.629" y1="199.521" x2="140.347" y2="191.791" gradientUnits="userSpaceOnUse">
<stop stop-color="#A187FF"/>
<stop offset="1" stop-color="#5E35F1"/>
</linearGradient>
<linearGradient id="paint22_linear_156_1300" x1="90.218" y1="182.405" x2="131.501" y2="190.135" gradientUnits="userSpaceOnUse">
<stop stop-color="#A187FF"/>
<stop offset="1" stop-color="#5E35F1"/>
</linearGradient>
<linearGradient id="paint23_linear_156_1300" x1="55.7267" y1="65.0526" x2="53.5182" y2="76.8476" gradientUnits="userSpaceOnUse">
<stop stop-color="#3618A3"/>
<stop offset="1" stop-color="#5E35F1"/>
</linearGradient>
<linearGradient id="paint24_linear_156_1300" x1="55.7267" y1="65.0526" x2="53.5182" y2="76.8476" gradientUnits="userSpaceOnUse">
<stop stop-color="#A187FF"/>
<stop offset="1" stop-color="#4823CF"/>
</linearGradient>
<linearGradient id="paint25_linear_156_1300" x1="201.749" y1="206.552" x2="210.427" y2="198.263" gradientUnits="userSpaceOnUse">
<stop stop-color="#3618A3"/>
<stop offset="1" stop-color="#5E35F1"/>
</linearGradient>
<linearGradient id="paint26_linear_156_1300" x1="201.749" y1="206.552" x2="210.427" y2="198.263" gradientUnits="userSpaceOnUse">
<stop stop-color="#A187FF"/>
<stop offset="1" stop-color="#4823CF"/>
</linearGradient>
<linearGradient id="paint27_linear_156_1300" x1="59.3469" y1="48.435" x2="54.5618" y2="73.9909" gradientUnits="userSpaceOnUse">
<stop stop-color="#A6F9E1"/>
<stop offset="1" stop-color="#4ED0AA"/>
</linearGradient>
<linearGradient id="paint28_linear_156_1300" x1="189.109" y1="217.932" x2="207.911" y2="199.974" gradientUnits="userSpaceOnUse">
<stop stop-color="#A6F9E1"/>
<stop offset="1" stop-color="#4ED0AA"/>
</linearGradient>
<radialGradient id="paint29_radial_156_1300" cx="0" cy="0" r="1" gradientUnits="userSpaceOnUse" gradientTransform="translate(136.344 153.399) rotate(100.605) scale(5)">
<stop stop-color="#7B56FF"/>
<stop offset="1" stop-color="#A187FF"/>
</radialGradient>
<radialGradient id="paint30_radial_156_1300" cx="0" cy="0" r="1" gradientUnits="userSpaceOnUse" gradientTransform="translate(146.173 155.239) rotate(100.605) scale(3)">
<stop stop-color="#7B56FF"/>
<stop offset="1" stop-color="#A187FF"/>
</radialGradient>
<radialGradient id="paint31_radial_156_1300" cx="0" cy="0" r="1" gradientUnits="userSpaceOnUse" gradientTransform="translate(154.037 156.712) rotate(100.605) scale(3)">
<stop stop-color="#7B56FF"/>
<stop offset="1" stop-color="#A187FF"/>
</radialGradient>
</defs>
</svg>
