<svg width="251" height="260" viewBox="0 0 251 260" fill="none" xmlns="http://www.w3.org/2000/svg">
<path d="M165.335 207.284C168.743 210.692 168.743 216.218 165.335 219.626V219.626C161.927 223.034 156.401 223.034 152.993 219.626L150.25 216.883C147.789 214.422 147.789 210.431 150.25 207.969L153.678 204.541C156.14 202.079 160.131 202.079 162.592 204.541L165.335 207.284Z" fill="url(#paint0_linear_776_3278)"/>
<path d="M33.4066 118.693C38.3375 115.99 44.5263 117.795 47.2296 122.726C50.063 127.894 55.4086 132.696 61.0987 132.935C64.5336 133.08 70.3043 131.728 78.2146 123.672C82.1544 119.659 88.6009 119.6 92.6133 123.54C96.6256 127.48 96.6847 133.926 92.7451 137.939C82.1211 148.758 71.0863 153.737 60.2437 153.281C44.2772 152.61 33.7813 140.556 29.3733 132.515C26.6701 127.584 28.4759 121.396 33.4066 118.693Z" fill="url(#paint1_radial_776_3278)"/>
<path d="M177.975 192.581C177.737 197.395 173.641 201.105 168.827 200.866V200.866C164.013 200.628 160.303 196.532 160.542 191.718L160.733 187.844C160.906 184.367 163.864 181.688 167.341 181.861L172.183 182.1C175.66 182.272 178.339 185.231 178.167 188.707L177.975 192.581Z" fill="url(#paint2_linear_776_3278)"/>
<path d="M146.308 214.997C144.604 213.292 146.561 208.572 150.68 204.454C154.798 200.336 159.518 198.379 161.222 200.083C162.926 201.787 160.969 206.507 156.851 210.625C152.733 214.744 148.013 216.701 146.308 214.997Z" fill="url(#paint3_linear_776_3278)"/>
<path d="M147.605 213.718C147.613 213.723 147.631 213.733 147.664 213.745C147.733 213.768 147.864 213.796 148.076 213.794C148.514 213.789 149.155 213.656 149.978 213.315C151.616 212.635 153.632 211.272 155.565 209.34C157.498 207.407 158.861 205.391 159.54 203.753C159.881 202.93 160.014 202.288 160.019 201.85C160.022 201.639 159.993 201.508 159.97 201.438C159.959 201.405 159.949 201.387 159.944 201.379C159.939 201.372 159.937 201.369 159.936 201.369C159.936 201.368 159.933 201.366 159.926 201.361C159.918 201.356 159.9 201.346 159.867 201.335C159.797 201.312 159.666 201.283 159.455 201.286C159.017 201.291 158.375 201.424 157.552 201.765C155.914 202.444 153.898 203.807 151.965 205.74C150.033 207.673 148.67 209.689 147.99 211.327C147.649 212.15 147.516 212.791 147.511 213.229C147.509 213.441 147.537 213.572 147.56 213.641C147.572 213.674 147.582 213.692 147.587 213.7C147.591 213.708 147.594 213.71 147.594 213.711C147.595 213.711 147.597 213.714 147.605 213.718ZM145.023 216.282C144.146 215.405 143.864 214.253 143.876 213.19C143.887 212.135 144.181 211.019 144.631 209.934C145.534 207.757 147.209 205.354 149.394 203.169C151.579 200.983 153.982 199.308 156.16 198.406C157.244 197.956 158.36 197.662 159.415 197.65C160.478 197.639 161.63 197.92 162.508 198.797C163.385 199.675 163.666 200.827 163.655 201.89C163.643 202.945 163.349 204.061 162.899 205.145C161.997 207.323 160.322 209.726 158.136 211.911C155.951 214.096 153.548 215.771 151.371 216.674C150.286 217.124 149.17 217.418 148.115 217.429C147.052 217.441 145.9 217.159 145.023 216.282Z" fill="url(#paint4_linear_776_3278)"/>
<path d="M159.483 183.658C159.602 181.251 164.414 179.533 170.231 179.821C176.048 180.109 180.667 182.294 180.548 184.701C180.428 187.108 175.616 188.826 169.799 188.538C163.982 188.25 159.363 186.065 159.483 183.658Z" fill="url(#paint5_linear_776_3278)"/>
<path d="M161.3 183.761C161.302 183.77 161.306 183.79 161.32 183.822C161.349 183.889 161.416 184.005 161.56 184.161C161.858 184.482 162.387 184.868 163.192 185.249C164.796 186.007 167.159 186.587 169.889 186.722C172.619 186.857 175.028 186.514 176.699 185.918C177.538 185.618 178.102 185.286 178.43 184.996C178.589 184.856 178.667 184.747 178.702 184.683C178.719 184.653 178.726 184.633 178.729 184.624C178.731 184.616 178.732 184.612 178.732 184.611C178.732 184.611 178.732 184.607 178.73 184.598C178.728 184.589 178.724 184.569 178.71 184.537C178.681 184.47 178.614 184.354 178.47 184.199C178.172 183.877 177.643 183.491 176.838 183.11C175.235 182.352 172.871 181.773 170.141 181.637C167.411 181.502 165.002 181.845 163.331 182.442C162.492 182.741 161.928 183.073 161.6 183.363C161.441 183.504 161.363 183.613 161.328 183.676C161.311 183.707 161.304 183.727 161.301 183.735C161.299 183.744 161.298 183.747 161.298 183.748C161.298 183.749 161.298 183.752 161.3 183.761ZM157.667 183.568C157.728 182.329 158.393 181.347 159.189 180.642C159.978 179.943 161.003 179.412 162.109 179.017C164.329 178.224 167.234 177.853 170.321 178.005C173.408 178.158 176.262 178.815 178.393 179.823C179.454 180.325 180.421 180.955 181.138 181.729C181.86 182.509 182.425 183.552 182.364 184.791C182.302 186.03 181.637 187.012 180.841 187.717C180.052 188.417 179.027 188.948 177.921 189.343C175.701 190.135 172.796 190.507 169.709 190.354C166.622 190.201 163.768 189.544 161.637 188.536C160.576 188.034 159.609 187.405 158.892 186.631C158.17 185.85 157.605 184.807 157.667 183.568Z" fill="url(#paint6_linear_776_3278)"/>
<path d="M136.942 116.438L171.187 136.324C183.618 143.543 189.709 158.165 186.081 172.074L184.529 178.022C182.502 185.795 174.557 190.452 166.784 188.425C159.011 186.397 154.353 178.452 156.381 170.679L157.932 164.731C158.262 163.467 157.708 162.138 156.578 161.481L136.9 150.054L135.745 150.721L137.798 169.058C137.868 169.679 138.135 170.26 138.56 170.717L156.748 190.258C162.221 196.139 161.891 205.343 156.011 210.816C150.131 216.289 140.928 215.958 135.454 210.078L117.265 190.537C112.589 185.513 109.652 179.117 108.888 172.296L104.716 135.044L136.942 116.438Z" fill="url(#paint7_radial_776_3278)"/>
<path d="M86.0727 119.355L135.83 90.6274L153.353 113.716C154.514 115.246 155.402 116.965 155.98 118.796C166.659 152.69 124.061 177.614 99.7366 151.707C98.2449 150.118 97.0783 148.253 96.3027 146.216L86.0727 119.355Z" fill="url(#paint8_linear_776_3278)"/>
<path d="M62.8978 85.3918C60.5389 82.985 56.8499 82.4805 53.9313 84.1655L-nan -nanCnan nan nan nan nan nanLnan nanCnan nan nan nan -nan -nanL53.9313 84.1655C49.5841 86.6753 48.0946 92.2341 50.6045 96.5813L54.6064 103.513C57.1163 107.86 62.675 109.349 67.0222 106.84L-nan -nanCnan nan nan nan nan nanLnan nanCnan nan nan nan -nan -nanL67.0222 106.84C69.9408 105.155 71.3484 101.707 70.4434 98.4612L69.9587 96.7221C68.9043 92.9397 66.91 89.4855 64.1616 86.6812L62.8978 85.3918Z" fill="url(#paint9_linear_776_3278)"/>
<path d="M148.492 105.614C139.227 106.375 136.39 99.0595 135.794 95.4621L133.466 97.3405C133.466 97.3405 133.922 103.54 139.513 106.964C142.917 109.049 146.678 109.334 149.099 109.239C150.23 109.194 150.662 107.91 149.884 107.087L148.492 105.614Z" fill="url(#paint10_linear_776_3278)"/>
<path d="M130.27 58.5663C141.517 78.0458 134.843 102.954 115.363 114.201C95.8835 125.447 70.975 118.773 59.7285 99.2936C48.482 79.814 55.1561 54.9056 74.6357 43.6591C94.1153 32.4125 119.024 39.0867 130.27 58.5663Z" fill="url(#paint11_radial_776_3278)"/>
<path d="M141.285 30.3723C136.492 33.1401 134.8 39.2172 137.43 44.0514L137.559 44.2815L138.211 45.429C144.815 57.237 147.222 67.4252 146.917 73.1995C146.644 78.359 144.111 82.9288 137.86 90.6583C134.324 95.0307 135.002 101.442 139.375 104.978C143.747 108.514 150.158 107.836 153.694 103.464C160.182 95.4402 166.609 86.4383 167.252 74.2743C167.834 63.2664 163.644 49.1709 155.95 35.428L155.194 34.0987L155.06 33.8732C152.188 29.1781 146.079 27.6046 141.285 30.3723Z" fill="url(#paint12_radial_776_3278)"/>
<path d="M75.3677 53.3137C86.6168 46.8191 99.4334 46.3913 109.004 51.1701C110.997 52.1651 111.866 54.4277 112.152 56.6365C112.462 59.0254 113.339 61.6296 114.791 64.1439C116.243 66.6582 118.059 68.7198 119.973 70.1825C121.743 71.5348 123.268 73.4182 123.133 75.6413C122.487 86.3197 115.708 97.2059 104.459 103.701C87.9358 113.24 68.0291 109.694 59.9959 95.78C51.9627 81.8661 58.845 62.8533 75.3677 53.3137Z" fill="url(#paint13_radial_776_3278)"/>
<path d="M44.9309 118.754C46.1358 120.841 43.0239 124.894 37.98 127.806C32.9362 130.718 27.8706 131.387 26.6656 129.3C25.4606 127.213 28.5726 123.16 33.6164 120.248C38.6602 117.336 43.7259 116.667 44.9309 118.754Z" fill="url(#paint14_linear_776_3278)"/>
<path d="M43.3479 119.653C43.3414 119.646 43.3264 119.632 43.2974 119.613C43.2367 119.572 43.1174 119.511 42.9123 119.459C42.488 119.35 41.8342 119.312 40.9508 119.429C39.1927 119.661 36.8924 120.456 34.5253 121.822C32.1582 123.189 30.3199 124.784 29.2398 126.19C28.6971 126.897 28.4026 127.482 28.2846 127.904C28.2276 128.108 28.2209 128.242 28.2256 128.314C28.2278 128.349 28.2328 128.369 28.2355 128.378C28.2379 128.387 28.2396 128.39 28.24 128.391C28.2404 128.391 28.2421 128.394 28.2482 128.401C28.2547 128.407 28.2697 128.422 28.2987 128.441C28.3594 128.482 28.4787 128.543 28.6838 128.595C29.1081 128.704 29.7619 128.741 30.6453 128.625C32.4034 128.393 34.7037 127.598 37.0708 126.231C39.4379 124.865 41.2762 123.27 42.3563 121.863C42.899 121.157 43.1935 120.572 43.3115 120.15C43.3685 119.946 43.3752 119.812 43.3705 119.739C43.3683 119.705 43.3633 119.684 43.3606 119.675C43.3582 119.667 43.3565 119.664 43.3561 119.663C43.3557 119.663 43.354 119.66 43.3479 119.653ZM46.5053 117.845C47.1255 118.919 47.0993 120.105 46.8128 121.129C46.5286 122.145 45.9558 123.147 45.2407 124.078C43.8051 125.948 41.5656 127.835 38.889 129.381C36.2123 130.926 33.4579 131.922 31.121 132.23C29.957 132.384 28.8032 132.379 27.7812 132.117C26.751 131.853 25.7111 131.283 25.0908 130.209C24.4706 129.134 24.4968 127.949 24.7833 126.925C25.0675 125.909 25.6403 124.907 26.3554 123.976C27.791 122.106 30.0305 120.219 32.7071 118.673C35.3838 117.128 38.1382 116.132 40.4751 115.824C41.6391 115.67 42.7929 115.675 43.8149 115.937C44.8451 116.201 45.885 116.771 46.5053 117.845Z" fill="url(#paint15_linear_776_3278)"/>
<path d="M75.368 53.3137C86.617 46.8191 99.4337 46.3918 109.005 51.1706C110.997 52.1656 111.866 54.428 112.152 56.6367C112.462 59.0255 113.34 61.6297 114.791 64.1439C116.243 66.6579 118.059 68.7197 119.973 70.1825C120.91 70.899 121.779 71.7651 122.369 72.7513C119.227 79.0578 113.97 84.7727 106.996 88.7994C90.4731 98.3389 70.5664 94.7926 62.5332 80.8787C60.7158 77.7308 59.6637 74.3218 59.312 70.8207C62.3429 63.9404 67.8594 57.6489 75.368 53.3137Z" fill="url(#paint16_radial_776_3278)"/>
<path d="M24.555 121.281C22.145 117.106 23.5752 111.769 27.7494 109.359V109.359C31.9236 106.949 37.2611 108.379 39.6711 112.553L41.6105 115.912C43.351 118.927 42.3181 122.782 39.3034 124.522L35.1045 126.947C32.0898 128.687 28.2349 127.654 26.4944 124.64L24.555 121.281Z" fill="url(#paint17_linear_776_3278)"/>
<path d="M114.127 55.8145C113.222 52.5682 114.629 49.1211 117.548 47.436C121.895 44.9262 127.454 46.4156 129.964 50.7629L133.966 57.6943C136.476 62.0416 134.986 67.6003 130.639 70.1102C127.72 71.7952 124.031 71.2906 121.672 68.8838L120.409 67.5944C117.66 64.7901 115.666 61.336 114.612 57.5536L114.127 55.8145Z" fill="url(#paint18_linear_776_3278)"/>
<path d="M111.07 106.765C123.222 99.7485 131.043 89.8089 134.624 84.7885C135.786 83.1596 137.451 83.421 138.07 85.3235C139.267 89.0002 139.65 92.8899 137.636 96.1908C134.304 101.654 127.248 109.858 116.454 116.09C105.66 122.322 95.0265 124.33 88.6292 124.485C84.7636 124.579 81.5866 122.302 79.0009 119.427C77.6629 117.94 78.2691 116.367 80.2607 116.175C86.3991 115.584 98.9175 113.781 111.07 106.765Z" fill="url(#paint19_linear_776_3278)"/>
<path d="M112.452 132.495C111.411 129.819 112.479 126.783 114.966 125.347L127.105 118.339C129.592 116.903 132.754 117.497 134.551 119.736L139.157 125.475C141.389 128.256 140.616 132.372 137.528 134.155L123.451 142.283C120.363 144.066 116.412 142.676 115.12 139.353L112.452 132.495Z" fill="url(#paint20_radial_776_3278)"/>
<path d="M123.097 129.051C124.101 130.79 123.505 133.014 121.766 134.018C120.027 135.022 117.803 134.426 116.798 132.687C115.794 130.948 116.39 128.724 118.129 127.72C119.869 126.716 122.093 127.311 123.097 129.051Z" fill="url(#paint21_radial_776_3278)"/>
<path d="M128.136 126.142C128.738 127.185 128.381 128.519 127.337 129.122C126.293 129.724 124.959 129.367 124.357 128.323C123.754 127.28 124.112 125.945 125.155 125.343C126.199 124.74 127.533 125.098 128.136 126.142Z" fill="url(#paint22_radial_776_3278)"/>
<path d="M133.174 123.233C133.777 124.276 133.419 125.611 132.376 126.213C131.332 126.816 129.998 126.458 129.395 125.414C128.793 124.371 129.15 123.036 130.194 122.434C131.237 121.831 132.572 122.189 133.174 123.233Z" fill="url(#paint23_radial_776_3278)"/>
<path d="M105.908 97.825C120.14 89.6085 129.323 78.0312 133.503 72.2366C134.839 70.3844 136.749 70.6952 137.449 72.869C138.815 77.1124 139.229 81.5977 136.885 85.3898C132.977 91.7138 124.705 101.249 112.09 108.532C99.4753 115.815 87.0817 118.211 79.6508 118.434C75.1949 118.568 71.5176 115.966 68.5257 112.662C66.9931 110.969 67.6788 109.16 69.9508 108.929C77.059 108.206 91.677 106.041 105.908 97.825Z" fill="url(#paint24_linear_776_3278)"/>
<path d="M152.961 126.464C154.57 124.544 155.975 122.551 157.039 120.537C157.966 118.783 157.581 116.684 156.357 115.123L154.831 113.178C153.818 111.887 151.746 112.117 150.833 113.481C149.778 115.059 148.487 116.637 147.051 118.177C142.236 123.339 135.04 128.874 126.636 133.726C118.232 138.578 109.84 142.043 102.962 143.631C100.911 144.105 98.8994 144.434 97.0051 144.559C95.3671 144.667 94.132 146.347 94.7441 147.871L95.6658 150.164C96.4051 152.004 98.031 153.387 100.012 153.461C102.289 153.546 104.718 153.326 107.186 152.892C114.533 151.601 123.366 148.211 132.091 143.173C140.816 138.135 148.169 132.181 152.961 126.464Z" fill="url(#paint25_linear_776_3278)"/>
<path d="M157.787 128.414C157.184 138.425 149.446 150.711 144.459 155.535C144.089 155.894 144.04 156.474 144.362 156.876C145.695 158.537 148.138 158.806 149.609 157.266C156.953 149.573 161.494 137.596 162.588 131.311C162.94 129.288 161.516 127.632 159.532 127.101C158.677 126.871 157.84 127.531 157.787 128.414Z" fill="url(#paint26_linear_776_3278)"/>
<path d="M107.09 157.684C116.061 162.167 130.57 161.609 137.241 159.702C137.737 159.561 138.264 159.808 138.451 160.289C139.223 162.274 138.234 164.524 136.165 165.027C125.831 167.541 113.188 165.485 107.198 163.29C105.27 162.584 104.548 160.522 105.08 158.538C105.309 157.683 106.298 157.288 107.09 157.684Z" fill="url(#paint27_linear_776_3278)"/>
<path d="M135.046 41.6957C136.471 43.6394 141.434 42.4235 146.131 38.9801C150.828 35.5367 153.481 31.1696 152.056 29.226C150.631 27.2824 145.668 28.4982 140.971 31.9416C136.274 35.385 133.621 39.7521 135.046 41.6957Z" fill="url(#paint28_linear_776_3278)"/>
<path d="M136.507 40.6092C136.503 40.6005 136.496 40.5811 136.49 40.5467C136.477 40.4748 136.47 40.341 136.504 40.1322C136.576 39.7 136.805 39.0865 137.267 38.3249C138.188 36.8093 139.842 35.024 142.046 33.408C144.251 31.792 146.451 30.7518 148.173 30.3298C149.039 30.1177 149.693 30.0839 150.126 30.1458C150.336 30.1757 150.461 30.2235 150.526 30.2571C150.557 30.2733 150.573 30.2859 150.58 30.292C150.587 30.2976 150.589 30.3004 150.59 30.301C150.59 30.3017 150.592 30.3044 150.596 30.3126C150.599 30.3213 150.606 30.3407 150.612 30.3751C150.625 30.447 150.633 30.5808 150.598 30.7896C150.527 31.2218 150.298 31.8353 149.835 32.5969C148.915 34.1125 147.261 35.8978 145.056 37.5138C142.852 39.1298 140.652 40.17 138.929 40.592C138.064 40.8041 137.41 40.8379 136.976 40.776C136.766 40.7461 136.641 40.6983 136.577 40.6647C136.546 40.6486 136.529 40.6359 136.522 40.6298C136.515 40.6242 136.513 40.6214 136.513 40.6208C136.512 40.6201 136.51 40.6174 136.507 40.6092ZM133.58 42.7707C134.313 43.7712 135.409 44.2248 136.462 44.3751C137.506 44.5243 138.654 44.4035 139.794 44.1241C142.084 43.5632 144.713 42.2739 147.206 40.4465C149.699 38.6192 151.72 36.4992 152.943 34.4846C153.553 33.4812 154.013 32.4231 154.185 31.3822C154.359 30.333 154.256 29.1515 153.522 28.1511C152.789 27.1506 151.693 26.697 150.64 26.5467C149.596 26.3975 148.449 26.5183 147.308 26.7977C145.019 27.3586 142.389 28.6479 139.896 30.4753C137.404 32.3026 135.383 34.4226 134.159 36.4372C133.549 37.4407 133.089 38.4987 132.917 39.5396C132.744 40.5888 132.847 41.7703 133.58 42.7707Z" fill="url(#paint29_linear_776_3278)"/>
<path d="M145.566 24.064C142.717 20.1767 137.255 19.3356 133.368 22.1853V22.1853C129.481 25.035 128.64 30.4965 131.489 34.3837L133.783 37.512C135.841 40.3194 139.785 40.9269 142.593 38.8688L146.503 36.0022C149.31 33.944 149.918 29.9997 147.86 27.1922L145.566 24.064Z" fill="url(#paint30_linear_776_3278)"/>
<path d="M92.5245 54.469L90.8525 54.9038C89.067 55.3682 88.4779 57.6077 89.8038 58.8906L92.5761 61.5729C93.7477 62.7065 95.2776 63.3967 96.9028 63.5248L101.214 63.8648C104.512 64.1248 106.906 60.7897 105.605 57.7484C105.133 56.6434 104.229 55.7797 103.103 55.3583L102.05 54.964C99.0015 53.8226 95.6749 53.6497 92.5245 54.469Z" fill="white" fill-opacity="0.5"/>
<defs>
<linearGradient id="paint0_linear_776_3278" x1="165.335" y1="219.626" x2="151.964" y2="206.255" gradientUnits="userSpaceOnUse">
<stop stop-color="#A6F9E1"/>
<stop offset="1" stop-color="#4ED0AA"/>
</linearGradient>
<radialGradient id="paint1_radial_776_3278" cx="0" cy="0" r="1" gradientUnits="userSpaceOnUse" gradientTransform="translate(57.6642 121.9) rotate(74.0362) scale(35.9835 49.8233)">
<stop stop-color="#4ED0AA"/>
<stop offset="1" stop-color="#5E35F1"/>
</radialGradient>
<linearGradient id="paint2_linear_776_3278" x1="168.827" y1="200.866" x2="169.762" y2="181.98" gradientUnits="userSpaceOnUse">
<stop stop-color="#A6F9E1"/>
<stop offset="1" stop-color="#4ED0AA"/>
</linearGradient>
<linearGradient id="paint3_linear_776_3278" x1="156.851" y1="210.625" x2="150.68" y2="204.454" gradientUnits="userSpaceOnUse">
<stop stop-color="#3618A3"/>
<stop offset="1" stop-color="#5E35F1"/>
</linearGradient>
<linearGradient id="paint4_linear_776_3278" x1="156.851" y1="210.625" x2="150.68" y2="204.454" gradientUnits="userSpaceOnUse">
<stop stop-color="#A187FF"/>
<stop offset="1" stop-color="#4823CF"/>
</linearGradient>
<linearGradient id="paint5_linear_776_3278" x1="169.799" y1="188.538" x2="170.231" y2="179.821" gradientUnits="userSpaceOnUse">
<stop stop-color="#3618A3"/>
<stop offset="1" stop-color="#5E35F1"/>
</linearGradient>
<linearGradient id="paint6_linear_776_3278" x1="169.799" y1="188.538" x2="170.231" y2="179.821" gradientUnits="userSpaceOnUse">
<stop stop-color="#A187FF"/>
<stop offset="1" stop-color="#4823CF"/>
</linearGradient>
<radialGradient id="paint7_radial_776_3278" cx="0" cy="0" r="1" gradientUnits="userSpaceOnUse" gradientTransform="translate(138.876 147.653) rotate(43.9577) scale(59.4334 71.6791)">
<stop offset="0.197115" stop-color="#87EFD0"/>
<stop offset="1" stop-color="#7B56FF"/>
</radialGradient>
<linearGradient id="paint8_linear_776_3278" x1="96.9412" y1="89.5659" x2="135.188" y2="170.357" gradientUnits="userSpaceOnUse">
<stop offset="0.139111" stop-color="#5E35F1"/>
<stop offset="0.581145" stop-color="#EFEAFF"/>
<stop offset="0.895219" stop-color="#4ED0AA"/>
</linearGradient>
<linearGradient id="paint9_linear_776_3278" x1="52.6054" y1="100.047" x2="68.3514" y2="90.9561" gradientUnits="userSpaceOnUse">
<stop stop-color="#7B56FF"/>
<stop offset="1" stop-color="#3618A3"/>
</linearGradient>
<linearGradient id="paint10_linear_776_3278" x1="138.141" y1="94.3763" x2="146.081" y2="111.538" gradientUnits="userSpaceOnUse">
<stop stop-color="#4823CF"/>
<stop offset="1" stop-color="#A187FF"/>
</linearGradient>
<radialGradient id="paint11_radial_776_3278" cx="0" cy="0" r="1" gradientUnits="userSpaceOnUse" gradientTransform="translate(100.791 42.415) rotate(78.5249) scale(73.25)">
<stop stop-color="#A187FF"/>
<stop offset="1" stop-color="#A6F9E1"/>
</radialGradient>
<radialGradient id="paint12_radial_776_3278" cx="0" cy="0" r="1" gradientUnits="userSpaceOnUse" gradientTransform="translate(136.544 60.3556) rotate(35.7904) scale(50.5216 46.9684)">
<stop stop-color="#4ED0AA"/>
<stop offset="1" stop-color="#5E35F1"/>
</radialGradient>
<radialGradient id="paint13_radial_776_3278" cx="0" cy="0" r="1" gradientUnits="userSpaceOnUse" gradientTransform="translate(94.5771 57.0741) rotate(113.848) scale(47.7551 45.6938)">
<stop stop-color="#4823CF"/>
<stop offset="1" stop-color="#261172"/>
</radialGradient>
<linearGradient id="paint14_linear_776_3278" x1="33.6164" y1="120.248" x2="37.98" y2="127.806" gradientUnits="userSpaceOnUse">
<stop stop-color="#3618A3"/>
<stop offset="1" stop-color="#5E35F1"/>
</linearGradient>
<linearGradient id="paint15_linear_776_3278" x1="33.6162" y1="120.248" x2="37.9799" y2="127.806" gradientUnits="userSpaceOnUse">
<stop stop-color="#A187FF"/>
<stop offset="1" stop-color="#4823CF"/>
</linearGradient>
<radialGradient id="paint16_radial_776_3278" cx="0" cy="0" r="1" gradientUnits="userSpaceOnUse" gradientTransform="translate(99.7666 40.6415) rotate(112.509) scale(46.2879 44.9016)">
<stop stop-color="#7B56FF"/>
<stop offset="1" stop-color="#3618A3"/>
</radialGradient>
<linearGradient id="paint17_linear_776_3278" x1="27.7494" y1="109.359" x2="37.204" y2="125.735" gradientUnits="userSpaceOnUse">
<stop stop-color="#A6F9E1"/>
<stop offset="1" stop-color="#4ED0AA"/>
</linearGradient>
<linearGradient id="paint18_linear_776_3278" x1="131.965" y1="54.2286" x2="116.219" y2="63.3195" gradientUnits="userSpaceOnUse">
<stop stop-color="#7B56FF"/>
<stop offset="1" stop-color="#3618A3"/>
</linearGradient>
<linearGradient id="paint19_linear_776_3278" x1="106.636" y1="99.0846" x2="115.504" y2="114.445" gradientUnits="userSpaceOnUse">
<stop stop-color="#A187FF"/>
<stop offset="1" stop-color="#4823CF"/>
</linearGradient>
<radialGradient id="paint20_radial_776_3278" cx="0" cy="0" r="1" gradientUnits="userSpaceOnUse" gradientTransform="translate(129.853 116.752) rotate(109.086) scale(28.8719 45.5288)">
<stop stop-color="#EFEAFF"/>
<stop offset="1" stop-color="#4ED0AA"/>
</radialGradient>
<radialGradient id="paint21_radial_776_3278" cx="0" cy="0" r="1" gradientUnits="userSpaceOnUse" gradientTransform="translate(119.948 130.869) rotate(60) scale(3.63637 3.63637)">
<stop stop-color="#7B56FF"/>
<stop offset="1" stop-color="#A187FF"/>
</radialGradient>
<radialGradient id="paint22_radial_776_3278" cx="0" cy="0" r="1" gradientUnits="userSpaceOnUse" gradientTransform="translate(126.246 127.232) rotate(60) scale(2.18182)">
<stop stop-color="#7B56FF"/>
<stop offset="1" stop-color="#A187FF"/>
</radialGradient>
<radialGradient id="paint23_radial_776_3278" cx="0" cy="0" r="1" gradientUnits="userSpaceOnUse" gradientTransform="translate(131.285 124.324) rotate(60) scale(2.18182)">
<stop stop-color="#7B56FF"/>
<stop offset="1" stop-color="#A187FF"/>
</radialGradient>
<linearGradient id="paint24_linear_776_3278" x1="100.817" y1="89.0073" x2="110.999" y2="106.643" gradientUnits="userSpaceOnUse">
<stop stop-color="#A187FF"/>
<stop offset="1" stop-color="#4823CF"/>
</linearGradient>
<linearGradient id="paint25_linear_776_3278" x1="132.091" y1="143.173" x2="123" y2="127.427" gradientUnits="userSpaceOnUse">
<stop stop-color="#5E35F1"/>
<stop offset="1" stop-color="#A187FF"/>
</linearGradient>
<linearGradient id="paint26_linear_776_3278" x1="166.784" y1="134.9" x2="140.33" y2="150.173" gradientUnits="userSpaceOnUse">
<stop stop-color="#A187FF"/>
<stop offset="1" stop-color="#5E35F1"/>
</linearGradient>
<linearGradient id="paint27_linear_776_3278" x1="108.209" y1="168.718" x2="134.662" y2="153.446" gradientUnits="userSpaceOnUse">
<stop stop-color="#A187FF"/>
<stop offset="1" stop-color="#5E35F1"/>
</linearGradient>
<linearGradient id="paint28_linear_776_3278" x1="140.971" y1="31.9416" x2="146.131" y2="38.9801" gradientUnits="userSpaceOnUse">
<stop stop-color="#3618A3"/>
<stop offset="1" stop-color="#5E35F1"/>
</linearGradient>
<linearGradient id="paint29_linear_776_3278" x1="140.971" y1="31.9416" x2="146.131" y2="38.9802" gradientUnits="userSpaceOnUse">
<stop stop-color="#A187FF"/>
<stop offset="1" stop-color="#4823CF"/>
</linearGradient>
<linearGradient id="paint30_linear_776_3278" x1="133.368" y1="22.1853" x2="144.548" y2="37.4355" gradientUnits="userSpaceOnUse">
<stop stop-color="#A6F9E1"/>
<stop offset="1" stop-color="#4ED0AA"/>
</linearGradient>
</defs>
</svg>
