<svg width="312" height="312" viewBox="0 0 312 312" fill="none" xmlns="http://www.w3.org/2000/svg">
<path d="M0 24C0 10.7452 10.7452 0 24 0H288C301.255 0 312 10.7452 312 24V288C312 301.255 301.255 312 288 312H24C10.7452 312 0 301.255 0 288V24Z" fill="url(#paint0_radial_42_1568)"/>
<mask id="mask0_42_1568" style="mask-type:alpha" maskUnits="userSpaceOnUse" x="0" y="0" width="312" height="312">
<path d="M0 24C0 10.7452 10.7452 0 24 0H288C301.255 0 312 10.7452 312 24V288C312 301.255 301.255 312 288 312H24C10.7452 312 0 301.255 0 288V24Z" fill="url(#paint1_radial_42_1568)"/>
</mask>
<g mask="url(#mask0_42_1568)">
<path d="M132.958 213.656C132.958 231.298 118.656 245.6 101.014 245.6C83.3713 245.6 69.0693 231.298 69.0693 213.656C69.0693 196.014 83.3713 181.712 101.014 181.712C118.656 181.712 132.958 196.014 132.958 213.656Z" fill="url(#paint2_linear_42_1568)"/>
<path d="M100.195 221.028C100.195 244.551 124.765 263.62 155.073 263.62C185.382 263.62 209.952 244.551 209.952 221.028C209.952 197.505 185.382 178.435 155.073 178.435C124.765 178.435 100.195 197.505 100.195 221.028Z" fill="url(#paint3_linear_42_1568)"/>
<path d="M179.403 160.881C179.298 162.281 179.243 163.695 179.243 165.122C179.243 187.059 191.874 206.043 210.259 215.206C210.364 213.807 210.417 212.393 210.417 210.967C210.417 189.03 197.787 170.044 179.403 160.881Z" fill="url(#paint4_linear_42_1568)"/>
<path d="M154.486 155.037C123.597 155.037 98.5565 180.078 98.5565 210.967C98.5566 215.216 99.0344 219.355 99.9324 223.333C104.837 224.242 109.894 224.72 115.061 224.72C150.824 224.72 181.271 201.969 192.724 170.152C182.723 160.778 169.275 155.037 154.486 155.037Z" fill="url(#paint5_linear_42_1568)"/>
<path d="M93.1703 98.0468C97.4247 95.2259 102.548 97.2753 104.614 102.624C106.68 107.972 104.905 114.595 100.651 117.416C100.068 117.802 99.4923 118.208 98.9231 118.634C100.179 120.197 101.051 122.289 101.32 124.706C101.982 130.662 98.7225 136.338 94.0396 137.384L82.2595 140.011C74.292 156.088 70.909 175.549 72.5764 189.624C74.2371 203.642 83.8916 223.291 104.845 241.05C108.725 244.34 109.679 251.12 106.975 256.194C104.272 261.268 98.9348 262.715 95.0542 259.426C71.9859 239.874 58.2663 215.766 55.641 193.605C53.0847 172.025 58.7186 144.751 70.4411 123.872C76.2983 113.44 83.8965 104.197 93.1703 98.0468Z" fill="url(#paint6_linear_42_1568)"/>
<path d="M62.3513 171.645C71.5586 169.48 80.156 177.062 81.7664 188.643L81.9679 190.189C83.448 200.585 89.4198 215.149 108.253 231.112C116.014 237.691 117.922 251.251 112.516 261.399C107.109 271.547 96.4349 274.441 88.6735 267.863C64.4765 247.354 51.4263 223.642 48.1171 198.365L47.9658 197.16L47.9064 196.603C46.76 184.913 53.144 173.809 62.3513 171.645Z" fill="url(#paint7_radial_42_1568)"/>
<path d="M219.168 98.0468C214.914 95.2259 209.79 97.2753 207.724 102.624C205.659 107.972 207.433 114.595 211.688 117.416C212.27 117.802 212.846 118.208 213.415 118.634C212.159 120.197 211.287 122.289 211.019 124.706C210.357 130.662 213.616 136.338 218.299 137.384L230.079 140.011C238.046 156.088 241.429 175.549 239.762 189.624C238.101 203.642 228.447 223.291 207.494 241.05C203.613 244.34 202.66 251.12 205.363 256.194C208.066 261.268 213.404 262.715 217.284 259.426C240.353 239.874 254.072 215.766 256.697 193.605C259.254 172.025 253.62 144.751 241.897 123.872C236.04 113.44 228.442 104.197 219.168 98.0468Z" fill="url(#paint8_linear_42_1568)"/>
<path d="M248.501 172.395C239.294 170.23 230.697 177.812 229.086 189.393L228.885 190.939C227.405 201.335 221.433 215.899 202.599 231.862C194.838 238.44 192.93 252 198.337 262.149C203.744 272.297 214.418 275.191 222.179 268.613C246.376 248.104 259.426 224.392 262.735 199.115L262.887 197.91L262.946 197.352C264.093 185.662 257.708 174.559 248.501 172.395Z" fill="url(#paint9_radial_42_1568)"/>
<path d="M125.804 277.545L91.1494 337.917C75.653 364.915 85.2934 399.374 112.55 414.412L113.167 414.753C121.089 419.123 131.054 416.245 135.425 408.323C139.795 400.402 136.917 390.436 128.995 386.065L128.376 385.725C117.153 379.533 113.184 365.344 119.565 354.227L144.774 310.308H167.982L190.542 361.92C191.917 365.065 192.568 368.48 192.447 371.911L191.123 409.664L191.115 410.507C191.249 419.173 198.161 426.303 206.92 426.61C215.68 426.917 223.074 420.289 223.816 411.654L223.867 410.812L225.191 373.059C225.484 364.728 223.902 356.437 220.563 348.799L189.417 277.545H125.804Z" fill="url(#paint10_radial_42_1568)"/>
<path d="M173.912 219.39C173.912 226.627 179.779 232.495 187.017 232.495C194.255 232.495 200.123 226.627 200.123 219.39C200.123 212.152 194.255 206.284 187.017 206.284C179.779 206.284 173.912 212.152 173.912 219.39Z" fill="url(#paint11_linear_42_1568)"/>
<path d="M187.017 206.284C183.986 206.284 181.197 207.316 178.977 209.044C178.527 210.285 178.281 211.623 178.281 213.019C178.281 219.453 183.496 224.667 189.929 224.667C194.302 224.667 198.112 222.257 200.104 218.692C199.741 211.779 194.021 206.284 187.017 206.284Z" fill="url(#paint12_linear_42_1568)"/>
<path d="M189.565 211.017C189.565 212.223 190.543 213.201 191.749 213.201C192.956 213.201 193.934 212.223 193.934 211.017C193.934 209.81 192.956 208.833 191.749 208.833C190.543 208.833 189.565 209.81 189.565 211.017Z" fill="white"/>
<path d="M142.787 219.39C142.787 226.627 148.654 232.495 155.892 232.495C163.13 232.495 168.998 226.627 168.998 219.39C168.998 212.152 163.13 206.284 155.892 206.284C148.654 206.284 142.787 212.152 142.787 219.39Z" fill="url(#paint13_linear_42_1568)"/>
<path d="M155.892 206.284C152.861 206.284 150.072 207.316 147.852 209.044C147.402 210.285 147.156 211.623 147.156 213.019C147.156 219.453 152.371 224.667 158.804 224.667C163.177 224.667 166.987 222.257 168.979 218.692C168.616 211.779 162.896 206.284 155.892 206.284Z" fill="url(#paint14_linear_42_1568)"/>
<path d="M158.441 211.017C158.441 212.223 159.419 213.201 160.625 213.201C161.831 213.201 162.809 212.223 162.809 211.017C162.809 209.81 161.831 208.833 160.625 208.833C159.419 208.833 158.441 209.81 158.441 211.017Z" fill="white"/>
<path d="M135.289 292.288L134.379 292.301C124.994 292.561 116.152 296.839 110.122 304.074L76.6656 344.21L76.1328 344.868C65.1424 358.754 67.1734 378.951 80.8554 390.356C94.7547 401.941 115.415 400.065 127.001 386.166L150.633 357.815H161.11L176.909 381.652C186.906 396.734 207.238 400.857 222.32 390.86C237.403 380.863 241.526 360.531 231.529 345.449L206.009 306.95L205.428 306.102C199.299 297.455 189.343 292.288 178.701 292.288H135.289Z" fill="url(#paint15_radial_42_1568)"/>
<path d="M215.018 260.526C215.018 242.278 194.5 237.241 179.579 237.241C164.658 237.241 146 237.241 129.232 237.241C112.464 237.241 93.7936 242.278 93.7936 260.526C93.7936 260.526 93.7936 248 93.7936 276.795C93.7936 305.59 92.8729 311.961 108.501 320.296L127.732 330.553C144.403 339.444 164.409 339.444 181.08 330.553L200.31 320.296C215.939 311.961 215.018 305.59 215.018 276.795C215.018 248 215.018 260.526 215.018 260.526Z" fill="url(#paint16_linear_42_1568)"/>
<path d="M168.663 182.444C168.195 180.696 166.399 179.659 164.651 180.127L151.992 183.519C150.244 183.988 149.207 185.784 149.675 187.532C150.144 189.28 151.94 190.317 153.688 189.849L166.347 186.457C168.095 185.988 169.132 184.192 168.663 182.444Z" fill="url(#paint17_linear_42_1568)"/>
<path d="M199.788 187.532C200.257 185.784 199.219 183.988 197.472 183.519L184.813 180.127C183.065 179.659 181.268 180.696 180.8 182.444C180.332 184.192 181.369 185.988 183.117 186.457L195.776 189.849C197.523 190.317 199.32 189.28 199.788 187.532Z" fill="url(#paint18_linear_42_1568)"/>
<path d="M147.702 58.0298C147.702 72.958 135.601 85.0596 120.672 85.0596C105.744 85.0596 93.6426 72.958 93.6426 58.0298C93.6426 43.1017 105.744 31 120.672 31C135.601 31 147.702 43.1017 147.702 58.0298Z" fill="#FFC815"/>
<path d="M142.788 58.0298C142.788 70.2438 132.886 80.1451 120.672 80.1451C108.458 80.1451 98.5571 70.2438 98.5571 58.0298C98.5571 45.8159 108.458 35.9146 120.672 35.9146C132.886 35.9146 142.788 45.8159 142.788 58.0298Z" fill="#EDB500"/>
<path d="M120.312 43.2863H122.409V71.1351H120.312V43.2863ZM116.872 62.3873C117.003 62.9989 117.254 63.5559 117.626 64.0583C118.019 64.5388 118.532 64.921 119.165 65.205C119.821 65.4889 120.596 65.6309 121.492 65.6309C122.868 65.6309 123.894 65.3142 124.571 64.6808C125.248 64.0255 125.587 63.261 125.587 62.3873C125.587 61.6665 125.369 61.0659 124.932 60.5853C124.517 60.1048 123.927 59.7007 123.163 59.3731C122.398 59.0236 121.524 58.696 120.541 58.3902C119.646 58.1281 118.783 57.855 117.953 57.5711C117.123 57.2653 116.37 56.894 115.693 56.4571C115.037 55.9985 114.513 55.4196 114.12 54.7207C113.727 53.9999 113.541 53.1044 113.563 52.0341C113.563 50.6362 113.891 49.4567 114.546 48.4956C115.201 47.5127 116.118 46.7701 117.298 46.2677C118.477 45.7654 119.832 45.5142 121.361 45.5142C122.649 45.5142 123.807 45.6998 124.833 46.0711C125.882 46.4206 126.767 46.9448 127.487 47.6438C128.208 48.3209 128.743 49.1618 129.093 50.1666L125.522 51.3461C125.39 50.8655 125.128 50.4396 124.735 50.0683C124.342 49.6751 123.851 49.3693 123.261 49.1509C122.693 48.9325 122.07 48.8123 121.393 48.7905C120.651 48.7687 119.985 48.8779 119.395 49.1181C118.827 49.3584 118.368 49.7079 118.019 50.1666C117.669 50.6034 117.494 51.1167 117.494 51.7064C117.494 52.3836 117.691 52.9187 118.084 53.3119C118.477 53.6832 118.991 53.9999 119.624 54.262C120.279 54.5023 121 54.7534 121.786 55.0156C122.704 55.2777 123.61 55.5835 124.506 55.9329C125.423 56.2606 126.253 56.6865 126.996 57.2107C127.76 57.7131 128.372 58.3574 128.831 59.1437C129.289 59.9301 129.519 60.913 129.519 62.0924C129.519 63.3593 129.224 64.506 128.634 65.5326C128.066 66.5592 127.192 67.3783 126.013 67.9899C124.833 68.6014 123.37 68.9072 121.623 68.9072C120.203 68.9072 118.903 68.6997 117.724 68.2847C116.566 67.8479 115.594 67.2363 114.808 66.45C114.043 65.6418 113.541 64.6917 113.301 63.5996L116.872 62.3873Z" fill="#FFE695"/>
<path d="M196.847 107.175C196.847 122.103 184.746 134.205 169.817 134.205C154.889 134.205 142.788 122.103 142.788 107.175C142.788 92.2468 154.889 80.1451 169.817 80.1451C184.746 80.1451 196.847 92.2468 196.847 107.175Z" fill="#FFC815"/>
<path d="M191.933 107.175C191.933 119.389 182.031 129.29 169.817 129.29C157.604 129.29 147.702 119.389 147.702 107.175C147.702 94.961 157.604 85.0597 169.817 85.0597C182.031 85.0597 191.933 94.961 191.933 107.175Z" fill="#EDB500"/>
<path d="M169.457 92.4314H171.554V120.28H169.457V92.4314ZM166.017 111.532C166.148 112.144 166.399 112.701 166.771 113.203C167.164 113.684 167.677 114.066 168.31 114.35C168.966 114.634 169.741 114.776 170.637 114.776C172.013 114.776 173.039 114.459 173.716 113.826C174.394 113.171 174.732 112.406 174.732 111.532C174.732 110.812 174.514 110.211 174.077 109.73C173.662 109.25 173.072 108.846 172.308 108.518C171.543 108.169 170.669 107.841 169.687 107.535C168.791 107.273 167.928 107 167.098 106.716C166.268 106.41 165.515 106.039 164.838 105.602C164.182 105.144 163.658 104.565 163.265 103.866C162.872 103.145 162.686 102.249 162.708 101.179C162.708 99.7813 163.036 98.6018 163.691 97.6408C164.346 96.6579 165.263 95.9152 166.443 95.4129C167.622 94.9105 168.977 94.6593 170.506 94.6593C171.794 94.6593 172.952 94.845 173.979 95.2163C175.027 95.5658 175.912 96.09 176.632 96.7889C177.353 97.466 177.888 98.307 178.238 99.3117L174.667 100.491C174.535 100.011 174.273 99.5847 173.88 99.2134C173.487 98.8203 172.996 98.5145 172.406 98.296C171.838 98.0776 171.215 97.9575 170.538 97.9356C169.796 97.9138 169.13 98.023 168.54 98.2633C167.972 98.5035 167.513 98.853 167.164 99.3117C166.814 99.7486 166.64 100.262 166.64 100.852C166.64 101.529 166.836 102.064 167.229 102.457C167.622 102.828 168.136 103.145 168.769 103.407C169.424 103.647 170.145 103.899 170.932 104.161C171.849 104.423 172.755 104.729 173.651 105.078C174.568 105.406 175.398 105.832 176.141 106.356C176.905 106.858 177.517 107.503 177.976 108.289C178.434 109.075 178.664 110.058 178.664 111.238C178.664 112.504 178.369 113.651 177.779 114.678C177.211 115.704 176.337 116.523 175.158 117.135C173.979 117.747 172.515 118.052 170.768 118.052C169.348 118.052 168.048 117.845 166.869 117.43C165.711 116.993 164.739 116.381 163.953 115.595C163.188 114.787 162.686 113.837 162.446 112.745L166.017 111.532Z" fill="#FFE695"/>
</g>
<defs>
<radialGradient id="paint0_radial_42_1568" cx="0" cy="0" r="1" gradientUnits="userSpaceOnUse" gradientTransform="translate(156 156) rotate(-90) scale(156)">
<stop offset="0.379808" stop-color="#FFEEB6"/>
<stop offset="1" stop-color="#24A57F"/>
</radialGradient>
<radialGradient id="paint1_radial_42_1568" cx="0" cy="0" r="1" gradientUnits="userSpaceOnUse" gradientTransform="translate(156 156) rotate(-90) scale(156)">
<stop stop-color="#2E58F0"/>
<stop offset="1" stop-color="#261172"/>
</radialGradient>
<linearGradient id="paint2_linear_42_1568" x1="101.014" y1="181.712" x2="101.014" y2="245.6" gradientUnits="userSpaceOnUse">
<stop stop-color="#042119"/>
<stop offset="1" stop-color="#066146"/>
</linearGradient>
<linearGradient id="paint3_linear_42_1568" x1="155.073" y1="178.435" x2="155.073" y2="263.62" gradientUnits="userSpaceOnUse">
<stop stop-color="#FFB187"/>
<stop offset="1" stop-color="#E45F17"/>
</linearGradient>
<linearGradient id="paint4_linear_42_1568" x1="194.83" y1="215.206" x2="194.83" y2="160.881" gradientUnits="userSpaceOnUse">
<stop stop-color="#042119"/>
<stop offset="1" stop-color="#066146"/>
</linearGradient>
<linearGradient id="paint5_linear_42_1568" x1="145.64" y1="155.037" x2="145.64" y2="224.72" gradientUnits="userSpaceOnUse">
<stop stop-color="#066146"/>
<stop offset="1" stop-color="#042119"/>
</linearGradient>
<linearGradient id="paint6_linear_42_1568" x1="95.6328" y1="158.112" x2="59.3811" y2="132.299" gradientUnits="userSpaceOnUse">
<stop stop-color="#FFB187"/>
<stop offset="1" stop-color="#E45F17"/>
</linearGradient>
<radialGradient id="paint7_radial_42_1568" cx="0" cy="0" r="1" gradientUnits="userSpaceOnUse" gradientTransform="translate(105.251 175.203) rotate(146.771) scale(76.4012 119.809)">
<stop stop-color="white"/>
<stop offset="1" stop-color="#FFDA62"/>
</radialGradient>
<linearGradient id="paint8_linear_42_1568" x1="216.706" y1="158.112" x2="252.957" y2="132.299" gradientUnits="userSpaceOnUse">
<stop stop-color="#FFB187"/>
<stop offset="1" stop-color="#E45F17"/>
</linearGradient>
<radialGradient id="paint9_radial_42_1568" cx="0" cy="0" r="1" gradientUnits="userSpaceOnUse" gradientTransform="translate(205.602 175.953) rotate(33.229) scale(76.4012 119.809)">
<stop stop-color="white"/>
<stop offset="1" stop-color="#FFDA62"/>
</radialGradient>
<radialGradient id="paint10_radial_42_1568" cx="0" cy="0" r="1" gradientUnits="userSpaceOnUse" gradientTransform="translate(147.701 324.233) rotate(106.042) scale(133.873 161.456)">
<stop offset="0.197115" stop-color="#FE7F3B"/>
<stop offset="1" stop-color="#A94915"/>
</radialGradient>
<linearGradient id="paint11_linear_42_1568" x1="187.017" y1="206.284" x2="187.017" y2="232.495" gradientUnits="userSpaceOnUse">
<stop stop-color="#EFEAFF"/>
<stop offset="1" stop-color="#FFDFCD"/>
</linearGradient>
<linearGradient id="paint12_linear_42_1568" x1="189.202" y1="206.372" x2="189.202" y2="229.582" gradientUnits="userSpaceOnUse">
<stop stop-color="#066146"/>
<stop offset="1" stop-color="#042119"/>
</linearGradient>
<linearGradient id="paint13_linear_42_1568" x1="155.892" y1="206.284" x2="155.892" y2="232.495" gradientUnits="userSpaceOnUse">
<stop stop-color="#EFEAFF"/>
<stop offset="1" stop-color="#FFDFCD"/>
</linearGradient>
<linearGradient id="paint14_linear_42_1568" x1="158.077" y1="206.372" x2="158.077" y2="229.582" gradientUnits="userSpaceOnUse">
<stop stop-color="#066146"/>
<stop offset="1" stop-color="#042119"/>
</linearGradient>
<radialGradient id="paint15_radial_42_1568" cx="0" cy="0" r="1" gradientUnits="userSpaceOnUse" gradientTransform="translate(147.702 324.232) rotate(106.042) scale(133.873 161.456)">
<stop offset="0.197115" stop-color="#87EFD0"/>
<stop offset="1" stop-color="#7B56FF"/>
</radialGradient>
<linearGradient id="paint16_linear_42_1568" x1="154.406" y1="221.916" x2="154.406" y2="370.99" gradientUnits="userSpaceOnUse">
<stop stop-color="#FFDA62"/>
<stop offset="1" stop-color="#FFF5D4"/>
</linearGradient>
<linearGradient id="paint17_linear_42_1568" x1="158.321" y1="181.823" x2="160.017" y2="188.153" gradientUnits="userSpaceOnUse">
<stop stop-color="#24A57F"/>
<stop offset="1" stop-color="#034230"/>
</linearGradient>
<linearGradient id="paint18_linear_42_1568" x1="191.142" y1="181.823" x2="189.446" y2="188.153" gradientUnits="userSpaceOnUse">
<stop stop-color="#24A57F"/>
<stop offset="1" stop-color="#034230"/>
</linearGradient>
</defs>
</svg>
