<svg width="312" height="312" viewBox="0 0 312 312" fill="none" xmlns="http://www.w3.org/2000/svg">
<path d="M0 24C0 10.7452 10.7452 0 24 0H288C301.255 0 312 10.7452 312 24V288C312 301.255 301.255 312 288 312H24C10.7452 312 0 301.255 0 288V24Z" fill="url(#paint0_radial_42_1880)"/>
<mask id="mask0_42_1880" style="mask-type:alpha" maskUnits="userSpaceOnUse" x="0" y="0" width="312" height="312">
<path d="M0 24C0 10.7452 10.7452 0 24 0H288C301.255 0 312 10.7452 312 24V288C312 301.255 301.255 312 288 312H24C10.7452 312 0 301.255 0 288V24Z" fill="url(#paint1_radial_42_1880)"/>
</mask>
<g mask="url(#mask0_42_1880)">
<path d="M198.992 202.895C198.992 186.706 212.116 173.582 228.305 173.582C244.494 173.582 257.618 186.706 257.618 202.895V244.092C257.618 260.281 244.494 273.405 228.305 273.405C212.116 273.405 198.992 260.281 198.992 244.092V202.895Z" fill="url(#paint2_linear_42_1880)"/>
<path d="M95.9912 158.637C96.0922 157.826 96.1679 157.014 96.1679 156.152C96.1679 155.29 96.0922 154.479 95.9912 153.668L101.319 149.485C101.798 149.104 101.925 148.42 101.622 147.862L96.5719 139.09C96.2689 138.533 95.5872 138.33 95.0317 138.533L88.7448 141.068C87.4319 140.054 86.0179 139.217 84.4778 138.583L83.5183 131.865C83.4426 131.257 82.9123 130.8 82.2811 130.8H72.1816C71.5504 130.8 71.0202 131.257 70.9444 131.865L69.985 138.583C68.4448 139.217 67.0309 140.079 65.7179 141.068L59.431 138.533C58.8503 138.304 58.1938 138.533 57.8908 139.09L52.8411 147.862C52.5128 148.42 52.6643 149.104 53.1441 149.485L58.4715 153.668C58.3705 154.479 58.2948 155.316 58.2948 156.152C58.2948 156.989 58.3705 157.826 58.4715 158.637L53.1441 162.82C52.6643 163.2 52.5381 163.885 52.8411 164.442L57.8908 173.214C58.1938 173.772 58.8755 173.975 59.431 173.772L65.7179 171.237C67.0309 172.251 68.4448 173.087 69.985 173.721L70.9444 180.44C71.0202 181.048 71.5504 181.504 72.1816 181.504H82.2811C82.9123 181.504 83.4426 181.048 83.5183 180.44L84.4778 173.721C86.0179 173.087 87.4319 172.226 88.7448 171.237L95.0317 173.772C95.6125 174 96.2689 173.772 96.5719 173.214L101.622 164.442C101.925 163.885 101.798 163.2 101.319 162.82L95.9912 158.637ZM77.2314 165.026C72.3584 165.026 68.3943 161.045 68.3943 156.152C68.3943 151.259 72.3584 147.279 77.2314 147.279C82.1044 147.279 86.0684 151.259 86.0684 156.152C86.0684 161.045 82.1044 165.026 77.2314 165.026Z" fill="url(#paint3_radial_42_1880)"/>
<path d="M156.019 70.2409C156.502 69.5809 157.003 68.9383 157.593 68.3107C158.184 67.683 158.795 67.1442 159.425 66.6227L158.413 59.9252C158.324 59.3195 158.701 58.7346 159.304 58.5361L168.994 55.6101C169.597 55.4117 170.232 55.7312 170.497 56.2596L173.338 62.4148C174.989 62.5763 176.592 62.9363 178.148 63.5304L183.451 59.2961C183.923 58.905 184.622 58.9362 185.082 59.3688L192.436 66.2912C192.895 66.7238 192.969 67.4195 192.607 67.9145L188.701 73.464C189.388 74.9812 189.826 76.578 190.105 78.1978L196.42 80.661C196.999 80.8929 197.321 81.509 197.159 82.1228L194.824 91.9712C194.681 92.6022 194.101 92.9968 193.491 92.9449L186.745 92.3393C186.262 92.9992 185.744 93.6603 185.171 94.2695C184.597 94.8787 183.969 95.436 183.339 95.9575L184.351 102.655C184.44 103.261 184.063 103.846 183.46 104.044L173.77 106.97C173.167 107.169 172.532 106.849 172.267 106.321L169.426 100.165C167.775 100.004 166.172 99.6439 164.616 99.0497L159.313 103.284C158.841 103.675 158.142 103.644 157.682 103.211L150.328 96.289C149.869 95.8564 149.795 95.1607 150.157 94.6657L154.063 89.1162C153.376 87.599 152.938 86.0022 152.659 84.3824L146.344 81.9192C145.765 81.6873 145.443 81.0712 145.605 80.4574L147.94 70.609C148.102 69.9952 148.663 69.5833 149.273 69.6353L156.019 70.2409ZM165.3 87.7511C168.848 91.0912 174.463 90.91 177.817 87.3472C181.17 83.7844 181.012 78.1691 177.464 74.8291C173.916 71.489 168.301 71.6702 164.947 75.233C161.594 78.7958 161.752 84.4111 165.3 87.7511Z" fill="url(#paint4_radial_42_1880)"/>
<path d="M238.604 229.039C238.604 257.917 214.484 281.328 184.73 281.328C154.977 281.328 130.857 257.917 130.857 229.039C130.857 200.161 154.977 176.75 184.73 176.75C214.484 176.75 238.604 200.161 238.604 229.039Z" fill="url(#paint5_linear_42_1880)"/>
<mask id="mask1_42_1880" style="mask-type:alpha" maskUnits="userSpaceOnUse" x="130" y="176" width="109" height="106">
<path d="M238.604 229.039C238.604 257.917 214.484 281.328 184.73 281.328C154.977 281.328 130.857 257.917 130.857 229.039C130.857 200.161 154.977 176.75 184.73 176.75C214.484 176.75 238.604 200.161 238.604 229.039Z" fill="url(#paint6_linear_42_1880)"/>
</mask>
<g mask="url(#mask1_42_1880)">
<path d="M229.96 187.121C255.156 203.178 262.564 236.62 246.507 261.815C244.298 265.282 241.757 268.409 238.957 271.187C234.484 269.379 230.11 267.14 225.895 264.454C196.725 245.863 183.716 211.479 190.913 179.572C203.944 177.126 217.897 179.433 229.96 187.121Z" fill="url(#paint7_linear_42_1880)"/>
</g>
<path d="M160.856 178.785C160.958 180.139 161.011 181.507 161.011 182.887C161.011 204.106 148.793 222.468 131.011 231.331C130.909 229.977 130.857 228.61 130.857 227.23C130.857 206.012 143.074 187.648 160.856 178.785Z" fill="url(#paint8_linear_42_1880)"/>
<path d="M184.956 173.133C214.833 173.133 239.054 197.353 239.054 227.23C239.054 231.341 238.592 235.343 237.723 239.191C232.979 240.07 228.088 240.533 223.09 240.533C188.499 240.533 159.049 218.527 147.971 187.752C157.645 178.686 170.652 173.133 184.956 173.133Z" fill="url(#paint9_linear_42_1880)"/>
<path d="M60.6518 166.027C63.3221 161.506 69.1523 160.006 73.6731 162.676C78.194 165.346 79.6938 171.176 77.0237 175.697C76.6538 176.324 76.2987 176.961 75.9597 177.608C77.7187 178.056 79.3694 179.01 80.6747 180.46C84.187 184.363 83.8707 190.376 79.9679 193.888L70.1863 202.689C70.0572 219.005 75.7632 235.028 83.6322 244.151C91.387 253.141 109.018 261.648 136.339 262.263C141.588 262.382 145.747 266.734 145.629 271.983C145.51 277.232 141.16 281.391 135.911 281.273C105.612 280.59 81.8152 271.154 69.235 256.569C57.0392 242.43 49.9449 219.488 51.342 197.712C52.0404 186.827 54.8787 175.801 60.6518 166.027Z" fill="url(#paint10_linear_42_1880)"/>
<path d="M67.1708 236.305C75.1225 229.446 87.1277 230.332 93.9866 238.284C99.6324 244.829 111.357 252.19 136.552 252.758C147.05 252.995 155.37 261.699 155.133 272.197C154.896 282.695 146.194 291.014 135.696 290.778C103.271 290.047 79.8815 280.151 65.1922 263.121C58.3334 255.169 59.2191 243.164 67.1708 236.305Z" fill="url(#paint11_radial_42_1880)"/>
<path d="M209.08 304.303L242.599 362.697C257.587 388.811 248.263 422.141 221.9 436.686L221.302 437.016C213.64 441.243 204.001 438.459 199.774 430.797C195.547 423.135 198.331 413.496 205.993 409.268L206.592 408.939C217.447 402.949 221.286 389.225 215.114 378.473L190.731 335.993H168.283L146.463 385.914C145.133 388.956 144.503 392.259 144.62 395.577L145.901 432.093L145.909 432.909C145.778 441.291 139.093 448.187 130.621 448.485C122.148 448.782 114.996 442.371 114.279 434.018L114.229 433.204L112.948 396.688C112.665 388.63 114.195 380.611 117.425 373.222L147.55 304.303H209.08Z" fill="url(#paint12_radial_42_1880)"/>
<path d="M162.547 235.377C162.547 242.378 156.872 248.053 149.871 248.053C142.871 248.053 137.195 242.378 137.195 235.377C137.195 228.376 142.871 222.701 149.871 222.701C156.872 222.701 162.547 228.376 162.547 235.377Z" fill="url(#paint13_linear_42_1880)"/>
<path d="M148.415 222.786C153.996 223.458 158.321 228.207 158.321 233.969C158.321 240.191 153.278 245.235 147.055 245.235C143.859 245.235 140.974 243.903 138.924 241.765C137.827 239.889 137.195 237.707 137.195 235.377C137.195 228.869 142.1 223.508 148.415 222.786Z" fill="url(#paint14_linear_42_1880)"/>
<path d="M144.238 230.448C144.238 231.614 143.292 232.56 142.125 232.56C140.958 232.56 140.012 231.614 140.012 230.448C140.012 229.281 140.958 228.335 142.125 228.335C143.292 228.335 144.238 229.281 144.238 230.448Z" fill="white"/>
<path d="M192.653 235.377C192.653 242.378 186.978 248.053 179.977 248.053C172.976 248.053 167.301 242.378 167.301 235.377C167.301 228.376 172.976 222.701 179.977 222.701C186.978 222.701 192.653 228.376 192.653 235.377Z" fill="url(#paint15_linear_42_1880)"/>
<path d="M178.521 222.786C184.102 223.458 188.427 228.207 188.427 233.969C188.427 240.191 183.383 245.235 177.161 245.235C173.964 245.235 171.08 243.903 169.029 241.765C167.932 239.889 167.301 237.707 167.301 235.377C167.301 228.869 172.206 223.508 178.521 222.786Z" fill="url(#paint16_linear_42_1880)"/>
<path d="M174.343 230.448C174.343 231.614 173.397 232.56 172.23 232.56C171.064 232.56 170.118 231.614 170.118 230.448C170.118 229.281 171.064 228.335 172.23 228.335C173.397 228.335 174.343 229.281 174.343 230.448Z" fill="white"/>
<path d="M159.379 235.377C159.379 226.626 152.285 219.532 143.534 219.532C134.783 219.532 127.689 226.626 127.689 235.377C127.689 244.128 134.783 251.222 143.534 251.222V254.391C133.032 254.391 124.52 245.878 124.52 235.377C124.52 224.876 133.032 216.363 143.534 216.363C154.035 216.363 162.548 224.876 162.548 235.377C162.548 245.878 154.035 254.391 143.534 254.391V251.222C152.285 251.222 159.379 244.128 159.379 235.377Z" fill="url(#paint17_linear_42_1880)"/>
<path d="M199.958 234.867C208.736 242.114 217.514 249.361 226.293 256.608C226.612 256.872 226.359 257.432 225.968 257.324C215.242 254.364 204.516 251.404 193.791 248.445C192.866 248.19 192.403 247.074 192.83 246.132C194.442 242.582 196.054 239.031 197.666 235.481C198.094 234.538 199.2 234.242 199.958 234.867Z" fill="url(#paint18_linear_42_1880)"/>
<path d="M195.822 235.377C195.822 226.626 188.728 219.532 179.977 219.532C171.226 219.532 164.132 226.626 164.132 235.377C164.132 244.128 171.226 251.222 179.977 251.222V254.391C169.476 254.391 160.963 245.878 160.963 235.377C160.963 224.876 169.476 216.363 179.977 216.363C190.478 216.363 198.991 224.876 198.991 235.377C198.991 245.878 190.478 254.391 179.977 254.391V251.222C188.728 251.222 195.822 244.128 195.822 235.377Z" fill="url(#paint19_linear_42_1880)"/>
<path d="M121.35 276.574C121.35 262.573 132.701 251.222 146.702 251.222H213.251C227.253 251.222 238.603 262.573 238.603 276.574V304.303Lnan nanL238.603 304.303C245.726 319.884 239.494 338.317 224.378 346.379L205.777 356.3C189.652 364.9 170.302 364.9 154.177 356.3L135.576 346.379C120.46 338.317 114.228 319.884 121.35 304.303Lnan nanL121.35 304.303V276.574Z" fill="url(#paint20_linear_42_1880)"/>
<path d="M181.24 134.739C175.991 134.878 171.849 139.247 171.989 144.495C172.128 149.744 176.497 153.886 181.746 153.747C182.473 153.727 183.202 153.726 183.933 153.744C183.47 155.499 183.503 157.406 184.137 159.251C185.843 164.216 191.253 166.859 196.219 165.152L208.662 160.874C222.988 168.683 234.226 181.451 238.381 192.759C242.475 203.904 241.352 223.447 228.625 247.631C226.18 252.277 227.965 258.026 232.611 260.471C237.258 262.917 243.006 261.133 245.452 256.487C259.565 229.667 262.87 204.282 256.227 186.203C249.788 168.676 233.176 151.335 213.46 141.984C203.606 137.309 192.588 134.437 181.24 134.739Z" fill="url(#paint21_linear_42_1880)"/>
<path d="M244.756 191.94C234.47 194.051 227.843 204.101 229.954 214.387C231.692 222.855 230.365 236.635 215.435 256.937C209.214 265.397 211.029 277.3 219.489 283.521C227.949 289.742 239.85 287.927 246.071 279.468C265.286 253.339 271.726 228.772 267.204 206.742C265.092 196.455 255.043 189.828 244.756 191.94Z" fill="url(#paint22_radial_42_1880)"/>
<path d="M172.38 205.98C172.832 204.289 174.57 203.286 176.261 203.739L188.505 207.02C190.195 207.473 191.199 209.211 190.746 210.901C190.293 212.592 188.555 213.595 186.864 213.142L174.62 209.861C172.93 209.408 171.927 207.671 172.38 205.98Z" fill="url(#paint23_linear_42_1880)"/>
<path d="M137.267 212.768C137.053 211.031 138.289 209.45 140.026 209.236L152.607 207.692C154.344 207.478 155.926 208.714 156.139 210.451C156.352 212.188 155.117 213.769 153.38 213.982L140.798 215.527C139.061 215.74 137.48 214.505 137.267 212.768Z" fill="url(#paint24_linear_42_1880)"/>
<rect x="117.631" y="118.124" width="47.5351" height="47.5351" rx="23.7675" fill="url(#paint25_radial_42_1880)"/>
<path d="M146.381 136.992H148.817V146.792H146.381V136.992Z" fill="white"/>
<path d="M139.705 139.036H139.215L136.499 146.792H133.979L137.563 136.992H141.427L144.983 146.792H142.463L139.705 139.036ZM136.597 142.788H142.309V144.832H136.597V142.788Z" fill="white"/>
<path d="M120.656 149.214C121.862 148.697 123.26 149.256 123.777 150.462C124.294 151.669 123.734 153.066 122.528 153.583L111.436 158.337C111.141 158.464 110.822 158.529 110.5 158.529H100.201C98.8883 158.529 97.8242 157.465 97.8242 156.152C97.8242 154.839 98.8883 153.775 100.201 153.775H110.011L120.656 149.214Z" fill="#FFC815"/>
<path d="M155.331 125.996L167.821 112.728L167.959 112.567C168.264 112.179 168.441 111.704 168.465 111.209L168.804 103.912C168.865 102.601 167.851 101.489 166.54 101.428C165.229 101.367 164.117 102.381 164.056 103.692L163.757 110.11L151.87 122.738C150.97 123.694 151.016 125.198 151.972 126.097C152.927 126.997 154.432 126.952 155.331 125.996Z" fill="#FFC815"/>
</g>
<defs>
<radialGradient id="paint0_radial_42_1880" cx="0" cy="0" r="1" gradientUnits="userSpaceOnUse" gradientTransform="translate(156 156) rotate(-90) scale(156)">
<stop offset="0.379808" stop-color="#F1F4FF"/>
<stop offset="1" stop-color="#24A57F"/>
</radialGradient>
<radialGradient id="paint1_radial_42_1880" cx="0" cy="0" r="1" gradientUnits="userSpaceOnUse" gradientTransform="translate(156 156) rotate(-90) scale(156)">
<stop stop-color="#24A57F"/>
<stop offset="1" stop-color="#261172"/>
</radialGradient>
<linearGradient id="paint2_linear_42_1880" x1="228.305" y1="173.582" x2="228.305" y2="273.405" gradientUnits="userSpaceOnUse">
<stop stop-color="#75320D"/>
<stop offset="1" stop-color="#3F1E0C"/>
</linearGradient>
<radialGradient id="paint3_radial_42_1880" cx="0" cy="0" r="1" gradientUnits="userSpaceOnUse" gradientTransform="translate(77.2258 156.152) rotate(91.7899) scale(25.3644 24.5718)">
<stop offset="0.245192" stop-color="#2E58F0"/>
<stop offset="0.509615" stop-color="#AEC0FF"/>
<stop offset="0.855769" stop-color="#6385FF"/>
</radialGradient>
<radialGradient id="paint4_radial_42_1880" cx="0" cy="0" r="1" gradientUnits="userSpaceOnUse" gradientTransform="translate(171.386 81.2939) rotate(131.478) scale(25.3644 24.5718)">
<stop offset="0.245192" stop-color="#2E58F0"/>
<stop offset="0.509615" stop-color="#AEC0FF"/>
<stop offset="0.855769" stop-color="#6385FF"/>
</radialGradient>
<linearGradient id="paint5_linear_42_1880" x1="184.73" y1="176.75" x2="184.73" y2="281.328" gradientUnits="userSpaceOnUse">
<stop stop-color="#FFB187"/>
<stop offset="1" stop-color="#E45F17"/>
</linearGradient>
<linearGradient id="paint6_linear_42_1880" x1="184.73" y1="176.75" x2="184.73" y2="281.328" gradientUnits="userSpaceOnUse">
<stop stop-color="#FFB187"/>
<stop offset="1" stop-color="#E45F17"/>
</linearGradient>
<linearGradient id="paint7_linear_42_1880" x1="237.176" y1="191.719" x2="200.953" y2="248.558" gradientUnits="userSpaceOnUse">
<stop stop-color="#A94915"/>
<stop offset="1" stop-color="#75320D"/>
</linearGradient>
<linearGradient id="paint8_linear_42_1880" x1="145.934" y1="231.331" x2="145.934" y2="178.785" gradientUnits="userSpaceOnUse">
<stop stop-color="#75320D"/>
<stop offset="1" stop-color="#E45F17"/>
</linearGradient>
<linearGradient id="paint9_linear_42_1880" x1="193.512" y1="173.133" x2="193.512" y2="240.533" gradientUnits="userSpaceOnUse">
<stop stop-color="#A94915"/>
<stop offset="1" stop-color="#75320D"/>
</linearGradient>
<linearGradient id="paint10_linear_42_1880" x1="90.4495" y1="207.903" x2="47.1084" y2="200.011" gradientUnits="userSpaceOnUse">
<stop stop-color="#FF9A64"/>
<stop offset="1" stop-color="#E45F17"/>
</linearGradient>
<radialGradient id="paint11_radial_42_1880" cx="0" cy="0" r="1" gradientUnits="userSpaceOnUse" gradientTransform="translate(108.797 214.303) rotate(120.85) scale(78.3968 108.549)">
<stop stop-color="#FFEEB6"/>
<stop offset="1" stop-color="#FFDA62"/>
</radialGradient>
<radialGradient id="paint12_radial_42_1880" cx="0" cy="0" r="1" gradientUnits="userSpaceOnUse" gradientTransform="translate(187.899 349.461) rotate(73.9577) scale(129.487 156.166)">
<stop offset="0.197115" stop-color="#FE7F3B"/>
<stop offset="1" stop-color="#A94915"/>
</radialGradient>
<linearGradient id="paint13_linear_42_1880" x1="149.871" y1="222.701" x2="149.871" y2="248.053" gradientUnits="userSpaceOnUse">
<stop stop-color="#EFEAFF"/>
<stop offset="1" stop-color="#FFDFCD"/>
</linearGradient>
<linearGradient id="paint14_linear_42_1880" x1="147.758" y1="222.786" x2="147.758" y2="245.235" gradientUnits="userSpaceOnUse">
<stop stop-color="#A94915"/>
<stop offset="1" stop-color="#3F1E0C"/>
</linearGradient>
<linearGradient id="paint15_linear_42_1880" x1="179.977" y1="222.701" x2="179.977" y2="248.053" gradientUnits="userSpaceOnUse">
<stop stop-color="#EFEAFF"/>
<stop offset="1" stop-color="#FFDFCD"/>
</linearGradient>
<linearGradient id="paint16_linear_42_1880" x1="177.864" y1="222.786" x2="177.864" y2="245.235" gradientUnits="userSpaceOnUse">
<stop stop-color="#A94915"/>
<stop offset="1" stop-color="#3F1E0C"/>
</linearGradient>
<linearGradient id="paint17_linear_42_1880" x1="143.534" y1="216.363" x2="143.534" y2="254.391" gradientUnits="userSpaceOnUse">
<stop stop-color="#4ED0AA"/>
<stop offset="1" stop-color="#2E58F0"/>
</linearGradient>
<linearGradient id="paint18_linear_42_1880" x1="227.442" y1="247.521" x2="192.982" y2="243.847" gradientUnits="userSpaceOnUse">
<stop stop-color="#4ED0AA"/>
<stop offset="1" stop-color="#2E58F0"/>
</linearGradient>
<linearGradient id="paint19_linear_42_1880" x1="179.977" y1="216.363" x2="179.977" y2="254.391" gradientUnits="userSpaceOnUse">
<stop stop-color="#4ED0AA"/>
<stop offset="1" stop-color="#2E58F0"/>
</linearGradient>
<linearGradient id="paint20_linear_42_1880" x1="252.072" y1="323.317" x2="107.882" y2="323.317" gradientUnits="userSpaceOnUse">
<stop stop-color="#FFE695"/>
<stop offset="1" stop-color="#4ED0AA"/>
</linearGradient>
<linearGradient id="paint21_linear_42_1880" x1="203.382" y1="181.12" x2="217.526" y2="139.399" gradientUnits="userSpaceOnUse">
<stop stop-color="#FF9A64"/>
<stop offset="1" stop-color="#E45F17"/>
</linearGradient>
<radialGradient id="paint22_radial_42_1880" cx="0" cy="0" r="1" gradientUnits="userSpaceOnUse" gradientTransform="translate(201.919 211.479) rotate(6.77094) scale(78.3968 108.549)">
<stop stop-color="#FFEEB6"/>
<stop offset="1" stop-color="#FFDA62"/>
</radialGradient>
<linearGradient id="paint23_linear_42_1880" x1="182.383" y1="205.38" x2="180.742" y2="211.502" gradientUnits="userSpaceOnUse">
<stop stop-color="#FF9A64"/>
<stop offset="1" stop-color="#75320D"/>
</linearGradient>
<linearGradient id="paint24_linear_42_1880" x1="146.317" y1="208.464" x2="147.089" y2="214.755" gradientUnits="userSpaceOnUse">
<stop stop-color="#FF9A64"/>
<stop offset="1" stop-color="#75320D"/>
</linearGradient>
<radialGradient id="paint25_radial_42_1880" cx="0" cy="0" r="1" gradientUnits="userSpaceOnUse" gradientTransform="translate(156.512 124.768) rotate(141.654) scale(45.3139)">
<stop stop-color="#87A1FF"/>
<stop offset="0.5" stop-color="#6385FF"/>
<stop offset="1" stop-color="#183FCB"/>
</radialGradient>
</defs>
</svg>
