<svg width="312" height="312" viewBox="0 0 312 312" fill="none" xmlns="http://www.w3.org/2000/svg">
<path d="M0 24C0 10.7452 10.7452 0 24 0H288C301.255 0 312 10.7452 312 24V288C312 301.255 301.255 312 288 312H24C10.7452 312 0 301.255 0 288V24Z" fill="url(#paint0_radial_2035_3356)"/>
<mask id="mask0_2035_3356" style="mask-type:alpha" maskUnits="userSpaceOnUse" x="0" y="0" width="312" height="312">
<path d="M0 24C0 10.7452 10.7452 0 24 0H288C301.255 0 312 10.7452 312 24V288C312 301.255 301.255 312 288 312H24C10.7452 312 0 301.255 0 288V24Z" fill="url(#paint1_radial_2035_3356)"/>
</mask>
<g mask="url(#mask0_2035_3356)">
<path d="M222.204 149.022C216.6 108.982 212.072 87.457 195.338 54.8204C211.089 54.5196 212.347 32.2823 220.888 35.8214L222.204 149.022Z" fill="url(#paint2_linear_2035_3356)"/>
<path d="M220.306 31.1088C225.599 31.2223 230.028 32.6204 231.336 34.4206L231.635 34.4106L231.623 34.9428C231.697 35.1415 231.734 35.3432 231.73 35.5481C231.726 35.7524 231.679 35.9518 231.598 36.1466L229.066 154.323L212.418 153.967L208.384 35.2446L208.709 35.2319C208.704 35.1732 208.7 35.114 208.702 35.0548C208.752 32.7395 213.947 30.9726 220.306 31.1088Z" fill="url(#paint3_radial_2035_3356)"/>
<path d="M229.184 154.619C229.134 156.935 225.34 158.731 220.709 158.632C216.078 158.533 212.364 156.576 212.413 154.26C212.463 151.944 216.257 150.148 220.888 150.247C225.519 150.346 229.233 152.304 229.184 154.619Z" fill="url(#paint4_linear_2035_3356)"/>
<path d="M60.3671 194.747C66.567 218.023 96.2672 230.319 126.704 222.211C157.142 214.104 176.79 188.663 170.59 165.387C164.39 142.112 134.69 129.816 104.252 137.923C73.8153 146.031 54.1671 171.472 60.3671 194.747Z" fill="url(#paint5_linear_2035_3356)"/>
<path d="M124.049 114.049C124.314 115.461 124.632 116.875 125.009 118.287C130.79 139.993 148.293 155.448 168.899 159.669C168.634 158.257 168.314 156.844 167.938 155.432C162.156 133.727 144.655 118.27 124.049 114.049Z" fill="url(#paint6_linear_2035_3356)"/>
<path d="M59.0224 191.953C56.5488 183.73 60.6297 174.959 68.5128 171.555C81.7536 165.837 95.6161 178.253 91.3864 192.041L89.1524 199.323C86.6158 207.592 77.4865 211.855 69.5183 208.491C65.5126 206.8 62.4693 203.411 61.2167 199.248L59.0224 191.953Z" fill="url(#paint7_linear_2035_3356)"/>
<path d="M97.3837 114.958C66.439 123.201 47.9525 154.66 56.094 185.224C57.2141 189.429 58.7839 193.396 60.732 197.093C65.8846 196.683 71.0759 195.807 76.2526 194.428C112.079 184.885 136.583 154.249 139.671 119.71C127.182 113.105 112.199 111.012 97.3837 114.958Z" fill="url(#paint8_linear_2035_3356)"/>
<path d="M93.5003 100.809C126.043 92.1405 158.316 106.567 170.384 146.119C170.953 147.985 169.827 149.929 167.942 150.431L53.6018 180.888C51.7168 181.39 49.773 180.264 49.3387 178.362C40.1322 138.048 60.9579 109.477 93.5003 100.809Z" fill="url(#paint9_radial_2035_3356)"/>
<mask id="mask1_2035_3356" style="mask-type:alpha" maskUnits="userSpaceOnUse" x="44" y="98" width="131" height="87">
<path d="M93.5004 100.807C128.721 91.4249 163.482 107.145 174.998 150.377L47.4547 184.351C35.9389 141.119 58.2803 110.188 93.5004 100.807Z" fill="#FFC815"/>
</mask>
<g mask="url(#mask1_2035_3356)">
<path d="M50.5215 100.654C52.4222 100.458 54.2372 100.319 56.1199 100.219C91.3153 96.6146 106.223 128.924 111.487 160.185C111.863 161.917 112.183 163.583 112.499 165.351L148.591 155.872C147.896 153.851 147.194 151.943 146.423 149.945C139.625 132.483 129.139 114.372 111.575 103.163C94.0086 91.7642 72.5394 91.1284 54.6736 94.9646C52.6213 95.3859 50.6733 95.8442 48.6563 96.3616C49.2812 99.8488 49.8966 97.1665 50.5215 100.654Z" fill="url(#paint10_linear_2035_3356)"/>
<path d="M53.4989 101.375C55.4556 101.171 57.324 101.027 59.2621 100.92C95.495 97.1749 110.789 130.229 116.157 162.224C116.541 163.998 116.868 165.703 117.19 167.512L154.355 157.751C153.643 155.682 152.924 153.73 152.133 151.686C145.163 133.82 134.4 115.294 116.338 103.847C98.2748 92.2048 76.1774 91.5879 57.7818 95.5437C55.6686 95.9782 53.6628 96.4506 51.5859 96.9834C52.2235 100.553 52.8612 97.8055 53.4989 101.375Z" fill="url(#paint11_linear_2035_3356)"/>
</g>
<path d="M242.411 86.1147C238.78 81.9066 232.424 81.4392 228.215 85.0704C224.007 88.7017 223.54 95.0577 227.171 99.2662C227.674 99.8492 228.164 100.446 228.639 101.057C226.89 101.854 225.35 103.158 224.262 104.914C221.336 109.64 222.795 115.845 227.521 118.771L239.366 126.103C242.566 143.077 239.632 160.843 233.147 171.826C226.757 182.65 209.987 194.824 181.638 200.599C176.191 201.709 172.676 207.024 173.785 212.471C174.895 217.917 180.209 221.434 185.656 220.324C217.094 213.92 240.114 199.618 250.48 182.059C260.53 165.037 263.611 139.802 258.064 117.377C255.291 106.168 250.262 95.2138 242.411 86.1147Z" fill="url(#paint12_linear_2035_3356)"/>
<path d="M248.822 160.56C239.249 154.908 226.907 158.086 221.255 167.659C216.603 175.539 205.77 185.411 179.628 190.737C168.735 192.956 161.703 203.587 163.922 214.48C166.141 225.373 176.77 232.405 187.663 230.186C221.308 223.332 243.817 208.628 255.921 188.126C261.573 178.553 258.395 166.211 248.822 160.56Z" fill="url(#paint13_radial_2035_3356)"/>
<path d="M101.6 256.848L77.6499 323.984C66.9403 354.007 82.9173 386.98 113.117 397.18L113.801 397.412C122.578 400.376 132.097 395.665 135.062 386.888C138.027 378.111 133.315 368.591 124.538 365.626L123.852 365.396C111.417 361.195 104.839 347.618 109.248 335.256L126.671 286.417L150.058 282.199L182.172 330.11C184.129 333.03 185.405 336.352 185.907 339.831L191.433 378.117C192.757 387.286 201.263 393.646 210.433 392.323C219.602 390.999 225.962 382.493 224.639 373.323L219.113 335.038C217.893 326.59 214.793 318.522 210.04 311.432L165.705 245.288L101.6 256.848Z" fill="url(#paint14_radial_2035_3356)"/>
<path d="M137.741 172.401C139.648 179.563 147 183.822 154.162 181.914C161.324 180.007 165.583 172.654 163.675 165.493C161.768 158.331 154.415 154.072 147.254 155.98C140.092 157.887 135.833 165.239 137.741 172.401Z" fill="url(#paint15_linear_2035_3356)"/>
<path d="M148.766 155.67C143.24 157.878 140.109 163.914 141.679 169.809C143.375 176.174 149.909 179.959 156.274 178.264C159.545 177.393 162.132 175.244 163.647 172.498C164.258 170.28 164.31 167.876 163.675 165.493C161.901 158.835 155.423 154.688 148.766 155.67Z" fill="url(#paint16_linear_2035_3356)"/>
<path d="M155.127 162.369C155.445 163.563 156.671 164.273 157.864 163.955C159.058 163.637 159.768 162.411 159.45 161.218C159.132 160.024 157.906 159.314 156.713 159.632C155.519 159.95 154.809 161.176 155.127 162.369Z" fill="white"/>
<path d="M106.943 180.604C108.851 187.766 116.203 192.025 123.365 190.117C130.526 188.21 134.786 180.858 132.878 173.696C130.97 166.534 123.618 162.275 116.456 164.183C109.295 166.09 105.036 173.443 106.943 180.604Z" fill="url(#paint17_linear_2035_3356)"/>
<path d="M117.968 163.874C112.442 166.082 109.312 172.118 110.882 178.013C112.578 184.378 119.112 188.164 125.477 186.468C128.747 185.597 131.334 183.448 132.85 180.702C133.461 178.484 133.512 176.08 132.877 173.697C131.104 167.039 124.625 162.892 117.968 163.874Z" fill="url(#paint18_linear_2035_3356)"/>
<path d="M124.329 170.572C124.647 171.766 125.873 172.476 127.066 172.158C128.26 171.84 128.97 170.615 128.652 169.421C128.334 168.227 127.109 167.518 125.915 167.835C124.721 168.153 124.011 169.379 124.329 170.572Z" fill="white"/>
<path d="M113.838 269.981L112.923 270.16C103.512 272.128 95.3799 278.045 90.6178 286.432L64.1975 332.958C55.0484 349.07 60.6936 369.549 76.8057 378.698C92.9177 387.847 113.397 382.202 122.546 366.09L141.208 333.226L151.766 331.322L172.019 352.471C184.834 365.853 206.072 366.313 219.454 353.498C232.836 340.683 233.296 319.445 220.481 306.063L187.768 271.905L187.029 271.156C179.28 263.556 168.309 260.158 157.584 262.092L113.838 269.981Z" fill="url(#paint19_radial_2035_3356)"/>
<path d="M187.791 211.476C185.16 196.889 171.202 187.196 156.615 189.826L87.2804 202.33C72.6929 204.961 63 218.919 65.6307 233.506L70.8405 262.395Lnan nanL70.8405 262.395C66.3471 279.967 76.3035 298.001 93.5672 303.56L114.81 310.401C133.226 316.331 153.386 312.695 168.57 300.706L186.085 286.876C200.319 275.636 203.349 255.26 193.001 240.365Lnan nanL193.001 240.365L187.791 211.476Z" fill="url(#paint20_linear_2035_3356)"/>
<path d="M140.402 195.509C140.018 193.365 141.42 191.309 143.555 190.882L160.635 187.465C162.687 187.054 164.709 188.296 165.272 190.312L193.364 290.943C194.022 293.298 192.431 295.686 190.005 295.988L162.83 299.367C160.72 299.629 158.773 298.195 158.399 296.102L140.402 195.509Z" fill="url(#paint21_linear_2035_3356)"/>
<path d="M149.262 193.936C148.822 191.824 150.134 189.744 152.23 189.233L152.607 189.141C154.733 188.622 156.882 189.908 157.429 192.028L181.878 286.893C182.295 288.51 181.663 290.216 180.293 291.172L175.883 294.249C173.53 295.891 170.265 294.594 169.679 291.786L149.262 193.936Z" fill="url(#paint22_linear_2035_3356)"/>
<path d="M116.405 199.93C116.006 197.79 113.967 196.363 111.819 196.719L94.6354 199.567C92.5704 199.91 91.1185 201.786 91.3056 203.871L100.644 307.932C100.863 310.367 103.196 312.038 105.572 311.461L132.184 305.004C134.25 304.503 135.563 302.473 135.173 300.383L116.405 199.93Z" fill="url(#paint23_linear_2035_3356)"/>
<path d="M107.562 201.595C107.227 199.464 105.263 197.983 103.123 198.246L102.737 198.293C100.564 198.561 99.01 200.525 99.2492 202.701L109.955 300.079C110.137 301.739 111.332 303.111 112.951 303.52L118.165 304.837C120.947 305.54 123.542 303.172 123.096 300.337L107.562 201.595Z" fill="url(#paint24_linear_2035_3356)"/>
<path d="M208.696 183.501C209.394 177.987 205.49 172.95 199.976 172.251C194.461 171.552 189.424 175.456 188.725 180.971C188.628 181.735 188.512 182.498 188.376 183.26C186.614 182.493 184.614 182.22 182.581 182.587C177.111 183.573 173.475 188.809 174.461 194.279L176.935 207.988C166.459 221.721 151.29 231.424 138.789 233.952C126.469 236.443 106.201 232.121 82.9442 214.913C78.476 211.606 72.1734 212.549 68.867 217.017C65.5608 221.485 66.5021 227.787 70.9701 231.094C96.7614 250.178 122.791 257.722 142.777 253.681C162.153 249.764 182.971 235.173 195.929 216.049C202.406 206.49 207.184 195.424 208.696 183.501Z" fill="url(#paint25_linear_2035_3356)"/>
<path d="M157.65 238.067C155.447 227.17 144.829 220.123 133.932 222.326C124.963 224.139 110.378 222.691 88.9321 206.822C79.9955 200.209 67.3889 202.093 60.7762 211.03C54.1642 219.966 56.0479 232.571 64.9838 239.184C92.5852 259.608 118.572 266.502 141.909 261.784C152.806 259.581 159.853 248.963 157.65 238.067Z" fill="url(#paint26_radial_2035_3356)"/>
<path d="M122.049 140.902C121.125 139.296 119.074 138.743 117.468 139.667L105.837 146.36C104.231 147.284 103.678 149.335 104.602 150.941C105.526 152.547 107.577 153.1 109.183 152.176L120.814 145.483C122.42 144.559 122.973 142.508 122.049 140.902Z" fill="url(#paint27_linear_2035_3356)"/>
<path d="M158.062 144.422C157.585 142.631 155.747 141.566 153.956 142.043L140.989 145.497C139.199 145.974 138.134 147.812 138.611 149.603C139.088 151.393 140.926 152.458 142.716 151.981L155.683 148.527C157.474 148.05 158.539 146.212 158.062 144.422Z" fill="url(#paint28_linear_2035_3356)"/>
</g>
<defs>
<radialGradient id="paint0_radial_2035_3356" cx="0" cy="0" r="1" gradientUnits="userSpaceOnUse" gradientTransform="translate(156 156) rotate(-90) scale(156)">
<stop offset="0.454021" stop-color="#F0FFF7"/>
<stop offset="1" stop-color="#87EFD0"/>
</radialGradient>
<radialGradient id="paint1_radial_2035_3356" cx="0" cy="0" r="1" gradientUnits="userSpaceOnUse" gradientTransform="translate(156 156) rotate(-90) scale(156)">
<stop stop-color="#FFC9AD"/>
<stop offset="1" stop-color="#261172"/>
</radialGradient>
<linearGradient id="paint2_linear_2035_3356" x1="209.669" y1="94.1209" x2="230.717" y2="90.3251" gradientUnits="userSpaceOnUse">
<stop stop-color="#2E58F0"/>
<stop offset="1" stop-color="#1A328A"/>
</linearGradient>
<radialGradient id="paint3_radial_2035_3356" cx="0" cy="0" r="1" gradientUnits="userSpaceOnUse" gradientTransform="translate(207.542 74.4594) rotate(1.22711) scale(29.5765 95.6142)">
<stop stop-color="#6385FF"/>
<stop offset="1" stop-color="#2E58F0"/>
</radialGradient>
<linearGradient id="paint4_linear_2035_3356" x1="220.888" y1="150.247" x2="220.709" y2="158.632" gradientUnits="userSpaceOnUse">
<stop stop-color="#183FCB"/>
<stop offset="1" stop-color="#091955"/>
</linearGradient>
<linearGradient id="paint5_linear_2035_3356" x1="104.252" y1="137.923" x2="126.704" y2="222.211" gradientUnits="userSpaceOnUse">
<stop stop-color="#FFB187"/>
<stop offset="1" stop-color="#E45F17"/>
</linearGradient>
<linearGradient id="paint6_linear_2035_3356" x1="153.632" y1="163.736" x2="139.314" y2="109.982" gradientUnits="userSpaceOnUse">
<stop stop-color="#066146"/>
<stop offset="1" stop-color="#24A57F"/>
</linearGradient>
<linearGradient id="paint7_linear_2035_3356" x1="81.1097" y1="215.374" x2="71.2855" y2="160.897" gradientUnits="userSpaceOnUse">
<stop stop-color="#042119"/>
<stop offset="1" stop-color="#066146"/>
</linearGradient>
<linearGradient id="paint8_linear_2035_3356" x1="88.5201" y1="117.319" x2="106.886" y2="186.268" gradientUnits="userSpaceOnUse">
<stop stop-color="#24A57F"/>
<stop offset="1" stop-color="#034230"/>
</linearGradient>
<radialGradient id="paint9_radial_2035_3356" cx="0" cy="0" r="1" gradientUnits="userSpaceOnUse" gradientTransform="translate(58.8146 136.628) rotate(7.51404) scale(173.099 323.422)">
<stop offset="0.0597654" stop-color="#FFE695"/>
<stop offset="0.271395" stop-color="#FFC815"/>
<stop offset="1" stop-color="#FE7F3B"/>
</radialGradient>
<linearGradient id="paint10_linear_2035_3356" x1="90.5007" y1="126.407" x2="127.352" y2="106.005" gradientUnits="userSpaceOnUse">
<stop stop-color="#FFC815"/>
<stop offset="1" stop-color="#C09300"/>
</linearGradient>
<linearGradient id="paint11_linear_2035_3356" x1="103.032" y1="121.887" x2="123.562" y2="108.726" gradientUnits="userSpaceOnUse">
<stop stop-color="#FFEEB6"/>
<stop offset="1" stop-color="#FFDA62"/>
</linearGradient>
<linearGradient id="paint12_linear_2035_3356" x1="219.235" y1="135.342" x2="262.907" y2="118.977" gradientUnits="userSpaceOnUse">
<stop stop-color="#FF9A64"/>
<stop offset="1" stop-color="#E45F17"/>
</linearGradient>
<radialGradient id="paint13_radial_2035_3356" cx="0" cy="0" r="1" gradientUnits="userSpaceOnUse" gradientTransform="translate(201.32 145.458) rotate(48.927) scale(82.9953 114.917)">
<stop stop-color="#CFD9FF"/>
<stop offset="1" stop-color="#6385FF"/>
</radialGradient>
<radialGradient id="paint14_radial_2035_3356" cx="0" cy="0" r="1" gradientUnits="userSpaceOnUse" gradientTransform="translate(132.151 299.917) rotate(95.8196) scale(137.082 165.327)">
<stop offset="0.197115" stop-color="#FE7F3B"/>
<stop offset="1" stop-color="#A94915"/>
</radialGradient>
<linearGradient id="paint15_linear_2035_3356" x1="147.254" y1="155.98" x2="154.162" y2="181.914" gradientUnits="userSpaceOnUse">
<stop stop-color="#EFEAFF"/>
<stop offset="1" stop-color="#FFDFCD"/>
</linearGradient>
<linearGradient id="paint16_linear_2035_3356" x1="149.438" y1="155.491" x2="155.555" y2="178.456" gradientUnits="userSpaceOnUse">
<stop stop-color="#24A57F"/>
<stop offset="1" stop-color="#042119"/>
</linearGradient>
<linearGradient id="paint17_linear_2035_3356" x1="116.456" y1="164.183" x2="123.365" y2="190.117" gradientUnits="userSpaceOnUse">
<stop stop-color="#EFEAFF"/>
<stop offset="1" stop-color="#FFDFCD"/>
</linearGradient>
<linearGradient id="paint18_linear_2035_3356" x1="118.64" y1="163.695" x2="124.758" y2="186.66" gradientUnits="userSpaceOnUse">
<stop stop-color="#24A57F"/>
<stop offset="1" stop-color="#042119"/>
</linearGradient>
<radialGradient id="paint19_radial_2035_3356" cx="0" cy="0" r="1" gradientUnits="userSpaceOnUse" gradientTransform="translate(132.152 299.916) rotate(95.8196) scale(137.082 165.327)">
<stop offset="0.197115" stop-color="#87EFD0"/>
<stop offset="1" stop-color="#7B56FF"/>
</radialGradient>
<linearGradient id="paint20_linear_2035_3356" x1="121.948" y1="196.078" x2="149.039" y2="346.302" gradientUnits="userSpaceOnUse">
<stop stop-color="#87A1FF"/>
<stop offset="1" stop-color="#CFD9FF"/>
</linearGradient>
<linearGradient id="paint21_linear_2035_3356" x1="184.028" y1="235.565" x2="159.035" y2="242.481" gradientUnits="userSpaceOnUse">
<stop stop-color="#FE7F3B"/>
<stop offset="1" stop-color="#FFDA62"/>
</linearGradient>
<linearGradient id="paint22_linear_2035_3356" x1="172.1" y1="237.7" x2="150.276" y2="241.485" gradientUnits="userSpaceOnUse">
<stop stop-color="#FFC9AD"/>
<stop offset="1" stop-color="#FFF2EA"/>
</linearGradient>
<linearGradient id="paint23_linear_2035_3356" x1="89.7784" y1="252.834" x2="115.602" y2="250.457" gradientUnits="userSpaceOnUse">
<stop stop-color="#FE7F3B"/>
<stop offset="1" stop-color="#FFDA62"/>
</linearGradient>
<linearGradient id="paint24_linear_2035_3356" x1="101.691" y1="250.608" x2="123.442" y2="246.425" gradientUnits="userSpaceOnUse">
<stop stop-color="#FFC9AD"/>
<stop offset="1" stop-color="#FFF2EA"/>
</linearGradient>
<linearGradient id="paint25_linear_2035_3356" x1="156.601" y1="199.204" x2="197.98" y2="220.718" gradientUnits="userSpaceOnUse">
<stop stop-color="#FF9A64"/>
<stop offset="1" stop-color="#E45F17"/>
</linearGradient>
<radialGradient id="paint26_radial_2035_3356" cx="0" cy="0" r="1" gradientUnits="userSpaceOnUse" gradientTransform="translate(137.099 192.656) rotate(96.9408) scale(82.9953 114.917)">
<stop stop-color="#CFD9FF"/>
<stop offset="1" stop-color="#6385FF"/>
</radialGradient>
<linearGradient id="paint27_linear_2035_3356" x1="111.652" y1="143.014" x2="114.999" y2="148.829" gradientUnits="userSpaceOnUse">
<stop stop-color="#4ED0AA"/>
<stop offset="1" stop-color="#066146"/>
</linearGradient>
<linearGradient id="paint28_linear_2035_3356" x1="147.473" y1="143.77" x2="149.2" y2="150.254" gradientUnits="userSpaceOnUse">
<stop stop-color="#4ED0AA"/>
<stop offset="1" stop-color="#066146"/>
</linearGradient>
</defs>
</svg>
