<svg width="312" height="312" viewBox="0 0 312 312" fill="none" xmlns="http://www.w3.org/2000/svg">
<path d="M0 24C0 10.7452 10.7452 0 24 0H288C301.255 0 312 10.7452 312 24V288C312 301.255 301.255 312 288 312H24C10.7452 312 0 301.255 0 288V24Z" fill="url(#paint0_radial_2035_2949)"/>
<mask id="mask0_2035_2949" style="mask-type:alpha" maskUnits="userSpaceOnUse" x="0" y="0" width="312" height="312">
<path d="M0 24C0 10.7452 10.7452 0 24 0H288C301.255 0 312 10.7452 312 24V288C312 301.255 301.255 312 288 312H24C10.7452 312 0 301.255 0 288V24Z" fill="url(#paint1_radial_2035_2949)"/>
</mask>
<g mask="url(#mask0_2035_2949)">
<path d="M174.777 122.777C168.698 91.5422 189.091 61.2938 220.325 55.2149L313.165 38.408C344.399 32.3291 374.648 52.7216 380.727 83.9561L383.203 96.6809C389.282 127.915 368.889 158.164 337.655 164.243L244.816 181.05C213.581 187.128 183.333 166.736 177.254 135.501L174.777 122.777Z" fill="url(#paint2_linear_2035_2949)"/>
<path d="M279.228 109.051C285.991 143.799 267.736 176.588 238.453 182.287C209.171 187.986 179.951 164.437 173.188 129.689C166.425 94.9405 184.681 62.1516 213.963 56.4526C243.245 50.7536 272.466 74.3027 279.228 109.051Z" fill="url(#paint3_linear_2035_2949)"/>
<path d="M269.331 110.977C274.878 139.479 260.068 166.341 236.252 170.976C212.435 175.611 188.632 156.264 183.085 127.763C177.538 99.2612 192.348 72.3987 216.164 67.7635C239.98 63.1284 263.784 82.4758 269.331 110.977Z" fill="url(#paint4_linear_2035_2949)"/>
<path d="M173.486 134.277C176.206 130.355 181.591 129.38 185.513 132.1C189.435 134.82 190.409 140.205 187.69 144.127C187.313 144.671 186.949 145.225 186.599 145.789C188.164 146.311 189.597 147.286 190.685 148.687C193.611 152.458 192.927 157.888 189.156 160.815L179.667 168.177C179.145 173.327 178.936 178.852 178.572 184.881C178.205 190.949 177.677 197.446 176.346 203.432C175.02 209.394 172.742 215.61 168.346 220.61C165.195 224.195 159.735 224.546 156.15 221.395C152.565 218.243 152.213 212.782 155.364 209.197C157.055 207.273 158.458 204.244 159.473 199.679C160.483 195.138 160.957 189.825 161.319 183.839C161.723 177.15 161.988 169.369 162.949 162.389C164.302 152.566 167.605 142.757 173.486 134.277Z" fill="url(#paint5_linear_2035_2949)"/>
<path d="M171.119 132.635C174.746 127.406 181.925 126.107 187.155 129.733C192.042 133.123 193.495 139.614 190.704 144.718C191.534 145.332 192.296 146.066 192.961 146.922C196.862 151.949 195.95 159.187 190.923 163.089L182.603 169.545L181.947 177.978C181.453 184.323 175.908 189.067 169.563 188.572C163.218 188.078 158.476 182.533 158.97 176.188L160.049 162.334L160.096 161.996C161.499 151.813 164.934 141.555 171.119 132.635Z" fill="url(#paint6_linear_2035_2949)"/>
<path d="M133.534 194.274C125.316 189.417 114.716 192.141 109.858 200.359C105.001 208.576 107.726 219.176 115.944 224.034C121.181 227.129 126.542 230.168 131.649 232.609C136.586 234.969 142.318 237.283 148.157 238.215C154.033 239.153 162.469 239.034 169.863 233.275C177.093 227.644 179.65 219.458 180.499 212.754C181.697 203.283 174.991 194.635 165.521 193.436C158.304 192.523 151.569 196.201 148.239 202.193C147.718 201.962 147.156 201.706 146.557 201.419C142.858 199.651 138.549 197.238 133.534 194.274Z" fill="url(#paint7_radial_2035_2949)"/>
<path d="M28.6293 190.271C32.3617 210.688 57.0315 223.282 83.7306 218.401C110.43 213.52 129.048 193.012 125.315 172.595C121.583 152.178 96.9132 139.584 70.2141 144.465C43.5149 149.346 24.8968 169.854 28.6293 190.271Z" fill="url(#paint8_linear_2035_2949)"/>
<path d="M88.8535 125.312C88.9845 126.544 89.1612 127.78 89.3876 129.018C92.8684 148.059 106.844 162.532 124.255 167.567C124.124 166.336 123.947 165.101 123.72 163.863C120.239 144.823 106.264 130.348 88.8535 125.312Z" fill="url(#paint9_linear_2035_2949)"/>
<path d="M27.8825 189.957C26.2228 181.74 30.2378 173.571 37.2196 170.961C48.9467 166.578 60.1725 179.886 55.7425 192.921L53.4029 199.805C50.7462 207.622 42.6423 210.956 35.974 206.976C32.6218 204.975 30.1952 201.408 29.3548 197.247L27.8825 189.957Z" fill="url(#paint10_linear_2035_2949)"/>
<path d="M65.8867 124.269C38.7423 129.232 20.7101 154.989 25.6114 181.799C26.2857 185.488 27.3626 189.002 28.783 192.311C33.2369 192.312 37.7559 191.915 42.2969 191.085C73.7236 185.34 96.8685 160.701 101.885 131.246C91.6087 124.717 78.8822 121.894 65.8867 124.269Z" fill="url(#paint11_linear_2035_2949)"/>
<path d="M63.519 111.848C92.0649 106.629 118.799 121.23 126.458 156.03C126.819 157.671 125.719 159.264 124.065 159.566L23.7672 177.902C22.1137 178.204 20.5211 177.104 20.2782 175.441C15.1294 140.182 34.9732 117.067 63.519 111.848Z" fill="url(#paint12_radial_2035_2949)"/>
<mask id="mask1_2035_2949" style="mask-type:alpha" maskUnits="userSpaceOnUse" x="16" y="110" width="115" height="71">
<path d="M63.5185 111.848C94.4133 106.2 123.196 122.082 130.129 160.004L18.2493 180.457C11.3165 142.535 32.6238 117.496 63.5185 111.848Z" fill="#FFC815"/>
</mask>
<g mask="url(#mask1_2035_2949)">
<path d="M26.6126 108.775C28.2587 108.736 29.8271 108.742 31.4512 108.784C61.9293 108.097 72.5234 136.871 74.9054 164.082C75.1094 165.596 75.2703 167.049 75.4205 168.589L107.071 162.917C106.612 161.133 106.14 159.446 105.614 157.678C100.97 142.213 93.2033 125.939 78.8828 115.109C64.5746 104.115 46.177 102.1 30.5685 104.172C28.7768 104.394 27.0722 104.654 25.3043 104.96C25.6024 107.999 26.3145 105.737 26.6126 108.775Z" fill="url(#paint13_linear_2035_2949)"/>
<path d="M29.121 109.598C30.8157 109.557 32.4305 109.561 34.1025 109.602C65.4813 108.865 76.3558 138.304 78.7775 166.154C78.9858 167.703 79.1498 169.19 79.3027 170.767L111.894 164.925C111.424 163.1 110.94 161.374 110.4 159.564C105.636 143.74 97.6587 127.091 82.9276 116.022C68.2093 104.786 49.2707 102.744 33.1989 104.882C31.3541 105.111 29.5988 105.38 27.7783 105.695C28.0818 108.805 28.8176 106.488 29.121 109.598Z" fill="url(#paint14_linear_2035_2949)"/>
</g>
<path d="M59.7973 246.437L34.6301 302.465C23.3762 327.52 34.843 356.936 60.0849 367.765L60.6568 368.01C67.993 371.157 76.4921 367.762 79.6394 360.425C82.7866 353.089 79.391 344.59 72.0549 341.443L71.4816 341.198C61.0879 336.739 56.3664 324.626 61.0004 314.309L79.3082 273.551L99.6854 271.529L123.991 314.88C125.472 317.522 126.341 320.463 126.534 323.486L128.66 356.75C129.17 364.716 136.041 370.762 144.008 370.253C151.974 369.743 158.02 362.872 157.511 354.905L155.384 321.642C154.915 314.301 152.804 307.159 149.207 300.743L115.652 240.894L59.7973 246.437Z" fill="url(#paint15_radial_2035_2949)"/>
<path d="M69.4111 258.555L68.6129 258.646C60.3949 259.692 53.0045 264.218 48.3401 271.096L22.4618 309.252C13.5004 322.465 16.9478 340.442 30.1612 349.404C43.3746 358.365 61.3516 354.918 70.3131 341.704L88.5923 314.752L97.7913 313.84L113.74 333.392C123.832 345.764 142.043 347.612 154.415 337.521C166.787 327.429 168.635 309.218 158.543 296.846L132.782 265.267L132.198 264.573C126.063 257.514 116.871 253.846 107.527 254.773L69.4111 258.555Z" fill="url(#paint16_radial_2035_2949)"/>
<path d="M136.938 213.363C135.677 200.652 124.351 191.371 111.641 192.633L51.2302 198.627C38.5201 199.889 29.239 211.215 30.5002 223.925L32.998 249.096Lnan nanL32.998 249.096Cnan nan nan nan 32.998 249.096C27.9357 263.881 35.2536 280.053 49.702 286.01L67.4806 293.34C82.893 299.694 100.458 297.951 114.321 288.692L130.313 278.011C143.309 269.331 147.306 252.036 139.436 238.534Cnan nan nan nan 139.436 238.534L-nan -nanL139.436 238.534L136.938 213.363Z" fill="url(#paint17_linear_2035_2949)"/>
<path d="M97.544 198.66C97.2386 195.539 99.4858 192.747 102.6 192.378L113.12 191.131C116.114 190.777 118.875 192.79 119.453 195.749L135.769 279.365C136.444 282.821 133.887 286.069 130.369 286.224L111.672 287.051C108.613 287.186 105.982 284.904 105.684 281.856L97.544 198.66Z" fill="url(#paint18_linear_2035_2949)"/>
<path d="M105.063 195.822C104.817 193.887 106.15 192.106 108.076 191.795C110.031 191.48 111.876 192.794 112.216 194.745L126.445 276.302C126.843 278.582 125.782 280.87 123.784 282.04C120.352 284.049 115.982 281.898 115.482 277.952L105.063 195.822Z" fill="url(#paint19_linear_2035_2949)"/>
<path d="M76.6481 200.813C76.3189 197.694 73.5555 195.411 70.4305 195.677L59.8755 196.574C56.8713 196.829 54.5719 199.357 54.602 202.372L55.4533 287.561C55.4885 291.082 58.6467 293.748 62.1241 293.192L80.6045 290.238C83.6288 289.754 85.7463 286.989 85.4247 283.944L76.6481 200.813Z" fill="url(#paint20_linear_2035_2949)"/>
<path d="M68.7115 199.546C68.5624 197.601 66.8982 196.125 64.9492 196.208C62.971 196.293 61.4285 197.952 61.4878 199.931L63.9698 282.683C64.0392 284.997 65.5389 287.024 67.7313 287.767C71.498 289.045 75.3448 286.058 75.0407 282.092L68.7115 199.546Z" fill="url(#paint21_linear_2035_2949)"/>
<path d="M85.2968 148.242C84.6129 146.799 82.889 146.184 81.4463 146.868L70.9973 151.821C69.5546 152.504 68.9394 154.228 69.6232 155.671C70.307 157.114 72.0309 157.729 73.4736 157.045L83.9227 152.093C85.3654 151.409 85.9806 149.685 85.2968 148.242Z" fill="url(#paint22_linear_2035_2949)"/>
<path d="M116.101 148.991C116.23 147.399 115.045 146.005 113.454 145.876L101.928 144.94C100.337 144.811 98.9421 145.996 98.8129 147.588C98.6838 149.179 99.8691 150.574 101.46 150.703L112.986 151.638C114.577 151.767 115.972 150.582 116.101 148.991Z" fill="url(#paint23_linear_2035_2949)"/>
<path d="M155.989 237.557C160.583 238.851 163.258 243.626 161.964 248.22C160.669 252.814 155.895 255.489 151.301 254.194C150.664 254.015 150.022 253.851 149.374 253.704C149.39 255.354 148.935 257.026 147.965 258.511C145.352 262.506 139.995 263.627 136 261.014L125.952 254.441C122.93 255.152 119.758 256.023 116.413 256.971C111.913 258.246 107.031 259.675 102.288 260.807C93.1889 262.979 82.2197 264.722 72.6875 260.81C68.272 258.998 66.1624 253.949 67.9744 249.533C69.7866 245.118 74.8354 243.006 79.2511 244.819C83.2291 246.451 89.309 246.135 98.2764 243.995C102.568 242.971 106.975 241.68 111.702 240.34C116.318 239.033 121.203 237.691 125.979 236.749C135.706 234.83 146.056 234.758 155.989 237.557Z" fill="url(#paint24_linear_2035_2949)"/>
<path d="M161.881 236.633C167.875 238.769 171.003 245.361 168.866 251.356C166.87 256.959 160.982 260.055 155.326 258.692C154.95 259.654 154.441 260.581 153.788 261.446C149.953 266.524 142.727 267.532 137.649 263.697L129.246 257.35L120.934 258.917C114.68 260.096 108.654 255.98 107.475 249.726C106.297 243.472 110.412 237.447 116.666 236.269L130.323 233.696L130.661 233.653C140.857 232.35 151.656 232.989 161.881 236.633Z" fill="url(#paint25_linear_2035_2949)"/>
<path d="M63.2667 211.292C60.8721 202.051 51.4393 196.502 42.1984 198.896C32.9575 201.291 27.4078 210.724 29.8023 219.965C33.8462 235.57 38.681 247.982 46.5578 256.464C55.604 266.204 66.3099 268.416 75.2553 269.118C84.7722 269.865 93.0925 262.754 93.839 253.238C94.5851 243.721 87.4759 235.401 77.9595 234.655C72.7972 234.25 72.3897 233.478 71.8888 232.939C70.2185 231.14 67.0717 225.976 63.2667 211.292Z" fill="url(#paint26_radial_2035_2949)"/>
<path d="M220.025 140.384C244.404 123.9 261.929 121.956 270.412 120.305C271.043 134.857 268.609 141.2 263.19 151.059C257.706 161.039 232.915 187.768 242.817 212.254C252.719 236.741 268.422 313.659 226.874 345.224C185.326 376.789 155.726 318.834 155.726 306.956C155.726 256.956 185.482 279.289 188.725 224.456C191.179 182.975 189.551 160.989 220.025 140.384Z" fill="url(#paint27_linear_2035_2949)"/>
<path d="M91.8284 176.093C92.5482 182.416 88.0057 188.125 81.6824 188.845C75.3591 189.565 69.6496 185.022 68.9298 178.699C68.21 172.376 72.7525 166.666 79.0758 165.947C85.3991 165.227 91.1086 169.769 91.8284 176.093Z" fill="url(#paint28_linear_2035_2949)"/>
<path d="M83.2386 168.846C85.3725 168.603 87.4273 169.035 89.1911 169.972C90.6073 171.649 91.562 173.748 91.8289 176.093C92.5486 182.416 88.0061 188.126 81.6829 188.845C81.6329 188.851 81.5827 188.853 81.5328 188.858C77.6904 187.737 74.7022 184.407 74.221 180.181C73.5812 174.561 77.6182 169.486 83.2386 168.846Z" fill="url(#paint29_linear_2035_2949)"/>
<path d="M89.0459 177.716C89.1658 178.77 88.4087 179.721 87.3549 179.841C86.301 179.961 85.3494 179.204 85.2294 178.15C85.1095 177.097 85.8665 176.145 86.9204 176.025C87.9743 175.905 88.9259 176.662 89.0459 177.716Z" fill="white"/>
<path d="M119.02 172.998C119.74 179.321 115.197 185.031 108.874 185.75C102.551 186.47 96.841 181.928 96.1212 175.604C95.4014 169.281 99.9439 163.572 106.267 162.852C112.591 162.132 118.3 166.675 119.02 172.998Z" fill="url(#paint30_linear_2035_2949)"/>
<path d="M110.43 165.751C112.564 165.508 114.619 165.941 116.383 166.877C117.799 168.554 118.753 170.653 119.02 172.998C119.74 179.321 115.198 185.031 108.874 185.751C108.824 185.756 108.774 185.759 108.724 185.764C104.882 184.643 101.894 181.312 101.412 177.087C100.773 171.466 104.81 166.391 110.43 165.751Z" fill="url(#paint31_linear_2035_2949)"/>
<path d="M116.237 174.621C116.357 175.675 115.6 176.627 114.546 176.747C113.492 176.867 112.541 176.11 112.421 175.056C112.301 174.002 113.058 173.05 114.112 172.93C115.166 172.81 116.117 173.567 116.237 174.621Z" fill="white"/>
</g>
<defs>
<radialGradient id="paint0_radial_2035_2949" cx="0" cy="0" r="1" gradientUnits="userSpaceOnUse" gradientTransform="translate(156 156) rotate(-90) scale(156)">
<stop offset="0.454021" stop-color="#F1F4FF"/>
<stop offset="1" stop-color="#87A1FF"/>
</radialGradient>
<radialGradient id="paint1_radial_2035_2949" cx="0" cy="0" r="1" gradientUnits="userSpaceOnUse" gradientTransform="translate(156 156) rotate(-90) scale(156)">
<stop stop-color="#FFC9AD"/>
<stop offset="1" stop-color="#261172"/>
</radialGradient>
<linearGradient id="paint2_linear_2035_2949" x1="250.726" y1="49.2987" x2="275.216" y2="175.133" gradientUnits="userSpaceOnUse">
<stop stop-color="#CFD9FF"/>
<stop offset="0.5" stop-color="#87A1FF"/>
<stop offset="1" stop-color="#2E3331"/>
</linearGradient>
<linearGradient id="paint3_linear_2035_2949" x1="279.228" y1="109.051" x2="173.188" y2="129.689" gradientUnits="userSpaceOnUse">
<stop stop-color="#959E99"/>
<stop offset="1" stop-color="#E1EBE6"/>
</linearGradient>
<linearGradient id="paint4_linear_2035_2949" x1="269.331" y1="110.977" x2="183.085" y2="127.763" gradientUnits="userSpaceOnUse">
<stop stop-color="#7D8580"/>
<stop offset="1" stop-color="#CDD6D1"/>
</linearGradient>
<linearGradient id="paint5_linear_2035_2949" x1="197.732" y1="174.214" x2="158.959" y2="164.193" gradientUnits="userSpaceOnUse">
<stop stop-color="#FFDFCD"/>
<stop offset="1" stop-color="#FF9A64"/>
</linearGradient>
<linearGradient id="paint6_linear_2035_2949" x1="197.732" y1="174.214" x2="158.959" y2="164.193" gradientUnits="userSpaceOnUse">
<stop stop-color="#FFC815"/>
<stop offset="0.759264" stop-color="#FFD64F"/>
<stop offset="1" stop-color="#FFDA62"/>
</linearGradient>
<radialGradient id="paint7_radial_2035_2949" cx="0" cy="0" r="1" gradientUnits="userSpaceOnUse" gradientTransform="translate(148.465 170.856) rotate(77.3539) scale(71.2671 98.6775)">
<stop stop-color="#F5FFF0"/>
<stop offset="1" stop-color="#79D04E"/>
</radialGradient>
<linearGradient id="paint8_linear_2035_2949" x1="70.2141" y1="144.465" x2="83.7306" y2="218.401" gradientUnits="userSpaceOnUse">
<stop stop-color="#FFDFCD"/>
<stop offset="1" stop-color="#FF9A64"/>
</linearGradient>
<linearGradient id="paint9_linear_2035_2949" x1="110.864" y1="170.016" x2="102.244" y2="122.864" gradientUnits="userSpaceOnUse">
<stop stop-color="#0D2C9E"/>
<stop offset="1" stop-color="#2E58F0"/>
</linearGradient>
<linearGradient id="paint10_linear_2035_2949" x1="45.5607" y1="214.701" x2="40.2161" y2="160.842" gradientUnits="userSpaceOnUse">
<stop stop-color="#091955"/>
<stop offset="1" stop-color="#2E58F0"/>
</linearGradient>
<linearGradient id="paint11_linear_2035_2949" x1="58.1116" y1="125.691" x2="69.1684" y2="186.172" gradientUnits="userSpaceOnUse">
<stop stop-color="#6385FF"/>
<stop offset="1" stop-color="#0D2C9E"/>
</linearGradient>
<radialGradient id="paint12_radial_2035_2949" cx="0" cy="0" r="1" gradientUnits="userSpaceOnUse" gradientTransform="translate(31.2739 140.241) rotate(12.0697) scale(149.156 278.686)">
<stop offset="0.0597654" stop-color="#FFE695"/>
<stop offset="0.271395" stop-color="#FFC815"/>
<stop offset="1" stop-color="#FE7F3B"/>
</radialGradient>
<linearGradient id="paint13_linear_2035_2949" x1="59.1904" y1="133.632" x2="92.2404" y2="118.63" gradientUnits="userSpaceOnUse">
<stop stop-color="#FFC815"/>
<stop offset="1" stop-color="#C09300"/>
</linearGradient>
<linearGradient id="paint14_linear_2035_2949" x1="70.2639" y1="130.607" x2="88.7993" y2="120.708" gradientUnits="userSpaceOnUse">
<stop stop-color="#FFEEB6"/>
<stop offset="1" stop-color="#FFDA62"/>
</linearGradient>
<radialGradient id="paint15_radial_2035_2949" cx="0" cy="0" r="1" gradientUnits="userSpaceOnUse" gradientTransform="translate(83.0918 285.522) rotate(100.375) scale(118.121 142.459)">
<stop offset="0.197115" stop-color="#FE7F3B"/>
<stop offset="1" stop-color="#A94915"/>
</radialGradient>
<radialGradient id="paint16_radial_2035_2949" cx="0" cy="0" r="1" gradientUnits="userSpaceOnUse" gradientTransform="translate(83.093 285.521) rotate(100.375) scale(118.121 142.459)">
<stop offset="0.197115" stop-color="#87EFD0"/>
<stop offset="1" stop-color="#7B56FF"/>
</radialGradient>
<linearGradient id="paint17_linear_2035_2949" x1="81.4358" y1="195.63" x2="94.4243" y2="326.52" gradientUnits="userSpaceOnUse">
<stop stop-color="#EBFFE0"/>
<stop offset="1" stop-color="#79D04E"/>
</linearGradient>
<linearGradient id="paint18_linear_2035_2949" x1="132.055" y1="233.796" x2="110.113" y2="238.026" gradientUnits="userSpaceOnUse">
<stop stop-color="#FE7F3B"/>
<stop offset="1" stop-color="#FFDA62"/>
</linearGradient>
<linearGradient id="paint19_linear_2035_2949" x1="121.663" y1="234.812" x2="102.658" y2="236.57" gradientUnits="userSpaceOnUse">
<stop stop-color="white"/>
<stop offset="1" stop-color="#FFF2EA"/>
</linearGradient>
<linearGradient id="paint20_linear_2035_2949" x1="49.9176" y1="242.177" x2="72.2616" y2="241.903" gradientUnits="userSpaceOnUse">
<stop stop-color="#FE7F3B"/>
<stop offset="1" stop-color="#FFDA62"/>
</linearGradient>
<linearGradient id="paint21_linear_2035_2949" x1="60.301" y1="241.08" x2="79.2706" y2="238.975" gradientUnits="userSpaceOnUse">
<stop stop-color="white"/>
<stop offset="1" stop-color="#FFF2EA"/>
</linearGradient>
<linearGradient id="paint22_linear_2035_2949" x1="76.2218" y1="149.344" x2="78.6981" y2="154.569" gradientUnits="userSpaceOnUse">
<stop stop-color="#AEC0FF"/>
<stop offset="1" stop-color="#2E58F0"/>
</linearGradient>
<linearGradient id="paint23_linear_2035_2949" x1="107.691" y1="145.408" x2="107.223" y2="151.171" gradientUnits="userSpaceOnUse">
<stop stop-color="#AEC0FF"/>
<stop offset="1" stop-color="#2E58F0"/>
</linearGradient>
<linearGradient id="paint24_linear_2035_2949" x1="126.124" y1="273.486" x2="122.973" y2="233.563" gradientUnits="userSpaceOnUse">
<stop stop-color="#FFDFCD"/>
<stop offset="1" stop-color="#FF9A64"/>
</linearGradient>
<linearGradient id="paint25_linear_2035_2949" x1="128.686" y1="273.173" x2="128.244" y2="233.129" gradientUnits="userSpaceOnUse">
<stop stop-color="#FFC815"/>
<stop offset="0.759264" stop-color="#FFD64F"/>
<stop offset="1" stop-color="#FFDA62"/>
</linearGradient>
<radialGradient id="paint26_radial_2035_2949" cx="0" cy="0" r="1" gradientUnits="userSpaceOnUse" gradientTransform="translate(103.341 204.728) rotate(112.855) scale(71.2671 98.6775)">
<stop stop-color="#EBFFE0"/>
<stop offset="1" stop-color="#79D04E"/>
</radialGradient>
<linearGradient id="paint27_linear_2035_2949" x1="290.734" y1="220.9" x2="184.289" y2="224.38" gradientUnits="userSpaceOnUse">
<stop stop-color="#79D04E"/>
<stop offset="1" stop-color="#FFDA62"/>
</linearGradient>
<linearGradient id="paint28_linear_2035_2949" x1="79.0758" y1="165.947" x2="81.6824" y2="188.845" gradientUnits="userSpaceOnUse">
<stop stop-color="#EFEAFF"/>
<stop offset="1" stop-color="#FFDFCD"/>
</linearGradient>
<linearGradient id="paint29_linear_2035_2949" x1="77.1769" y1="166.241" x2="79.485" y2="186.518" gradientUnits="userSpaceOnUse">
<stop stop-color="#87A1FF"/>
<stop offset="1" stop-color="#2E58F0"/>
</linearGradient>
<linearGradient id="paint30_linear_2035_2949" x1="106.267" y1="162.852" x2="108.874" y2="185.75" gradientUnits="userSpaceOnUse">
<stop stop-color="#EFEAFF"/>
<stop offset="1" stop-color="#FFDFCD"/>
</linearGradient>
<linearGradient id="paint31_linear_2035_2949" x1="104.368" y1="163.146" x2="106.676" y2="183.423" gradientUnits="userSpaceOnUse">
<stop stop-color="#87A1FF"/>
<stop offset="1" stop-color="#2E58F0"/>
</linearGradient>
</defs>
</svg>
