<svg width="312" height="312" viewBox="0 0 312 312" fill="none" xmlns="http://www.w3.org/2000/svg">
<path d="M0 24C0 10.7452 10.7452 0 24 0H288C301.255 0 312 10.7452 312 24V288C312 301.255 301.255 312 288 312H24C10.7452 312 0 301.255 0 288V24Z" fill="url(#paint0_radial_42_2080)"/>
<mask id="mask0_42_2080" style="mask-type:alpha" maskUnits="userSpaceOnUse" x="0" y="0" width="312" height="312">
<path d="M0 24C0 10.7452 10.7452 0 24 0H288C301.255 0 312 10.7452 312 24V288C312 301.255 301.255 312 288 312H24C10.7452 312 0 301.255 0 288V24Z" fill="url(#paint1_radial_42_2080)"/>
</mask>
<g mask="url(#mask0_42_2080)">
<path d="M185.231 186.186C187.034 185.701 188.888 186.768 189.374 188.57C189.859 190.373 188.792 192.227 186.99 192.713L173.938 196.23C172.135 196.715 170.281 195.648 169.795 193.846C169.31 192.043 170.377 190.189 172.179 189.703L185.231 186.186Z" fill="url(#paint2_linear_42_2080)"/>
<path d="M46.578 251.986C55.3631 265.753 73.6457 269.792 87.4127 261.007C101.179 252.222 105.218 233.939 96.4331 220.172C93.0545 214.878 91.9239 207.734 93.5024 201.655C95.4953 193.979 94.4139 185.528 89.8113 178.315C81.0263 164.548 62.7449 160.509 48.9779 169.294C35.2108 178.079 31.1712 196.362 39.9562 210.129C43.334 215.422 44.4635 222.565 42.8856 228.642C40.8925 236.319 41.9749 244.773 46.578 251.986Z" fill="url(#paint3_linear_42_2080)"/>
<path d="M70.3701 226.485C79.0753 249.133 109.788 258.4 138.97 247.184C168.151 235.968 184.75 208.515 176.045 185.867C167.34 163.219 136.627 153.952 107.445 165.168C78.264 176.384 61.6649 203.837 70.3701 226.485Z" fill="url(#paint4_linear_42_2080)"/>
<path d="M124.374 139.262C124.791 140.649 125.261 142.031 125.789 143.405C133.907 164.526 153.095 178.129 174.187 180.148C173.77 178.762 173.298 177.381 172.77 176.007C164.652 154.887 145.465 141.281 124.374 139.262Z" fill="url(#paint5_linear_42_2080)"/>
<path d="M98.2211 142.857C68.4812 154.288 53.6386 187.664 65.0697 217.404C66.6424 221.496 68.6339 225.303 70.9707 228.801C76.0291 227.861 81.0749 226.45 86.0503 224.538C120.483 211.303 141.378 178.131 140.63 143.259C127.532 137.935 112.46 137.384 98.2211 142.857Z" fill="url(#paint6_linear_42_2080)"/>
<path d="M133.124 197.751C135.425 204.853 131.532 212.476 124.43 214.777C117.328 217.078 109.705 213.185 107.404 206.083C105.103 198.981 108.995 191.358 116.098 189.057C123.2 186.756 130.823 190.648 133.124 197.751Z" fill="url(#paint7_linear_42_2080)"/>
<path d="M116.595 188.911C123.553 186.944 130.876 190.813 133.123 197.751C133.895 200.134 133.966 202.574 133.456 204.854C132.66 205.342 131.796 205.749 130.868 206.049C124.555 208.094 117.779 204.634 115.734 198.321C114.681 195.07 115.091 191.698 116.595 188.911Z" fill="url(#paint8_linear_42_2080)"/>
<path d="M126.886 192.537C127.27 193.721 126.621 194.991 125.437 195.375C124.254 195.758 122.983 195.11 122.6 193.926C122.216 192.742 122.865 191.472 124.049 191.088C125.232 190.705 126.503 191.354 126.886 192.537Z" fill="white"/>
<path d="M291.956 145.312C290.673 139.862 285.213 136.484 279.763 137.768C274.313 139.051 270.935 144.511 272.219 149.961C272.397 150.716 272.556 151.477 272.696 152.244C270.763 152.141 268.779 152.589 266.99 153.652C262.176 156.51 260.589 162.732 263.448 167.547L270.613 179.611C265.566 196.263 254.671 210.765 243.764 217.555C233.016 224.247 212.367 227.311 184.356 219.267C178.974 217.721 173.359 220.832 171.813 226.213C170.267 231.595 173.376 237.21 178.758 238.756C209.822 247.677 237.044 245.624 254.48 234.768C271.384 224.244 285.889 203.138 291.378 180.525C294.122 169.222 294.731 157.096 291.956 145.312Z" fill="url(#paint9_linear_42_2080)"/>
<path d="M263.012 214.792C257.094 205.286 244.59 202.377 235.084 208.296C227.258 213.167 212.985 216.94 187.155 209.522C176.391 206.43 165.159 212.651 162.067 223.415C158.977 234.178 165.196 245.409 175.959 248.5C209.203 258.048 236.156 255.397 256.516 242.721C266.022 236.803 268.931 224.299 263.012 214.792Z" fill="url(#paint10_radial_42_2080)"/>
<path d="M163.666 187.855C165.967 194.957 162.075 202.58 154.972 204.881C147.87 207.182 140.247 203.289 137.946 196.187C135.646 189.085 139.538 181.462 146.64 179.161C153.742 176.86 161.365 180.752 163.666 187.855Z" fill="url(#paint11_linear_42_2080)"/>
<path d="M147.138 179.016C154.096 177.048 161.419 180.918 163.666 187.855C164.438 190.238 164.509 192.679 163.999 194.958C163.203 195.446 162.339 195.853 161.411 196.154C155.098 198.199 148.322 194.739 146.277 188.426C145.224 185.175 145.634 181.803 147.138 179.016Z" fill="url(#paint12_linear_42_2080)"/>
<path d="M157.429 182.642C157.812 183.826 157.163 185.096 155.98 185.48C154.796 185.863 153.526 185.215 153.142 184.031C152.759 182.847 153.407 181.577 154.591 181.193C155.775 180.81 157.045 181.459 157.429 182.642Z" fill="white"/>
<path d="M122.013 163.998C120.915 162.489 118.802 162.155 117.292 163.253L106.36 171.203C104.85 172.301 104.516 174.414 105.614 175.924C106.712 177.433 108.825 177.767 110.335 176.669L121.267 168.719C122.777 167.621 123.111 165.508 122.013 163.998Z" fill="url(#paint13_linear_42_2080)"/>
<path d="M153.863 157.378C153.667 155.522 152.004 154.176 150.148 154.372L136.704 155.791C134.848 155.987 133.502 157.651 133.698 159.507C133.894 161.363 135.558 162.709 137.414 162.513L150.857 161.094C152.713 160.898 154.059 159.234 153.863 157.378Z" fill="url(#paint14_linear_42_2080)"/>
<path d="M116.239 270.937L96.1776 339.88C87.2072 370.711 105.248 402.909 136.226 411.357L136.928 411.549C145.931 414.004 155.221 408.696 157.676 399.693C160.132 390.689 154.824 381.4 145.82 378.944L145.117 378.753C132.361 375.275 124.933 362.016 128.627 349.321L143.22 299.168L166.484 293.526L201.646 339.778C203.788 342.597 205.271 345.861 205.984 349.329L213.835 387.496L214.032 388.343C216.274 396.997 224.935 402.464 233.791 400.643C242.646 398.821 248.446 390.379 247.091 381.543L246.937 380.687L239.087 342.52C237.355 334.098 233.753 326.172 228.55 319.326L180.006 255.472L116.239 270.937Z" fill="url(#paint15_radial_42_2080)"/>
<path d="M129.331 283.411L128.421 283.646C119.076 286.188 111.253 292.626 106.967 301.344L83.1879 349.711L82.8137 350.5C75.1726 367.092 82.1186 386.844 98.6062 394.95C115.356 403.184 135.61 396.281 143.845 379.531L160.641 345.367L171.144 342.82L192.776 362.873C206.464 375.561 227.847 374.751 240.536 361.063C253.224 347.376 252.414 325.992 238.726 313.304L203.786 280.916L202.997 280.208C194.751 273.029 183.515 270.271 172.847 272.858L129.331 283.411Z" fill="url(#paint16_radial_42_2080)"/>
<path d="M200.029 228.66C196.461 213.322 180.591 204.268 165.572 209.001L134.018 218.943L104.303 228.307C89.7387 232.896 81.8626 248.628 86.915 263.038L93.7866 282.637Lnan nanL93.7866 282.637C90.7952 300.722 101.794 318.188 119.396 323.305L133.97 327.542C153.975 333.358 175.535 326.985 189.163 311.228L203.182 295.019C214.805 281.58 215.345 261.812 204.473 247.759Lnan nanL204.473 247.759L200.029 228.66Z" fill="url(#paint17_linear_42_2080)"/>
<path d="M100.117 246.962C94.8866 237.061 82.6195 233.273 72.7177 238.503C59.3134 245.584 54.7972 259.112 53.2675 268.247C51.6313 278.018 52.3557 288.324 53.8612 296.73C55.2784 304.643 57.9118 313.805 62.1346 320.343C63.2693 322.1 65.1363 324.649 67.931 326.916C70.6408 329.114 76.1931 332.584 83.8502 331.949C91.9358 331.28 97.1246 326.51 99.7239 323.048C101.879 320.179 103.09 317.214 103.805 315.001L104.082 314.101L104.223 313.598C106.711 304.268 102.254 294.645 93.9261 290.361C93.8771 290.107 93.8277 289.847 93.7801 289.581C92.798 284.097 92.631 278.723 93.2635 274.945C93.3967 274.15 93.5367 273.566 93.6557 273.153C102.047 267.414 104.979 256.167 100.117 246.962Z" fill="url(#paint18_radial_42_2080)"/>
<path d="M140.812 195.005C137.961 186.119 142.853 176.604 151.739 173.753C160.624 170.902 170.139 175.794 172.991 184.68C175.842 193.565 170.95 203.08 162.064 205.932L163.096 209.149C173.759 205.728 179.63 194.31 176.208 183.647C172.787 172.984 161.369 167.114 150.706 170.535C140.043 173.957 134.172 185.374 137.594 196.037C141.016 206.701 152.433 212.571 163.096 209.149L162.064 205.932C153.178 208.783 143.663 203.891 140.812 195.005Z" fill="url(#paint19_linear_42_2080)"/>
<path d="M99.4414 207.707C92.889 217.926 86.3369 228.145 79.7845 238.364C79.5457 238.736 79.9853 239.222 80.3471 238.985C90.274 232.485 100.201 225.984 110.128 219.485C110.983 218.925 111.09 217.64 110.349 216.823C107.556 213.743 104.762 210.663 101.969 207.584C101.227 206.766 100.007 206.825 99.4414 207.707Z" fill="url(#paint20_linear_42_2080)"/>
<path d="M103.806 206.878C100.955 197.993 105.847 188.478 114.733 185.626C123.619 182.775 133.134 187.667 135.985 196.553C138.836 205.439 133.944 214.954 125.058 217.805L126.091 221.023C136.754 217.601 142.625 206.184 139.203 195.521C135.781 184.858 124.364 178.987 113.701 182.409C103.038 185.83 97.1671 197.248 100.589 207.911C104.01 218.574 115.428 224.444 126.091 221.023L125.058 217.805C116.173 220.656 106.658 215.764 103.806 206.878Z" fill="url(#paint21_linear_42_2080)"/>
<path d="M236.118 144.476C237.92 143.99 239.775 145.058 240.26 146.86C240.746 148.662 239.678 150.517 237.876 151.002C229.9 153.151 226.161 156.376 224.273 160.023C222.273 163.889 221.977 168.894 222.384 175.453C223.172 188.126 226.663 205.642 219.142 223.809C210.817 243.918 194.02 252.41 178.78 254.416C171.189 255.415 163.88 254.828 158.019 253.232C155.089 252.434 152.438 251.362 150.267 250.045C148.971 249.259 147.758 248.33 146.763 247.248C124.155 252.335 100.645 242.811 87.9951 223.2L84.5614 217.877L84.3903 217.578C83.6114 216.052 84.0996 214.154 85.5703 213.205C87.0409 212.257 88.9717 212.595 90.0407 213.933L90.2427 214.214L93.6764 219.537C105.157 237.335 126.824 245.674 147.275 240.163C167.726 234.653 182.27 216.558 183.255 195.401L183.55 189.073C183.637 187.209 185.219 185.767 187.083 185.853C188.947 185.94 190.389 187.522 190.303 189.387L190.008 195.714C188.981 217.784 174.994 236.926 154.751 244.809C156.121 245.516 157.816 246.172 159.794 246.711C164.75 248.061 171.154 248.603 177.898 247.715C191.329 245.948 205.702 238.604 212.898 221.223C219.647 204.92 216.496 189.663 215.639 175.873C215.225 169.201 215.355 162.552 218.27 156.917C221.298 151.065 226.963 146.943 236.118 144.476Z" fill="url(#paint22_linear_42_2080)"/>
<path d="M253.977 139.466C256.621 146.944 253.059 155.024 246.021 157.513C238.982 160.003 231.132 155.958 228.488 148.479C225.843 141.001 229.405 132.921 236.444 130.432C243.482 127.942 251.332 131.987 253.977 139.466Z" fill="url(#paint23_radial_42_2080)"/>
<path d="M253.977 139.466C256.622 146.944 254.486 154.52 249.207 156.387C243.928 158.254 237.505 153.704 234.86 146.226C232.216 138.748 234.351 131.172 239.63 129.305C244.909 127.438 251.332 131.987 253.977 139.466Z" fill="url(#paint24_radial_42_2080)"/>
<path d="M91.1209 204.509C87.7993 200.002 81.4531 199.041 76.9457 202.362C72.4381 205.683 71.4758 212.032 74.7975 216.539C75.3164 217.243 75.7646 217.87 76.1588 218.441C74.3312 219.103 72.6744 220.299 71.4407 221.986C68.1364 226.507 69.1222 232.852 73.6426 236.156L85.674 244.948C87.7929 252.716 89.0627 261.862 88.6274 270.452C88.1394 280.081 85.602 287.627 81.3014 292.304L80.8788 292.748L80.5228 293.129C76.9616 297.14 77.1346 303.283 81.0032 307.085C84.8719 310.887 91.0171 310.954 94.9657 307.324L95.3398 306.96L96.2112 306.045C105.031 296.474 108.271 283.448 108.877 271.479C109.512 258.944 107.36 246.03 104.089 235.722C101.326 227.017 99.7202 221.196 98.2568 217.232C96.4617 212.371 94.5234 209.126 91.1209 204.509Z" fill="url(#paint25_linear_42_2080)"/>
<path d="M74.4746 290.94C74.9872 280.407 83.5715 271.912 94.2779 271.675C105.474 271.427 114.751 280.301 114.999 291.497C115.267 303.566 110.962 314.14 104.931 321.193C102.342 324.221 97.338 329.054 89.9185 330.722C85.7473 331.66 79.5436 331.792 73.4725 328.147C67.36 324.478 64.5307 318.874 63.3871 314.63L63.2574 314.123C60.9466 304.594 65.8041 294.926 74.4746 290.94Z" fill="url(#paint26_linear_42_2080)"/>
<path d="M250.791 140.593C252.502 145.432 251.037 150.363 247.517 151.608C243.998 152.853 239.758 149.939 238.047 145.1C236.335 140.261 237.801 135.329 241.32 134.084C244.84 132.84 249.08 135.754 250.791 140.593Z" fill="url(#paint27_radial_42_2080)"/>
<path d="M199.266 90.4395C202.665 103.055 195.193 116.037 182.578 119.436C169.963 122.835 156.981 115.364 153.582 102.748C150.183 90.1333 157.654 77.1513 170.269 73.7523C182.885 70.3533 195.867 77.8244 199.266 90.4395Z" fill="url(#paint28_radial_42_2080)"/>
<path d="M175.846 85.2203L181.638 106.718L177.001 107.968L171.209 86.4697L175.846 85.2203ZM165.107 97.3826L186.605 91.5902L187.74 95.8055L166.242 101.598L165.107 97.3826Z" fill="white"/>
</g>
<defs>
<radialGradient id="paint0_radial_42_2080" cx="0" cy="0" r="1" gradientUnits="userSpaceOnUse" gradientTransform="translate(156 156) rotate(-90) scale(156)">
<stop offset="0.454021" stop-color="#E3E9FF"/>
<stop offset="1" stop-color="#24A57F"/>
</radialGradient>
<radialGradient id="paint1_radial_42_2080" cx="0" cy="0" r="1" gradientUnits="userSpaceOnUse" gradientTransform="translate(156 156) rotate(-90) scale(156)">
<stop stop-color="#FFC9AD"/>
<stop offset="1" stop-color="#261172"/>
</radialGradient>
<linearGradient id="paint2_linear_42_2080" x1="182.861" y1="191.722" x2="173.409" y2="194.269" gradientUnits="userSpaceOnUse">
<stop stop-color="#959E99"/>
<stop offset="1" stop-color="#2E3331"/>
</linearGradient>
<linearGradient id="paint3_linear_42_2080" x1="39.9569" y1="210.128" x2="89.812" y2="178.315" gradientUnits="userSpaceOnUse">
<stop stop-color="#042119"/>
<stop offset="1" stop-color="#0F8864"/>
</linearGradient>
<linearGradient id="paint4_linear_42_2080" x1="107.445" y1="165.168" x2="138.97" y2="247.184" gradientUnits="userSpaceOnUse">
<stop stop-color="#FFDFCD"/>
<stop offset="1" stop-color="#FE7F3B"/>
</linearGradient>
<linearGradient id="paint5_linear_42_2080" x1="159.331" y1="185.858" x2="139.227" y2="133.553" gradientUnits="userSpaceOnUse">
<stop stop-color="#042119"/>
<stop offset="1" stop-color="#066146"/>
</linearGradient>
<linearGradient id="paint6_linear_42_2080" x1="89.7042" y1="146.13" x2="115.492" y2="213.221" gradientUnits="userSpaceOnUse">
<stop stop-color="#24A57F"/>
<stop offset="1" stop-color="#042119"/>
</linearGradient>
<linearGradient id="paint7_linear_42_2080" x1="116.098" y1="189.057" x2="124.43" y2="214.777" gradientUnits="userSpaceOnUse">
<stop stop-color="#EFEAFF"/>
<stop offset="1" stop-color="#FFDFCD"/>
</linearGradient>
<linearGradient id="paint8_linear_42_2080" x1="113.982" y1="189.838" x2="121.36" y2="212.612" gradientUnits="userSpaceOnUse">
<stop stop-color="#B5BDB9"/>
<stop offset="1" stop-color="#1C1F1D"/>
</linearGradient>
<linearGradient id="paint9_linear_42_2080" x1="248.329" y1="178.488" x2="294.958" y2="184.209" gradientUnits="userSpaceOnUse">
<stop stop-color="#FFDFCD"/>
<stop offset="1" stop-color="#FE7F3B"/>
</linearGradient>
<radialGradient id="paint10_radial_42_2080" cx="0" cy="0" r="1" gradientUnits="userSpaceOnUse" gradientTransform="translate(218.524 211.488) rotate(59.6643) scale(56.7438 78.5683)">
<stop offset="0.221154" stop-color="#F1F4FF"/>
<stop offset="1" stop-color="#87A1FF"/>
</radialGradient>
<linearGradient id="paint11_linear_42_2080" x1="146.64" y1="179.161" x2="154.972" y2="204.881" gradientUnits="userSpaceOnUse">
<stop stop-color="#EFEAFF"/>
<stop offset="1" stop-color="#FFDFCD"/>
</linearGradient>
<linearGradient id="paint12_linear_42_2080" x1="144.525" y1="179.942" x2="151.903" y2="202.717" gradientUnits="userSpaceOnUse">
<stop stop-color="#B5BDB9"/>
<stop offset="1" stop-color="#1C1F1D"/>
</linearGradient>
<linearGradient id="paint13_linear_42_2080" x1="111.826" y1="167.228" x2="115.801" y2="172.694" gradientUnits="userSpaceOnUse">
<stop stop-color="#4ED0AA"/>
<stop offset="1" stop-color="#0F8864"/>
</linearGradient>
<linearGradient id="paint14_linear_42_2080" x1="143.426" y1="155.082" x2="144.135" y2="161.803" gradientUnits="userSpaceOnUse">
<stop stop-color="#4ED0AA"/>
<stop offset="1" stop-color="#0F8864"/>
</linearGradient>
<radialGradient id="paint15_radial_42_2080" cx="0" cy="0" r="1" gradientUnits="userSpaceOnUse" gradientTransform="translate(149.54 312.414) rotate(92.41) scale(138.086 166.538)">
<stop offset="0.197115" stop-color="#FE7F3B"/>
<stop offset="1" stop-color="#A94915"/>
</radialGradient>
<radialGradient id="paint16_radial_42_2080" cx="0" cy="0" r="1" gradientUnits="userSpaceOnUse" gradientTransform="translate(149.539 312.415) rotate(92.41) scale(138.086 166.538)">
<stop offset="0.197115" stop-color="#87EFD0"/>
<stop offset="1" stop-color="#7B56FF"/>
</radialGradient>
<linearGradient id="paint17_linear_42_2080" x1="136.929" y1="213.927" x2="173.171" y2="363.36" gradientUnits="userSpaceOnUse">
<stop stop-color="#E3E9FF"/>
<stop offset="1" stop-color="#AEC0FF"/>
</linearGradient>
<radialGradient id="paint18_radial_42_2080" cx="0" cy="0" r="1" gradientUnits="userSpaceOnUse" gradientTransform="translate(69.21 252.447) rotate(74.9204) scale(60.8304 84.2267)">
<stop stop-color="#F1F4FF"/>
<stop offset="1" stop-color="#AEC0FF"/>
</radialGradient>
<linearGradient id="paint19_linear_42_2080" x1="150.706" y1="170.535" x2="163.096" y2="209.149" gradientUnits="userSpaceOnUse">
<stop stop-color="#424745"/>
<stop offset="1" stop-color="#B5BDB9"/>
</linearGradient>
<linearGradient id="paint20_linear_42_2080" x1="75.6563" y1="229.511" x2="109.45" y2="214.552" gradientUnits="userSpaceOnUse">
<stop stop-color="#B5BDB9"/>
<stop offset="1" stop-color="#424745"/>
</linearGradient>
<linearGradient id="paint21_linear_42_2080" x1="113.701" y1="182.409" x2="126.091" y2="221.023" gradientUnits="userSpaceOnUse">
<stop stop-color="#424745"/>
<stop offset="1" stop-color="#B5BDB9"/>
</linearGradient>
<linearGradient id="paint22_linear_42_2080" x1="158.683" y1="168.84" x2="180.789" y2="250.887" gradientUnits="userSpaceOnUse">
<stop stop-color="#606663"/>
<stop offset="0.480769" stop-color="#CDD6D1"/>
<stop offset="1" stop-color="#606663"/>
</linearGradient>
<radialGradient id="paint23_radial_42_2080" cx="0" cy="0" r="1" gradientUnits="userSpaceOnUse" gradientTransform="translate(251.723 133.093) rotate(119.339) scale(26.9432 19.0748)">
<stop stop-color="#2E3331"/>
<stop offset="1" stop-color="#606663"/>
</radialGradient>
<radialGradient id="paint24_radial_42_2080" cx="0" cy="0" r="1" gradientUnits="userSpaceOnUse" gradientTransform="translate(247.129 130.238) rotate(99.7733) scale(24.208 17.088)">
<stop stop-color="#E1EBE6"/>
<stop offset="1" stop-color="#7D8580"/>
</radialGradient>
<linearGradient id="paint25_linear_42_2080" x1="64.036" y1="252.159" x2="109.164" y2="239.099" gradientUnits="userSpaceOnUse">
<stop stop-color="#FFDFCD"/>
<stop offset="1" stop-color="#FE7F3B"/>
</linearGradient>
<linearGradient id="paint26_linear_42_2080" x1="109.378" y1="274.874" x2="75.5302" y2="318.119" gradientUnits="userSpaceOnUse">
<stop stop-color="#F1F4FF"/>
<stop offset="1" stop-color="#AEC0FF"/>
</linearGradient>
<radialGradient id="paint27_radial_42_2080" cx="0" cy="0" r="1" gradientUnits="userSpaceOnUse" gradientTransform="translate(246.298 134.644) rotate(100.508) scale(15.7786 11.3093)">
<stop stop-color="#E1EBE6"/>
<stop offset="1" stop-color="#424745"/>
</radialGradient>
<radialGradient id="paint28_radial_42_2080" cx="0" cy="0" r="1" gradientUnits="userSpaceOnUse" gradientTransform="translate(182.829 77.5742) rotate(114.064) scale(38.5762)">
<stop stop-color="#FFDFCD"/>
<stop offset="0.5" stop-color="#FE7F3B"/>
<stop offset="1" stop-color="#A94915"/>
</radialGradient>
</defs>
</svg>
