<svg width="174" height="329" viewBox="0 0 174 329" fill="none" xmlns="http://www.w3.org/2000/svg">
<path d="M137.044 159.02L139.065 109.363C139.799 91.3373 152.462 76.0138 170.027 71.8965L177.537 70.136C187.353 67.8351 197.175 73.9267 199.476 83.7423C201.776 93.5579 195.685 103.38 185.869 105.681L178.359 107.441C176.762 107.816 175.611 109.209 175.544 110.847L174.382 139.382L175.799 140.274L194.952 127.257C195.599 126.816 196.089 126.18 196.347 125.441L207.388 93.8082C210.71 84.2896 221.12 79.2663 230.638 82.5885C240.156 85.9109 245.179 96.3202 241.857 105.839L230.817 137.471C227.978 145.605 222.599 152.609 215.474 157.452L176.567 183.896L137.044 159.02Z" fill="url(#paint0_radial_1898_4319)"/>
<path d="M170.069 213.778L109.045 175.369L124.413 142.398C125.431 140.214 126.818 138.221 128.514 136.508C159.883 104.806 212.493 137.496 197.979 179.667C197.089 182.253 195.702 184.64 193.895 186.694L170.069 213.778Z" fill="url(#paint1_linear_1898_4319)"/>
<path d="M186.762 195.651C175.18 194.254 171.272 203.292 170.352 207.775L167.523 205.307C167.523 205.307 168.391 197.554 175.566 193.529C179.936 191.077 184.666 190.899 187.697 191.135C189.113 191.245 189.594 192.876 188.579 193.87L186.762 195.651Z" fill="url(#paint2_linear_1898_4319)"/>
<path d="M118.266 152.538C124.535 162.376 118.076 169.809 114.432 172.577L117.88 174.061C117.88 174.061 124.495 169.925 125.022 161.714C125.342 156.714 123.457 152.373 121.934 149.742C121.222 148.512 119.543 148.784 119.085 150.129L118.266 152.538Z" fill="url(#paint3_linear_1898_4319)"/>
<path d="M76.7119 200.314C91.7489 176.424 123.306 169.247 147.196 184.284C171.087 199.321 178.264 230.878 163.227 254.768C148.19 278.658 116.633 285.835 92.7424 270.798C68.852 255.761 61.6749 224.205 76.7119 200.314Z" fill="url(#paint4_radial_1898_4319)"/>
<path d="M200.173 272.626C194.286 268.735 192.665 260.808 196.556 254.92C200.634 248.749 202.834 240.003 199.767 233.547C197.916 229.65 193.036 224.036 179.462 219.973C172.701 217.949 168.861 210.828 170.884 204.067C172.908 197.306 180.029 193.466 186.79 195.489C205.021 200.946 217.009 210.28 222.852 222.582C231.457 240.698 224.222 259.407 217.878 269.009C213.988 274.897 206.061 276.516 200.173 272.626Z" fill="url(#paint5_radial_1898_4319)"/>
<path d="M38.9662 204.597C44.9388 208.356 52.8285 206.561 56.5876 200.588C66.0777 185.511 76.4066 176.408 83.2073 173.267C89.0941 170.549 95.65 170.685 107.89 173.097C114.814 174.462 121.534 169.954 122.899 163.03C124.263 156.107 119.756 149.388 112.833 148.023C100.127 145.519 86.3712 143.656 72.4925 150.065C59.5278 156.053 45.8878 169.61 34.9578 186.975C31.1989 192.948 32.9938 200.838 38.9662 204.597Z" fill="url(#paint6_radial_1898_4319)"/>
<path d="M98.3955 261.415C84.5994 252.731 76.6201 238.756 76.3202 225.333C76.2578 222.539 78.2606 220.25 80.5445 218.638C83.0146 216.895 85.3913 214.396 87.3321 211.313C89.2729 208.229 90.4979 205.006 91.001 202.025C91.4662 199.269 92.6638 196.473 95.2102 195.321C107.442 189.786 123.494 190.935 137.291 199.619C151.531 208.582 159.574 223.183 159.371 236.995C159.334 239.548 157.572 241.648 155.52 243.169C153.193 244.895 150.965 247.29 149.128 250.208C147.291 253.127 146.095 256.171 145.546 259.016C145.061 261.524 143.93 264.021 141.644 265.159C129.279 271.315 112.635 270.378 98.3955 261.415Z" fill="url(#paint7_radial_1898_4319)"/>
<path d="M98.3957 261.415C84.5995 252.731 76.6202 238.755 76.3203 225.333C76.2581 222.538 78.2608 220.25 80.5446 218.638C83.0147 216.895 85.3915 214.396 87.3323 211.313C89.273 208.229 90.4979 205.006 91.0011 202.025C91.2475 200.565 91.7002 199.094 92.4496 197.861C101.29 197.656 110.711 200.144 119.265 205.528C139.529 218.283 147.25 242.456 136.509 259.521C134.079 263.381 130.911 266.545 127.231 268.986C117.819 269.65 107.605 267.211 98.3957 261.415Z" fill="url(#paint8_radial_1898_4319)"/>
<path d="M78.4759 216.928C75.4023 219.833 70.7517 220.289 67.1723 218.036Lnan nanL67.1723 218.036C61.8408 214.68 60.2391 207.638 63.5948 202.306L68.9455 193.805C72.3013 188.474 79.3438 186.872 84.6753 190.228Lnan nanL84.6753 190.228C88.2548 192.481 89.8549 196.871 88.5646 200.899L87.8733 203.057C86.3699 207.75 83.7035 211.986 80.1224 215.371L78.4759 216.928Z" fill="url(#paint9_linear_1898_4319)"/>
<path d="M147.485 260.363C146.194 264.391 147.794 268.781 151.374 271.034Lnan nanL151.374 271.034C156.705 274.39 163.748 272.788 167.104 267.457L172.454 258.956C175.81 253.624 174.208 246.582 168.877 243.226Lnan nanL168.877 243.226C165.297 240.973 160.647 241.429 157.573 244.334L155.927 245.891C152.346 249.276 149.679 253.512 148.176 258.205L147.485 260.363Z" fill="url(#paint10_linear_1898_4319)"/>
<path d="M141.456 193.403C126.552 184.023 110.939 181.162 103.27 180.126C100.781 179.79 100.096 177.789 101.845 175.988C105.226 172.506 109.319 169.803 114.162 170.105C122.178 170.606 135.417 173.634 148.655 181.966C161.893 190.298 170.349 200.926 174.267 207.936C176.634 212.172 175.967 217.032 174.29 221.585C173.422 223.942 171.322 224.19 169.943 222.091C165.692 215.624 156.36 202.784 141.456 193.403Z" fill="url(#paint11_linear_1898_4319)"/>
<path d="M169.208 176.802C166.847 179.525 162.852 180.117 159.802 178.198L144.914 168.827C141.864 166.907 140.671 163.049 142.105 159.743L145.778 151.27C147.558 147.164 152.579 145.611 156.367 147.995L173.631 158.862C177.419 161.246 178.19 166.444 175.258 169.825L169.208 176.802Z" fill="url(#paint12_radial_1898_4319)"/>
<path d="M134.555 204.367C117.101 193.382 98.8729 189.967 89.9932 188.721C87.155 188.322 86.3817 186.02 88.3849 183.971C92.2952 179.97 97.0314 176.884 102.613 177.264C111.921 177.9 127.349 181.498 142.821 191.236C158.292 200.974 168.209 213.328 172.807 221.446C175.565 226.314 174.831 231.919 172.914 237.175C171.933 239.868 169.523 240.166 167.936 237.779C162.972 230.312 152.009 215.353 134.555 204.367Z" fill="url(#paint13_linear_1898_4319)"/>
<path d="M138.793 135.369C135.719 134.707 132.684 134.314 129.825 134.312C127.336 134.31 125.231 135.967 124.215 138.239L122.95 141.072C122.11 142.953 123.578 145.119 125.627 145.332C127.997 145.58 130.504 146.089 133.054 146.781C141.603 149.103 151.962 153.85 162.268 160.338C172.575 166.825 181.336 174.111 187.126 180.815C188.853 182.814 190.397 184.855 191.644 186.884C192.723 188.639 195.312 189.026 196.644 187.455L198.65 185.089C200.259 183.191 200.842 180.576 199.764 178.334C198.526 175.757 196.859 173.189 194.933 170.704C189.197 163.305 180.262 155.486 169.561 148.75C158.86 142.015 147.945 137.34 138.793 135.369Z" fill="url(#paint14_linear_1898_4319)"/>
<path d="M138.132 128.869C149.596 123.677 167.766 125.071 176.04 127.782C176.655 127.983 177.328 127.698 177.585 127.105C178.648 124.652 177.517 121.783 174.946 121.052C162.106 117.405 146.153 119.378 138.535 121.844C136.083 122.637 135.08 125.188 135.651 127.701C135.898 128.785 137.12 129.327 138.132 128.869Z" fill="url(#paint15_linear_1898_4319)"/>
<path d="M200.308 168.003C200.031 155.421 190.916 139.642 184.892 133.353C184.445 132.886 184.411 132.156 184.835 131.668C186.586 129.649 189.663 129.428 191.433 131.43C200.275 141.429 205.396 156.667 206.467 164.601C206.812 167.155 204.946 169.163 202.433 169.735C201.35 169.981 200.332 169.114 200.308 168.003Z" fill="url(#paint16_linear_1898_4319)"/>
<path d="M55.1886 204.892C56.5118 202.172 52.2561 197.375 45.6834 194.178C39.1106 190.98 32.7098 190.593 31.3867 193.313C30.0636 196.033 34.3192 200.829 40.892 204.027C47.4647 207.224 53.8655 207.612 55.1886 204.892Z" fill="url(#paint17_linear_1898_4319)"/>
<path d="M53.1274 203.907C53.1199 203.916 53.1024 203.936 53.0678 203.962C52.9954 204.018 52.8515 204.105 52.5995 204.189C52.0779 204.363 51.2628 204.468 50.1465 204.401C47.925 204.266 44.9748 203.476 41.8902 201.975C38.8056 200.474 36.3626 198.641 34.8856 196.977C34.1434 196.14 33.7229 195.434 33.5377 194.916C33.4482 194.666 33.4279 194.499 33.4273 194.408C33.4271 194.364 33.4315 194.338 33.434 194.327C33.4363 194.316 33.4382 194.312 33.4386 194.311C33.4391 194.31 33.441 194.306 33.448 194.298C33.4556 194.289 33.473 194.269 33.5076 194.242C33.58 194.186 33.7239 194.099 33.976 194.015C34.4975 193.842 35.3126 193.737 36.4289 193.804C38.6504 193.939 41.6006 194.729 44.6852 196.23C47.7698 197.73 50.2128 199.564 51.6899 201.228C52.432 202.065 52.8525 202.771 53.0377 203.289C53.1272 203.539 53.1475 203.706 53.1481 203.797C53.1484 203.841 53.1439 203.867 53.1414 203.878C53.1391 203.889 53.1372 203.893 53.1368 203.894C53.1364 203.895 53.1345 203.899 53.1274 203.907ZM57.2406 205.89C57.9216 204.49 57.7835 203.008 57.3339 201.752C56.8879 200.505 56.0818 199.302 55.104 198.2C53.1408 195.987 50.1696 193.823 46.6816 192.126C43.1936 190.429 39.6571 189.427 36.7043 189.249C35.2335 189.16 33.7894 189.268 32.5333 189.687C31.2671 190.109 30.0159 190.915 29.3348 192.315C28.6538 193.715 28.7919 195.196 29.2415 196.453C29.6875 197.7 30.4936 198.903 31.4715 200.005C33.4347 202.218 36.4058 204.382 39.8938 206.079C43.3818 207.776 46.9183 208.778 49.8712 208.956C51.3419 209.045 52.786 208.937 54.0422 208.518C55.3084 208.096 56.5595 207.29 57.2406 205.89Z" fill="url(#paint18_linear_1898_4319)"/>
<path d="M29.4568 203.539C26.8106 208.978 29.075 215.533 34.5145 218.179C39.954 220.825 46.5088 218.561 49.155 213.121L51.2845 208.744C53.1957 204.816 51.5603 200.082 47.6318 198.17L42.16 195.508C38.2315 193.597 33.4975 195.233 31.5863 199.161L29.4568 203.539Z" fill="url(#paint19_linear_1898_4319)"/>
<path d="M159.151 167.003C160.494 164.87 163.311 164.229 165.444 165.572C167.577 166.915 168.218 169.732 166.876 171.865C165.533 173.998 162.716 174.639 160.582 173.297C158.449 171.954 157.809 169.136 159.151 167.003Z" fill="url(#paint20_radial_1898_4319)"/>
<path d="M152.972 163.114C153.777 161.834 155.468 161.45 156.748 162.255C158.027 163.061 158.412 164.751 157.606 166.031C156.801 167.311 155.11 167.696 153.83 166.89C152.55 166.084 152.166 164.394 152.972 163.114Z" fill="url(#paint21_radial_1898_4319)"/>
<path d="M146.792 159.224C147.597 157.945 149.288 157.56 150.568 158.366C151.848 159.171 152.232 160.862 151.427 162.142C150.621 163.421 148.93 163.806 147.651 163C146.371 162.195 145.986 160.504 146.792 159.224Z" fill="url(#paint22_radial_1898_4319)"/>
<path d="M89.6319 241.695L91.0937 243.296C92.6547 245.006 95.4855 244.348 96.1331 242.125L97.4872 237.477C98.0594 235.513 97.9297 233.411 97.1202 231.532L94.9729 226.547C93.3307 222.734 88.2265 222.03 85.6124 225.254C84.6625 226.426 84.2334 227.935 84.4247 229.432L84.6036 230.831C85.1217 234.884 86.8777 238.677 89.6319 241.695Z" fill="white" fill-opacity="0.5"/>
<defs>
<radialGradient id="paint0_radial_1898_4319" cx="0" cy="0" r="1" gradientUnits="userSpaceOnUse" gradientTransform="translate(170.561 138.595) rotate(-73.8554) scale(74.5889 89.9572)">
<stop offset="0.197115" stop-color="#87EFD0"/>
<stop offset="1" stop-color="#7B56FF"/>
</radialGradient>
<linearGradient id="paint1_linear_1898_4319" x1="130.638" y1="219.157" x2="197.922" y2="129.394" gradientUnits="userSpaceOnUse">
<stop offset="0.139111" stop-color="#5E35F1"/>
<stop offset="0.581145" stop-color="#EFEAFF"/>
<stop offset="0.895219" stop-color="#4ED0AA"/>
</linearGradient>
<linearGradient id="paint2_linear_1898_4319" x1="173.243" y1="209.249" x2="184.023" y2="188.107" gradientUnits="userSpaceOnUse">
<stop stop-color="#4823CF"/>
<stop offset="1" stop-color="#A187FF"/>
</linearGradient>
<linearGradient id="paint3_linear_1898_4319" x1="111.853" y1="170.608" x2="126.253" y2="151.745" gradientUnits="userSpaceOnUse">
<stop stop-color="#4823CF"/>
<stop offset="1" stop-color="#A187FF"/>
</linearGradient>
<radialGradient id="paint4_radial_1898_4319" cx="0" cy="0" r="1" gradientUnits="userSpaceOnUse" gradientTransform="translate(76.0461 242.495) rotate(-39.2882) scale(91.9287)">
<stop stop-color="#A187FF"/>
<stop offset="1" stop-color="#A6F9E1"/>
</radialGradient>
<radialGradient id="paint5_radial_1898_4319" cx="0" cy="0" r="1" gradientUnits="userSpaceOnUse" gradientTransform="translate(189.529 243.821) rotate(-43.7768) scale(45.1592 62.5282)">
<stop stop-color="#4ED0AA"/>
<stop offset="1" stop-color="#5E35F1"/>
</radialGradient>
<radialGradient id="paint6_radial_1898_4319" cx="0" cy="0" r="1" gradientTransform="matrix(8.79942 -62.791 -60.0945 4.0901 75.0244 192.302)" gradientUnits="userSpaceOnUse">
<stop stop-color="#4ED0AA"/>
<stop offset="1" stop-color="#5E35F1"/>
</radialGradient>
<radialGradient id="paint7_radial_1898_4319" cx="0" cy="0" r="1" gradientTransform="matrix(57.8504 -5.36469 14.864 55.2191 90.5056 237.377)" gradientUnits="userSpaceOnUse">
<stop stop-color="#4823CF"/>
<stop offset="1" stop-color="#261172"/>
</radialGradient>
<radialGradient id="paint8_radial_1898_4319" cx="0" cy="0" r="1" gradientTransform="matrix(57.8426 -5.3696 14.8568 55.2146 70.0423 241.753)" gradientUnits="userSpaceOnUse">
<stop stop-color="#7B56FF"/>
<stop offset="1" stop-color="#3618A3"/>
</radialGradient>
<linearGradient id="paint9_linear_1898_4319" x1="66.2702" y1="198.056" x2="85.5815" y2="210.211" gradientUnits="userSpaceOnUse">
<stop stop-color="#7B56FF"/>
<stop offset="1" stop-color="#3618A3"/>
</linearGradient>
<linearGradient id="paint10_linear_1898_4319" x1="169.779" y1="263.206" x2="150.468" y2="251.051" gradientUnits="userSpaceOnUse">
<stop stop-color="#7B56FF"/>
<stop offset="1" stop-color="#3618A3"/>
</linearGradient>
<linearGradient id="paint11_linear_1898_4319" x1="135.528" y1="202.822" x2="147.384" y2="183.984" gradientUnits="userSpaceOnUse">
<stop stop-color="#A187FF"/>
<stop offset="1" stop-color="#4823CF"/>
</linearGradient>
<radialGradient id="paint12_radial_1898_4319" cx="0" cy="0" r="1" gradientUnits="userSpaceOnUse" gradientTransform="translate(141.544 166.706) rotate(-8.72743) scale(36.2342 57.1386)">
<stop stop-color="#EFEAFF"/>
<stop offset="1" stop-color="#4ED0AA"/>
</radialGradient>
<linearGradient id="paint13_linear_1898_4319" x1="127.749" y1="215.182" x2="141.362" y2="193.553" gradientUnits="userSpaceOnUse">
<stop stop-color="#A187FF"/>
<stop offset="1" stop-color="#4823CF"/>
</linearGradient>
<linearGradient id="paint14_linear_1898_4319" x1="169.561" y1="148.75" x2="157.406" y2="168.062" gradientUnits="userSpaceOnUse">
<stop stop-color="#5E35F1"/>
<stop offset="1" stop-color="#A187FF"/>
</linearGradient>
<linearGradient id="paint15_linear_1898_4319" x1="140.063" y1="115.085" x2="172.506" y2="135.505" gradientUnits="userSpaceOnUse">
<stop stop-color="#A187FF"/>
<stop offset="1" stop-color="#5E35F1"/>
</linearGradient>
<linearGradient id="paint16_linear_1898_4319" x1="211.901" y1="160.301" x2="179.458" y2="139.881" gradientUnits="userSpaceOnUse">
<stop stop-color="#A187FF"/>
<stop offset="1" stop-color="#5E35F1"/>
</linearGradient>
<linearGradient id="paint17_linear_1898_4319" x1="40.892" y1="204.027" x2="45.6834" y2="194.178" gradientUnits="userSpaceOnUse">
<stop stop-color="#3618A3"/>
<stop offset="1" stop-color="#5E35F1"/>
</linearGradient>
<linearGradient id="paint18_linear_1898_4319" x1="40.892" y1="204.027" x2="45.6834" y2="194.178" gradientUnits="userSpaceOnUse">
<stop stop-color="#A187FF"/>
<stop offset="1" stop-color="#4823CF"/>
</linearGradient>
<linearGradient id="paint19_linear_1898_4319" x1="34.5145" y1="218.179" x2="44.8959" y2="196.839" gradientUnits="userSpaceOnUse">
<stop stop-color="#A6F9E1"/>
<stop offset="1" stop-color="#4ED0AA"/>
</linearGradient>
<radialGradient id="paint20_radial_1898_4319" cx="0" cy="0" r="1" gradientUnits="userSpaceOnUse" gradientTransform="translate(163.013 169.434) rotate(-57.813) scale(4.56364)">
<stop stop-color="#7B56FF"/>
<stop offset="1" stop-color="#A187FF"/>
</radialGradient>
<radialGradient id="paint21_radial_1898_4319" cx="0" cy="0" r="1" gradientUnits="userSpaceOnUse" gradientTransform="translate(155.289 164.573) rotate(-57.813) scale(2.73818)">
<stop stop-color="#7B56FF"/>
<stop offset="1" stop-color="#A187FF"/>
</radialGradient>
<radialGradient id="paint22_radial_1898_4319" cx="0" cy="0" r="1" gradientUnits="userSpaceOnUse" gradientTransform="translate(149.109 160.683) rotate(-57.813) scale(2.73818)">
<stop stop-color="#7B56FF"/>
<stop offset="1" stop-color="#A187FF"/>
</radialGradient>
</defs>
</svg>
