<svg width="20" height="24" viewBox="0 0 20 24" fill="none" xmlns="http://www.w3.org/2000/svg">
<ellipse cx="9.88468" cy="4.38965" rx="4.39445" ry="4.39441" fill="#FF8B4C"/>
<path d="M10.4482 0.0323486C12.6109 0.307289 14.2832 2.15341 14.2832 4.39075C14.2832 4.94132 14.18 5.46758 13.9951 5.95325C13.9672 5.95383 13.9392 5.95618 13.9111 5.95618C11.7166 5.95618 9.93756 4.17702 9.9375 1.98254C9.9375 1.27386 10.1231 0.60845 10.4482 0.0323486Z" fill="#FFC815"/>
<path d="M9.75191 15.1673C13.9415 15.1673 17.3378 12.2562 17.3378 8.66516H2.16602C2.16602 12.2562 5.56233 15.1673 9.75191 15.1673Z" fill="#7B56FF"/>
<path d="M9.75 15.1671C13.9396 15.1671 17.3359 12.256 17.3359 8.66501H13.7236L9.75 15.1671Z" fill="#4ED0AA"/>
<path d="M9.75329 23.8365C15.1399 23.8365 19.5066 19.955 19.5066 15.167H0C0 19.955 4.3667 23.8365 9.75329 23.8365Z" fill="#7B56FF"/>
<path d="M9.75 23.8365C15.1366 23.8365 19.5033 19.955 19.5033 15.167H15.7103L9.75 23.8365Z" fill="#4ED0AA"/>
</svg>
