<svg width="330" height="358" viewBox="0 0 330 358" fill="none" xmlns="http://www.w3.org/2000/svg">
<path d="M102.944 313.612C95.9906 313.612 90.3536 307.975 90.3535 301.021L90.3535 295.203C90.3536 290.257 94.3623 286.249 99.3076 286.248L106.581 286.248C111.526 286.249 115.535 290.257 115.535 295.203L115.535 301.021L115.531 301.346C115.359 308.15 109.789 313.612 102.944 313.612Z" fill="url(#paint0_linear_1_1105)" stroke="black"/>
<path d="M79.5531 69.6664C87.6502 72.0292 92.2997 80.5083 89.937 88.6054C87.4602 97.0929 88.0369 107.856 93.8185 114.145C97.3087 117.941 104.863 122.628 121.798 122.473C130.233 122.396 137.133 129.171 137.21 137.606C137.287 146.04 130.512 152.941 122.078 153.018C99.3333 153.225 82.3488 146.801 71.3317 134.818C55.1084 117.171 56.7614 93.2531 60.6144 80.0492C62.9772 71.9522 71.4561 67.3039 79.5531 69.6664Z" fill="url(#paint1_radial_1_1105)" stroke="black" stroke-linecap="round"/>
<path d="M128.414 285.094C125.079 278.993 127.321 271.343 133.423 268.007L138.528 265.217C142.868 262.845 148.308 264.44 150.68 268.779L154.169 275.161C156.54 279.501 154.946 284.941 150.606 287.313L145.501 290.103C139.399 293.439 131.749 291.196 128.414 285.094Z" fill="url(#paint2_linear_1_1105)" stroke="black"/>
<path d="M87.6737 289.021C87.6737 285.406 94.7558 282.476 103.492 282.476C112.228 282.476 119.31 285.406 119.31 289.021C119.31 292.636 112.228 295.567 103.492 295.567C94.7558 295.567 87.6737 292.636 87.6737 289.021Z" fill="url(#paint3_linear_1_1105)" stroke="black"/>
<path d="M90.4044 289.041C90.4078 289.054 90.4164 289.084 90.4396 289.131C90.4881 289.229 90.5972 289.398 90.8242 289.62C91.2939 290.08 92.1151 290.619 93.3501 291.13C95.8081 292.147 99.3923 292.84 103.492 292.84C107.592 292.84 111.176 292.147 113.634 291.13C114.869 290.619 115.69 290.08 116.16 289.62C116.387 289.398 116.496 289.229 116.545 289.131C116.568 289.084 116.577 289.054 116.58 289.041C116.583 289.028 116.583 289.023 116.583 289.021C116.583 289.02 116.583 289.015 116.58 289.002C116.577 288.989 116.568 288.959 116.545 288.912C116.496 288.814 116.387 288.645 116.16 288.423C115.69 287.963 114.869 287.424 113.634 286.913C111.176 285.896 107.592 285.203 103.492 285.203C99.3923 285.203 95.8081 285.896 93.3501 286.913C92.1151 287.424 91.2939 287.963 90.8242 288.423C90.5972 288.645 90.4881 288.814 90.4396 288.912C90.4164 288.959 90.4078 288.989 90.4044 289.002C90.4013 289.015 90.4012 289.02 90.4012 289.021C90.4012 289.023 90.4013 289.028 90.4044 289.041ZM84.9467 289.021C84.9467 287.161 85.87 285.64 87.0103 284.525C88.1415 283.418 89.6369 282.546 91.2642 281.873C94.5313 280.521 98.8561 279.749 103.492 279.749C108.128 279.749 112.453 280.521 115.72 281.873C117.347 282.546 118.843 283.418 119.974 284.525C121.114 285.64 122.038 287.161 122.038 289.021C122.038 290.882 121.114 292.403 119.974 293.518C118.843 294.625 117.347 295.496 115.72 296.17C112.453 297.522 108.128 298.294 103.492 298.294C98.8561 298.294 94.5313 297.522 91.2642 296.17C89.6369 295.496 88.1415 294.625 87.0103 293.518C85.87 292.403 84.9467 290.882 84.9467 289.021Z" fill="url(#paint4_linear_1_1105)" stroke="black"/>
<path d="M142.662 259.897C145.834 258.164 151.802 262.972 155.992 270.638C160.183 278.304 161.008 285.923 157.836 287.657C154.664 289.391 148.696 284.582 144.506 276.917C140.315 269.251 139.49 261.631 142.662 259.897Z" fill="url(#paint5_linear_1_1105)" stroke="black"/>
<path d="M143.955 262.303C143.945 262.312 143.922 262.334 143.892 262.377C143.83 262.466 143.734 262.643 143.648 262.949C143.47 263.581 143.391 264.56 143.535 265.889C143.821 268.534 144.932 272.011 146.899 275.609C148.865 279.206 151.192 282.019 153.264 283.688C154.304 284.527 155.171 284.989 155.8 285.18C156.103 285.273 156.304 285.288 156.413 285.283C156.466 285.281 156.496 285.274 156.51 285.271C156.522 285.267 156.527 285.265 156.528 285.264C156.529 285.264 156.533 285.261 156.543 285.252C156.554 285.243 156.576 285.221 156.606 285.178C156.669 285.088 156.764 284.912 156.85 284.606C157.028 283.973 157.107 282.994 156.964 281.665C156.677 279.021 155.566 275.544 153.599 271.946C151.633 268.349 149.306 265.536 147.235 263.867C146.194 263.028 145.327 262.566 144.698 262.374C144.395 262.282 144.194 262.267 144.085 262.272C144.033 262.274 144.002 262.281 143.989 262.284C143.976 262.288 143.971 262.29 143.97 262.291C143.969 262.291 143.965 262.294 143.955 262.303ZM141.354 257.504C142.987 256.612 144.764 256.693 146.29 257.158C147.803 257.62 149.285 258.514 150.657 259.619C153.41 261.837 156.162 265.262 158.386 269.33C160.609 273.398 162.006 277.563 162.387 281.078C162.576 282.829 162.529 284.56 162.1 286.083C161.668 287.619 160.777 289.158 159.144 290.05C157.511 290.943 155.734 290.862 154.209 290.397C152.695 289.935 151.213 289.041 149.841 287.936C147.088 285.717 144.336 282.293 142.113 278.225C139.889 274.157 138.492 269.992 138.112 266.476C137.922 264.725 137.97 262.995 138.398 261.472C138.83 259.936 139.721 258.397 141.354 257.504Z" fill="url(#paint6_linear_1_1105)" stroke="black"/>
<path d="M191.76 177.091L205.265 228.003C212.143 253.934 196.432 280.468 170.389 286.907L169.932 287.019C158.234 289.911 146.407 282.773 143.515 271.076C140.623 259.378 147.762 247.55 159.46 244.658L159.916 244.545C162.283 243.96 163.712 241.548 163.087 239.191L156.061 212.701L154.127 212.183L135.07 236.046C134.674 236.543 134.39 237.12 134.24 237.737L124.381 278.234L124.241 278.78C121.162 290.164 109.546 297.079 98.0211 294.273C86.4961 291.467 79.3578 279.987 81.8565 268.461L81.9825 267.913L91.8424 227.415C93.4955 220.625 96.6119 214.277 100.973 208.816L137.845 162.645L191.76 177.091Z" fill="url(#paint7_radial_1_1105)" stroke="black" stroke-linecap="round"/>
<path d="M217.402 148.904L211.558 191.542C211.174 194.339 210.312 197.05 209.008 199.554C184.63 246.358 113.726 227.8 115.388 175.053C115.489 171.851 116.216 168.699 117.526 165.775L134.993 126.822L217.402 148.904Z" fill="url(#paint8_linear_1_1105)" stroke="black"/>
<path d="M137.815 55.2972C130.809 53.4198 123.607 57.5779 121.73 64.5842L118.622 76.1809C116.745 83.1871 120.903 90.3882 127.91 92.2655C132.572 93.5148 137.489 91.4494 139.86 87.2452L141.19 84.8859C144.042 79.8293 145.568 74.1335 145.627 68.3284L145.655 65.6203C145.703 60.7937 142.478 56.5465 137.815 55.2972Z" fill="url(#paint9_linear_1_1105)" stroke="black"/>
<path d="M215.491 177.861C204.858 168.841 209.608 158.073 212.791 153.625L208.33 153.148C208.33 153.148 202.237 160.207 204.536 169.768C205.936 175.591 209.622 179.882 212.29 182.349C213.537 183.501 215.358 182.598 215.406 180.9L215.491 177.861Z" fill="url(#paint10_linear_1_1105)" stroke="black"/>
<path d="M202.739 34.2941C235.062 42.9551 254.244 76.1793 245.583 108.502C236.922 140.826 203.698 160.008 171.375 151.347C139.051 142.686 119.869 109.461 128.53 77.1383C137.191 44.8152 170.416 25.6332 202.739 34.2941Z" fill="url(#paint11_radial_1_1105)" stroke="black"/>
<path d="M287.653 90.4106C279.633 88.262 271.393 92.9138 269.055 100.831L268.948 101.211L268.422 103.12C262.902 122.649 254.649 136.008 248.201 141.809C242.44 146.992 234.906 149.152 220.077 150.721C211.689 151.608 205.608 159.128 206.495 167.516C207.383 175.904 214.902 181.984 223.289 181.097C238.681 179.469 255.047 176.738 268.63 164.518C280.923 153.459 291.43 134.065 297.845 111.328L298.453 109.116L298.55 108.734C300.484 100.709 295.673 92.5596 287.653 90.4106Z" fill="url(#paint12_radial_1_1105)" stroke="black" stroke-linecap="round"/>
<path d="M193.275 45.311C211.951 50.3155 225.856 63.3465 230.88 78.39C231.857 81.3147 230.509 84.4549 228.5 87.0635C226.251 89.9827 224.391 93.7364 223.249 98.001C222.106 102.265 221.84 106.445 222.328 110.098C222.764 113.361 222.361 116.754 220.053 118.799C208.18 129.315 189.623 133.648 170.946 128.644C143.488 121.286 126.395 96.6329 132.54 73.6957C138.59 51.1168 164.975 38.356 191.988 44.9805L193.275 45.311Z" fill="url(#paint13_radial_1_1105)" stroke="black"/>
<path d="M91.711 81.9549C90.7753 85.4467 83.1761 86.4443 74.7377 84.1833C66.2992 81.9222 60.217 77.2586 61.1526 73.7668C62.0882 70.275 69.6874 69.2773 78.1259 71.5384C86.5643 73.7995 92.6466 78.4631 91.711 81.9549Z" fill="url(#paint14_linear_1_1105)" stroke="black"/>
<path d="M89.0783 81.2295C89.0785 81.2155 89.078 81.1843 89.0677 81.133C89.0463 81.0257 88.9846 80.8344 88.8228 80.5611C88.488 79.9958 87.8344 79.2625 86.7737 78.4492C84.6627 76.8307 81.38 75.2338 77.4198 74.1726C73.4596 73.1115 69.8182 72.8531 67.1807 73.1993C65.8555 73.3733 64.9228 73.6815 64.3502 74.0037C64.0734 74.1594 63.9244 74.2943 63.8521 74.3765C63.8176 74.4158 63.8015 74.4425 63.7947 74.4548C63.7884 74.4665 63.787 74.4714 63.7867 74.4725C63.7864 74.4737 63.7851 74.4786 63.7848 74.4919C63.7845 74.506 63.7851 74.5371 63.7953 74.5885C63.8168 74.6957 63.8785 74.8871 64.0403 75.1603C64.375 75.7257 65.0287 76.4589 66.0894 77.2722C68.2004 78.8908 71.4831 80.4877 75.4433 81.5488C79.4035 82.6099 83.0449 82.8683 85.6823 82.5221C87.0076 82.3482 87.9403 82.04 88.5129 81.7177C88.7896 81.562 88.9387 81.4271 89.0109 81.345C89.0455 81.3056 89.0615 81.2789 89.0683 81.2666C89.0747 81.255 89.0761 81.2501 89.0764 81.2489C89.0767 81.2477 89.078 81.2428 89.0783 81.2295ZM94.3451 82.6606C93.8635 84.458 92.5781 85.6877 91.188 86.4701C89.8089 87.2463 88.1388 87.7012 86.3927 87.9304C82.887 88.3907 78.5097 88.0174 74.0316 86.8175C69.5535 85.6176 65.5759 83.7522 62.7701 81.6007C61.3725 80.5291 60.1536 79.3002 59.3474 77.9385C58.5347 76.5658 58.0364 74.8581 58.518 73.0608C58.9996 71.2635 60.285 70.0337 61.6751 69.2513C63.0542 68.4751 64.7242 68.0203 66.4704 67.791C69.976 67.3308 74.3534 67.704 78.8315 68.9039C83.3096 70.1039 87.2871 71.9693 90.093 74.1207C91.4906 75.1923 92.7094 76.4212 93.5157 77.783C94.3284 79.1556 94.8267 80.8633 94.3451 82.6606Z" fill="url(#paint15_linear_1_1105)" stroke="black"/>
<path d="M193.276 45.3113C211.952 50.3158 225.857 63.3476 230.88 78.3909C231.857 81.3154 230.509 84.4551 228.5 87.0635C226.252 89.9828 224.393 93.7368 223.25 98.0012C222.108 102.265 221.841 106.445 222.328 110.097C222.545 111.716 222.555 113.387 222.218 114.908C212.351 118.153 200.917 118.605 189.442 115.53C161.985 108.173 144.891 83.5183 151.037 60.581C152.417 55.4298 154.854 50.7969 158.11 46.7863C168.169 42.9099 180.088 42.0382 192.108 45.0105L193.276 45.3113Z" fill="url(#paint16_radial_1_1105)" stroke="black"/>
<path d="M83.3225 54.2489C90.0393 56.0486 94.0252 62.9526 92.2255 69.6694L90.7196 75.2895C89.4396 80.0663 84.53 82.9008 79.7531 81.621L72.7275 79.7385C67.9509 78.4584 65.1162 73.5488 66.396 68.772L67.9019 63.1519L67.9899 62.8388C69.9174 56.3119 76.7107 52.4773 83.3225 54.2489Z" fill="url(#paint17_linear_1_1105)" stroke="black"/>
<path d="M244.248 83.8159C251.254 85.6932 255.412 92.8951 253.535 99.9014L250.427 111.498C248.55 118.504 241.348 122.662 234.342 120.784C229.68 119.535 226.454 115.288 226.503 110.461L226.531 107.753C226.589 101.948 228.115 96.2521 230.967 91.1955L232.297 88.8362C234.668 84.632 239.585 82.5666 244.248 83.8159Z" fill="url(#paint18_linear_1_1105)" stroke="black"/>
<path d="M222.953 141.555C224.321 141.327 225.21 141.702 225.632 142.28C226.054 142.859 226.142 143.822 225.513 145.059C222.907 150.181 219.278 154.552 213.854 155.866C204.599 158.107 188.499 159.323 170.528 154.508C152.556 149.693 139.22 140.588 132.326 134.02C128.285 130.17 127.329 124.571 127.633 118.832C127.706 117.446 128.265 116.656 128.92 116.366C129.575 116.077 130.531 116.196 131.601 117.078C138.76 122.979 154.017 134.397 174.449 139.872C194.882 145.347 213.803 143.086 222.953 141.555Z" fill="url(#paint19_linear_1_1105)" stroke="black"/>
<path d="M158.871 163.714L179.18 169.156C183.102 170.207 185.671 173.963 185.229 177.999L184.027 188.971C183.477 193.983 178.589 197.326 173.719 196.021L150.168 189.711C145.298 188.406 142.736 183.067 144.766 178.451L149.21 168.348C150.845 164.631 154.948 162.663 158.871 163.714Z" fill="url(#paint20_radial_1_1105)" stroke="black"/>
<path d="M159.711 169.586C162.354 170.294 163.923 173.011 163.215 175.654C162.506 178.297 159.789 179.865 157.146 179.157C154.503 178.449 152.935 175.732 153.643 173.089C154.351 170.446 157.068 168.878 159.711 169.586Z" fill="url(#paint21_radial_1_1105)" stroke="black"/>
<path d="M169.683 174.517C171.162 174.913 172.041 176.433 171.645 177.913C171.248 179.392 169.727 180.27 168.248 179.874C166.769 179.477 165.891 177.956 166.288 176.477C166.684 174.998 168.204 174.121 169.683 174.517Z" fill="url(#paint22_radial_1_1105)" stroke="black"/>
<path d="M178.113 176.776C179.592 177.172 180.471 178.692 180.074 180.171C179.678 181.65 178.157 182.529 176.678 182.132C175.199 181.736 174.321 180.215 174.718 178.736C175.114 177.257 176.634 176.379 178.113 176.776Z" fill="url(#paint23_radial_1_1105)" stroke="black"/>
<path d="M235.075 127.054C236.652 126.799 237.698 127.237 238.201 127.933C238.705 128.63 238.794 129.766 238.064 131.188C235.037 137.09 230.811 142.126 224.516 143.612C213.737 146.157 194.934 147.495 173.915 141.863C152.896 136.231 137.282 125.671 129.22 118.077C124.511 113.643 123.369 107.169 123.698 100.544C123.778 98.9477 124.423 98.0086 125.207 97.6566C125.99 97.3053 127.116 97.4489 128.354 98.4583C136.681 105.249 154.547 118.509 178.457 124.915C202.366 131.322 224.469 128.771 235.075 127.054Z" fill="url(#paint24_linear_1_1105)" stroke="black"/>
<path d="M198.116 204.715C201.859 204.386 205.464 203.762 208.729 202.754C211.572 201.878 213.391 199.242 213.747 196.289L214.192 192.608C214.487 190.163 212.045 188.209 209.63 188.688C206.837 189.243 203.794 189.547 200.638 189.657C190.057 190.026 176.552 188.263 162.492 184.496C148.432 180.728 135.856 175.503 126.876 169.893C124.198 168.22 121.715 166.435 119.574 164.558C117.722 162.935 114.63 163.408 113.663 165.672L112.208 169.083C111.041 171.818 111.299 175.009 113.322 177.19C115.646 179.695 118.456 182.038 121.533 184.195C130.696 190.618 143.66 196.391 158.258 200.302C172.856 204.214 186.97 205.697 198.116 204.715Z" fill="url(#paint25_linear_1_1105)" stroke="black"/>
<path d="M201.166 211.903C189.909 221.881 168.67 226.706 158.264 226.532C157.491 226.52 156.824 227.083 156.74 227.852C156.392 231.027 158.697 233.904 161.891 233.83C177.84 233.46 195.36 225.573 203.186 220.067C205.706 218.295 205.951 215.028 204.411 212.36C203.747 211.21 202.16 211.022 201.166 211.903Z" fill="url(#paint26_linear_1_1105)" stroke="black" stroke-linecap="round"/>
<path d="M116.349 189.176C121.109 203.446 137.09 218.244 146.189 223.297C146.865 223.672 147.161 224.494 146.849 225.202C145.563 228.126 142.128 229.464 139.399 227.803C125.772 219.509 114.543 203.918 110.518 195.237C109.222 192.442 110.643 189.49 113.311 187.95C114.461 187.286 115.929 187.917 116.349 189.176Z" fill="url(#paint27_linear_1_1105)" stroke="black" stroke-linecap="round"/>
<path d="M269.025 95.8038C268.475 99.3766 275.028 103.351 283.663 104.681C292.297 106.01 299.743 104.192 300.293 100.619C300.843 97.0464 294.29 93.072 285.655 91.7423C277.021 90.4125 269.575 92.2309 269.025 95.8038Z" fill="url(#paint28_linear_1_1105)" stroke="black"/>
<path d="M271.727 96.2003C271.732 96.1873 271.746 96.1591 271.776 96.1162C271.838 96.0266 271.972 95.8764 272.23 95.6914C272.764 95.3088 273.658 94.901 274.956 94.5839C277.541 93.9529 281.188 93.8136 285.241 94.4377C289.293 95.0618 292.73 96.2921 295.004 97.6714C296.147 98.3645 296.877 99.0223 297.271 99.5479C297.461 99.8019 297.544 99.9854 297.577 100.09C297.592 100.14 297.596 100.171 297.597 100.185C297.599 100.198 297.598 100.203 297.598 100.204C297.598 100.205 297.597 100.21 297.592 100.222C297.586 100.235 297.573 100.264 297.543 100.307C297.48 100.396 297.347 100.546 297.089 100.731C296.554 101.114 295.661 101.522 294.362 101.839C291.778 102.47 288.13 102.609 284.078 101.985C280.026 101.361 276.589 100.131 274.315 98.7514C273.172 98.0583 272.442 97.4005 272.048 96.8749C271.857 96.6209 271.775 96.4374 271.742 96.3331C271.726 96.2831 271.722 96.2522 271.721 96.2382C271.72 96.225 271.721 96.22 271.721 96.2188C271.721 96.2176 271.722 96.2126 271.727 96.2003ZM266.33 95.3885C266.047 97.2276 266.728 98.8709 267.685 100.147C268.635 101.413 269.98 102.502 271.486 103.415C274.509 105.249 278.666 106.67 283.248 107.376C287.83 108.082 292.222 107.977 295.657 107.138C297.368 106.72 298.978 106.086 300.265 105.165C301.561 104.236 302.705 102.873 302.989 101.034C303.272 99.1952 302.591 97.5518 301.634 96.2757C300.684 95.0098 299.339 93.9207 297.833 93.0075C294.81 91.1741 290.653 89.7524 286.071 89.0467C281.489 88.341 277.097 88.4461 273.662 89.285C271.951 89.7028 270.34 90.3366 269.054 91.2582C267.757 92.1872 266.613 93.5495 266.33 95.3885Z" fill="url(#paint29_linear_1_1105)" stroke="black"/>
<path d="M287.863 73.824C280.99 72.7656 274.561 77.479 273.502 84.3517L272.617 90.1022C271.864 94.9899 275.216 99.562 280.104 100.315L287.292 101.422C292.18 102.175 296.752 98.8228 297.505 93.9352L298.391 88.1846L298.436 87.8626C299.301 81.1122 294.628 74.866 287.863 73.824Z" fill="url(#paint30_linear_1_1105)" stroke="black"/>
<path d="M210.376 64.251L208.142 62.9388C205.755 61.5375 202.755 63.288 202.801 66.055L202.896 71.8405C202.937 74.2856 203.827 76.6403 205.415 78.5001L209.628 83.4336C212.849 87.2069 218.926 86.2091 220.772 81.6037C221.443 79.9302 221.4 78.0552 220.653 76.4143L219.955 74.8793C217.932 70.4352 214.587 66.7235 210.376 64.251Z" fill="white" fill-opacity="0.5" stroke="black"/>
<defs>
<linearGradient id="paint0_linear_1_1105" x1="102.944" y1="314.112" x2="102.944" y2="285.748" gradientUnits="userSpaceOnUse">
<stop stop-color="#A6F9E1"/>
<stop offset="1" stop-color="#4ED0AA"/>
</linearGradient>
<radialGradient id="paint1_radial_1_1105" cx="0" cy="0" r="1" gradientUnits="userSpaceOnUse" gradientTransform="translate(101.88 98.7971) rotate(119.036) scale(53.9752 74.7348)">
<stop stop-color="#4ED0AA"/>
<stop offset="1" stop-color="#5E35F1"/>
</radialGradient>
<linearGradient id="paint2_linear_1_1105" x1="127.975" y1="285.334" x2="152.863" y2="271.73" gradientUnits="userSpaceOnUse">
<stop stop-color="#A6F9E1"/>
<stop offset="1" stop-color="#4ED0AA"/>
</linearGradient>
<linearGradient id="paint3_linear_1_1105" x1="103.492" y1="295.567" x2="103.492" y2="282.476" gradientUnits="userSpaceOnUse">
<stop stop-color="#3618A3"/>
<stop offset="1" stop-color="#5E35F1"/>
</linearGradient>
<linearGradient id="paint4_linear_1_1105" x1="103.492" y1="295.567" x2="103.492" y2="282.476" gradientUnits="userSpaceOnUse">
<stop stop-color="#A187FF"/>
<stop offset="1" stop-color="#4823CF"/>
</linearGradient>
<linearGradient id="paint5_linear_1_1105" x1="144.506" y1="276.917" x2="155.992" y2="270.638" gradientUnits="userSpaceOnUse">
<stop stop-color="#3618A3"/>
<stop offset="1" stop-color="#5E35F1"/>
</linearGradient>
<linearGradient id="paint6_linear_1_1105" x1="144.506" y1="276.917" x2="155.993" y2="270.638" gradientUnits="userSpaceOnUse">
<stop stop-color="#A187FF"/>
<stop offset="1" stop-color="#4823CF"/>
</linearGradient>
<radialGradient id="paint7_radial_1_1105" cx="0" cy="0" r="1" gradientUnits="userSpaceOnUse" gradientTransform="translate(160.702 212.251) rotate(88.9577) scale(89.1501 107.519)">
<stop offset="0.197115" stop-color="#87EFD0"/>
<stop offset="1" stop-color="#7B56FF"/>
</radialGradient>
<linearGradient id="paint8_linear_1_1105" x1="177.835" y1="106.161" x2="132.709" y2="232.42" gradientUnits="userSpaceOnUse">
<stop offset="0.139111" stop-color="#5E35F1"/>
<stop offset="0.581145" stop-color="#EFEAFF"/>
<stop offset="0.895219" stop-color="#4ED0AA"/>
</linearGradient>
<linearGradient id="paint9_linear_1_1105" x1="119.693" y1="70.2528" x2="146.037" y2="77.3115" gradientUnits="userSpaceOnUse">
<stop stop-color="#7B56FF"/>
<stop offset="1" stop-color="#3618A3"/>
</linearGradient>
<linearGradient id="paint10_linear_1_1105" x1="216.432" y1="154.963" x2="206.651" y2="181.586" gradientUnits="userSpaceOnUse">
<stop stop-color="#4823CF"/>
<stop offset="1" stop-color="#A187FF"/>
</linearGradient>
<radialGradient id="paint11_radial_1_1105" cx="0" cy="0" r="1" gradientUnits="userSpaceOnUse" gradientTransform="translate(231.929 60.233) rotate(123.525) scale(109.875 109.875)">
<stop stop-color="#A187FF"/>
<stop offset="1" stop-color="#A6F9E1"/>
</radialGradient>
<radialGradient id="paint12_radial_1_1105" cx="0" cy="0" r="1" gradientUnits="userSpaceOnUse" gradientTransform="translate(250.822 117.184) rotate(80.7904) scale(75.7824 70.4526)">
<stop stop-color="#4ED0AA"/>
<stop offset="1" stop-color="#5E35F1"/>
</radialGradient>
<radialGradient id="paint13_radial_1_1105" cx="0" cy="0" r="1" gradientUnits="userSpaceOnUse" gradientTransform="translate(209.79 69.1911) rotate(158.848) scale(71.6325 68.5407)">
<stop stop-color="#4823CF"/>
<stop offset="1" stop-color="#261172"/>
</radialGradient>
<linearGradient id="paint14_linear_1_1105" x1="78.1259" y1="71.5384" x2="74.7377" y2="84.1833" gradientUnits="userSpaceOnUse">
<stop stop-color="#3618A3"/>
<stop offset="1" stop-color="#5E35F1"/>
</linearGradient>
<linearGradient id="paint15_linear_1_1105" x1="78.1256" y1="71.5383" x2="74.7374" y2="84.1831" gradientUnits="userSpaceOnUse">
<stop stop-color="#A187FF"/>
<stop offset="1" stop-color="#4823CF"/>
</linearGradient>
<radialGradient id="paint16_radial_1_1105" cx="0" cy="0" r="1" gradientUnits="userSpaceOnUse" gradientTransform="translate(232.724 57.2659) rotate(157.51) scale(69.4321 67.3525)">
<stop stop-color="#7B56FF"/>
<stop offset="1" stop-color="#3618A3"/>
</radialGradient>
<linearGradient id="paint17_linear_1_1105" x1="83.452" y1="53.7659" x2="76.1109" y2="81.1631" gradientUnits="userSpaceOnUse">
<stop stop-color="#A6F9E1"/>
<stop offset="1" stop-color="#4ED0AA"/>
</linearGradient>
<linearGradient id="paint18_linear_1_1105" x1="252.464" y1="105.829" x2="226.121" y2="98.7701" gradientUnits="userSpaceOnUse">
<stop stop-color="#7B56FF"/>
<stop offset="1" stop-color="#3618A3"/>
</linearGradient>
<linearGradient id="paint19_linear_1_1105" x1="178.021" y1="126.54" x2="171.136" y2="152.238" gradientUnits="userSpaceOnUse">
<stop stop-color="#A187FF"/>
<stop offset="1" stop-color="#4823CF"/>
</linearGradient>
<radialGradient id="paint20_radial_1_1105" cx="0" cy="0" r="1" gradientUnits="userSpaceOnUse" gradientTransform="translate(183.907 169.905) rotate(154.086) scale(43.3078 68.2931)">
<stop stop-color="#EFEAFF"/>
<stop offset="1" stop-color="#4ED0AA"/>
</radialGradient>
<radialGradient id="paint21_radial_1_1105" cx="0" cy="0" r="1" gradientUnits="userSpaceOnUse" gradientTransform="translate(158.429 174.372) rotate(105) scale(5.45455 5.45454)">
<stop stop-color="#7B56FF"/>
<stop offset="1" stop-color="#A187FF"/>
</radialGradient>
<radialGradient id="paint22_radial_1_1105" cx="0" cy="0" r="1" gradientUnits="userSpaceOnUse" gradientTransform="translate(168.966 177.195) rotate(105) scale(3.27273 3.27273)">
<stop stop-color="#7B56FF"/>
<stop offset="1" stop-color="#A187FF"/>
</radialGradient>
<radialGradient id="paint23_radial_1_1105" cx="0" cy="0" r="1" gradientUnits="userSpaceOnUse" gradientTransform="translate(177.396 179.454) rotate(105) scale(3.27273 3.27273)">
<stop stop-color="#7B56FF"/>
<stop offset="1" stop-color="#A187FF"/>
</radialGradient>
<linearGradient id="paint24_linear_1_1105" x1="182.539" y1="109.68" x2="174.633" y2="139.185" gradientUnits="userSpaceOnUse">
<stop stop-color="#A187FF"/>
<stop offset="1" stop-color="#4823CF"/>
</linearGradient>
<linearGradient id="paint25_linear_1_1105" x1="158.258" y1="200.302" x2="165.317" y2="173.959" gradientUnits="userSpaceOnUse">
<stop stop-color="#5E35F1"/>
<stop offset="1" stop-color="#A187FF"/>
</linearGradient>
<linearGradient id="paint26_linear_1_1105" x1="203.83" y1="228.324" x2="159.573" y2="216.466" gradientUnits="userSpaceOnUse">
<stop stop-color="#A187FF"/>
<stop offset="1" stop-color="#5E35F1"/>
</linearGradient>
<linearGradient id="paint27_linear_1_1105" x1="105.832" y1="202.066" x2="150.089" y2="213.925" gradientUnits="userSpaceOnUse">
<stop stop-color="#A187FF"/>
<stop offset="1" stop-color="#5E35F1"/>
</linearGradient>
<linearGradient id="paint28_linear_1_1105" x1="285.655" y1="91.7423" x2="283.663" y2="104.681" gradientUnits="userSpaceOnUse">
<stop stop-color="#3618A3"/>
<stop offset="1" stop-color="#5E35F1"/>
</linearGradient>
<linearGradient id="paint29_linear_1_1105" x1="285.656" y1="91.7422" x2="283.663" y2="104.681" gradientUnits="userSpaceOnUse">
<stop stop-color="#A187FF"/>
<stop offset="1" stop-color="#4823CF"/>
</linearGradient>
<linearGradient id="paint30_linear_1_1105" x1="287.939" y1="73.3298" x2="283.622" y2="101.363" gradientUnits="userSpaceOnUse">
<stop stop-color="#A6F9E1"/>
<stop offset="1" stop-color="#4ED0AA"/>
</linearGradient>
</defs>
</svg>
