<svg width="236" height="44" viewBox="0 0 236 44" fill="none" xmlns="http://www.w3.org/2000/svg">
<ellipse cx="18.037" cy="8.04865" rx="8.04918" ry="8.04865" fill="#FF8B4C"/>
<path d="M19.1555 0.0649414C23.1346 0.552254 26.2161 3.94082 26.2161 8.05127C26.216 9.06007 26.0286 10.0247 25.6897 10.9146C25.6245 10.9163 25.559 10.9204 25.4934 10.9204C21.4738 10.9204 18.2151 7.66148 18.2151 3.64209C18.2151 2.34156 18.5578 1.12152 19.1555 0.0649414Z" fill="#FFC815"/>
<path d="M17.8634 27.733C25.5373 27.733 31.7582 22.4011 31.7582 15.8239H3.96851C3.96851 22.4011 10.1894 27.733 17.8634 27.733Z" fill="#7B56FF"/>
<path d="M17.8674 27.733C25.5413 27.733 31.7623 22.4011 31.7623 15.8239H25.1457L17.8674 27.733Z" fill="#4ED0AA"/>
<path d="M17.8648 43.6498C27.7313 43.6498 35.7296 36.5407 35.7296 27.7711H0C0 36.5407 7.99835 43.6498 17.8648 43.6498Z" fill="#7B56FF"/>
<path d="M17.8674 43.6498C27.7339 43.6498 35.7322 36.5407 35.7322 27.7711H28.7848L17.8674 43.6498Z" fill="#4ED0AA"/>
<path d="M232.069 20.2705C230.71 19.4554 229.216 18.8149 227.585 18.3491C225.994 17.8445 224.519 17.5922 223.16 17.5922C221.84 17.5922 220.754 17.8445 219.9 18.3491C219.046 18.8537 218.619 19.6882 218.619 20.8527C218.619 21.8231 219.007 22.5994 219.783 23.1816C220.598 23.725 221.627 24.1908 222.869 24.5789C224.111 24.9671 225.431 25.3746 226.828 25.8016C228.226 26.2285 229.546 26.7914 230.788 27.49C232.069 28.1499 233.097 29.062 233.874 30.2265C234.65 31.3909 235.038 32.9241 235.038 34.826C235.038 36.922 234.475 38.6493 233.35 40.0078C232.263 41.3275 230.807 42.3173 228.983 42.9771C227.197 43.5982 225.256 43.9087 223.16 43.9087C220.909 43.9087 218.657 43.54 216.406 42.8025C214.155 42.065 212.253 40.9976 210.7 39.6003L213.087 35.0589C214.446 36.2622 216.095 37.2132 218.036 37.9118C219.977 38.5717 221.782 38.9016 223.451 38.9016C224.422 38.9016 225.276 38.7851 226.013 38.5523C226.79 38.2806 227.391 37.8924 227.818 37.3878C228.284 36.8832 228.517 36.2234 228.517 35.4083C228.517 34.3214 228.129 33.4675 227.352 32.8465C226.576 32.2254 225.567 31.7208 224.325 31.3327C223.083 30.9057 221.763 30.4982 220.365 30.11C218.968 29.6831 217.648 29.1397 216.406 28.4798C215.203 27.82 214.213 26.9272 213.436 25.8016C212.66 24.676 212.272 23.1816 212.272 21.3185C212.272 19.2225 212.815 17.534 213.902 16.2531C214.989 14.9334 216.387 13.9825 218.095 13.4002C219.841 12.7792 221.705 12.4687 223.684 12.4687C225.625 12.4687 227.566 12.7404 229.507 13.2838C231.448 13.8272 233.117 14.5841 234.514 15.5545L232.069 20.2705Z" fill="#24A57F"/>
<path d="M185.064 30.2657C185.064 32.6723 185.705 34.5742 186.986 35.9715C188.267 37.33 190.033 38.0093 192.284 38.0093C194.963 37.9317 197.039 36.9419 198.514 35.04C200.028 33.138 200.785 30.7898 200.785 27.9951H202.59C202.59 31.7989 202.066 34.8653 201.018 37.1942C199.97 39.5231 198.476 41.2309 196.535 42.3178C194.633 43.3658 192.362 43.9092 189.722 43.948C187.354 43.948 185.316 43.4628 183.609 42.4924C181.939 41.5221 180.639 40.1441 179.707 38.3586C178.815 36.5732 178.368 34.4578 178.368 32.0124V12.7991H185.064V30.2657ZM200.785 12.7991H207.481V43.7151H200.785V12.7991Z" fill="#24A57F"/>
<path d="M154.328 12.502C157.201 12.502 159.627 13.1424 161.606 14.4233C163.625 15.6654 165.158 17.4703 166.206 19.838C167.293 22.1669 167.817 24.9615 167.778 28.222C167.817 31.4824 167.313 34.2965 166.264 36.6642C165.216 39.0319 163.683 40.8562 161.665 42.1371C159.685 43.3792 157.278 44.0002 154.445 44.0002C151.494 44.0002 148.894 43.3403 146.642 42.0206C144.43 40.6621 142.702 38.799 141.46 36.4313C140.218 34.0248 139.597 31.2689 139.597 28.1637C139.597 25.0586 140.218 22.3415 141.46 20.0126C142.702 17.6449 144.43 15.8012 146.642 14.4815C148.855 13.1618 151.417 12.502 154.328 12.502ZM155.842 17.9166C153.979 17.9166 152.329 18.363 150.893 19.2557C149.457 20.1485 148.331 21.3906 147.516 22.982C146.739 24.5346 146.332 26.32 146.293 28.3384C146.332 30.3568 146.739 32.1423 147.516 33.6949C148.331 35.2475 149.457 36.4701 150.893 37.3629C152.329 38.2556 153.979 38.702 155.842 38.702C157.705 38.702 159.355 38.2556 160.791 37.3629C162.227 36.4701 163.334 35.2475 164.11 33.6949C164.925 32.1423 165.333 30.3568 165.333 28.3384C165.333 26.2812 164.925 24.4763 164.11 22.9237C163.334 21.3712 162.227 20.1485 160.791 19.2557C159.355 18.363 157.705 17.9166 155.842 17.9166ZM165.333 0.508179H172.029V43.7091H165.333V0.508179Z" fill="#24A57F"/>
<path d="M128.939 12.8292H135.576V43.7452H128.939V12.8292ZM132.257 0.0784912C133.383 0.0784912 134.315 0.447233 135.052 1.18472C135.79 1.9222 136.159 2.85375 136.159 3.97938C136.159 5.0662 135.79 5.99775 135.052 6.77405C134.315 7.51153 133.383 7.88027 132.257 7.88027C131.171 7.88027 130.239 7.51153 129.463 6.77405C128.725 5.99775 128.356 5.0662 128.356 3.97938C128.356 2.85375 128.725 1.9222 129.463 1.18472C130.239 0.447233 131.171 0.0784912 132.257 0.0784912Z" fill="#24A57F"/>
<path d="M120.794 21.6259C119.707 20.5003 118.426 19.6269 116.951 19.0059C115.476 18.3848 113.807 18.0743 111.943 18.0743C110.158 18.0743 108.566 18.5013 107.169 19.3552C105.771 20.2091 104.684 21.4124 103.908 22.965C103.132 24.4788 102.744 26.2448 102.744 28.2632C102.744 30.2816 103.132 32.0671 103.908 33.6197C104.684 35.1334 105.771 36.3367 107.169 37.2294C108.566 38.0834 110.158 38.5103 111.943 38.5103C113.884 38.5103 115.631 38.1998 117.184 37.5788C118.736 36.9189 120.037 35.968 121.085 34.7259L124.811 38.3939C123.414 40.1406 121.589 41.4991 119.338 42.4694C117.125 43.4398 114.563 43.925 111.652 43.925C108.586 43.925 105.868 43.2651 103.501 41.9454C101.171 40.6257 99.3471 38.8014 98.0273 36.4725C96.7075 34.1048 96.0476 31.3684 96.0476 28.2632C96.0476 25.158 96.7075 22.441 98.0273 20.1121C99.3471 17.7444 101.171 15.9007 103.501 14.581C105.868 13.2225 108.586 12.5432 111.652 12.5432C114.447 12.5432 116.912 12.9702 119.047 13.8241C121.221 14.6392 123.026 15.8037 124.462 17.3174L120.794 21.6259Z" fill="#24A57F"/>
<path d="M69.4494 30.2657C69.4494 32.6723 70.0899 34.5742 71.3709 35.9715C72.6518 37.33 74.418 38.0093 76.6694 38.0093C79.3478 37.9317 81.4246 36.9419 82.8996 35.04C84.4135 33.138 85.1704 30.7898 85.1704 27.9951H86.9755C86.9755 31.7989 86.4514 34.8653 85.4034 37.1942C84.3553 39.5231 82.8608 41.2309 80.9199 42.3178C79.0179 43.3658 76.7471 43.9092 74.1075 43.948C71.7396 43.948 69.7017 43.4628 67.9938 42.4924C66.3246 41.5221 65.0242 40.1441 64.0926 38.3586C63.1998 36.5732 62.7534 34.4578 62.7534 32.0124V12.7991H69.4494V30.2657ZM85.1704 12.7991H91.8664V43.7151H85.1704V12.7991Z" fill="#24A57F"/>
<path d="M49.855 0.508179H56.551V43.7091H49.855V0.508179Z" fill="#24A57F"/>
</svg>
