<svg width="220" height="266" viewBox="0 0 220 266" fill="none" xmlns="http://www.w3.org/2000/svg">
<path d="M159.214 187.962C154.268 182.019 155.075 173.192 161.019 168.246C167.248 163.061 172.322 154.583 171.147 146.841C170.438 142.168 167.094 134.735 154.141 126.18C147.689 121.919 145.912 113.234 150.173 106.783C154.434 100.331 163.119 98.5544 169.571 102.815C186.969 114.306 196.592 127.888 198.83 142.64C202.127 164.365 188.621 181.703 178.93 189.768C172.986 194.713 164.16 193.905 159.214 187.962Z" fill="url(#paint0_radial_161_6242)"/>
<path d="M158.639 168.399C161.27 166.384 167.351 169.902 172.222 176.259C177.093 182.615 178.909 189.402 176.279 191.418C173.649 193.433 167.568 189.914 162.697 183.558C157.826 177.202 156.009 170.415 158.639 168.399Z" fill="url(#paint1_linear_161_6242)"/>
<path d="M160.148 170.397C160.14 170.407 160.123 170.43 160.101 170.473C160.057 170.563 159.995 170.736 159.96 171.025C159.888 171.623 159.953 172.521 160.27 173.705C160.901 176.06 162.395 179.054 164.681 182.037C166.967 185.02 169.47 187.242 171.58 188.463C172.64 189.077 173.491 189.374 174.087 189.459C174.375 189.501 174.559 189.486 174.657 189.467C174.704 189.457 174.731 189.447 174.742 189.442C174.754 189.437 174.757 189.434 174.758 189.433C174.759 189.433 174.763 189.43 174.77 189.42C174.778 189.41 174.795 189.387 174.817 189.344C174.861 189.254 174.923 189.081 174.958 188.792C175.03 188.194 174.965 187.296 174.648 186.112C174.017 183.757 172.523 180.763 170.237 177.78C167.951 174.797 165.449 172.575 163.338 171.354C162.278 170.74 161.427 170.443 160.831 170.358C160.543 170.316 160.359 170.331 160.261 170.35C160.214 170.36 160.187 170.37 160.176 170.375C160.164 170.38 160.161 170.383 160.16 170.384C160.159 170.384 160.155 170.387 160.148 170.397ZM157.119 166.415C158.472 165.378 160.094 165.201 161.541 165.409C162.977 165.615 164.445 166.217 165.842 167.026C168.647 168.649 171.621 171.365 174.206 174.738C176.791 178.111 178.64 181.689 179.478 184.82C179.896 186.379 180.095 187.953 179.921 189.393C179.745 190.845 179.153 192.365 177.799 193.402C176.446 194.44 174.825 194.616 173.377 194.408C171.941 194.202 170.473 193.6 169.076 192.791C166.271 191.168 163.297 188.452 160.712 185.079C158.127 181.706 156.278 178.128 155.44 174.997C155.022 173.438 154.823 171.864 154.997 170.424C155.173 168.972 155.765 167.453 157.119 166.415Z" fill="url(#paint2_linear_161_6242)"/>
<path d="M165.722 195.727C160.462 199.758 152.929 198.762 148.898 193.501C144.867 188.241 145.863 180.709 151.124 176.677L155.357 173.433C159.156 170.522 164.596 171.242 167.508 175.041L171.563 180.332C174.474 184.132 173.755 189.572 169.955 192.483L165.722 195.727Z" fill="url(#paint3_linear_161_6242)"/>
<path d="M164.474 123C152.474 118.6 153.156 107.833 154.49 103L150.5 104C150.5 104 147.489 112 152.49 119.5C155.535 124.067 160.063 126.595 163.139 127.873C164.576 128.471 165.857 127.118 165.361 125.642L164.474 123Z" fill="url(#paint4_linear_161_6242)"/>
<path d="M90.3109 252.477C88.5956 246.075 92.3946 239.495 98.7962 237.78C105.198 236.065 111.778 239.864 113.493 246.265L114.873 251.417C116.112 256.04 113.369 260.792 108.745 262.031L102.306 263.757C97.6824 264.996 92.9301 262.252 91.6913 257.628L90.3109 252.477Z" fill="url(#paint5_linear_161_6242)"/>
<path d="M128.681 224.976C132.691 219.7 140.219 218.673 145.495 222.683C150.772 226.693 151.799 234.221 147.789 239.498L144.562 243.744C141.666 247.555 136.228 248.296 132.418 245.4L127.11 241.367C123.299 238.47 122.557 233.033 125.454 229.222L128.681 224.976Z" fill="url(#paint6_linear_161_6242)"/>
<path d="M77.1791 124.551C88.7335 119.087 87.0828 108.426 85.3192 103.733L89.3826 104.369C89.3826 104.369 93.1024 112.065 88.7987 119.985C86.1778 124.808 81.8959 127.734 78.948 129.284C77.5702 130.009 76.1723 128.777 76.5331 127.263L77.1791 124.551Z" fill="url(#paint7_linear_161_6242)"/>
<path d="M88.0524 253.301C87.1948 250.1 92.7702 245.825 100.505 243.753C108.241 241.68 115.207 242.594 116.064 245.795C116.922 248.996 111.347 253.271 103.611 255.344C95.876 257.416 88.9101 256.502 88.0524 253.301Z" fill="url(#paint8_linear_161_6242)"/>
<path d="M17.1165 76.7502C24.5269 74.5436 32.3235 78.7614 34.5302 86.1717C36.8432 93.9392 42.639 101.941 50.2184 103.909C54.7938 105.097 62.9421 104.95 75.9065 96.4104C82.3635 92.1572 91.0461 93.9433 95.2993 100.4C99.5525 106.857 97.7663 115.54 91.3095 119.793C73.8976 131.262 57.6239 134.761 43.1811 131.01C21.9131 125.488 11.2931 106.247 7.69477 94.163C5.48818 86.7527 9.70638 78.957 17.1165 76.7502Z" fill="url(#paint9_radial_161_6242)"/>
<path d="M90.4743 252.67C90.4805 252.682 90.4952 252.706 90.5269 252.742C90.5931 252.817 90.7298 252.941 90.9834 253.084C91.5083 253.379 92.3633 253.662 93.5781 253.821C95.9958 254.139 99.3337 253.902 102.964 252.929C106.594 251.956 109.603 250.492 111.538 249.009C112.511 248.263 113.11 247.591 113.417 247.073C113.565 246.822 113.622 246.647 113.641 246.549C113.651 246.502 113.651 246.473 113.651 246.46C113.651 246.448 113.649 246.443 113.649 246.442C113.649 246.441 113.648 246.437 113.642 246.426C113.636 246.415 113.621 246.39 113.589 246.354C113.523 246.279 113.386 246.155 113.133 246.013C112.608 245.717 111.753 245.435 110.538 245.275C108.12 244.958 104.782 245.195 101.152 246.167C97.522 247.14 94.5128 248.604 92.5777 250.088C91.6054 250.833 91.0062 251.505 90.6993 252.024C90.551 252.274 90.4945 252.449 90.4748 252.548C90.4654 252.595 90.4649 252.623 90.4652 252.636C90.4654 252.648 90.4666 252.653 90.4669 252.654C90.4672 252.655 90.4684 252.66 90.4743 252.67ZM85.6373 253.948C85.1958 252.301 85.6526 250.735 86.3975 249.477C87.1366 248.229 88.2539 247.102 89.535 246.12C92.107 244.148 95.7531 242.438 99.858 241.338C103.963 240.238 107.976 239.896 111.189 240.318C112.79 240.528 114.321 240.945 115.585 241.656C116.859 242.373 118.037 243.501 118.479 245.148C118.92 246.796 118.463 248.361 117.718 249.619C116.979 250.868 115.862 251.994 114.581 252.977C112.009 254.949 108.363 256.659 104.258 257.759C100.153 258.858 96.1405 259.201 92.9269 258.779C91.3263 258.569 89.7955 258.152 88.5313 257.44C87.257 256.723 86.0787 255.596 85.6373 253.948Z" fill="url(#paint10_linear_161_6242)"/>
<path d="M125.285 225.041C127.081 222.257 133.993 223.52 140.722 227.862C147.45 232.204 151.448 237.981 149.652 240.765C147.855 243.55 140.944 242.287 134.215 237.945C127.486 233.602 123.488 227.825 125.285 225.041Z" fill="url(#paint11_linear_161_6242)"/>
<path d="M127.378 226.413C127.374 226.425 127.366 226.452 127.36 226.5C127.349 226.6 127.349 226.784 127.414 227.068C127.547 227.655 127.912 228.478 128.609 229.486C129.996 231.491 132.413 233.806 135.571 235.844C138.728 237.882 141.833 239.129 144.232 239.568C145.437 239.788 146.338 239.781 146.928 239.661C147.213 239.602 147.381 239.526 147.467 239.475C147.508 239.45 147.53 239.432 147.539 239.423C147.548 239.414 147.551 239.411 147.551 239.41C147.552 239.409 147.554 239.405 147.558 239.393C147.562 239.381 147.571 239.354 147.576 239.306C147.588 239.206 147.587 239.022 147.523 238.738C147.39 238.151 147.025 237.328 146.328 236.32C144.94 234.315 142.524 232 139.366 229.962C136.208 227.924 133.103 226.677 130.705 226.238C129.499 226.018 128.599 226.025 128.009 226.146C127.724 226.204 127.556 226.28 127.469 226.331C127.428 226.356 127.407 226.374 127.397 226.383C127.389 226.392 127.386 226.396 127.385 226.396C127.385 226.397 127.382 226.401 127.378 226.413ZM123.184 223.685C124.109 222.252 125.576 221.54 127.009 221.247C128.43 220.957 130.015 221.029 131.603 221.319C134.791 221.902 138.506 223.457 142.077 225.761C145.648 228.065 148.595 230.81 150.44 233.475C151.358 234.802 152.077 236.217 152.398 237.631C152.722 239.057 152.677 240.687 151.752 242.121C150.828 243.554 149.361 244.266 147.928 244.559C146.507 244.849 144.922 244.777 143.334 244.487C140.145 243.904 136.43 242.349 132.859 240.045C129.289 237.741 126.342 234.996 124.497 232.331C123.578 231.004 122.86 229.589 122.539 228.175C122.215 226.749 122.259 225.119 123.184 223.685Z" fill="url(#paint12_linear_161_6242)"/>
<path d="M165.168 41.6248C166.322 37.1371 170.368 34 175.002 34Lnan nanL175.002 34C181.904 34 187.5 39.5953 187.5 46.4974V57.5026C187.5 64.4047 181.904 70 175.002 70Lnan nanL175.002 70C170.368 70 166.322 66.8629 165.168 62.3752L164.55 59.971C163.205 54.7421 163.205 49.2579 164.55 44.029L165.168 41.6248Z" fill="url(#paint13_linear_161_6242)"/>
<path d="M144.658 129.5L171.765 176.724C181.604 193.866 178.805 215.465 164.922 229.533L158.985 235.549C151.227 243.411 138.564 243.495 130.702 235.736C122.84 227.978 122.756 215.315 130.515 207.453L136.451 201.438C137.713 200.159 137.968 198.195 137.073 196.637L121.497 169.5H119.663L109.501 192.748C109.158 193.534 109.076 194.41 109.268 195.246L117.491 231.021C119.966 241.785 113.245 252.518 102.481 254.993C91.716 257.468 80.9838 250.747 78.5089 239.982L70.2843 204.208C68.1698 195.01 69.0697 185.376 72.8497 176.728L93.4923 129.5H144.658Z" fill="url(#paint14_radial_161_6242)"/>
<path d="M32.5896 80.1679C33.6054 83.3221 28.2494 87.869 20.6268 90.3237C13.0042 92.7784 6.00137 92.2113 4.98564 89.0571C3.9699 85.9029 9.32585 81.356 16.9485 78.9013C24.5711 76.4466 31.5739 77.0137 32.5896 80.1679Z" fill="url(#paint15_linear_161_6242)"/>
<path d="M30.2013 80.9184C30.1945 80.9074 30.1786 80.8838 30.1452 80.8493C30.0753 80.7773 29.9327 80.6607 29.6722 80.5307C29.1333 80.2618 28.2653 80.0221 27.0441 79.9232C24.6137 79.7265 21.2916 80.129 17.7143 81.281C14.137 82.433 11.2043 84.0447 9.34539 85.6227C8.41135 86.4157 7.84631 87.1168 7.56558 87.6496C7.42992 87.9072 7.38217 88.0852 7.36741 88.1843C7.36038 88.2318 7.36127 88.2604 7.36218 88.2732C7.36304 88.2854 7.36444 88.2898 7.36478 88.2909C7.36512 88.2919 7.36658 88.2964 7.37296 88.3067C7.37973 88.3177 7.39565 88.3414 7.42908 88.3758C7.49894 88.4478 7.64158 88.5645 7.90204 88.6944C8.44096 88.9633 9.30894 89.203 10.5302 89.3019C12.9606 89.4986 16.2826 89.0961 19.86 87.9441C23.4373 86.7921 26.37 85.1804 28.2289 83.6024C29.1629 82.8095 29.7279 82.1084 30.0087 81.5755C30.1443 81.3179 30.1921 81.14 30.2068 81.0408C30.2139 80.9933 30.213 80.9648 30.2121 80.9519C30.2112 80.9398 30.2098 80.9353 30.2095 80.9343C30.2091 80.9332 30.2077 80.9288 30.2013 80.9184ZM34.9688 79.4016C35.4916 81.0252 35.1132 82.6113 34.4318 83.9051C33.7557 85.1886 32.6958 86.3692 31.4651 87.414C28.9943 89.5116 25.4378 91.4007 21.3926 92.7034C17.3474 94.006 13.3568 94.5473 10.1263 94.2857C8.5172 94.1554 6.96752 93.8151 5.66953 93.1673C4.36116 92.5144 3.1283 91.4471 2.60547 89.8235C2.08264 88.1999 2.46101 86.6138 3.14249 85.32C3.81856 84.0365 4.87845 82.8559 6.10914 81.8111C8.57995 79.7135 12.1365 77.8244 16.1817 76.5217C20.2268 75.2191 24.2174 74.6778 27.448 74.9394C29.0571 75.0697 30.6067 75.41 31.9047 76.0578C33.2131 76.7108 34.446 77.7781 34.9688 79.4016Z" fill="url(#paint16_linear_161_6242)"/>
<path d="M4.46932 77.6671C2.43785 71.3587 5.90498 64.5979 12.2134 62.5664C18.5218 60.535 25.2825 64.0021 27.314 70.3105L28.9488 75.3871C30.416 79.9431 27.912 84.8259 23.3559 86.2931L17.0102 88.3366C12.4541 89.8038 7.5713 87.2998 6.10413 82.7437L4.46932 77.6671Z" fill="url(#paint17_linear_161_6242)"/>
<path d="M75.832 41.6248C74.6777 37.1371 70.6317 34 65.9979 34Lnan nanL65.9979 34C59.0958 34 53.5005 39.5953 53.5005 46.4974V57.5026C53.5005 64.4047 59.0958 70 65.9979 70Lnan nanL65.9979 70C70.6317 70 74.6777 66.8629 75.832 62.3752L76.4503 59.971C77.7952 54.7421 77.7952 49.2579 76.4503 44.029L75.832 41.6248Z" fill="url(#paint18_linear_161_6242)"/>
<path d="M82.0782 98H161.078L166.071 137.541C166.402 140.161 166.278 142.818 165.706 145.396C155.121 193.098 87.2601 193.491 76.1066 145.919C75.4226 143.001 75.3159 139.978 75.7924 137.02L82.0782 98Z" fill="url(#paint19_linear_161_6242)"/>
<path d="M176.5 56C176.5 86.9279 151.428 112 120.5 112C89.5721 112 64.5 86.9279 64.5 56C64.5 25.0721 89.5721 0 120.5 0C151.428 0 176.5 25.0721 176.5 56Z" fill="url(#paint20_radial_161_6242)"/>
<path d="M120.5 100.194C139.795 100.194 155.941 93.7344 163.657 90.2183C166.16 89.0775 167.963 90.5334 167.393 93.2246C166.291 98.4258 164.073 103.321 159.405 105.867C151.681 110.081 137.638 115 120.5 115C103.363 115 89.3201 110.081 81.5957 105.867C76.9283 103.321 74.7104 98.4258 73.6079 93.2246C73.0374 90.5334 74.8405 89.0775 77.3438 90.2183C85.0599 93.7344 101.206 100.194 120.5 100.194Z" fill="url(#paint21_linear_161_6242)"/>
<path d="M120.5 86C143.095 86 161.99 78.5276 170.952 74.5011C173.816 73.2142 175.876 74.8971 175.215 77.9668C173.924 83.959 171.334 89.5845 165.936 92.4889C156.934 97.3324 140.529 103 120.5 103C100.471 103 84.0661 97.3324 75.0644 92.4889C69.6665 89.5845 67.0759 83.959 65.7853 77.9668C65.1241 74.8971 67.1845 73.2142 70.0487 74.5011C79.0099 78.5276 97.9048 86 120.5 86Z" fill="url(#paint22_linear_161_6242)"/>
<path d="M156.84 152.451C160.076 151.271 163.12 149.864 165.772 148.197C168.081 146.746 169.066 143.981 168.681 141.282L168.201 137.917C167.883 135.682 165.257 134.531 163.232 135.529C160.891 136.683 158.269 137.674 155.5 138.52C146.218 141.357 133.843 143 120.5 143C107.157 143 94.7819 141.357 85.5001 138.52C82.732 137.674 80.1101 136.683 77.7686 135.529C75.7439 134.531 73.118 135.683 72.7996 137.918L72.3203 141.283C71.9358 143.982 72.9214 146.746 75.2296 148.197C77.882 149.863 80.9259 151.271 84.1623 152.451C93.7991 155.964 106.648 158 120.501 158C134.354 158 147.203 155.964 156.84 152.451Z" fill="url(#paint23_linear_161_6242)"/>
<path d="M161.246 158.092C153.646 169.597 135.985 178.908 126.73 181.224C126.043 181.396 125.586 182.053 125.693 182.754C126.139 185.648 128.863 187.648 131.673 186.825C145.707 182.714 159.348 171.573 164.972 164.842C166.783 162.675 166.224 159.724 164.227 157.727C163.367 156.866 161.917 157.076 161.246 158.092Z" fill="url(#paint24_linear_161_6242)"/>
<path d="M80.7538 158.092C88.354 169.597 106.015 178.908 115.27 181.224C115.957 181.396 116.414 182.053 116.307 182.754C115.861 185.648 113.137 187.648 110.327 186.825C96.2935 182.714 82.6519 171.573 77.028 164.842C75.2174 162.675 75.7757 159.724 77.7725 157.727C78.6332 156.866 80.0829 157.076 80.7538 158.092Z" fill="url(#paint25_linear_161_6242)"/>
<defs>
<radialGradient id="paint0_radial_161_6242" cx="0" cy="0" r="1" gradientUnits="userSpaceOnUse" gradientTransform="translate(157.158 154.381) rotate(-26.9986) scale(49.4773 68.507)">
<stop stop-color="#5E35F1"/>
<stop offset="1" stop-color="#4ED0AA"/>
</radialGradient>
<linearGradient id="paint1_linear_161_6242" x1="162.697" y1="183.558" x2="172.222" y2="176.259" gradientUnits="userSpaceOnUse">
<stop stop-color="#3618A3"/>
<stop offset="1" stop-color="#5E35F1"/>
</linearGradient>
<linearGradient id="paint2_linear_161_6242" x1="162.697" y1="183.558" x2="172.221" y2="176.259" gradientUnits="userSpaceOnUse">
<stop stop-color="#A187FF"/>
<stop offset="1" stop-color="#4823CF"/>
</linearGradient>
<linearGradient id="paint3_linear_161_6242" x1="148.898" y1="193.501" x2="169.535" y2="177.687" gradientUnits="userSpaceOnUse">
<stop stop-color="#A6F9E1"/>
<stop offset="1" stop-color="#4ED0AA"/>
</linearGradient>
<linearGradient id="paint4_linear_161_6242" x1="158.045" y1="103" x2="158.045" y2="129" gradientUnits="userSpaceOnUse">
<stop stop-color="#4823CF"/>
<stop offset="1" stop-color="#A187FF"/>
</linearGradient>
<linearGradient id="paint5_linear_161_6242" x1="98.7962" y1="237.78" x2="105.525" y2="262.894" gradientUnits="userSpaceOnUse">
<stop stop-color="#A6F9E1"/>
<stop offset="1" stop-color="#4ED0AA"/>
</linearGradient>
<linearGradient id="paint6_linear_161_6242" x1="145.495" y1="222.683" x2="129.764" y2="243.383" gradientUnits="userSpaceOnUse">
<stop stop-color="#A6F9E1"/>
<stop offset="1" stop-color="#4ED0AA"/>
</linearGradient>
<linearGradient id="paint7_linear_161_6242" x1="81.778" y1="104.053" x2="84.1219" y2="129.947" gradientUnits="userSpaceOnUse">
<stop stop-color="#4823CF"/>
<stop offset="1" stop-color="#A187FF"/>
</linearGradient>
<linearGradient id="paint8_linear_161_6242" x1="103.611" y1="255.344" x2="100.505" y2="243.753" gradientUnits="userSpaceOnUse">
<stop stop-color="#3618A3"/>
<stop offset="1" stop-color="#5E35F1"/>
</linearGradient>
<radialGradient id="paint9_radial_161_6242" cx="0" cy="0" r="1" gradientUnits="userSpaceOnUse" gradientTransform="translate(48.7954 88.0814) rotate(86.1863) scale(49.4773 68.507)">
<stop stop-color="#4ED0AA"/>
<stop offset="1" stop-color="#5E35F1"/>
</radialGradient>
<linearGradient id="paint10_linear_161_6242" x1="103.611" y1="255.344" x2="100.505" y2="243.753" gradientUnits="userSpaceOnUse">
<stop stop-color="#A187FF"/>
<stop offset="1" stop-color="#4823CF"/>
</linearGradient>
<linearGradient id="paint11_linear_161_6242" x1="134.215" y1="237.945" x2="140.722" y2="227.862" gradientUnits="userSpaceOnUse">
<stop stop-color="#3618A3"/>
<stop offset="1" stop-color="#5E35F1"/>
</linearGradient>
<linearGradient id="paint12_linear_161_6242" x1="134.215" y1="237.944" x2="140.722" y2="227.862" gradientUnits="userSpaceOnUse">
<stop stop-color="#A187FF"/>
<stop offset="1" stop-color="#4823CF"/>
</linearGradient>
<linearGradient id="paint13_linear_161_6242" x1="187.5" y1="52" x2="162.5" y2="52" gradientUnits="userSpaceOnUse">
<stop stop-color="#7B56FF"/>
<stop offset="1" stop-color="#3618A3"/>
</linearGradient>
<radialGradient id="paint14_radial_161_6242" cx="0" cy="0" r="1" gradientUnits="userSpaceOnUse" gradientTransform="translate(125.5 168) rotate(73.9577) scale(81.7209 98.5587)">
<stop offset="0.197115" stop-color="#87EFD0"/>
<stop offset="1" stop-color="#7B56FF"/>
</radialGradient>
<linearGradient id="paint15_linear_161_6242" x1="16.9485" y1="78.9013" x2="20.6268" y2="90.3237" gradientUnits="userSpaceOnUse">
<stop stop-color="#3618A3"/>
<stop offset="1" stop-color="#5E35F1"/>
</linearGradient>
<linearGradient id="paint16_linear_161_6242" x1="16.948" y1="78.9014" x2="20.6263" y2="90.3237" gradientUnits="userSpaceOnUse">
<stop stop-color="#A187FF"/>
<stop offset="1" stop-color="#4823CF"/>
</linearGradient>
<linearGradient id="paint17_linear_161_6242" x1="12.2134" y1="62.5664" x2="20.183" y2="87.3149" gradientUnits="userSpaceOnUse">
<stop stop-color="#A6F9E1"/>
<stop offset="1" stop-color="#4ED0AA"/>
</linearGradient>
<linearGradient id="paint18_linear_161_6242" x1="53.5005" y1="52" x2="78.5005" y2="52" gradientUnits="userSpaceOnUse">
<stop stop-color="#7B56FF"/>
<stop offset="1" stop-color="#3618A3"/>
</linearGradient>
<linearGradient id="paint19_linear_161_6242" x1="115.5" y1="70" x2="105.5" y2="192.5" gradientUnits="userSpaceOnUse">
<stop offset="0.139111" stop-color="#5E35F1"/>
<stop offset="0.581145" stop-color="#EFEAFF"/>
<stop offset="0.895219" stop-color="#4ED0AA"/>
</linearGradient>
<radialGradient id="paint20_radial_161_6242" cx="0" cy="0" r="1" gradientUnits="userSpaceOnUse" gradientTransform="translate(152.5 16.5) rotate(108.525) scale(100.719)">
<stop stop-color="#A187FF"/>
<stop offset="1" stop-color="#A6F9E1"/>
</radialGradient>
<linearGradient id="paint21_linear_161_6242" x1="120.5" y1="88" x2="120.5" y2="112.387" gradientUnits="userSpaceOnUse">
<stop stop-color="#A187FF"/>
<stop offset="1" stop-color="#4823CF"/>
</linearGradient>
<linearGradient id="paint22_linear_161_6242" x1="120.5" y1="72" x2="120.5" y2="100" gradientUnits="userSpaceOnUse">
<stop stop-color="#A187FF"/>
<stop offset="1" stop-color="#4823CF"/>
</linearGradient>
<linearGradient id="paint23_linear_161_6242" x1="120.501" y1="158" x2="120.501" y2="133" gradientUnits="userSpaceOnUse">
<stop stop-color="#5E35F1"/>
<stop offset="1" stop-color="#A187FF"/>
</linearGradient>
<linearGradient id="paint24_linear_161_6242" x1="167.501" y1="172" x2="125.501" y2="172" gradientUnits="userSpaceOnUse">
<stop stop-color="#A187FF"/>
<stop offset="1" stop-color="#5E35F1"/>
</linearGradient>
<linearGradient id="paint25_linear_161_6242" x1="74.4994" y1="172" x2="116.499" y2="172" gradientUnits="userSpaceOnUse">
<stop stop-color="#A187FF"/>
<stop offset="1" stop-color="#5E35F1"/>
</linearGradient>
</defs>
</svg>
