<svg xmlns="http://www.w3.org/2000/svg" fill="none" viewBox="0 0 216.64961636828644 160.04999999999998" style="max-height: 500px" width="216.64961636828644" height="160.04999999999998">
<path fill="url(#paint0_linear_156_1186)" d="M114.511 257.197C116.227 263.599 112.428 270.179 106.026 271.894C99.6245 273.609 93.0444 269.81 91.3291 263.409L89.9488 258.257C88.7099 253.634 91.4537 248.881 96.077 247.643L102.517 245.917C107.14 244.678 111.892 247.422 113.131 252.045L114.511 257.197Z"/>
<path fill="url(#paint1_linear_156_1186)" d="M139.671 248.38C136.077 253.949 128.65 255.55 123.081 251.956C117.513 248.363 115.911 240.935 119.505 235.367L122.397 230.886C124.992 226.864 130.356 225.707 134.378 228.303L139.98 231.917C144.001 234.513 145.158 239.877 142.562 243.899L139.671 248.38Z"/>
<ellipse stroke-width="5" stroke="url(#paint3_linear_156_1186)" fill="url(#paint2_linear_156_1186)" transform="rotate(165 100.558 249.548)" ry="6" rx="14.5" cy="249.548" cx="100.558"/>
<ellipse stroke-width="5" stroke="url(#paint5_linear_156_1186)" fill="url(#paint4_linear_156_1186)" transform="rotate(-147.165 135.968 232.903)" ry="6" rx="14.5" cy="232.903" cx="135.968"/>
<path stroke-linecap="round" stroke-width="40" stroke="url(#paint6_radial_156_1186)" d="M143.25 221.501L149.186 215.485C156.759 207.812 158.286 196.03 152.919 186.68L131.577 149.5H105.077L89.6749 184.738C87.6131 189.455 87.1227 194.71 88.276 199.727L96.5 235.501"/>
<path fill="url(#paint7_linear_156_1186)" d="M80.5782 98H159.578L164.571 137.541C164.902 140.161 164.778 142.818 164.206 145.396C153.621 193.098 85.7601 193.491 74.6066 145.919C73.9226 143.001 73.8159 139.978 74.2924 137.02L80.5782 98Z"/>
<path fill="url(#paint8_linear_156_1186)" d="M162.973 123C150.973 118.6 151.656 107.833 152.99 103L149 104C149 104 145.989 112 150.989 119.5C154.034 124.067 158.563 126.595 161.638 127.873C163.076 128.471 164.357 127.118 163.861 125.642L162.973 123Z"/>
<path fill="url(#paint9_linear_156_1186)" d="M75.6793 124.551C87.2338 119.087 85.5831 108.426 83.8194 103.733L87.8829 104.369C87.8829 104.369 91.6026 112.065 87.2989 119.985C84.6781 124.808 80.3961 127.734 77.4482 129.284C76.0704 130.009 74.6725 128.777 75.0333 127.263L75.6793 124.551Z"/>
<circle fill="url(#paint10_radial_156_1186)" r="56" cy="56" cx="119"/>
<path stroke-linecap="round" stroke-width="28" stroke="url(#paint11_radial_156_1186)" d="M18.0101 75C17.7809 85.3539 21.4186 100.836 34 108.822C42.2945 114.087 54.4763 116.095 72 111.227"/>
<path stroke-linecap="round" stroke-width="28" stroke="url(#paint12_radial_156_1186)" d="M192.718 168.745C198.42 160.099 203.576 145.055 197.171 131.599C192.948 122.729 183.701 114.548 166.273 109.348"/>
<path fill="url(#paint13_radial_156_1186)" d="M119.235 12C137.095 12 152.65 20.3022 160.762 32.5728C162.45 35.1275 161.929 38.4189 160.752 41.2461C159.479 44.3039 158.734 48.0081 158.734 52C158.734 55.9917 159.479 59.6957 160.752 62.7533C161.93 65.5802 162.451 68.8713 160.762 71.4259C152.651 83.6971 137.095 92 119.235 92C100.8 92 84.8203 83.1546 76.948 70.2299C75.4924 67.8401 75.9006 64.8654 76.9151 62.2575C78.066 59.2988 78.7337 55.7783 78.7337 52C78.7337 48.2215 78.0662 44.7007 76.9153 41.7419C75.9008 39.1338 75.4925 36.1588 76.9483 33.7688C84.8209 20.8447 100.8 12 119.235 12Z"/>
<path fill="url(#paint14_radial_156_1186)" d="M119.234 12C137.095 12 152.651 20.3017 160.763 32.5723C162.452 35.127 161.93 38.419 160.753 41.2461C159.48 44.3039 158.733 48.008 158.733 52C158.733 55.9917 159.48 59.6954 160.753 62.7529C161.377 64.2507 161.816 65.8792 161.84 67.459C153.762 72.8087 143.574 76 132.5 76C106.266 76 85 58.0914 85 36C85 31.0021 86.0909 26.2194 88.0791 21.8086C96.4185 15.6995 107.313 12.0001 119.234 12Z"/>
<path fill="url(#paint15_linear_156_1186)" d="M163.669 41.6248C164.823 37.1371 168.869 34 173.503 34C180.405 34 186 39.5953 186 46.4974V57.5026C186 64.4047 180.405 70 173.503 70C168.869 70 164.823 66.8629 163.669 62.3752L163.05 59.971C161.705 54.7421 161.705 49.2579 163.05 44.029L163.669 41.6248Z"/>
<path fill="url(#paint16_linear_156_1186)" d="M74.3315 41.6248C73.1772 37.1371 69.1312 34 64.4974 34C57.5953 34 52 39.5953 52 46.4974V57.5026C52 64.4047 57.5953 70 64.4974 70C69.1312 70 73.1772 66.8629 74.3315 62.3752L74.9498 59.971C76.2947 54.7421 76.2947 49.2579 74.9498 44.029L74.3315 41.6248Z"/>
<path fill="url(#paint17_linear_156_1186)" d="M119 100.194C138.294 100.194 154.441 93.7344 162.157 90.2183C164.66 89.0775 166.463 90.5334 165.893 93.2247C164.79 98.4258 162.572 103.321 157.905 105.867C150.18 110.081 136.138 115 119 115C101.862 115 87.8196 110.081 80.0953 105.867C75.4279 103.321 73.2099 98.4258 72.1074 93.2247C71.537 90.5334 73.34 89.0775 75.8434 90.2183C83.5595 93.7344 99.7058 100.194 119 100.194Z"/>
<path fill="url(#paint18_radial_156_1186)" d="M102.956 131.784C103.557 127.881 106.915 125 110.863 125H130.137C134.085 125 137.443 127.881 138.044 131.784L139.582 141.784C140.328 146.63 136.578 151 131.675 151H109.325C104.422 151 100.672 146.63 101.418 141.784L102.956 131.784Z"/>
<path fill="url(#paint19_linear_156_1186)" d="M119 86C141.595 86 160.49 78.5276 169.451 74.5011C172.316 73.2141 174.376 74.897 173.715 77.9667C172.424 83.9589 169.834 89.5844 164.436 92.4888C155.434 97.3324 139.029 103 119 103C98.9712 103 82.5659 97.3324 73.5642 92.4888C68.1664 89.5844 65.5758 83.9589 64.2851 77.9667C63.624 74.897 65.6843 73.2141 68.5486 74.5011C77.5097 78.5276 96.4047 86 119 86Z"/>
<path fill="url(#paint20_linear_156_1186)" d="M155.34 152.451C158.576 151.271 161.62 149.864 164.272 148.197C166.581 146.746 167.566 143.982 167.181 141.282L166.701 137.917C166.383 135.683 163.757 134.531 161.732 135.529C159.391 136.683 156.768 137.674 154 138.52C144.718 141.357 132.343 143 119 143C105.657 143 93.2817 141.357 84 138.52C81.2318 137.674 78.6099 136.683 76.2684 135.529C74.2438 134.532 71.6178 135.683 71.2995 137.918L70.8201 141.283C70.4357 143.982 71.4212 146.746 73.7295 148.197C76.3818 149.863 79.4257 151.271 82.6621 152.451C92.2989 155.965 105.148 158 119.001 158C132.854 158 145.703 155.965 155.34 152.451Z"/>
<path fill="url(#paint21_linear_156_1186)" d="M159.746 158.092C152.145 169.597 134.485 178.908 125.23 181.224C124.542 181.396 124.085 182.053 124.193 182.754C124.638 185.648 127.362 187.648 130.172 186.825C144.206 182.714 157.847 171.573 163.471 164.842C165.282 162.675 164.724 159.724 162.727 157.727C161.866 156.866 160.417 157.076 159.746 158.092Z"/>
<path fill="url(#paint22_linear_156_1186)" d="M79.2544 158.092C86.8546 169.597 104.515 178.908 113.77 181.224C114.458 181.396 114.915 182.053 114.807 182.754C114.362 185.648 111.638 187.648 108.828 186.825C94.7941 182.714 81.1526 171.573 75.5286 164.842C73.718 162.675 74.2763 159.724 76.2731 157.727C77.1338 156.866 78.5835 157.076 79.2544 158.092Z"/>
<ellipse stroke-width="5" stroke="url(#paint24_linear_156_1186)" fill="url(#paint23_linear_156_1186)" ry="6" rx="14.5" cy="69" cx="17.5"/>
<ellipse stroke-width="5" stroke="url(#paint26_linear_156_1186)" fill="url(#paint25_linear_156_1186)" transform="rotate(-144.29 190.572 170.336)" ry="6" rx="14.5" cy="170.336" cx="190.572"/>
<path fill="url(#paint27_linear_156_1186)" d="M6 58C6 51.3726 11.3726 46 18 46C24.6274 46 30 51.3726 30 58V63.3333C30 68.1198 26.1198 72 21.3333 72H14.6667C9.8802 72 6 68.1198 6 63.3333V58Z"/>
<path fill="url(#paint28_linear_156_1186)" d="M193.488 185.98C189.62 191.361 182.122 192.588 176.741 188.72C171.359 184.851 170.133 177.353 174.001 171.972L177.114 167.641C179.908 163.754 185.323 162.869 189.21 165.662L194.623 169.553C198.509 172.347 199.395 177.763 196.601 181.649L193.488 185.98Z"/>
<circle fill="url(#paint29_radial_156_1186)" r="5" cy="135" cx="113"/>
<circle fill="url(#paint30_radial_156_1186)" r="3" cy="135" cx="123"/>
<circle fill="url(#paint31_radial_156_1186)" r="3" cy="135" cx="131"/>
<path fill-opacity="0.5" fill="white" d="M138.87 25.171L136.58 24.5393C134.134 23.8647 131.893 26.1265 132.59 28.5656L134.047 33.6656C134.663 35.821 136.01 37.6946 137.858 38.9646L142.758 42.3335C146.506 44.9102 151.65 42.5849 152.192 38.0692C152.389 36.4283 151.906 34.7783 150.855 33.5026L149.872 32.3092C147.027 28.8541 143.185 26.3613 138.87 25.171Z"/>
<defs>
<linearGradient gradientUnits="userSpaceOnUse" y2="246.78" x2="99.2968" y1="271.894" x1="106.026" id="paint0_linear_156_1186">
<stop stop-color="#A6F9E1"/>
<stop stop-color="#4ED0AA" offset="1"/>
</linearGradient>
<linearGradient gradientUnits="userSpaceOnUse" y2="230.11" x2="137.179" y1="251.956" x1="123.081" id="paint1_linear_156_1186">
<stop stop-color="#A6F9E1"/>
<stop stop-color="#4ED0AA" offset="1"/>
</linearGradient>
<linearGradient gradientUnits="userSpaceOnUse" y2="255.548" x2="100.558" y1="243.548" x1="100.558" id="paint2_linear_156_1186">
<stop stop-color="#3618A3"/>
<stop stop-color="#5E35F1" offset="1"/>
</linearGradient>
<linearGradient gradientUnits="userSpaceOnUse" y2="255.548" x2="100.558" y1="243.548" x1="100.558" id="paint3_linear_156_1186">
<stop stop-color="#A187FF"/>
<stop stop-color="#4823CF" offset="1"/>
</linearGradient>
<linearGradient gradientUnits="userSpaceOnUse" y2="238.903" x2="135.968" y1="226.903" x1="135.968" id="paint4_linear_156_1186">
<stop stop-color="#3618A3"/>
<stop stop-color="#5E35F1" offset="1"/>
</linearGradient>
<linearGradient gradientUnits="userSpaceOnUse" y2="238.903" x2="135.968" y1="226.903" x1="135.968" id="paint5_linear_156_1186">
<stop stop-color="#A187FF"/>
<stop stop-color="#4823CF" offset="1"/>
</linearGradient>
<radialGradient gradientTransform="translate(124 168) rotate(73.9577) scale(81.7209 98.5587)" gradientUnits="userSpaceOnUse" r="1" cy="0" cx="0" id="paint6_radial_156_1186">
<stop stop-color="#87EFD0" offset="0.197115"/>
<stop stop-color="#7B56FF" offset="1"/>
</radialGradient>
<linearGradient gradientUnits="userSpaceOnUse" y2="192.5" x2="104" y1="70" x1="114" id="paint7_linear_156_1186">
<stop stop-color="#5E35F1" offset="0.139111"/>
<stop stop-color="#EFEAFF" offset="0.581145"/>
<stop stop-color="#4ED0AA" offset="0.895219"/>
</linearGradient>
<linearGradient gradientUnits="userSpaceOnUse" y2="129" x2="156.545" y1="103" x1="156.545" id="paint8_linear_156_1186">
<stop stop-color="#4823CF"/>
<stop stop-color="#A187FF" offset="1"/>
</linearGradient>
<linearGradient gradientUnits="userSpaceOnUse" y2="129.947" x2="82.6219" y1="104.053" x1="80.278" id="paint9_linear_156_1186">
<stop stop-color="#4823CF"/>
<stop stop-color="#A187FF" offset="1"/>
</linearGradient>
<radialGradient gradientTransform="translate(151 16.5) rotate(108.525) scale(100.719)" gradientUnits="userSpaceOnUse" r="1" cy="0" cx="0" id="paint10_radial_156_1186">
<stop stop-color="#A187FF"/>
<stop stop-color="#A6F9E1" offset="1"/>
</radialGradient>
<radialGradient gradientTransform="translate(45 81.5) rotate(104.036) scale(49.4773 68.507)" gradientUnits="userSpaceOnUse" r="1" cy="0" cx="0" id="paint11_radial_156_1186">
<stop stop-color="#4ED0AA"/>
<stop stop-color="#5E35F1" offset="1"/>
</radialGradient>
<radialGradient gradientTransform="translate(173.322 148.883) rotate(-43.825) scale(49.4773 68.507)" gradientUnits="userSpaceOnUse" r="1" cy="0" cx="0" id="paint12_radial_156_1186">
<stop stop-color="#5E35F1"/>
<stop stop-color="#4ED0AA" offset="1"/>
</radialGradient>
<radialGradient gradientUnits="userSpaceOnUse" gradientTransform="matrix(-50.5096 38.7368 -46.0087 -42.5263 140.58 29.6842)" r="1" cy="0" cx="0" id="paint13_radial_156_1186">
<stop stop-color="#4823CF"/>
<stop stop-color="#261172" offset="1"/>
</radialGradient>
<radialGradient gradientUnits="userSpaceOnUse" gradientTransform="matrix(-50.5008 38.7368 -46.0007 -42.5263 157.001 13.6842)" r="1" cy="0" cx="0" id="paint14_radial_156_1186">
<stop stop-color="#7B56FF"/>
<stop stop-color="#3618A3" offset="1"/>
</radialGradient>
<linearGradient gradientUnits="userSpaceOnUse" y2="52" x2="161" y1="52" x1="186" id="paint15_linear_156_1186">
<stop stop-color="#7B56FF"/>
<stop stop-color="#3618A3" offset="1"/>
</linearGradient>
<linearGradient gradientUnits="userSpaceOnUse" y2="52" x2="77" y1="52" x1="52" id="paint16_linear_156_1186">
<stop stop-color="#7B56FF"/>
<stop stop-color="#3618A3" offset="1"/>
</linearGradient>
<linearGradient gradientUnits="userSpaceOnUse" y2="112.387" x2="119" y1="88" x1="119" id="paint17_linear_156_1186">
<stop stop-color="#A187FF"/>
<stop stop-color="#4823CF" offset="1"/>
</linearGradient>
<radialGradient gradientTransform="translate(134.5 125) rotate(139.086) scale(39.6989 62.6021)" gradientUnits="userSpaceOnUse" r="1" cy="0" cx="0" id="paint18_radial_156_1186">
<stop stop-color="#EFEAFF"/>
<stop stop-color="#4ED0AA" offset="1"/>
</radialGradient>
<linearGradient gradientUnits="userSpaceOnUse" y2="100" x2="119" y1="72" x1="119" id="paint19_linear_156_1186">
<stop stop-color="#A187FF"/>
<stop stop-color="#4823CF" offset="1"/>
</linearGradient>
<linearGradient gradientUnits="userSpaceOnUse" y2="133" x2="119.001" y1="158" x1="119.001" id="paint20_linear_156_1186">
<stop stop-color="#5E35F1"/>
<stop stop-color="#A187FF" offset="1"/>
</linearGradient>
<linearGradient gradientUnits="userSpaceOnUse" y2="172" x2="124" y1="172" x1="166" id="paint21_linear_156_1186">
<stop stop-color="#A187FF"/>
<stop stop-color="#5E35F1" offset="1"/>
</linearGradient>
<linearGradient gradientUnits="userSpaceOnUse" y2="172" x2="115" y1="172" x1="73" id="paint22_linear_156_1186">
<stop stop-color="#A187FF"/>
<stop stop-color="#5E35F1" offset="1"/>
</linearGradient>
<linearGradient gradientUnits="userSpaceOnUse" y2="75" x2="17.5" y1="63" x1="17.5" id="paint23_linear_156_1186">
<stop stop-color="#3618A3"/>
<stop stop-color="#5E35F1" offset="1"/>
</linearGradient>
<linearGradient gradientUnits="userSpaceOnUse" y2="75" x2="17.5" y1="63" x1="17.5" id="paint24_linear_156_1186">
<stop stop-color="#A187FF"/>
<stop stop-color="#4823CF" offset="1"/>
</linearGradient>
<linearGradient gradientUnits="userSpaceOnUse" y2="176.336" x2="190.572" y1="164.336" x1="190.572" id="paint25_linear_156_1186">
<stop stop-color="#3618A3"/>
<stop stop-color="#5E35F1" offset="1"/>
</linearGradient>
<linearGradient gradientUnits="userSpaceOnUse" y2="176.336" x2="190.572" y1="164.336" x1="190.572" id="paint26_linear_156_1186">
<stop stop-color="#A187FF"/>
<stop stop-color="#4823CF" offset="1"/>
</linearGradient>
<linearGradient gradientUnits="userSpaceOnUse" y2="72" x2="18" y1="46" x1="18" id="paint27_linear_156_1186">
<stop stop-color="#A6F9E1"/>
<stop stop-color="#4ED0AA" offset="1"/>
</linearGradient>
<linearGradient gradientUnits="userSpaceOnUse" y2="167.608" x2="191.916" y1="188.72" x1="176.741" id="paint28_linear_156_1186">
<stop stop-color="#A6F9E1"/>
<stop stop-color="#4ED0AA" offset="1"/>
</linearGradient>
<radialGradient gradientTransform="translate(113 135) rotate(90) scale(5)" gradientUnits="userSpaceOnUse" r="1" cy="0" cx="0" id="paint29_radial_156_1186">
<stop stop-color="#7B56FF"/>
<stop stop-color="#A187FF" offset="1"/>
</radialGradient>
<radialGradient gradientTransform="translate(123 135) rotate(90) scale(3)" gradientUnits="userSpaceOnUse" r="1" cy="0" cx="0" id="paint30_radial_156_1186">
<stop stop-color="#7B56FF"/>
<stop stop-color="#A187FF" offset="1"/>
</radialGradient>
<radialGradient gradientTransform="translate(131 135) rotate(90) scale(3)" gradientUnits="userSpaceOnUse" r="1" cy="0" cx="0" id="paint31_radial_156_1186">
<stop stop-color="#7B56FF"/>
<stop stop-color="#A187FF" offset="1"/>
</radialGradient>
</defs>
</svg>