<svg width="233" height="275" viewBox="0 0 233 275" fill="none" xmlns="http://www.w3.org/2000/svg">
<path d="M114.011 257.197C115.727 263.599 111.928 270.179 105.526 271.894C99.1245 273.609 92.5444 269.81 90.8291 263.409L89.4488 258.257C88.2099 253.634 90.9537 248.881 95.577 247.643L102.017 245.917C106.64 244.678 111.392 247.422 112.631 252.045L114.011 257.197Z" fill="url(#paint0_linear_156_1227)"/>
<path d="M139.171 248.38C135.577 253.949 128.15 255.55 122.581 251.956C117.013 248.363 115.411 240.935 119.005 235.367L121.897 230.886C124.492 226.864 129.856 225.707 133.878 228.303L139.48 231.917C143.501 234.513 144.658 239.877 142.062 243.899L139.171 248.38Z" fill="url(#paint1_linear_156_1227)"/>
<path d="M86.0524 253.301C85.1948 250.1 90.7702 245.825 98.5054 243.753C106.241 241.68 113.207 242.594 114.064 245.795C114.922 248.996 109.347 253.271 101.611 255.344C93.876 257.416 86.9101 256.502 86.0524 253.301Z" fill="url(#paint2_linear_156_1227)"/>
<path d="M88.4743 252.67C88.4805 252.682 88.4952 252.706 88.5269 252.742C88.5931 252.817 88.7298 252.941 88.9834 253.084C89.5083 253.379 90.3633 253.662 91.5781 253.821C93.9958 254.139 97.3337 253.902 100.964 252.929C104.594 251.956 107.603 250.492 109.538 249.009C110.511 248.263 111.11 247.591 111.417 247.073C111.565 246.822 111.622 246.647 111.641 246.549C111.651 246.502 111.651 246.473 111.651 246.46C111.651 246.448 111.649 246.443 111.649 246.442C111.649 246.441 111.648 246.437 111.642 246.426C111.636 246.415 111.621 246.39 111.589 246.354C111.523 246.279 111.386 246.155 111.133 246.013C110.608 245.717 109.753 245.435 108.538 245.275C106.12 244.958 102.782 245.195 99.1521 246.167C95.522 247.14 92.5128 248.604 90.5777 250.088C89.6054 250.833 89.0062 251.505 88.6993 252.024C88.551 252.274 88.4945 252.449 88.4748 252.548C88.4654 252.595 88.4649 252.623 88.4652 252.636C88.4654 252.648 88.4666 252.653 88.4669 252.654C88.4672 252.655 88.4684 252.66 88.4743 252.67ZM83.6373 253.948C83.1958 252.301 83.6526 250.735 84.3975 249.477C85.1366 248.229 86.2539 247.102 87.535 246.12C90.107 244.148 93.7531 242.438 97.858 241.338C101.963 240.238 105.976 239.896 109.189 240.318C110.79 240.528 112.321 240.945 113.585 241.656C114.859 242.373 116.037 243.501 116.479 245.148C116.92 246.796 116.463 248.361 115.718 249.619C114.979 250.868 113.862 251.994 112.581 252.977C110.009 254.949 106.363 256.659 102.258 257.759C98.153 258.858 94.1405 259.201 90.9269 258.779C89.3263 258.569 87.7955 258.152 86.5313 257.44C85.257 256.723 84.0787 255.596 83.6373 253.948Z" fill="url(#paint3_linear_156_1227)"/>
<path d="M123.285 225.041C125.081 222.257 131.993 223.52 138.722 227.862C145.45 232.204 149.448 237.981 147.652 240.765C145.855 243.55 138.944 242.287 132.215 237.945C125.486 233.602 121.488 227.825 123.285 225.041Z" fill="url(#paint4_linear_156_1227)"/>
<path d="M125.378 226.413C125.374 226.425 125.366 226.452 125.36 226.5C125.349 226.6 125.349 226.784 125.414 227.068C125.547 227.655 125.912 228.479 126.609 229.486C127.996 231.491 130.413 233.806 133.571 235.844C136.728 237.882 139.833 239.13 142.232 239.568C143.437 239.788 144.338 239.781 144.928 239.661C145.213 239.602 145.381 239.527 145.467 239.475C145.508 239.451 145.53 239.432 145.539 239.423C145.548 239.415 145.551 239.411 145.551 239.41C145.552 239.409 145.554 239.405 145.558 239.393C145.562 239.381 145.571 239.354 145.576 239.306C145.588 239.206 145.587 239.022 145.523 238.738C145.39 238.151 145.025 237.328 144.328 236.32C142.94 234.315 140.524 232 137.366 229.962C134.208 227.925 131.103 226.677 128.705 226.238C127.499 226.018 126.599 226.025 126.009 226.146C125.724 226.204 125.556 226.28 125.469 226.331C125.428 226.356 125.407 226.375 125.397 226.383C125.389 226.392 125.386 226.396 125.385 226.397C125.385 226.397 125.382 226.401 125.378 226.413ZM121.184 223.685C122.109 222.252 123.576 221.54 125.009 221.248C126.43 220.957 128.015 221.029 129.603 221.32C132.791 221.902 136.506 223.457 140.077 225.761C143.648 228.065 146.595 230.81 148.44 233.475C149.358 234.802 150.077 236.217 150.398 237.632C150.722 239.058 150.677 240.688 149.752 242.121C148.828 243.554 147.361 244.266 145.928 244.559C144.507 244.849 142.922 244.777 141.334 244.487C138.145 243.904 134.43 242.349 130.859 240.045C127.289 237.741 124.342 234.996 122.497 232.331C121.578 231.004 120.86 229.589 120.539 228.175C120.215 226.749 120.259 225.119 121.184 223.685Z" fill="url(#paint5_linear_156_1227)"/>
<path d="M142.658 129.5L169.765 176.724C179.604 193.866 176.805 215.465 162.922 229.533L156.985 235.549C149.227 243.411 136.564 243.495 128.702 235.736C120.84 227.978 120.756 215.315 128.515 207.453L134.451 201.438C135.713 200.159 135.968 198.195 135.073 196.637L119.497 169.5H117.663L107.501 192.748C107.158 193.534 107.076 194.41 107.268 195.246L115.491 231.021C117.966 241.785 111.245 252.518 100.481 254.993C89.716 257.468 78.9838 250.747 76.5089 239.982L68.2843 204.208C66.1698 195.01 67.0697 185.376 70.8497 176.728L91.4923 129.5H142.658Z" fill="url(#paint6_radial_156_1227)"/>
<path d="M80.0782 98H159.078L164.071 137.541C164.402 140.161 164.278 142.818 163.706 145.396C153.121 193.098 85.2601 193.491 74.1066 145.919C73.4226 143.001 73.3159 139.978 73.7924 137.02L80.0782 98Z" fill="url(#paint7_linear_156_1227)"/>
<path d="M162.474 123C150.474 118.6 151.156 107.833 152.49 103L148.5 104C148.5 104 145.489 112 150.49 119.5C153.535 124.067 158.063 126.595 161.139 127.873C162.576 128.471 163.857 127.118 163.361 125.642L162.474 123Z" fill="url(#paint8_linear_156_1227)"/>
<path d="M75.1791 124.551C86.7335 119.087 85.0828 108.426 83.3192 103.733L87.3826 104.369C87.3826 104.369 91.1024 112.065 86.7987 119.985C84.1778 124.808 79.8959 127.734 76.948 129.284C75.5702 130.009 74.1723 128.777 74.5331 127.263L75.1791 124.551Z" fill="url(#paint9_linear_156_1227)"/>
<path d="M174.5 56C174.5 86.9279 149.428 112 118.5 112C87.5721 112 62.5 86.9279 62.5 56C62.5 25.0721 87.5721 0 118.5 0C149.428 0 174.5 25.0721 174.5 56Z" fill="url(#paint10_radial_156_1227)"/>
<path d="M17.8194 61.0039C25.5494 61.1749 31.6778 67.5795 31.5069 75.3095C31.3275 83.4122 34.3917 92.8052 41.0029 97.0019C44.9939 99.5352 52.7951 101.893 67.753 97.7382C75.2029 95.669 82.92 100.031 84.9893 107.48C87.0585 114.93 82.6969 122.647 75.2471 124.717C55.1578 130.297 38.5951 128.638 25.9971 120.642C7.44572 108.866 3.23477 87.2956 3.51369 74.6904C3.68476 66.9604 10.0895 60.833 17.8194 61.0039Z" fill="url(#paint11_radial_156_1227)"/>
<path d="M184.51 180.431C178.056 176.174 176.274 167.491 180.531 161.037C184.993 154.271 187.395 144.687 184.029 137.617C181.998 133.348 176.646 127.202 161.77 122.763C154.361 120.552 150.147 112.753 152.358 105.344C154.569 97.9354 162.367 93.7211 169.776 95.9319C189.755 101.894 202.898 112.109 209.311 125.582C218.755 145.422 210.847 165.927 203.905 176.452C199.648 182.907 190.965 184.688 184.51 180.431Z" fill="url(#paint12_radial_156_1227)"/>
<path d="M118.734 12C136.594 12 152.15 20.3021 160.262 32.5727C161.95 35.1275 161.429 38.4189 160.252 41.246C158.978 44.3038 158.233 48.008 158.233 52C158.233 55.9919 158.979 59.6958 160.252 62.7533C161.429 65.5802 161.951 68.8714 160.262 71.426C152.151 83.6973 136.595 92 118.734 92C100.299 91.9998 84.3193 83.1546 76.447 70.23C74.9914 67.8401 75.3997 64.8654 76.4142 62.2575C77.5651 59.2988 78.2327 55.7783 78.2327 52C78.2327 48.2215 77.5652 44.7007 76.4143 41.7419C75.3999 39.1338 74.9915 36.1588 76.4473 33.7688C84.3199 20.8447 100.299 12.0001 118.734 12Z" fill="url(#paint13_radial_156_1227)"/>
<path d="M118.735 12C136.595 12.0002 152.15 20.3028 160.262 32.5732C161.95 35.1279 161.43 38.419 160.253 41.2461C158.98 44.3039 158.234 48.0081 158.234 52C158.234 55.9917 158.98 59.6954 160.253 62.7529C160.877 64.2507 161.316 65.8792 161.34 67.459C153.262 72.8087 143.074 76 132 76C105.766 76 84.5 58.0914 84.5 36C84.5 31.0021 85.5909 26.2194 87.5791 21.8086C95.9185 15.6992 106.814 12 118.735 12Z" fill="url(#paint14_radial_156_1227)"/>
<path d="M163.168 41.6248C164.322 37.1371 168.368 34 173.002 34C178.904 34 185.5 39.5953 185.5 46.4974V57.5026C185.5 64.4047 178.904 70 173.002 70C168.368 70 164.322 66.8629 163.168 62.3752L162.55 59.971C161.205 54.7421 161.205 49.2579 162.55 44.029L163.168 41.6248Z" fill="url(#paint15_linear_156_1227)"/>
<path d="M73.832 41.6248C72.6777 37.1371 68.6317 34 63.9979 34C58.0958 34 51.5005 39.5953 51.5005 46.4974V57.5026C51.5005 64.4047 58.0958 70 63.9979 70C68.6317 70 72.6777 66.8629 73.832 62.3752L74.4503 59.971C75.7952 54.7421 75.7952 49.2579 74.4503 44.029L73.832 41.6248Z" fill="url(#paint16_linear_156_1227)"/>
<path d="M118.5 100.194C137.795 100.194 153.941 93.7344 161.657 90.2183C164.16 89.0775 165.963 90.5334 165.393 93.2246C164.291 98.4258 162.073 103.321 157.405 105.867C149.681 110.081 135.638 115 118.5 115C101.363 115 87.3201 110.081 79.5957 105.867C74.9283 103.321 72.7104 98.4258 71.6079 93.2246C71.0374 90.5334 72.8405 89.0775 75.3438 90.2183C83.0599 93.7344 99.2063 100.194 118.5 100.194Z" fill="url(#paint17_linear_156_1227)"/>
<path d="M102.456 131.784C103.057 127.881 106.415 125 110.363 125H129.637C133.585 125 136.943 127.881 137.544 131.784L139.082 141.784C139.828 146.63 136.078 151 131.175 151H108.825C103.922 151 100.172 146.63 100.918 141.784L102.456 131.784Z" fill="url(#paint18_radial_156_1227)"/>
<path d="M118.5 86C141.095 86 159.99 78.5276 168.952 74.5011C171.816 73.2142 173.876 74.8971 173.215 77.9668C171.924 83.959 169.334 89.5845 163.936 92.4889C154.934 97.3324 138.529 103 118.5 103C98.4714 103 82.0661 97.3324 73.0644 92.4889C67.6665 89.5845 65.0759 83.959 63.7853 77.9668C63.1241 74.8971 65.1845 73.2142 68.0487 74.5011C77.0099 78.5276 95.9048 86 118.5 86Z" fill="url(#paint19_linear_156_1227)"/>
<path d="M154.84 152.451C158.076 151.271 161.12 149.864 163.772 148.197C166.081 146.746 167.066 143.982 166.681 141.282L166.201 137.917C165.883 135.683 163.257 134.531 161.232 135.529C158.891 136.683 156.269 137.674 153.5 138.52C144.218 141.357 131.843 143 118.5 143C105.157 143 92.7819 141.357 83.5001 138.52C80.732 137.674 78.1101 136.683 75.7686 135.529C73.7439 134.532 71.118 135.683 70.7996 137.918L70.3203 141.283C69.9358 143.982 70.9214 146.746 73.2296 148.197C75.882 149.864 78.9259 151.271 82.1623 152.451C91.7991 155.965 104.648 158 118.501 158C132.354 158 145.203 155.965 154.84 152.451Z" fill="url(#paint20_linear_156_1227)"/>
<path d="M159.245 158.092C151.645 169.597 133.984 178.908 124.729 181.224C124.042 181.396 123.585 182.053 123.692 182.754C124.138 185.648 126.862 187.648 129.672 186.825C143.706 182.714 157.347 171.573 162.971 164.842C164.782 162.675 164.223 159.724 162.227 157.727C161.366 156.866 159.916 157.076 159.245 158.092Z" fill="url(#paint21_linear_156_1227)"/>
<path d="M78.7547 158.092C86.355 169.597 104.016 178.908 113.271 181.224C113.958 181.396 114.415 182.053 114.308 182.754C113.862 185.648 111.138 187.648 108.328 186.825C94.2944 182.714 80.6529 171.573 75.0289 164.842C73.2184 162.675 73.7767 159.724 75.7735 157.727C76.6342 156.866 78.0839 157.076 78.7547 158.092Z" fill="url(#paint22_linear_156_1227)"/>
<path d="M31.5 69C31.5 72.3137 25.0081 75 17 75C8.99187 75 2.5 72.3137 2.5 69C2.5 65.6863 8.99187 63 17 63C25.0081 63 31.5 65.6863 31.5 69Z" fill="url(#paint23_linear_156_1227)"/>
<path d="M28.9971 68.9824C28.994 68.9699 28.9861 68.9425 28.9648 68.8994C28.9204 68.8095 28.8204 68.6547 28.6123 68.4512C28.1818 68.03 27.429 67.5359 26.2969 67.0674C24.0438 66.1351 20.7582 65.5 17 65.5C13.2418 65.5 9.95624 66.1351 7.70312 67.0674C6.57099 67.5359 5.81825 68.03 5.3877 68.4512C5.17961 68.6547 5.07961 68.8095 5.03516 68.8994C5.01391 68.9425 5.00601 68.9699 5.00293 68.9824C5.00003 68.9942 5 68.9989 5 69C5 69.0011 5.00003 69.0058 5.00293 69.0176C5.00601 69.0301 5.01391 69.0575 5.03516 69.1006C5.07961 69.1905 5.17961 69.3453 5.3877 69.5488C5.81825 69.97 6.57099 70.4641 7.70312 70.9326C9.95624 71.8649 13.2418 72.5 17 72.5C20.7582 72.5 24.0438 71.8649 26.2969 70.9326C27.429 70.4641 28.1818 69.97 28.6123 69.5488C28.8204 69.3453 28.9204 69.1905 28.9648 69.1006C28.9861 69.0575 28.994 69.0301 28.9971 69.0176C29 69.0058 29 69.0011 29 69C29 68.9989 29 68.9942 28.9971 68.9824ZM34 69C34 70.7057 33.1536 72.0995 32.1084 73.1221C31.0715 74.1365 29.7007 74.9355 28.209 75.5527C25.2141 76.792 21.2497 77.5 17 77.5C12.7503 77.5 8.78586 76.792 5.79102 75.5527C4.29932 74.9355 2.92855 74.1365 1.8916 73.1221C0.846362 72.0995 0 70.7057 0 69C0 67.2943 0.846362 65.9005 1.8916 64.8779C2.92855 63.8635 4.29932 63.0645 5.79102 62.4473C8.78586 61.208 12.7503 60.5 17 60.5C21.2497 60.5 25.2141 61.208 28.209 62.4473C29.7007 63.0645 31.0715 63.8635 32.1084 64.8779C33.1536 65.9005 34 67.2943 34 69Z" fill="url(#paint24_linear_156_1227)"/>
<path d="M178.298 161.872C180.232 159.182 187.072 160.79 193.574 165.464C200.077 170.138 203.78 176.108 201.846 178.799C199.912 181.49 193.072 179.882 186.57 175.208C180.067 170.533 176.364 164.563 178.298 161.872Z" fill="url(#paint25_linear_156_1227)"/>
<path d="M180.32 163.348C180.315 163.359 180.305 163.386 180.298 163.434C180.281 163.533 180.272 163.717 180.322 164.003C180.426 164.597 180.749 165.437 181.395 166.479C182.68 168.551 184.977 170.984 188.029 173.178C191.08 175.371 194.119 176.773 196.492 177.331C197.685 177.612 198.585 177.65 199.18 177.559C199.468 177.515 199.64 177.448 199.728 177.401C199.771 177.378 199.793 177.361 199.803 177.352C199.812 177.344 199.815 177.341 199.815 177.34C199.816 177.339 199.819 177.335 199.823 177.324C199.828 177.312 199.838 177.285 199.846 177.238C199.862 177.139 199.871 176.955 199.821 176.668C199.717 176.075 199.394 175.234 198.749 174.193C197.463 172.121 195.166 169.687 192.114 167.494C189.063 165.3 186.024 163.898 183.651 163.34C182.458 163.06 181.558 163.022 180.963 163.112C180.675 163.156 180.504 163.223 180.415 163.27C180.373 163.293 180.35 163.311 180.34 163.319C180.331 163.327 180.328 163.331 180.328 163.332C180.327 163.332 180.324 163.336 180.32 163.348ZM176.268 160.413C177.263 159.028 178.764 158.39 180.21 158.17C181.644 157.952 183.223 158.103 184.795 158.472C187.95 159.214 191.582 160.953 195.033 163.434C198.484 165.914 201.289 168.803 202.998 171.557C203.849 172.929 204.495 174.378 204.745 175.807C204.997 177.247 204.871 178.873 203.875 180.258C202.88 181.643 201.379 182.281 199.933 182.501C198.499 182.72 196.92 182.568 195.348 182.199C192.193 181.457 188.561 179.718 185.11 177.238C181.66 174.757 178.854 171.868 177.145 169.114C176.294 167.742 175.648 166.293 175.398 164.864C175.146 163.424 175.272 161.798 176.268 160.413Z" fill="url(#paint26_linear_156_1227)"/>
<path d="M5.5 58C5.5 51.3726 10.8726 46 17.5 46C24.1274 46 29.5 51.3726 29.5 58V63.3333C29.5 68.1198 25.6198 72 20.8333 72H14.1667C9.3802 72 5.5 68.1198 5.5 63.3333V58Z" fill="url(#paint27_linear_156_1227)"/>
<path d="M192.988 185.98C189.12 191.361 181.622 192.588 176.241 188.72C170.859 184.851 169.633 177.353 173.501 171.972L176.614 167.641C179.408 163.754 184.823 162.869 188.71 165.662L194.123 169.553C198.009 172.347 198.895 177.763 196.101 181.649L192.988 185.98Z" fill="url(#paint28_linear_156_1227)"/>
<path d="M117.5 135C117.5 137.761 115.261 140 112.5 140C109.739 140 107.5 137.761 107.5 135C107.5 132.239 109.739 130 112.5 130C115.261 130 117.5 132.239 117.5 135Z" fill="url(#paint29_radial_156_1227)"/>
<path d="M125.5 135C125.5 136.657 124.157 138 122.5 138C120.843 138 119.5 136.657 119.5 135C119.5 133.343 120.843 132 122.5 132C124.157 132 125.5 133.343 125.5 135Z" fill="url(#paint30_radial_156_1227)"/>
<path d="M133.5 135C133.5 136.657 132.157 138 130.5 138C128.843 138 127.5 136.657 127.5 135C127.5 133.343 128.843 132 130.5 132C132.157 132 133.5 133.343 133.5 135Z" fill="url(#paint31_radial_156_1227)"/>
<path d="M138.37 25.171L136.08 24.5393C133.634 23.8647 131.393 26.1264 132.09 28.5656L133.547 33.6656C134.163 35.821 135.51 37.6946 137.357 38.9646L142.258 42.3335C146.005 44.9101 151.15 42.5848 151.691 38.0691C151.888 36.4283 151.405 34.7783 150.355 33.5025L149.372 32.3092C146.527 28.8541 142.684 26.3612 138.37 25.171Z" fill="white" fill-opacity="0.5"/>
<defs>
<linearGradient id="paint0_linear_156_1227" x1="105.526" y1="271.894" x2="98.7968" y2="246.78" gradientUnits="userSpaceOnUse">
<stop stop-color="#A6F9E1"/>
<stop offset="1" stop-color="#4ED0AA"/>
</linearGradient>
<linearGradient id="paint1_linear_156_1227" x1="122.581" y1="251.956" x2="136.679" y2="230.11" gradientUnits="userSpaceOnUse">
<stop stop-color="#A6F9E1"/>
<stop offset="1" stop-color="#4ED0AA"/>
</linearGradient>
<linearGradient id="paint2_linear_156_1227" x1="101.611" y1="255.344" x2="98.5054" y2="243.753" gradientUnits="userSpaceOnUse">
<stop stop-color="#3618A3"/>
<stop offset="1" stop-color="#5E35F1"/>
</linearGradient>
<linearGradient id="paint3_linear_156_1227" x1="101.611" y1="255.344" x2="98.5051" y2="243.753" gradientUnits="userSpaceOnUse">
<stop stop-color="#A187FF"/>
<stop offset="1" stop-color="#4823CF"/>
</linearGradient>
<linearGradient id="paint4_linear_156_1227" x1="132.215" y1="237.945" x2="138.722" y2="227.862" gradientUnits="userSpaceOnUse">
<stop stop-color="#3618A3"/>
<stop offset="1" stop-color="#5E35F1"/>
</linearGradient>
<linearGradient id="paint5_linear_156_1227" x1="132.215" y1="237.945" x2="138.722" y2="227.862" gradientUnits="userSpaceOnUse">
<stop stop-color="#A187FF"/>
<stop offset="1" stop-color="#4823CF"/>
</linearGradient>
<radialGradient id="paint6_radial_156_1227" cx="0" cy="0" r="1" gradientUnits="userSpaceOnUse" gradientTransform="translate(123.5 168) rotate(73.9577) scale(81.7209 98.5587)">
<stop offset="0.197115" stop-color="#87EFD0"/>
<stop offset="1" stop-color="#7B56FF"/>
</radialGradient>
<linearGradient id="paint7_linear_156_1227" x1="113.5" y1="70" x2="103.5" y2="192.5" gradientUnits="userSpaceOnUse">
<stop offset="0.139111" stop-color="#5E35F1"/>
<stop offset="0.581145" stop-color="#EFEAFF"/>
<stop offset="0.895219" stop-color="#4ED0AA"/>
</linearGradient>
<linearGradient id="paint8_linear_156_1227" x1="156.045" y1="103" x2="156.045" y2="129" gradientUnits="userSpaceOnUse">
<stop stop-color="#4823CF"/>
<stop offset="1" stop-color="#A187FF"/>
</linearGradient>
<linearGradient id="paint9_linear_156_1227" x1="79.778" y1="104.053" x2="82.1219" y2="129.947" gradientUnits="userSpaceOnUse">
<stop stop-color="#4823CF"/>
<stop offset="1" stop-color="#A187FF"/>
</linearGradient>
<radialGradient id="paint10_radial_156_1227" cx="0" cy="0" r="1" gradientUnits="userSpaceOnUse" gradientTransform="translate(150.5 16.5) rotate(108.525) scale(100.719)">
<stop stop-color="#A187FF"/>
<stop offset="1" stop-color="#A6F9E1"/>
</radialGradient>
<radialGradient id="paint11_radial_156_1227" cx="0" cy="0" r="1" gradientUnits="userSpaceOnUse" gradientTransform="translate(44.5 81.4999) rotate(104.036) scale(49.4773 68.507)">
<stop stop-color="#4ED0AA"/>
<stop offset="1" stop-color="#5E35F1"/>
</radialGradient>
<radialGradient id="paint12_radial_156_1227" cx="0" cy="0" r="1" gradientUnits="userSpaceOnUse" gradientTransform="translate(172.822 148.883) rotate(-43.825) scale(49.4773 68.507)">
<stop stop-color="#5E35F1"/>
<stop offset="1" stop-color="#4ED0AA"/>
</radialGradient>
<radialGradient id="paint13_radial_156_1227" cx="0" cy="0" r="1" gradientTransform="matrix(-50.5101 38.7368 -46.0092 -42.5263 140.079 29.6842)" gradientUnits="userSpaceOnUse">
<stop stop-color="#4823CF"/>
<stop offset="1" stop-color="#261172"/>
</radialGradient>
<radialGradient id="paint14_radial_156_1227" cx="0" cy="0" r="1" gradientTransform="matrix(-50.5003 38.7368 -46.0003 -42.5263 156.5 13.6842)" gradientUnits="userSpaceOnUse">
<stop stop-color="#7B56FF"/>
<stop offset="1" stop-color="#3618A3"/>
</radialGradient>
<linearGradient id="paint15_linear_156_1227" x1="185.5" y1="52" x2="160.5" y2="52" gradientUnits="userSpaceOnUse">
<stop stop-color="#7B56FF"/>
<stop offset="1" stop-color="#3618A3"/>
</linearGradient>
<linearGradient id="paint16_linear_156_1227" x1="51.5005" y1="52" x2="76.5005" y2="52" gradientUnits="userSpaceOnUse">
<stop stop-color="#7B56FF"/>
<stop offset="1" stop-color="#3618A3"/>
</linearGradient>
<linearGradient id="paint17_linear_156_1227" x1="118.5" y1="88" x2="118.5" y2="112.387" gradientUnits="userSpaceOnUse">
<stop stop-color="#A187FF"/>
<stop offset="1" stop-color="#4823CF"/>
</linearGradient>
<radialGradient id="paint18_radial_156_1227" cx="0" cy="0" r="1" gradientUnits="userSpaceOnUse" gradientTransform="translate(134 125) rotate(139.086) scale(39.6989 62.6021)">
<stop stop-color="#EFEAFF"/>
<stop offset="1" stop-color="#4ED0AA"/>
</radialGradient>
<linearGradient id="paint19_linear_156_1227" x1="118.5" y1="72" x2="118.5" y2="100" gradientUnits="userSpaceOnUse">
<stop stop-color="#A187FF"/>
<stop offset="1" stop-color="#4823CF"/>
</linearGradient>
<linearGradient id="paint20_linear_156_1227" x1="118.501" y1="158" x2="118.501" y2="133" gradientUnits="userSpaceOnUse">
<stop stop-color="#5E35F1"/>
<stop offset="1" stop-color="#A187FF"/>
</linearGradient>
<linearGradient id="paint21_linear_156_1227" x1="165.5" y1="172" x2="123.5" y2="172" gradientUnits="userSpaceOnUse">
<stop stop-color="#A187FF"/>
<stop offset="1" stop-color="#5E35F1"/>
</linearGradient>
<linearGradient id="paint22_linear_156_1227" x1="72.5004" y1="172" x2="114.5" y2="172" gradientUnits="userSpaceOnUse">
<stop stop-color="#A187FF"/>
<stop offset="1" stop-color="#5E35F1"/>
</linearGradient>
<linearGradient id="paint23_linear_156_1227" x1="17" y1="63" x2="17" y2="75" gradientUnits="userSpaceOnUse">
<stop stop-color="#3618A3"/>
<stop offset="1" stop-color="#5E35F1"/>
</linearGradient>
<linearGradient id="paint24_linear_156_1227" x1="17" y1="63" x2="17" y2="75" gradientUnits="userSpaceOnUse">
<stop stop-color="#A187FF"/>
<stop offset="1" stop-color="#4823CF"/>
</linearGradient>
<linearGradient id="paint25_linear_156_1227" x1="186.57" y1="175.208" x2="193.574" y2="165.464" gradientUnits="userSpaceOnUse">
<stop stop-color="#3618A3"/>
<stop offset="1" stop-color="#5E35F1"/>
</linearGradient>
<linearGradient id="paint26_linear_156_1227" x1="186.569" y1="175.208" x2="193.574" y2="165.464" gradientUnits="userSpaceOnUse">
<stop stop-color="#A187FF"/>
<stop offset="1" stop-color="#4823CF"/>
</linearGradient>
<linearGradient id="paint27_linear_156_1227" x1="17.5" y1="46" x2="17.5" y2="72" gradientUnits="userSpaceOnUse">
<stop stop-color="#A6F9E1"/>
<stop offset="1" stop-color="#4ED0AA"/>
</linearGradient>
<linearGradient id="paint28_linear_156_1227" x1="176.241" y1="188.72" x2="191.416" y2="167.608" gradientUnits="userSpaceOnUse">
<stop stop-color="#A6F9E1"/>
<stop offset="1" stop-color="#4ED0AA"/>
</linearGradient>
<radialGradient id="paint29_radial_156_1227" cx="0" cy="0" r="1" gradientUnits="userSpaceOnUse" gradientTransform="translate(112.5 135) rotate(90) scale(5)">
<stop stop-color="#7B56FF"/>
<stop offset="1" stop-color="#A187FF"/>
</radialGradient>
<radialGradient id="paint30_radial_156_1227" cx="0" cy="0" r="1" gradientUnits="userSpaceOnUse" gradientTransform="translate(122.5 135) rotate(90) scale(3)">
<stop stop-color="#7B56FF"/>
<stop offset="1" stop-color="#A187FF"/>
</radialGradient>
<radialGradient id="paint31_radial_156_1227" cx="0" cy="0" r="1" gradientUnits="userSpaceOnUse" gradientTransform="translate(130.5 135) rotate(90) scale(3)">
<stop stop-color="#7B56FF"/>
<stop offset="1" stop-color="#A187FF"/>
</radialGradient>
</defs>
</svg>
