<svg width="224" height="275" viewBox="0 0 224 275" fill="none" xmlns="http://www.w3.org/2000/svg">
<path d="M114.511 257.197C116.227 263.599 112.428 270.179 106.026 271.894C99.6245 273.609 93.0444 269.81 91.3291 263.409L89.9488 258.257C88.7099 253.634 91.4537 248.881 96.077 247.643L102.517 245.917C107.14 244.678 111.892 247.422 113.131 252.045L114.511 257.197Z" fill="url(#paint0_linear_156_1733)"/>
<path d="M139.671 248.38C136.077 253.949 128.65 255.55 123.081 251.956C117.513 248.363 115.911 240.935 119.505 235.367L122.397 230.886C124.992 226.864 130.356 225.707 134.378 228.303L139.98 231.917C144.001 234.513 145.158 239.877 142.562 243.899L139.671 248.38Z" fill="url(#paint1_linear_156_1733)"/>
<ellipse cx="100.558" cy="249.548" rx="14.5" ry="6" transform="rotate(165 100.558 249.548)" fill="url(#paint2_linear_156_1733)" stroke="url(#paint3_linear_156_1733)" stroke-width="5"/>
<ellipse cx="135.968" cy="232.903" rx="14.5" ry="6" transform="rotate(-147.165 135.968 232.903)" fill="url(#paint4_linear_156_1733)" stroke="url(#paint5_linear_156_1733)" stroke-width="5"/>
<path d="M143.25 221.501L149.186 215.485C156.759 207.812 158.286 196.03 152.919 186.68L131.577 149.5H105.077L89.6749 184.738C87.6131 189.455 87.1227 194.71 88.276 199.727L96.5 235.501" stroke="url(#paint6_radial_156_1733)" stroke-width="40" stroke-linecap="round"/>
<path d="M80.5782 98H159.578L164.571 137.541C164.902 140.161 164.778 142.818 164.206 145.396C153.621 193.098 85.7601 193.491 74.6066 145.919C73.9226 143.001 73.8159 139.978 74.2924 137.02L80.5782 98Z" fill="url(#paint7_linear_156_1733)"/>
<path d="M75.6793 124.551C87.2338 119.087 85.5831 108.426 83.8194 103.733L87.8829 104.369C87.8829 104.369 91.6026 112.065 87.2989 119.985C84.6781 124.808 80.3961 127.734 77.4482 129.284C76.0704 130.009 74.6725 128.777 75.0333 127.263L75.6793 124.551Z" fill="url(#paint8_linear_156_1733)"/>
<path d="M164.352 124.551C152.797 119.087 154.448 108.426 156.212 103.733L152.148 104.369C152.148 104.369 148.429 112.065 152.732 119.985C155.353 124.808 159.635 127.734 162.583 129.284C163.961 130.009 165.359 128.777 164.998 127.263L164.352 124.551Z" fill="url(#paint9_linear_156_1733)"/>
<circle cx="119" cy="56" r="56" fill="url(#paint10_radial_156_1733)"/>
<path d="M18.0101 75C17.7809 85.3539 21.4186 100.836 34 108.822C42.2945 114.087 54.4763 116.095 72 111.227" stroke="url(#paint11_radial_156_1733)" stroke-width="28" stroke-linecap="round"/>
<path d="M207.5 44C207.5 65 203 82.5 196.5 92.4997C190 102.499 180 107.5 167 112.5" stroke="url(#paint12_radial_156_1733)" stroke-width="28" stroke-linecap="round"/>
<path d="M119.235 12C137.095 12.0001 152.65 20.3022 160.762 32.5728C162.45 35.1275 161.929 38.4189 160.752 41.2461C159.479 44.3039 158.734 48.0081 158.734 52C158.734 55.9918 159.479 59.6957 160.752 62.7533C161.93 65.5802 162.451 68.8713 160.762 71.426C152.651 83.6972 137.095 91.9999 119.235 92C100.8 92 84.8204 83.1546 76.948 70.2299C75.4924 67.84 75.9006 64.8654 76.9151 62.2575C78.066 59.2988 78.7337 55.7782 78.7337 52C78.7337 48.2216 78.0662 44.7007 76.9153 41.7419C75.9008 39.1338 75.4925 36.1588 76.9483 33.7689C84.821 20.8448 100.8 12 119.235 12Z" fill="url(#paint13_radial_156_1733)"/>
<path d="M119.234 12C137.095 12 152.65 20.3027 160.762 32.5732C162.45 35.1279 161.929 38.419 160.752 41.2461C159.479 44.3039 158.733 48.0082 158.733 52C158.733 55.9915 159.479 59.6954 160.752 62.7529C161.376 64.2507 161.815 65.8792 161.839 67.459C153.761 72.8084 143.573 76 132.5 76C106.266 76 85 58.0914 85 36C85 31.0021 86.0909 26.2194 88.0791 21.8086C96.4184 15.6994 107.313 12.0001 119.234 12Z" fill="url(#paint14_radial_156_1733)"/>
<path d="M163.669 41.6248C164.823 37.1371 168.869 34 173.503 34C180.405 34 186 39.5953 186 46.4974V57.5026C186 64.4047 180.405 70 173.503 70C168.869 70 164.823 66.8629 163.669 62.3752L163.05 59.971C161.705 54.7421 161.705 49.2579 163.05 44.029L163.669 41.6248Z" fill="url(#paint15_linear_156_1733)"/>
<path d="M74.3315 41.6248C73.1772 37.1371 69.1312 34 64.4974 34C57.5953 34 52 39.5953 52 46.4974V57.5026C52 64.4047 57.5953 70 64.4974 70C69.1312 70 73.1772 66.8629 74.3315 62.3752L74.9498 59.971C76.2947 54.7421 76.2947 49.2579 74.9498 44.029L74.3315 41.6248Z" fill="url(#paint16_linear_156_1733)"/>
<path d="M119 100.194C138.294 100.194 154.441 93.7344 162.157 90.2183C164.66 89.0775 166.463 90.5334 165.893 93.2247C164.79 98.4258 162.572 103.321 157.905 105.867C150.18 110.081 136.138 115 119 115C101.862 115 87.8196 110.081 80.0953 105.867C75.4279 103.321 73.2099 98.4258 72.1074 93.2247C71.537 90.5334 73.34 89.0775 75.8434 90.2183C83.5595 93.7344 99.7058 100.194 119 100.194Z" fill="url(#paint17_linear_156_1733)"/>
<path d="M102.956 131.784C103.557 127.881 106.915 125 110.863 125H130.137C134.085 125 137.443 127.881 138.044 131.784L139.582 141.784C140.328 146.63 136.578 151 131.675 151H109.325C104.422 151 100.672 146.63 101.418 141.784L102.956 131.784Z" fill="url(#paint18_radial_156_1733)"/>
<path d="M119 86C141.595 86 160.49 78.5276 169.451 74.5011C172.316 73.2141 174.376 74.897 173.715 77.9667C172.424 83.9589 169.834 89.5844 164.436 92.4888C155.434 97.3324 139.029 103 119 103C98.9712 103 82.5659 97.3324 73.5642 92.4888C68.1664 89.5844 65.5758 83.9589 64.2851 77.9667C63.624 74.897 65.6843 73.2141 68.5486 74.5011C77.5097 78.5276 96.4047 86 119 86Z" fill="url(#paint19_linear_156_1733)"/>
<path d="M155.34 152.451C158.576 151.271 161.62 149.864 164.272 148.197C166.581 146.746 167.566 143.982 167.181 141.282L166.701 137.917C166.383 135.683 163.757 134.531 161.732 135.529C159.391 136.683 156.768 137.674 154 138.52C144.718 141.357 132.343 143 119 143C105.657 143 93.2817 141.357 84 138.52C81.2318 137.674 78.6099 136.683 76.2684 135.529C74.2438 134.532 71.6178 135.683 71.2995 137.918L70.8201 141.283C70.4357 143.982 71.4212 146.746 73.7295 148.197C76.3818 149.863 79.4257 151.271 82.6621 152.451C92.2989 155.965 105.148 158 119.001 158C132.854 158 145.703 155.965 155.34 152.451Z" fill="url(#paint20_linear_156_1733)"/>
<path d="M159.746 158.092C152.145 169.597 134.485 178.908 125.23 181.224C124.542 181.396 124.085 182.053 124.193 182.754C124.638 185.648 127.362 187.648 130.172 186.825C144.206 182.714 157.847 171.573 163.471 164.842C165.282 162.675 164.724 159.724 162.727 157.727C161.866 156.866 160.417 157.076 159.746 158.092Z" fill="url(#paint21_linear_156_1733)"/>
<path d="M79.2544 158.092C86.8546 169.597 104.515 178.908 113.77 181.224C114.458 181.396 114.915 182.053 114.807 182.754C114.362 185.648 111.638 187.648 108.828 186.825C94.7941 182.714 81.1526 171.573 75.5286 164.842C73.718 162.675 74.2763 159.724 76.2731 157.727C77.1338 156.866 78.5835 157.076 79.2544 158.092Z" fill="url(#paint22_linear_156_1733)"/>
<ellipse cx="17.5" cy="69" rx="14.5" ry="6" fill="url(#paint23_linear_156_1733)" stroke="url(#paint24_linear_156_1733)" stroke-width="5"/>
<ellipse cx="14.5" cy="6" rx="14.5" ry="6" transform="matrix(-0.994066 0.108777 0.108777 0.994066 220.461 30.0752)" fill="url(#paint25_linear_156_1733)" stroke="url(#paint26_linear_156_1733)" stroke-width="5"/>
<path d="M6 58C6 51.3726 11.3726 46 18 46C24.6274 46 30 51.3726 30 58V63.3333C30 68.1198 26.1198 72 21.3333 72H14.6667C9.8802 72 6 68.1198 6 63.3333V58Z" fill="url(#paint27_linear_156_1733)"/>
<path d="M216.935 25.4312C216.214 18.8431 210.289 14.0869 203.701 14.8078C197.113 15.5287 192.357 21.4538 193.078 28.0419L193.658 33.3436C194.178 38.1016 198.458 41.5367 203.216 41.0161L209.843 40.2909C214.601 39.7702 218.036 35.491 217.515 30.7329L216.935 25.4312Z" fill="url(#paint28_linear_156_1733)"/>
<circle cx="113" cy="135" r="5" fill="url(#paint29_radial_156_1733)"/>
<circle cx="123" cy="135" r="3" fill="url(#paint30_radial_156_1733)"/>
<circle cx="131" cy="135" r="3" fill="url(#paint31_radial_156_1733)"/>
<path d="M138.87 25.171L136.58 24.5393C134.134 23.8647 131.893 26.1265 132.59 28.5656L134.047 33.6656C134.663 35.821 136.01 37.6946 137.858 38.9646L142.758 42.3335C146.506 44.9102 151.65 42.5849 152.192 38.0692C152.389 36.4283 151.906 34.7783 150.855 33.5026L149.872 32.3092C147.027 28.8541 143.185 26.3613 138.87 25.171Z" fill="white" fill-opacity="0.5"/>
<defs>
<linearGradient id="paint0_linear_156_1733" x1="106.026" y1="271.894" x2="99.2968" y2="246.78" gradientUnits="userSpaceOnUse">
<stop stop-color="#A6F9E1"/>
<stop offset="1" stop-color="#4ED0AA"/>
</linearGradient>
<linearGradient id="paint1_linear_156_1733" x1="123.081" y1="251.956" x2="137.179" y2="230.11" gradientUnits="userSpaceOnUse">
<stop stop-color="#A6F9E1"/>
<stop offset="1" stop-color="#4ED0AA"/>
</linearGradient>
<linearGradient id="paint2_linear_156_1733" x1="100.558" y1="243.548" x2="100.558" y2="255.548" gradientUnits="userSpaceOnUse">
<stop stop-color="#3618A3"/>
<stop offset="1" stop-color="#5E35F1"/>
</linearGradient>
<linearGradient id="paint3_linear_156_1733" x1="100.558" y1="243.548" x2="100.558" y2="255.548" gradientUnits="userSpaceOnUse">
<stop stop-color="#A187FF"/>
<stop offset="1" stop-color="#4823CF"/>
</linearGradient>
<linearGradient id="paint4_linear_156_1733" x1="135.968" y1="226.903" x2="135.968" y2="238.903" gradientUnits="userSpaceOnUse">
<stop stop-color="#3618A3"/>
<stop offset="1" stop-color="#5E35F1"/>
</linearGradient>
<linearGradient id="paint5_linear_156_1733" x1="135.968" y1="226.903" x2="135.968" y2="238.903" gradientUnits="userSpaceOnUse">
<stop stop-color="#A187FF"/>
<stop offset="1" stop-color="#4823CF"/>
</linearGradient>
<radialGradient id="paint6_radial_156_1733" cx="0" cy="0" r="1" gradientUnits="userSpaceOnUse" gradientTransform="translate(124 168) rotate(73.9577) scale(81.7209 98.5587)">
<stop offset="0.197115" stop-color="#87EFD0"/>
<stop offset="1" stop-color="#7B56FF"/>
</radialGradient>
<linearGradient id="paint7_linear_156_1733" x1="114" y1="70" x2="104" y2="192.5" gradientUnits="userSpaceOnUse">
<stop offset="0.139111" stop-color="#5E35F1"/>
<stop offset="0.581145" stop-color="#EFEAFF"/>
<stop offset="0.895219" stop-color="#4ED0AA"/>
</linearGradient>
<linearGradient id="paint8_linear_156_1733" x1="80.278" y1="104.053" x2="82.6219" y2="129.947" gradientUnits="userSpaceOnUse">
<stop stop-color="#4823CF"/>
<stop offset="1" stop-color="#A187FF"/>
</linearGradient>
<linearGradient id="paint9_linear_156_1733" x1="159.753" y1="104.053" x2="157.409" y2="129.947" gradientUnits="userSpaceOnUse">
<stop stop-color="#4823CF"/>
<stop offset="1" stop-color="#A187FF"/>
</linearGradient>
<radialGradient id="paint10_radial_156_1733" cx="0" cy="0" r="1" gradientUnits="userSpaceOnUse" gradientTransform="translate(151 16.5) rotate(108.525) scale(100.719)">
<stop stop-color="#A187FF"/>
<stop offset="1" stop-color="#A6F9E1"/>
</radialGradient>
<radialGradient id="paint11_radial_156_1733" cx="0" cy="0" r="1" gradientUnits="userSpaceOnUse" gradientTransform="translate(45 81.5) rotate(104.036) scale(49.4773 68.507)">
<stop stop-color="#4ED0AA"/>
<stop offset="1" stop-color="#5E35F1"/>
</radialGradient>
<radialGradient id="paint12_radial_156_1733" cx="0" cy="0" r="1" gradientTransform="matrix(28.4868 63.3577 53.3348 -38.8647 181.24 62.4438)" gradientUnits="userSpaceOnUse">
<stop stop-color="#4ED0AA"/>
<stop offset="1" stop-color="#5E35F1"/>
</radialGradient>
<radialGradient id="paint13_radial_156_1733" cx="0" cy="0" r="1" gradientTransform="matrix(-50.5096 38.7368 -46.0087 -42.5263 140.58 29.6842)" gradientUnits="userSpaceOnUse">
<stop stop-color="#4823CF"/>
<stop offset="1" stop-color="#261172"/>
</radialGradient>
<radialGradient id="paint14_radial_156_1733" cx="0" cy="0" r="1" gradientTransform="matrix(-50.5 38.7368 -46 -42.5263 157 13.6842)" gradientUnits="userSpaceOnUse">
<stop stop-color="#7B56FF"/>
<stop offset="1" stop-color="#3618A3"/>
</radialGradient>
<linearGradient id="paint15_linear_156_1733" x1="186" y1="52" x2="161" y2="52" gradientUnits="userSpaceOnUse">
<stop stop-color="#7B56FF"/>
<stop offset="1" stop-color="#3618A3"/>
</linearGradient>
<linearGradient id="paint16_linear_156_1733" x1="52" y1="52" x2="77" y2="52" gradientUnits="userSpaceOnUse">
<stop stop-color="#7B56FF"/>
<stop offset="1" stop-color="#3618A3"/>
</linearGradient>
<linearGradient id="paint17_linear_156_1733" x1="119" y1="88" x2="119" y2="112.387" gradientUnits="userSpaceOnUse">
<stop stop-color="#A187FF"/>
<stop offset="1" stop-color="#4823CF"/>
</linearGradient>
<radialGradient id="paint18_radial_156_1733" cx="0" cy="0" r="1" gradientUnits="userSpaceOnUse" gradientTransform="translate(134.5 125) rotate(139.086) scale(39.6989 62.6021)">
<stop stop-color="#EFEAFF"/>
<stop offset="1" stop-color="#4ED0AA"/>
</radialGradient>
<linearGradient id="paint19_linear_156_1733" x1="119" y1="72" x2="119" y2="100" gradientUnits="userSpaceOnUse">
<stop stop-color="#A187FF"/>
<stop offset="1" stop-color="#4823CF"/>
</linearGradient>
<linearGradient id="paint20_linear_156_1733" x1="119.001" y1="158" x2="119.001" y2="133" gradientUnits="userSpaceOnUse">
<stop stop-color="#5E35F1"/>
<stop offset="1" stop-color="#A187FF"/>
</linearGradient>
<linearGradient id="paint21_linear_156_1733" x1="166" y1="172" x2="124" y2="172" gradientUnits="userSpaceOnUse">
<stop stop-color="#A187FF"/>
<stop offset="1" stop-color="#5E35F1"/>
</linearGradient>
<linearGradient id="paint22_linear_156_1733" x1="73" y1="172" x2="115" y2="172" gradientUnits="userSpaceOnUse">
<stop stop-color="#A187FF"/>
<stop offset="1" stop-color="#5E35F1"/>
</linearGradient>
<linearGradient id="paint23_linear_156_1733" x1="17.5" y1="63" x2="17.5" y2="75" gradientUnits="userSpaceOnUse">
<stop stop-color="#3618A3"/>
<stop offset="1" stop-color="#5E35F1"/>
</linearGradient>
<linearGradient id="paint24_linear_156_1733" x1="17.5" y1="63" x2="17.5" y2="75" gradientUnits="userSpaceOnUse">
<stop stop-color="#A187FF"/>
<stop offset="1" stop-color="#4823CF"/>
</linearGradient>
<linearGradient id="paint25_linear_156_1733" x1="14.5" y1="0" x2="14.5" y2="12" gradientUnits="userSpaceOnUse">
<stop stop-color="#3618A3"/>
<stop offset="1" stop-color="#5E35F1"/>
</linearGradient>
<linearGradient id="paint26_linear_156_1733" x1="14.5" y1="0" x2="14.5" y2="12" gradientUnits="userSpaceOnUse">
<stop stop-color="#A187FF"/>
<stop offset="1" stop-color="#4823CF"/>
</linearGradient>
<linearGradient id="paint27_linear_156_1733" x1="18" y1="46" x2="18" y2="72" gradientUnits="userSpaceOnUse">
<stop stop-color="#A6F9E1"/>
<stop offset="1" stop-color="#4ED0AA"/>
</linearGradient>
<linearGradient id="paint28_linear_156_1733" x1="203.701" y1="14.8078" x2="206.529" y2="40.6535" gradientUnits="userSpaceOnUse">
<stop stop-color="#A6F9E1"/>
<stop offset="1" stop-color="#4ED0AA"/>
</linearGradient>
<radialGradient id="paint29_radial_156_1733" cx="0" cy="0" r="1" gradientUnits="userSpaceOnUse" gradientTransform="translate(113 135) rotate(90) scale(5)">
<stop stop-color="#7B56FF"/>
<stop offset="1" stop-color="#A187FF"/>
</radialGradient>
<radialGradient id="paint30_radial_156_1733" cx="0" cy="0" r="1" gradientUnits="userSpaceOnUse" gradientTransform="translate(123 135) rotate(90) scale(3)">
<stop stop-color="#7B56FF"/>
<stop offset="1" stop-color="#A187FF"/>
</radialGradient>
<radialGradient id="paint31_radial_156_1733" cx="0" cy="0" r="1" gradientUnits="userSpaceOnUse" gradientTransform="translate(131 135) rotate(90) scale(3)">
<stop stop-color="#7B56FF"/>
<stop offset="1" stop-color="#A187FF"/>
</radialGradient>
</defs>
</svg>
