<svg width="120" height="120" viewBox="0 0 120 120" fill="none" xmlns="http://www.w3.org/2000/svg">
<rect width="120" height="120" rx="60" fill="#0F8864"/>
<g clip-path="url(#clip0_493_5071)">
<path d="M61.866 29.4334L52.6327 38.6668C52.016 39.2834 51.666 40.1334 51.666 41.0168V57.6668C51.666 59.5001 53.166 61.0001 54.9993 61.0001H69.9993C71.3327 61.0001 72.5327 60.2001 73.066 58.9834L78.4993 46.3001C79.8993 43.0001 77.4827 39.3334 73.8993 39.3334H64.4827L66.066 31.7001C66.2327 30.8668 65.9827 30.0168 65.3827 29.4168C64.3993 28.4501 62.8327 28.4501 61.866 29.4334ZM44.9993 61.0001C46.8327 61.0001 48.3327 59.5001 48.3327 57.6668V44.3334C48.3327 42.5001 46.8327 41.0001 44.9993 41.0001C43.166 41.0001 41.666 42.5001 41.666 44.3334V57.6668C41.666 59.5001 43.166 61.0001 44.9993 61.0001Z" fill="white"/>
</g>
<path d="M38.9038 79.2V88.02H43.4818V89H37.7838V79.2H38.9038ZM47.9692 89.098C47.3065 89.098 46.7139 88.9533 46.1912 88.664C45.6685 88.3747 45.2579 87.964 44.9592 87.432C44.6605 86.8907 44.5112 86.2513 44.5112 85.514C44.5112 84.7673 44.6605 84.1233 44.9592 83.582C45.2672 83.0407 45.6825 82.6253 46.2052 82.336C46.7372 82.0467 47.3345 81.902 47.9972 81.902C48.6599 81.902 49.2525 82.0467 49.7752 82.336C50.3072 82.6253 50.7225 83.0407 51.0212 83.582C51.3292 84.114 51.4832 84.7487 51.4832 85.486C51.4832 86.2327 51.3292 86.8767 51.0212 87.418C50.7132 87.9593 50.2932 88.3747 49.7612 88.664C49.2292 88.9533 48.6319 89.098 47.9692 89.098ZM47.9552 88.104C48.3659 88.104 48.7532 88.0153 49.1172 87.838C49.4812 87.6513 49.7752 87.3667 49.9992 86.984C50.2325 86.592 50.3492 86.0973 50.3492 85.5C50.3492 84.8933 50.2372 84.3987 50.0132 84.016C49.7892 83.6333 49.4952 83.3533 49.1312 83.176C48.7765 82.9893 48.3939 82.896 47.9832 82.896C47.5725 82.896 47.1899 82.9893 46.8352 83.176C46.4805 83.3533 46.1912 83.638 45.9672 84.03C45.7525 84.4127 45.6452 84.9027 45.6452 85.5C45.6452 86.1067 45.7525 86.6013 45.9672 86.984C46.1819 87.3667 46.4619 87.6513 46.8072 87.838C47.1619 88.0153 47.5445 88.104 47.9552 88.104ZM53.609 82L55.821 87.824L58.047 82H59.153L56.353 89H55.261L52.489 82H53.609ZM63.5258 89.098C62.8725 89.098 62.2891 88.9393 61.7758 88.622C61.2718 88.3047 60.8751 87.8707 60.5858 87.32C60.2965 86.7693 60.1518 86.1393 60.1518 85.43C60.1518 84.7487 60.2965 84.142 60.5858 83.61C60.8751 83.078 61.2718 82.6627 61.7758 82.364C62.2798 82.056 62.8538 81.902 63.4978 81.902C64.1325 81.902 64.6971 82.042 65.1918 82.322C65.6958 82.602 66.0878 82.9893 66.3678 83.484C66.6478 83.9787 66.7785 84.5433 66.7598 85.178C66.7598 85.2807 66.7551 85.388 66.7458 85.5C66.7365 85.612 66.7271 85.7333 66.7178 85.864H61.2998C61.3185 86.3027 61.4258 86.69 61.6218 87.026C61.8178 87.362 62.0745 87.628 62.3918 87.824C62.7185 88.0107 63.0871 88.104 63.4978 88.104C64.0391 88.104 64.4965 88.0013 64.8698 87.796C65.2525 87.5907 65.5278 87.2967 65.6958 86.914L66.6058 87.278C66.3258 87.866 65.9198 88.3187 65.3878 88.636C64.8558 88.944 64.2351 89.098 63.5258 89.098ZM65.6118 84.954C65.6211 84.5527 65.5325 84.198 65.3458 83.89C65.1685 83.582 64.9165 83.3393 64.5898 83.162C64.2631 82.9847 63.8851 82.896 63.4558 82.896C63.0825 82.896 62.7418 82.9847 62.4338 83.162C62.1258 83.3393 61.8691 83.5867 61.6638 83.904C61.4678 84.212 61.3511 84.562 61.3138 84.954H65.6118ZM72.524 79.2H73.644V89H72.524V79.2ZM76.36 82V80.04H77.41V82H79.272V82.98H77.41V86.746C77.41 87.1753 77.4987 87.488 77.676 87.684C77.8627 87.88 78.096 87.9967 78.376 88.034C78.6653 88.0713 78.964 88.0713 79.272 88.034V88.944C78.908 89.028 78.5487 89.0513 78.194 89.014C77.8487 88.9767 77.536 88.874 77.256 88.706C76.9853 88.5287 76.766 88.2813 76.598 87.964C76.4393 87.6467 76.36 87.2407 76.36 86.746V82.98H75.31V82H76.36ZM80.9459 79.2H82.1359L82.0099 86.326H81.0719L80.9459 79.2ZM81.5899 89.056C81.3659 89.056 81.1839 88.9813 81.0439 88.832C80.9039 88.6827 80.8339 88.5007 80.8339 88.286C80.8339 88.0713 80.9039 87.8893 81.0439 87.74C81.1839 87.5907 81.3659 87.516 81.5899 87.516C81.7952 87.516 81.9725 87.5907 82.1219 87.74C82.2712 87.8893 82.3459 88.0713 82.3459 88.286C82.3459 88.5007 82.2712 88.6827 82.1219 88.832C81.9725 88.9813 81.7952 89.056 81.5899 89.056Z" fill="white"/>
<defs>
<clipPath id="clip0_493_5071">
<rect width="40" height="40" fill="white" transform="translate(40 26)"/>
</clipPath>
</defs>
</svg>
