<svg width="120" height="120" viewBox="0 0 120 120" fill="none" xmlns="http://www.w3.org/2000/svg">
<rect width="120" height="120" rx="60" fill="#5E35F1"/>
<path d="M58.134 62.5666L67.3673 53.3332C67.984 52.7166 68.334 51.8666 68.334 50.9832L68.334 34.3332C68.334 32.4999 66.834 30.9999 65.0007 30.9999L50.0007 30.9999C48.6673 30.9999 47.4673 31.7999 46.934 33.0166L41.5007 45.6999C40.1007 48.9999 42.5173 52.6666 46.1007 52.6666L55.5173 52.6666L53.934 60.2999C53.7673 61.1332 54.0173 61.9832 54.6173 62.5832C55.6007 63.5499 57.1673 63.5499 58.134 62.5666ZM75.0007 30.9999C73.1673 30.9999 71.6673 32.4999 71.6673 34.3332L71.6673 47.6666C71.6673 49.4999 73.1673 50.9999 75.0007 50.9999C76.834 50.9999 78.334 49.4999 78.334 47.6666L78.334 34.3332C78.334 32.4999 76.834 30.9999 75.0007 30.9999Z" fill="white"/>
<path d="M32.47 79.2V89H31.336L26.1 80.992V89H24.98V79.2H26.114L31.35 87.194V79.2H32.47ZM37.7631 89.098C37.1005 89.098 36.5078 88.9533 35.9851 88.664C35.4625 88.3747 35.0518 87.964 34.7531 87.432C34.4545 86.8907 34.3051 86.2513 34.3051 85.514C34.3051 84.7673 34.4545 84.1233 34.7531 83.582C35.0611 83.0407 35.4765 82.6253 35.9991 82.336C36.5311 82.0467 37.1285 81.902 37.7911 81.902C38.4538 81.902 39.0465 82.0467 39.5691 82.336C40.1011 82.6253 40.5165 83.0407 40.8151 83.582C41.1231 84.114 41.2771 84.7487 41.2771 85.486C41.2771 86.2327 41.1231 86.8767 40.8151 87.418C40.5071 87.9593 40.0871 88.3747 39.5551 88.664C39.0231 88.9533 38.4258 89.098 37.7631 89.098ZM37.7491 88.104C38.1598 88.104 38.5471 88.0153 38.9111 87.838C39.2751 87.6513 39.5691 87.3667 39.7931 86.984C40.0265 86.592 40.1431 86.0973 40.1431 85.5C40.1431 84.8933 40.0311 84.3987 39.8071 84.016C39.5831 83.6333 39.2891 83.3533 38.9251 83.176C38.5705 82.9893 38.1878 82.896 37.7771 82.896C37.3665 82.896 36.9838 82.9893 36.6291 83.176C36.2745 83.3533 35.9851 83.638 35.7611 84.03C35.5465 84.4127 35.4391 84.9027 35.4391 85.5C35.4391 86.1067 35.5465 86.6013 35.7611 86.984C35.9758 87.3667 36.2558 87.6513 36.6011 87.838C36.9558 88.0153 37.3385 88.104 37.7491 88.104ZM43.4449 82V80.04H44.4949V82H46.3569V82.98H44.4949V86.746C44.4949 87.1753 44.5836 87.488 44.7609 87.684C44.9476 87.88 45.1809 87.9967 45.4609 88.034C45.7503 88.0713 46.0489 88.0713 46.3569 88.034V88.944C45.9929 89.028 45.6336 89.0513 45.2789 89.014C44.9336 88.9767 44.6209 88.874 44.3409 88.706C44.0703 88.5287 43.8509 88.2813 43.6829 87.964C43.5243 87.6467 43.4449 87.2407 43.4449 86.746V82.98H42.3949V82H43.4449ZM51.9546 79.2H58.3806V80.18H53.0746V83.526H57.0646V84.506H53.0746V89H51.9546V79.2ZM63.0834 89.098C62.4208 89.098 61.8281 88.9533 61.3054 88.664C60.7828 88.3747 60.3721 87.964 60.0734 87.432C59.7748 86.8907 59.6254 86.2513 59.6254 85.514C59.6254 84.7673 59.7748 84.1233 60.0734 83.582C60.3814 83.0407 60.7968 82.6253 61.3194 82.336C61.8514 82.0467 62.4488 81.902 63.1114 81.902C63.7741 81.902 64.3668 82.0467 64.8894 82.336C65.4214 82.6253 65.8368 83.0407 66.1354 83.582C66.4434 84.114 66.5974 84.7487 66.5974 85.486C66.5974 86.2327 66.4434 86.8767 66.1354 87.418C65.8274 87.9593 65.4074 88.3747 64.8754 88.664C64.3434 88.9533 63.7461 89.098 63.0834 89.098ZM63.0694 88.104C63.4801 88.104 63.8674 88.0153 64.2314 87.838C64.5954 87.6513 64.8894 87.3667 65.1134 86.984C65.3468 86.592 65.4634 86.0973 65.4634 85.5C65.4634 84.8933 65.3514 84.3987 65.1274 84.016C64.9034 83.6333 64.6094 83.3533 64.2454 83.176C63.8908 82.9893 63.5081 82.896 63.0974 82.896C62.6868 82.896 62.3041 82.9893 61.9494 83.176C61.5948 83.3533 61.3054 83.638 61.0814 84.03C60.8668 84.4127 60.7594 84.9027 60.7594 85.5C60.7594 86.1067 60.8668 86.6013 61.0814 86.984C61.2961 87.3667 61.5761 87.6513 61.9214 87.838C62.2761 88.0153 62.6588 88.104 63.0694 88.104ZM68.3173 82H69.2833L69.3393 83.022C69.5259 82.77 69.7499 82.5553 70.0113 82.378C70.2819 82.2007 70.5759 82.0793 70.8933 82.014C71.2199 81.9393 71.5653 81.9347 71.9293 82V83.05C71.5373 82.9753 71.1826 82.9753 70.8653 83.05C70.5573 83.1247 70.2913 83.2647 70.0673 83.47C69.8433 83.6753 69.6706 83.9367 69.5493 84.254C69.4279 84.562 69.3673 84.9213 69.3673 85.332V89H68.3173V82ZM78.518 89H77.398V79.2H78.63L82.27 87.46L85.896 79.2H87.114V89H85.994V81.412L82.662 89H81.864L78.518 81.412V89ZM92.3256 89.098C91.6723 89.098 91.089 88.9393 90.5756 88.622C90.0716 88.3047 89.675 87.8707 89.3856 87.32C89.0963 86.7693 88.9516 86.1393 88.9516 85.43C88.9516 84.7487 89.0963 84.142 89.3856 83.61C89.675 83.078 90.0716 82.6627 90.5756 82.364C91.0796 82.056 91.6536 81.902 92.2976 81.902C92.9323 81.902 93.497 82.042 93.9916 82.322C94.4956 82.602 94.8876 82.9893 95.1676 83.484C95.4476 83.9787 95.5783 84.5433 95.5596 85.178C95.5596 85.2807 95.555 85.388 95.5456 85.5C95.5363 85.612 95.527 85.7333 95.5176 85.864H90.0996C90.1183 86.3027 90.2256 86.69 90.4216 87.026C90.6176 87.362 90.8743 87.628 91.1916 87.824C91.5183 88.0107 91.887 88.104 92.2976 88.104C92.839 88.104 93.2963 88.0013 93.6696 87.796C94.0523 87.5907 94.3276 87.2967 94.4956 86.914L95.4056 87.278C95.1256 87.866 94.7196 88.3187 94.1876 88.636C93.6556 88.944 93.035 89.098 92.3256 89.098ZM94.4116 84.954C94.421 84.5527 94.3323 84.198 94.1456 83.89C93.9683 83.582 93.7163 83.3393 93.3896 83.162C93.063 82.9847 92.685 82.896 92.2556 82.896C91.8823 82.896 91.5416 82.9847 91.2336 83.162C90.9256 83.3393 90.669 83.5867 90.4636 83.904C90.2676 84.212 90.151 84.562 90.1136 84.954H94.4116Z" fill="white"/>
</svg>
