<svg width="238" height="240" viewBox="0 0 238 240" fill="none" xmlns="http://www.w3.org/2000/svg">
<path d="M113.943 224.463C115.44 230.05 112.125 235.792 106.538 237.289C100.951 238.786 95.2087 235.471 93.7117 229.884L92.507 225.388C91.4258 221.353 93.8203 217.206 97.8553 216.125L103.475 214.619C107.51 213.538 111.658 215.932 112.739 219.967L113.943 224.463Z" fill="url(#paint0_linear_111_2000)"/>
<path d="M135.901 216.768C132.765 221.628 126.282 223.025 121.423 219.889C116.563 216.753 115.165 210.271 118.301 205.411L120.825 201.5C123.09 197.99 127.772 196.981 131.282 199.246L136.17 202.401C139.68 204.666 140.689 209.347 138.424 212.857L135.901 216.768Z" fill="url(#paint1_linear_111_2000)"/>
<path d="M89.5429 221.063C88.7944 218.269 93.6602 214.539 100.411 212.73C107.162 210.921 113.241 211.719 113.99 214.512C114.738 217.306 109.872 221.037 103.121 222.846C96.3707 224.654 90.2913 223.856 89.5429 221.063Z" fill="url(#paint2_linear_111_2000)"/>
<path d="M91.6568 220.512C91.6623 220.522 91.6751 220.544 91.7028 220.575C91.7605 220.641 91.8798 220.749 92.1012 220.873C92.5593 221.131 93.3054 221.378 94.3656 221.517C96.4756 221.794 99.3887 221.587 102.557 220.738C105.725 219.889 108.351 218.612 110.04 217.317C110.889 216.666 111.411 216.08 111.679 215.627C111.809 215.409 111.858 215.256 111.875 215.17C111.883 215.129 111.884 215.104 111.884 215.093C111.883 215.082 111.882 215.078 111.882 215.077C111.882 215.076 111.881 215.072 111.876 215.063C111.87 215.053 111.857 215.032 111.83 215C111.772 214.935 111.653 214.827 111.431 214.702C110.973 214.444 110.227 214.198 109.167 214.059C107.057 213.782 104.144 213.988 100.976 214.837C97.8075 215.686 95.1813 216.964 93.4926 218.258C92.644 218.909 92.1211 219.496 91.8533 219.948C91.7238 220.167 91.6745 220.32 91.6573 220.405C91.6491 220.447 91.6487 220.471 91.6489 220.483C91.6491 220.493 91.6501 220.497 91.6504 220.498C91.6506 220.499 91.6517 220.503 91.6568 220.512ZM87.4354 221.628C87.0502 220.19 87.4488 218.824 88.099 217.725C88.7439 216.636 89.719 215.653 90.8371 214.796C93.0818 213.075 96.2638 211.582 99.8463 210.622C103.429 209.662 106.931 209.364 109.735 209.732C111.132 209.915 112.468 210.279 113.571 210.9C114.684 211.526 115.712 212.51 116.097 213.948C116.482 215.386 116.084 216.752 115.434 217.85C114.789 218.939 113.814 219.922 112.695 220.78C110.451 222.501 107.269 223.993 103.686 224.953C100.104 225.913 96.6019 226.212 93.7973 225.843C92.4004 225.66 91.0644 225.296 89.9611 224.675C88.849 224.049 87.8207 223.065 87.4354 221.628Z" fill="url(#paint3_linear_111_2000)"/>
<path d="M122.037 196.4C123.605 193.97 129.636 195.072 135.509 198.861C141.381 202.651 144.87 207.693 143.302 210.123C141.734 212.552 135.703 211.45 129.83 207.661C123.958 203.871 120.469 198.83 122.037 196.4Z" fill="url(#paint4_linear_111_2000)"/>
<path d="M123.864 197.597C123.86 197.607 123.853 197.631 123.848 197.673C123.838 197.76 123.838 197.921 123.894 198.168C124.011 198.681 124.329 199.4 124.937 200.279C126.149 202.029 128.257 204.049 131.013 205.828C133.769 207.606 136.479 208.695 138.572 209.078C139.624 209.27 140.41 209.264 140.925 209.158C141.174 209.108 141.321 209.041 141.396 208.997C141.432 208.975 141.45 208.959 141.459 208.951C141.466 208.944 141.469 208.94 141.469 208.939C141.47 208.939 141.472 208.935 141.475 208.925C141.479 208.915 141.486 208.891 141.491 208.849C141.501 208.762 141.501 208.601 141.444 208.354C141.328 207.841 141.01 207.122 140.401 206.243C139.19 204.493 137.082 202.473 134.326 200.694C131.57 198.916 128.86 197.827 126.767 197.444C125.715 197.252 124.929 197.258 124.414 197.364C124.165 197.414 124.018 197.481 123.943 197.525C123.907 197.547 123.888 197.563 123.88 197.571C123.873 197.578 123.87 197.582 123.87 197.583C123.869 197.583 123.867 197.587 123.864 197.597ZM120.203 195.217C121.01 193.966 122.291 193.344 123.541 193.089C124.781 192.836 126.165 192.898 127.551 193.152C130.333 193.66 133.575 195.017 136.692 197.028C139.808 199.039 142.38 201.434 143.99 203.76C144.792 204.919 145.419 206.153 145.699 207.388C145.982 208.632 145.943 210.055 145.136 211.306C144.328 212.556 143.048 213.178 141.798 213.433C140.557 213.686 139.174 213.624 137.788 213.37C135.006 212.862 131.764 211.505 128.647 209.494C125.531 207.483 122.959 205.088 121.349 202.762C120.547 201.603 119.92 200.369 119.64 199.134C119.357 197.89 119.396 196.467 120.203 195.217Z" fill="url(#paint5_linear_111_2000)"/>
<path d="M138.944 113.018L162.601 154.232C171.188 169.192 168.745 188.042 156.629 200.32L151.448 205.57C144.677 212.432 133.626 212.505 126.764 205.734C119.903 198.963 119.83 187.912 126.601 181.05L131.782 175.8C132.883 174.684 133.105 172.97 132.325 171.61L118.731 147.927H117.13L108.262 168.217C107.962 168.903 107.89 169.667 108.058 170.397L115.235 201.618C117.395 211.013 111.529 220.38 102.135 222.54C92.7401 224.699 83.3738 218.834 81.2139 209.439L74.036 178.218C72.1906 170.191 72.976 161.782 76.275 154.235L94.2903 113.018H138.944Z" fill="url(#paint6_radial_111_2000)"/>
<path d="M84.329 85.5273H153.274L157.632 120.036C157.92 122.322 157.813 124.641 157.313 126.891C148.075 168.522 88.8514 168.865 79.1174 127.347C78.5205 124.801 78.4273 122.163 78.8432 119.581L84.329 85.5273Z" fill="url(#paint7_linear_111_2000)"/>
<path d="M80.0534 108.699C90.1373 103.931 88.6967 94.6265 87.1575 90.5304L90.7038 91.0857C90.7038 91.0857 93.9501 97.8022 90.1942 104.714C87.9069 108.924 84.1699 111.477 81.5972 112.83C80.3947 113.463 79.1748 112.387 79.4897 111.066L80.0534 108.699Z" fill="url(#paint8_linear_111_2000)"/>
<path d="M157.441 108.699C147.357 103.931 148.798 94.6265 150.337 90.5304L146.791 91.0857C146.791 91.0857 143.544 97.8022 147.3 104.714C149.588 108.924 153.324 111.477 155.897 112.83C157.1 113.463 158.32 112.387 158.005 111.066L157.441 108.699Z" fill="url(#paint9_linear_111_2000)"/>
<path d="M223.909 71.3294C219.442 66.2722 211.721 65.794 206.663 70.2615C199.756 76.3632 197.727 78.0169 187.267 84.6564C183.784 86.8673 176.976 88.9248 163.922 85.299L163.617 85.218C157.211 83.6124 150.657 87.4012 148.879 93.8013C147.073 100.303 150.88 107.038 157.382 108.844L158.201 109.067C175.365 113.667 189.54 112.157 200.363 105.287C211.864 97.9871 214.929 95.5643 222.841 88.5751C227.898 84.1076 228.376 76.3866 223.909 71.3294Z" fill="url(#paint10_radial_111_2000)"/>
<path d="M207.203 69.8665C205.32 72.0614 208.093 77.5298 213.397 82.0806C218.702 86.6314 224.528 88.5412 226.411 86.3463C228.294 84.1514 225.521 78.683 220.217 74.1322C214.912 69.5815 209.086 67.6716 207.203 69.8665Z" fill="url(#paint11_linear_111_2000)"/>
<path d="M208.871 71.2772C208.88 71.2707 208.901 71.257 208.939 71.2405C209.02 71.2063 209.174 71.1606 209.427 71.144C209.952 71.1097 210.731 71.2101 211.747 71.5432C213.77 72.2061 216.307 73.6525 218.796 75.7881C221.285 77.9238 223.101 80.2116 224.063 82.1094C224.547 83.0631 224.765 83.8182 224.81 84.3418C224.833 84.5949 224.811 84.7542 224.789 84.839C224.779 84.8796 224.768 84.9023 224.763 84.9123C224.759 84.9218 224.756 84.9249 224.755 84.9256C224.755 84.9264 224.752 84.9294 224.743 84.9356C224.734 84.9422 224.713 84.9558 224.675 84.9723C224.594 85.0066 224.44 85.0523 224.187 85.0688C223.662 85.1031 222.883 85.0027 221.867 84.6696C219.845 84.0068 217.307 82.5604 214.818 80.4247C212.329 78.289 210.513 76.0013 209.551 74.1034C209.067 73.1497 208.849 72.3947 208.804 71.871C208.781 71.6179 208.803 71.4586 208.825 71.3738C208.835 71.3332 208.846 71.3105 208.851 71.3005C208.855 71.291 208.858 71.2879 208.859 71.2872C208.859 71.2865 208.862 71.2834 208.871 71.2772ZM205.547 68.4458C204.578 69.5756 204.346 70.9798 204.457 72.2511C204.568 73.5123 205.022 74.8204 205.659 76.077C206.938 78.5997 209.162 81.3215 211.977 83.7365C214.792 86.1515 217.82 87.9354 220.508 88.8164C221.847 89.2553 223.208 89.505 224.472 89.4224C225.745 89.339 227.098 88.8968 228.067 87.767C229.036 86.6372 229.268 85.233 229.157 83.9617C229.046 82.7005 228.592 81.3924 227.955 80.1358C226.676 77.6131 224.452 74.8913 221.637 72.4763C218.822 70.0613 215.794 68.2775 213.106 67.3964C211.767 66.9576 210.406 66.7078 209.142 66.7905C207.869 66.8738 206.516 67.3161 205.547 68.4458Z" fill="url(#paint12_linear_111_2000)"/>
<path d="M230.675 77.3556C234.441 72.9658 233.936 66.3542 229.546 62.588C225.156 58.8218 218.545 59.3274 214.778 63.7171L211.748 67.2497C209.028 70.4201 209.393 75.1952 212.563 77.9152L216.979 81.7037C220.149 84.4237 224.924 84.0586 227.644 80.8882L230.675 77.3556Z" fill="url(#paint13_linear_111_2000)"/>
<path d="M166.734 48.8728C166.734 75.8645 144.852 97.7455 117.861 97.7455C90.8691 97.7455 68.988 75.8645 68.988 48.8728C68.988 21.8811 90.8691 0 117.861 0C144.852 0 166.734 21.8811 166.734 48.8728Z" fill="url(#paint14_radial_111_2000)"/>
<path d="M13.5853 71.3294C18.0528 66.2722 25.7739 65.794 30.8311 70.2615C37.7382 76.3632 39.7675 78.0169 50.2271 84.6564C53.7102 86.8673 60.5185 88.9248 73.5726 85.299L73.8777 85.218C80.2838 83.6124 86.8376 87.4012 88.6152 93.8013C90.4211 100.303 86.6139 107.038 80.1121 108.844L79.2931 109.067C62.1292 113.667 47.954 112.157 37.1311 105.287C25.6304 97.9871 22.565 95.5643 14.6532 88.5751C9.59604 84.1076 9.1179 76.3866 13.5853 71.3294Z" fill="url(#paint15_radial_111_2000)"/>
<path d="M118.066 10.4727C133.653 10.4728 147.228 17.7183 154.307 28.4271C155.781 30.6567 155.326 33.5292 154.299 35.9966C153.188 38.6652 152.538 41.898 152.538 45.3818C152.538 48.8656 153.188 52.0981 154.299 54.7665C155.327 57.2337 155.781 60.1059 154.308 62.3354C147.229 73.0448 133.653 80.2909 118.066 80.291C101.977 80.291 88.0313 72.5713 81.1609 61.2916C79.8905 59.2059 80.2468 56.6098 81.1321 54.3338C82.1366 51.7517 82.7193 48.6792 82.7193 45.3818C82.7193 42.0843 82.1367 39.0116 81.1323 36.4293C80.2469 34.1531 79.8906 31.5568 81.1611 29.471C88.0318 18.1918 101.977 10.4727 118.066 10.4727Z" fill="url(#paint16_radial_111_2000)"/>
<path d="M118.065 10.4727C133.652 10.4727 147.228 17.7187 154.307 28.4276C155.781 30.6571 155.326 33.5293 154.299 35.9966C153.188 38.6652 152.537 41.898 152.537 45.3818C152.537 48.8654 153.188 52.0978 154.299 54.7662C154.843 56.0734 155.226 57.4946 155.247 58.8733C148.198 63.5419 139.307 66.3273 129.643 66.3273C106.748 66.3273 88.188 50.698 88.188 31.4182C88.188 27.0564 89.1401 22.8824 90.8753 19.033C98.1532 13.7013 107.661 10.4728 118.065 10.4727Z" fill="url(#paint17_radial_111_2000)"/>
<path d="M156.844 36.3271C157.852 32.4105 161.383 29.6727 165.427 29.6727Lnan nanL165.427 29.6727C171.45 29.6727 176.334 34.5559 176.334 40.5796V50.1841C176.334 56.2078 171.45 61.0909 165.427 61.0909Lnan nanL165.427 61.0909C161.383 61.0909 157.852 58.3531 156.844 54.4366L156.305 52.3384C155.131 47.7749 155.131 42.9887 156.305 38.4253L156.844 36.3271Z" fill="url(#paint18_linear_111_2000)"/>
<path d="M78.8773 36.3271C77.8699 32.4105 74.3389 29.6727 70.2948 29.6727Lnan nanL70.2948 29.6727C64.2711 29.6727 59.388 34.5559 59.388 40.5796V50.1841C59.388 56.2078 64.2711 61.0909 70.2948 61.0909Lnan nanL70.2948 61.0909C74.3389 61.0909 77.8699 58.3531 78.8773 54.4366L79.417 52.3384C80.5907 47.7749 80.5907 42.9887 79.417 38.4253L78.8773 36.3271Z" fill="url(#paint19_linear_111_2000)"/>
<path d="M117.861 87.4417C134.699 87.4417 148.791 81.8047 155.525 78.736C157.71 77.7404 159.283 79.011 158.785 81.3598C157.823 85.899 155.887 90.1711 151.814 92.3932C145.073 96.0706 132.817 100.364 117.861 100.364C102.904 100.364 90.6488 96.0706 83.9076 92.3932C79.8342 90.1711 77.8985 85.899 76.9364 81.3598C76.4385 79.011 78.0121 77.7404 80.1969 78.736C86.9309 81.8047 101.022 87.4417 117.861 87.4417Z" fill="url(#paint20_linear_111_2000)"/>
<path d="M103.859 115.011C104.383 111.605 107.314 109.091 110.76 109.091H127.58C131.026 109.091 133.957 111.605 134.481 115.011L135.823 123.738C136.474 127.968 133.202 131.782 128.923 131.782H109.417C105.138 131.782 101.866 127.968 102.516 123.738L103.859 115.011Z" fill="url(#paint21_radial_111_2000)"/>
<path d="M117.861 75.0547C137.58 75.0547 154.071 68.5333 161.891 65.0193C164.391 63.8961 166.189 65.3648 165.612 68.0438C164.486 73.2734 162.225 78.1829 157.514 80.7177C149.658 84.9448 135.34 89.8911 117.861 89.8911C100.381 89.8911 86.0638 84.9448 78.2078 80.7177C73.4969 78.1829 71.236 73.2734 70.1096 68.0438C69.5326 65.3648 71.3307 63.8961 73.8304 65.0193C81.6511 68.5333 98.1413 75.0547 117.861 75.0547Z" fill="url(#paint22_linear_111_2000)"/>
<path d="M149.576 133.048C152.4 132.019 155.056 130.79 157.371 129.336C159.386 128.07 160.246 125.657 159.91 123.301L159.491 120.364C159.213 118.414 156.921 117.409 155.154 118.28C153.111 119.287 150.822 120.152 148.406 120.89C140.306 123.366 129.505 124.8 117.861 124.8C106.216 124.8 95.4157 123.366 87.3153 120.89C84.8995 120.152 82.6112 119.287 80.5678 118.28C78.8008 117.409 76.509 118.415 76.2312 120.365L75.8129 123.302C75.4773 125.657 76.3374 128.069 78.3519 129.335C80.6667 130.79 83.3232 132.019 86.1477 133.048C94.558 136.115 105.772 137.891 117.862 137.891C129.952 137.891 141.165 136.115 149.576 133.048Z" fill="url(#paint23_linear_111_2000)"/>
<path d="M153.421 137.971C146.788 148.012 131.375 156.138 123.298 158.159C122.698 158.309 122.299 158.883 122.393 159.494C122.781 162.02 125.159 163.766 127.611 163.047C139.859 159.459 151.764 149.737 156.672 143.862C158.252 141.971 157.765 139.395 156.022 137.653C155.271 136.902 154.006 137.085 153.421 137.971Z" fill="url(#paint24_linear_111_2000)"/>
<path d="M83.1737 137.971C89.8066 148.012 105.22 156.138 113.297 158.159C113.897 158.309 114.296 158.883 114.202 159.494C113.813 162.02 111.436 163.766 108.983 163.047C96.7356 159.459 84.8303 149.737 79.9221 143.862C78.342 141.971 78.8292 139.395 80.5719 137.653C81.323 136.902 82.5882 137.085 83.1737 137.971Z" fill="url(#paint25_linear_111_2000)"/>
<path d="M30.2917 69.8665C32.1747 72.0614 29.4013 77.5298 24.097 82.0806C18.7927 86.6314 12.9662 88.5412 11.0831 86.3463C9.20006 84.1514 11.9735 78.683 17.2778 74.1322C22.5821 69.5815 28.4086 67.6716 30.2917 69.8665Z" fill="url(#paint26_linear_111_2000)"/>
<path d="M28.6238 71.2772C28.6146 71.2707 28.5938 71.257 28.5553 71.2405C28.4748 71.2063 28.3206 71.1606 28.0671 71.144C27.5425 71.1097 26.7631 71.2101 25.747 71.5432C23.7249 72.2061 21.1878 73.6525 18.6984 75.7881C16.2091 77.9238 14.3938 80.2116 13.4312 82.1094C12.9476 83.0631 12.7298 83.8182 12.6839 84.3418C12.6618 84.5949 12.6835 84.7542 12.7052 84.839C12.7155 84.8796 12.7259 84.9023 12.731 84.9123C12.7358 84.9218 12.7384 84.9249 12.739 84.9256C12.7397 84.9264 12.7423 84.9294 12.751 84.9356C12.7601 84.9422 12.7809 84.9558 12.8195 84.9723C12.9 85.0066 13.0542 85.0523 13.3077 85.0688C13.8322 85.1031 14.6116 85.0027 15.6277 84.6696C17.6499 84.0068 20.187 82.5604 22.6763 80.4247C25.1656 78.289 26.9809 76.0013 27.9435 74.1034C28.4272 73.1497 28.645 72.3947 28.6908 71.871C28.713 71.6179 28.6912 71.4586 28.6696 71.3738C28.6592 71.3332 28.6489 71.3105 28.6438 71.3005C28.639 71.291 28.6364 71.2879 28.6357 71.2872C28.6351 71.2865 28.6324 71.2834 28.6238 71.2772ZM31.9475 68.4458C32.9168 69.5756 33.1483 70.9798 33.0371 72.2511C32.9267 73.5123 32.4728 74.8204 31.8355 76.077C30.5561 78.5997 28.3325 81.3215 25.5177 83.7365C22.7028 86.1515 19.6746 87.9354 16.9867 88.8164C15.6479 89.2553 14.2859 89.505 13.0226 89.4224C11.7492 89.339 10.3965 88.8968 9.42721 87.767C8.45794 86.6372 8.22646 85.233 8.33769 83.9617C8.44804 82.7005 8.90197 81.3924 9.53925 80.1358C10.8187 77.6131 13.0422 74.8913 15.8571 72.4763C18.672 70.0613 21.7002 68.2775 24.3881 67.3964C25.7269 66.9576 27.0889 66.7078 28.3522 66.7905C29.6256 66.8738 30.9783 67.3161 31.9475 68.4458Z" fill="url(#paint27_linear_111_2000)"/>
<path d="M6.81923 77.3556C3.05307 72.9658 3.5586 66.3542 7.94835 62.588C12.3381 58.8218 18.9498 59.3274 22.7159 63.7171L25.7467 67.2497C28.4667 70.4201 28.1016 75.1952 24.9312 77.9152L20.5155 81.7037C17.3451 84.4237 12.57 84.0586 9.85 80.8882L6.81923 77.3556Z" fill="url(#paint28_linear_111_2000)"/>
<path d="M116.988 117.818C116.988 120.228 115.034 122.182 112.624 122.182C110.214 122.182 108.261 120.228 108.261 117.818C108.261 115.408 110.214 113.455 112.624 113.455C115.034 113.455 116.988 115.408 116.988 117.818Z" fill="url(#paint29_radial_111_2000)"/>
<path d="M123.97 117.818C123.97 119.264 122.798 120.436 121.352 120.436C119.906 120.436 118.734 119.264 118.734 117.818C118.734 116.372 119.906 115.2 121.352 115.2C122.798 115.2 123.97 116.372 123.97 117.818Z" fill="url(#paint30_radial_111_2000)"/>
<path d="M130.952 117.818C130.952 119.264 129.779 120.436 128.334 120.436C126.888 120.436 125.715 119.264 125.715 117.818C125.715 116.372 126.888 115.2 128.334 115.2C129.779 115.2 130.952 116.372 130.952 117.818Z" fill="url(#paint31_radial_111_2000)"/>
<path d="M135.202 21.9674L133.203 21.4161C131.069 20.8273 129.113 22.8013 129.721 24.93L130.993 29.3809C131.53 31.262 132.706 32.8971 134.318 34.0055L138.595 36.9456C141.866 39.1943 146.355 37.165 146.828 33.224C147 31.792 146.578 30.352 145.662 29.2386L144.804 28.1971C142.321 25.1818 138.967 23.0062 135.202 21.9674Z" fill="white" fill-opacity="0.5"/>
<defs>
<linearGradient id="paint0_linear_111_2000" x1="106.538" y1="237.289" x2="100.665" y2="215.372" gradientUnits="userSpaceOnUse">
<stop stop-color="#A6F9E1"/>
<stop offset="1" stop-color="#4ED0AA"/>
</linearGradient>
<linearGradient id="paint1_linear_111_2000" x1="121.423" y1="219.889" x2="133.726" y2="200.824" gradientUnits="userSpaceOnUse">
<stop stop-color="#A6F9E1"/>
<stop offset="1" stop-color="#4ED0AA"/>
</linearGradient>
<linearGradient id="paint2_linear_111_2000" x1="103.121" y1="222.846" x2="100.411" y2="212.73" gradientUnits="userSpaceOnUse">
<stop stop-color="#3618A3"/>
<stop offset="1" stop-color="#5E35F1"/>
</linearGradient>
<linearGradient id="paint3_linear_111_2000" x1="103.122" y1="222.846" x2="100.411" y2="212.73" gradientUnits="userSpaceOnUse">
<stop stop-color="#A187FF"/>
<stop offset="1" stop-color="#4823CF"/>
</linearGradient>
<linearGradient id="paint4_linear_111_2000" x1="129.83" y1="207.661" x2="135.509" y2="198.861" gradientUnits="userSpaceOnUse">
<stop stop-color="#3618A3"/>
<stop offset="1" stop-color="#5E35F1"/>
</linearGradient>
<linearGradient id="paint5_linear_111_2000" x1="129.83" y1="207.661" x2="135.509" y2="198.861" gradientUnits="userSpaceOnUse">
<stop stop-color="#A187FF"/>
<stop offset="1" stop-color="#4823CF"/>
</linearGradient>
<radialGradient id="paint6_radial_111_2000" cx="0" cy="0" r="1" gradientUnits="userSpaceOnUse" gradientTransform="translate(122.224 146.618) rotate(73.9577) scale(71.3201 86.015)">
<stop offset="0.197115" stop-color="#87EFD0"/>
<stop offset="1" stop-color="#7B56FF"/>
</radialGradient>
<linearGradient id="paint7_linear_111_2000" x1="113.497" y1="61.091" x2="104.77" y2="168" gradientUnits="userSpaceOnUse">
<stop offset="0.139111" stop-color="#5E35F1"/>
<stop offset="0.581145" stop-color="#EFEAFF"/>
<stop offset="0.895219" stop-color="#4ED0AA"/>
</linearGradient>
<linearGradient id="paint8_linear_111_2000" x1="84.067" y1="90.8101" x2="86.1126" y2="113.409" gradientUnits="userSpaceOnUse">
<stop stop-color="#4823CF"/>
<stop offset="1" stop-color="#A187FF"/>
</linearGradient>
<linearGradient id="paint9_linear_111_2000" x1="153.427" y1="90.8101" x2="151.382" y2="113.409" gradientUnits="userSpaceOnUse">
<stop stop-color="#4823CF"/>
<stop offset="1" stop-color="#A187FF"/>
</linearGradient>
<radialGradient id="paint10_radial_111_2000" cx="0" cy="0" r="1" gradientUnits="userSpaceOnUse" gradientTransform="translate(184.215 71.1274) rotate(75.9638) scale(43.1802 59.788)">
<stop stop-color="#4ED0AA"/>
<stop offset="1" stop-color="#5E35F1"/>
</radialGradient>
<linearGradient id="paint11_linear_111_2000" x1="220.217" y1="74.1322" x2="213.397" y2="82.0806" gradientUnits="userSpaceOnUse">
<stop stop-color="#3618A3"/>
<stop offset="1" stop-color="#5E35F1"/>
</linearGradient>
<linearGradient id="paint12_linear_111_2000" x1="220.217" y1="74.1322" x2="213.397" y2="82.0806" gradientUnits="userSpaceOnUse">
<stop stop-color="#A187FF"/>
<stop offset="1" stop-color="#4823CF"/>
</linearGradient>
<linearGradient id="paint13_linear_111_2000" x1="229.546" y1="62.588" x2="214.771" y2="79.8094" gradientUnits="userSpaceOnUse">
<stop stop-color="#A6F9E1"/>
<stop offset="1" stop-color="#4ED0AA"/>
</linearGradient>
<radialGradient id="paint14_radial_111_2000" cx="0" cy="0" r="1" gradientUnits="userSpaceOnUse" gradientTransform="translate(145.788 14.4) rotate(108.525) scale(87.9)">
<stop stop-color="#A187FF"/>
<stop offset="1" stop-color="#A6F9E1"/>
</radialGradient>
<radialGradient id="paint15_radial_111_2000" cx="0" cy="0" r="1" gradientUnits="userSpaceOnUse" gradientTransform="translate(53.2789 71.1274) rotate(104.036) scale(43.1802 59.788)">
<stop stop-color="#4ED0AA"/>
<stop offset="1" stop-color="#5E35F1"/>
</radialGradient>
<radialGradient id="paint16_radial_111_2000" cx="0" cy="0" r="1" gradientTransform="matrix(-44.0811 33.8067 -40.1531 -37.1139 136.694 25.9062)" gradientUnits="userSpaceOnUse">
<stop stop-color="#4823CF"/>
<stop offset="1" stop-color="#261172"/>
</radialGradient>
<radialGradient id="paint17_radial_111_2000" cx="0" cy="0" r="1" gradientTransform="matrix(-44.0728 33.8067 -40.1455 -37.1139 151.024 11.9426)" gradientUnits="userSpaceOnUse">
<stop stop-color="#7B56FF"/>
<stop offset="1" stop-color="#3618A3"/>
</radialGradient>
<linearGradient id="paint18_linear_111_2000" x1="176.334" y1="45.3818" x2="154.515" y2="45.3818" gradientUnits="userSpaceOnUse">
<stop stop-color="#7B56FF"/>
<stop offset="1" stop-color="#3618A3"/>
</linearGradient>
<linearGradient id="paint19_linear_111_2000" x1="59.388" y1="45.3818" x2="81.2062" y2="45.3818" gradientUnits="userSpaceOnUse">
<stop stop-color="#7B56FF"/>
<stop offset="1" stop-color="#3618A3"/>
</linearGradient>
<linearGradient id="paint20_linear_111_2000" x1="117.861" y1="76.8001" x2="117.861" y2="98.0834" gradientUnits="userSpaceOnUse">
<stop stop-color="#A187FF"/>
<stop offset="1" stop-color="#4823CF"/>
</linearGradient>
<radialGradient id="paint21_radial_111_2000" cx="0" cy="0" r="1" gradientUnits="userSpaceOnUse" gradientTransform="translate(131.388 109.091) rotate(139.086) scale(34.6463 54.6346)">
<stop stop-color="#EFEAFF"/>
<stop offset="1" stop-color="#4ED0AA"/>
</radialGradient>
<linearGradient id="paint22_linear_111_2000" x1="117.861" y1="62.8365" x2="117.861" y2="87.2729" gradientUnits="userSpaceOnUse">
<stop stop-color="#A187FF"/>
<stop offset="1" stop-color="#4823CF"/>
</linearGradient>
<linearGradient id="paint23_linear_111_2000" x1="117.862" y1="137.891" x2="117.862" y2="116.073" gradientUnits="userSpaceOnUse">
<stop stop-color="#5E35F1"/>
<stop offset="1" stop-color="#A187FF"/>
</linearGradient>
<linearGradient id="paint24_linear_111_2000" x1="158.879" y1="150.109" x2="122.224" y2="150.109" gradientUnits="userSpaceOnUse">
<stop stop-color="#A187FF"/>
<stop offset="1" stop-color="#5E35F1"/>
</linearGradient>
<linearGradient id="paint25_linear_111_2000" x1="77.7153" y1="150.109" x2="114.37" y2="150.109" gradientUnits="userSpaceOnUse">
<stop stop-color="#A187FF"/>
<stop offset="1" stop-color="#5E35F1"/>
</linearGradient>
<linearGradient id="paint26_linear_111_2000" x1="17.2778" y1="74.1322" x2="24.097" y2="82.0806" gradientUnits="userSpaceOnUse">
<stop stop-color="#3618A3"/>
<stop offset="1" stop-color="#5E35F1"/>
</linearGradient>
<linearGradient id="paint27_linear_111_2000" x1="17.2778" y1="74.1322" x2="24.097" y2="82.0806" gradientUnits="userSpaceOnUse">
<stop stop-color="#A187FF"/>
<stop offset="1" stop-color="#4823CF"/>
</linearGradient>
<linearGradient id="paint28_linear_111_2000" x1="7.94835" y1="62.588" x2="22.7233" y2="79.8094" gradientUnits="userSpaceOnUse">
<stop stop-color="#A6F9E1"/>
<stop offset="1" stop-color="#4ED0AA"/>
</linearGradient>
<radialGradient id="paint29_radial_111_2000" cx="0" cy="0" r="1" gradientUnits="userSpaceOnUse" gradientTransform="translate(112.624 117.818) rotate(90) scale(4.36364)">
<stop stop-color="#7B56FF"/>
<stop offset="1" stop-color="#A187FF"/>
</radialGradient>
<radialGradient id="paint30_radial_111_2000" cx="0" cy="0" r="1" gradientUnits="userSpaceOnUse" gradientTransform="translate(121.352 117.818) rotate(90) scale(2.61818)">
<stop stop-color="#7B56FF"/>
<stop offset="1" stop-color="#A187FF"/>
</radialGradient>
<radialGradient id="paint31_radial_111_2000" cx="0" cy="0" r="1" gradientUnits="userSpaceOnUse" gradientTransform="translate(128.334 117.818) rotate(90) scale(2.61818)">
<stop stop-color="#7B56FF"/>
<stop offset="1" stop-color="#A187FF"/>
</radialGradient>
</defs>
</svg>
