<svg width="100" height="80" viewBox="0 0 100 80" fill="none" xmlns="http://www.w3.org/2000/svg">
<mask id="mask0_925_4366" style="mask-type:alpha" maskUnits="userSpaceOnUse" x="0" y="0" width="100" height="80">
<rect width="100" height="80" fill="#D9D9D9"/>
</mask>
<g mask="url(#mask0_925_4366)">
<path d="M61.4185 63.7529L73.0886 84.084C77.3248 91.4641 76.1197 100.763 70.1426 106.82L67.5868 109.41C64.2465 112.795 58.7949 112.831 55.4101 109.491C52.0253 106.15 51.9891 100.699 55.3294 97.3139L57.8852 94.724C58.4285 94.1735 58.538 93.3281 58.153 92.6572L51.447 80.974H50.6575L46.2824 90.983C46.1345 91.3214 46.0991 91.6985 46.1819 92.0585L49.7224 107.46C50.7878 112.095 47.8944 116.716 43.2599 117.781C38.6254 118.847 34.0049 115.953 32.9394 111.319L29.3985 95.9168C28.4881 91.9568 28.8755 87.8089 30.5029 84.0857L39.3901 63.7529H61.4185Z" fill="url(#paint0_radial_925_4366)"/>
<path d="M34.4766 50.1914H68.4883L70.6378 67.2147C70.7802 68.3427 70.7271 69.4868 70.4808 70.5967C65.9234 91.1339 36.7076 91.3031 31.9057 70.8217C31.6112 69.5657 31.5652 68.2641 31.7704 66.9904L34.4766 50.1914Z" fill="url(#paint1_linear_925_4366)"/>
<path d="M69.9497 60.9553C64.7833 59.061 65.0773 54.4256 65.6514 52.3447L63.9338 52.7753C63.9338 52.7753 62.6376 56.2195 64.7903 59.4484C66.1012 61.4148 68.0507 62.503 69.3749 63.0534C69.9938 63.3106 70.5454 62.7281 70.3319 62.0928L69.9497 60.9553Z" fill="url(#paint2_linear_925_4366)"/>
<path d="M32.3663 61.6224C37.3408 59.2701 36.6301 54.6801 35.8709 52.6594L37.6203 52.9334C37.6203 52.9334 39.2217 56.2467 37.3689 59.6566C36.2405 61.7331 34.397 62.9927 33.1279 63.6602C32.5347 63.9722 31.9329 63.4418 32.0882 62.7898L32.3663 61.6224Z" fill="url(#paint3_linear_925_4366)"/>
<path d="M75.1273 32.1096C75.1273 45.4249 64.3331 56.2191 51.0178 56.2191C37.7024 56.2191 26.9082 45.4249 26.9082 32.1096C26.9082 18.7942 37.7024 8 51.0178 8C64.3331 8 75.1273 18.7942 75.1273 32.1096Z" fill="url(#paint4_radial_925_4366)"/>
<path d="M7.67227 34.2642C11.0003 34.3378 13.6387 37.0952 13.5651 40.4232C13.4879 43.9116 14.8071 47.9556 17.6535 49.7624C19.3717 50.853 22.7303 51.868 29.1701 50.0794C32.3775 49.1885 35.6999 51.0663 36.5908 54.2737C37.4817 57.481 35.6039 60.8035 32.3965 61.6944C23.7475 64.0966 16.6168 63.3828 11.193 59.9399C3.20613 54.87 1.3932 45.5835 1.51329 40.1566C1.58694 36.8287 4.34434 34.1907 7.67227 34.2642Z" fill="url(#paint5_radial_925_4366)"/>
<path d="M79.4372 85.6803C76.6584 83.8476 75.8911 80.1092 77.7238 77.3303C79.6449 74.4175 80.6791 70.2915 79.2301 67.2474C78.3554 65.4098 76.0514 62.7637 69.6469 60.8524C66.4571 59.9005 64.6427 56.5431 65.5946 53.3533C66.5464 50.1635 69.9039 48.3491 73.0937 49.3009C81.6953 51.8678 87.3536 56.2656 90.1147 62.0662C94.1807 70.608 90.7757 79.4358 87.787 83.9673C85.9543 86.7461 82.2161 87.513 79.4372 85.6803Z" fill="url(#paint6_radial_925_4366)"/>
<path d="M51.1186 13.166C58.808 13.166 65.5052 16.7403 68.9975 22.0231C69.7246 23.123 69.5002 24.5401 68.9933 25.7573C68.4451 27.0737 68.1241 28.6685 68.1241 30.3871C68.1241 32.1057 68.4452 33.7004 68.9934 35.0167C69.5003 36.2338 69.7247 37.6507 68.9977 38.7506C65.5055 44.0337 58.8082 47.6082 51.1186 47.6082C43.1818 47.6082 36.3023 43.8001 32.913 38.2356C32.2863 37.2067 32.4621 35.926 32.8989 34.8033C33.3944 33.5295 33.6818 32.0138 33.6818 30.3871C33.6818 28.7604 33.3944 27.2446 32.899 25.9707C32.4622 24.8479 32.2864 23.567 32.9132 22.5381C36.3025 16.9739 43.182 13.1661 51.1186 13.166Z" fill="url(#paint7_radial_925_4366)"/>
<path d="M51.1192 13.166C58.8084 13.1661 65.5052 16.7406 68.9974 22.0234C69.7244 23.1232 69.5004 24.5401 68.9936 25.7573C68.4455 27.0737 68.1246 28.6685 68.1246 30.3871C68.1246 32.1057 68.4455 33.7002 68.9936 35.0166C69.2621 35.6614 69.4511 36.3625 69.4616 37.0427C65.9839 39.3459 61.5975 40.7198 56.83 40.7198C45.5357 40.7198 36.3799 33.0096 36.3799 23.4987C36.3799 21.347 36.8495 19.2879 37.7055 17.3889C41.2959 14.7586 45.9865 13.166 51.1192 13.166Z" fill="url(#paint8_radial_925_4366)"/>
<path d="M70.2493 25.9204C70.7462 23.9883 72.4882 22.6377 74.4832 22.6377Lnan nanL74.4832 22.6377C77.4547 22.6377 79.8636 25.0466 79.8636 28.0182V32.7562C79.8636 35.7278 77.4547 38.1367 74.4832 38.1367Lnan nanL74.4832 38.1367C72.4882 38.1367 70.7462 36.7861 70.2493 34.854L69.9831 33.8189C69.4041 31.5677 69.4041 29.2066 69.9831 26.9555L70.2493 25.9204Z" fill="url(#paint9_linear_925_4366)"/>
<path d="M31.7868 25.9204C31.2899 23.9883 29.548 22.6377 27.553 22.6377Lnan nanL27.553 22.6377C24.5814 22.6377 22.1725 25.0466 22.1725 28.0182V32.7562C22.1725 35.7278 24.5814 38.1367 27.553 38.1367Lnan nanL27.553 38.1367C29.548 38.1367 31.2899 36.7861 31.7868 34.854L32.053 33.8189C32.6321 31.5677 32.6321 29.2066 32.053 26.9555L31.7868 25.9204Z" fill="url(#paint10_linear_925_4366)"/>
<path d="M51.0174 51.1361C59.324 51.1361 66.2755 48.3553 69.5975 46.8415C70.6753 46.3504 71.4515 46.9772 71.2059 48.1358C70.7313 50.3751 69.7764 52.4826 67.7669 53.5787C64.4414 55.3929 58.3956 57.5107 51.0174 57.5107C43.6391 57.5107 37.5933 55.3929 34.2678 53.5787C32.2583 52.4826 31.3035 50.3751 30.8288 48.1358C30.5832 46.9772 31.3595 46.3504 32.4372 46.8415C35.7592 48.3553 42.7107 51.1361 51.0174 51.1361Z" fill="url(#paint11_linear_925_4366)"/>
<path d="M44.1104 64.7369C44.3689 63.0567 45.8146 61.8164 47.5145 61.8164H55.8122C57.5122 61.8164 58.9579 63.0567 59.2164 64.7369L59.8788 69.0422C60.1997 71.1286 58.5855 73.0101 56.4746 73.0101H46.8522C44.7413 73.0101 43.127 71.1286 43.448 69.0422L44.1104 64.7369Z" fill="url(#paint12_radial_925_4366)"/>
<path d="M51.0179 45.025C60.7458 45.025 68.8806 41.8079 72.7387 40.0744C73.9718 39.5203 74.8589 40.2449 74.5742 41.5665C74.0186 44.1463 72.9032 46.5682 70.5793 47.8186C66.7038 49.9039 59.6409 52.344 51.0179 52.344C42.395 52.344 35.332 49.9039 31.4566 47.8186C29.1326 46.5682 28.0173 44.1463 27.4617 41.5665C27.177 40.2449 28.064 39.5203 29.2972 40.0744C33.1552 41.8079 41.29 45.025 51.0179 45.025Z" fill="url(#paint13_linear_925_4366)"/>
<path d="M66.6632 73.6348C68.0565 73.1268 69.3669 72.5208 70.5087 71.8032C71.5027 71.1786 71.9269 69.9883 71.7612 68.8262L71.5546 67.3773C71.4174 66.4154 70.287 65.9197 69.4154 66.3492C68.4072 66.846 67.2783 67.2727 66.0864 67.637C62.0904 68.8582 56.7624 69.5658 51.0179 69.5658C45.2734 69.5658 39.9455 68.8582 35.9494 67.637C34.7577 67.2728 33.6288 66.8461 32.6208 66.3494C31.7491 65.9198 30.6185 66.4157 30.4815 67.3777L30.2751 68.8265C30.1096 69.9885 30.5339 71.1785 31.5277 71.8031C32.6696 72.5207 33.9801 73.1268 35.3734 73.6348C39.5223 75.1474 45.0541 76.0237 51.0183 76.0237C56.9825 76.0237 62.5143 75.1474 66.6632 73.6348Z" fill="url(#paint14_linear_925_4366)"/>
<path d="M68.5593 76.0633C65.2872 81.0168 57.6838 85.0255 53.6993 86.0223C53.4032 86.0964 53.2065 86.3793 53.2529 86.6809C53.4446 87.9269 54.6174 88.7881 55.8272 88.4337C61.8691 86.6637 67.7421 81.8674 70.1634 78.9693C70.9429 78.0363 70.7025 76.7659 69.8428 75.9062C69.4723 75.5357 68.8482 75.6261 68.5593 76.0633Z" fill="url(#paint15_linear_925_4366)"/>
<path d="M33.9055 76.0633C37.1776 81.0168 44.7811 85.0255 48.7656 86.0223C49.0616 86.0964 49.2584 86.3793 49.212 86.6809C49.0203 87.9269 47.8475 88.7881 46.6377 88.4337C40.5958 86.6637 34.7227 81.8674 32.3015 78.9693C31.522 78.0363 31.7623 76.7659 32.622 75.9062C32.9925 75.5357 33.6167 75.6261 33.9055 76.0633Z" fill="url(#paint16_linear_925_4366)"/>
<path d="M13.5615 37.7062C13.5615 39.1329 10.7666 40.2894 7.31883 40.2894C3.8711 40.2894 1.07617 39.1329 1.07617 37.7062C1.07617 36.2796 3.8711 35.123 7.31883 35.123C10.7666 35.123 13.5615 36.2796 13.5615 37.7062Z" fill="url(#paint17_linear_925_4366)"/>
<path d="M12.484 37.6988C12.4827 37.6934 12.4793 37.6816 12.4702 37.6631C12.451 37.6244 12.408 37.5577 12.3184 37.4701C12.133 37.2888 11.809 37.076 11.3215 36.8743C10.3515 36.4729 8.937 36.1995 7.31897 36.1995C5.70095 36.1995 4.28644 36.4729 3.31641 36.8743C2.82899 37.076 2.50492 37.2888 2.31955 37.4701C2.22997 37.5577 2.18691 37.6244 2.16778 37.6631C2.15863 37.6816 2.15523 37.6934 2.1539 37.6988C2.15265 37.7039 2.15264 37.7059 2.15264 37.7064C2.15264 37.7068 2.15265 37.7088 2.1539 37.7139C2.15523 37.7193 2.15863 37.7311 2.16778 37.7497C2.18691 37.7884 2.22997 37.855 2.31955 37.9426C2.50492 38.124 2.82899 38.3367 3.31641 38.5384C4.28644 38.9398 5.70095 39.2132 7.31897 39.2132C8.937 39.2132 10.3515 38.9398 11.3215 38.5384C11.809 38.3367 12.133 38.124 12.3184 37.9426C12.408 37.855 12.451 37.7884 12.4702 37.7497C12.4793 37.7311 12.4827 37.7193 12.484 37.7139C12.4853 37.7088 12.4853 37.7068 12.4853 37.7064C12.4853 37.7059 12.4853 37.7039 12.484 37.6988ZM14.6379 37.7064C14.6379 38.4407 14.2736 39.0408 13.8236 39.481C13.3771 39.9178 12.787 40.2618 12.1448 40.5275C10.8554 41.061 9.14861 41.3658 7.31897 41.3658C5.48934 41.3658 3.78256 41.061 2.49319 40.5275C1.85098 40.2618 1.26082 39.9178 0.814387 39.481C0.364383 39.0408 0 38.4407 0 37.7064C0 36.972 0.364383 36.3719 0.814387 35.9317C1.26082 35.4949 1.85098 35.151 2.49319 34.8852C3.78256 34.3517 5.48934 34.0469 7.31897 34.0469C9.14861 34.0469 10.8554 34.3517 12.1448 34.8852C12.787 35.151 13.3771 35.4949 13.8236 35.9317C14.2736 36.3719 14.6379 36.972 14.6379 37.7064Z" fill="url(#paint18_linear_925_4366)"/>
<path d="M76.7624 77.6903C77.5951 76.5319 80.5396 77.2242 83.3391 79.2365C86.1386 81.2489 87.733 83.8193 86.9003 84.9777C86.0676 86.1361 83.1231 85.4439 80.3236 83.4315C77.5241 81.4191 75.9297 78.8487 76.7624 77.6903Z" fill="url(#paint19_linear_925_4366)"/>
<path d="M77.6333 78.3252C77.6313 78.3303 77.6271 78.3419 77.6237 78.3623C77.6167 78.4049 77.6128 78.4841 77.6343 78.6076C77.679 78.863 77.818 79.2249 78.0961 79.6732C78.6494 80.5653 79.6384 81.6129 80.9522 82.5573C82.266 83.5017 83.5742 84.1053 84.5961 84.3456C85.1096 84.4663 85.4969 84.4827 85.7533 84.4437C85.8772 84.4248 85.951 84.3958 85.9892 84.3756C86.0074 84.3659 86.0171 84.3583 86.0213 84.3547C86.0253 84.3513 86.0264 84.3496 86.0267 84.3492C86.027 84.3489 86.0282 84.3472 86.0301 84.3424C86.0322 84.3372 86.0363 84.3256 86.0397 84.3053C86.0468 84.2627 86.0507 84.1834 86.0291 84.06C85.9844 83.8045 85.8454 83.4426 85.5674 82.9944C85.014 82.1023 84.0251 81.0546 82.7112 80.1102C81.3974 79.1658 80.0893 78.5622 79.0673 78.322C78.5538 78.2012 78.1665 78.1848 77.9102 78.2239C77.7863 78.2427 77.7124 78.2717 77.6743 78.292C77.6561 78.3017 77.6464 78.3093 77.6422 78.3129C77.6382 78.3163 77.637 78.3179 77.6367 78.3183C77.6365 78.3187 77.6353 78.3203 77.6333 78.3252ZM75.8888 77.0619C76.3174 76.4656 76.9636 76.191 77.5859 76.0962C78.2033 76.0021 78.8833 76.0673 79.5599 76.2264C80.9182 76.5457 82.482 77.2944 83.9677 78.3623C85.4533 79.4302 86.6613 80.674 87.3968 81.8598C87.7632 82.4504 88.0416 83.0741 88.1492 83.6894C88.2576 84.3095 88.2032 85.0094 87.7746 85.6057C87.346 86.202 86.6999 86.4765 86.0775 86.5714C85.4601 86.6654 84.7801 86.6003 84.1036 86.4412C82.7452 86.1218 81.1814 85.3731 79.6958 84.3052C78.2101 83.2373 77.0022 81.9936 76.2666 80.8078C75.9003 80.2172 75.6218 79.5934 75.5143 78.9782C75.4058 78.3581 75.4602 77.6581 75.8888 77.0619Z" fill="url(#paint20_linear_925_4366)"/>
<path d="M2.36719 32.971C2.36719 30.1177 4.68023 27.8047 7.53352 27.8047C10.3868 27.8047 12.6999 30.1177 12.6999 32.971V35.2672C12.6999 37.3279 11.0293 38.9984 8.96862 38.9984H6.09843C4.03772 38.9984 2.36719 37.3279 2.36719 35.2672V32.971Z" fill="url(#paint21_linear_925_4366)"/>
<path d="M83.0868 88.0697C81.4214 90.3865 78.1931 90.9146 75.8763 89.2492C73.5595 87.5838 73.0314 84.3555 74.6968 82.0387L76.037 80.1743C77.2398 78.501 79.5713 78.1196 81.2445 79.3224L83.5751 80.9977C85.2484 82.2004 85.6298 84.5319 84.427 86.2052L83.0868 88.0697Z" fill="url(#paint22_linear_925_4366)"/>
<path d="M50.5875 66.1214C50.5875 67.3103 49.6237 68.274 48.4349 68.274C47.246 68.274 46.2822 67.3103 46.2822 66.1214C46.2822 64.9325 47.246 63.9688 48.4349 63.9688C49.6237 63.9688 50.5875 64.9325 50.5875 66.1214Z" fill="url(#paint23_radial_925_4366)"/>
<path d="M54.0314 66.1217C54.0314 66.835 53.4531 67.4132 52.7398 67.4132C52.0265 67.4132 51.4482 66.835 51.4482 66.1217C51.4482 65.4083 52.0265 64.8301 52.7398 64.8301C53.4531 64.8301 54.0314 65.4083 54.0314 66.1217Z" fill="url(#paint24_radial_925_4366)"/>
<path d="M57.4757 66.1217C57.4757 66.835 56.8975 67.4132 56.1842 67.4132C55.4708 67.4132 54.8926 66.835 54.8926 66.1217C54.8926 65.4083 55.4708 64.8301 56.1842 64.8301C56.8975 64.8301 57.4757 65.4083 57.4757 66.1217Z" fill="url(#paint25_radial_925_4366)"/>
<path d="M59.5726 18.8367L58.5867 18.5647C57.5339 18.2743 56.569 19.248 56.869 20.2982L57.4963 22.4939C57.7615 23.4218 58.3415 24.2285 59.1368 24.7752L61.2465 26.2256C62.86 27.3349 65.0747 26.3338 65.308 24.3897C65.3928 23.6832 65.1848 22.9729 64.7325 22.4236L64.3094 21.9099C63.0844 20.4223 61.4302 19.3491 59.5726 18.8367Z" fill="white" fill-opacity="0.5"/>
</g>
<defs>
<radialGradient id="paint0_radial_925_4366" cx="0" cy="0" r="1" gradientUnits="userSpaceOnUse" gradientTransform="translate(53.1704 80.3283) rotate(73.9577) scale(35.1831 42.4323)">
<stop offset="0.197115" stop-color="#87EFD0"/>
<stop offset="1" stop-color="#7B56FF"/>
</radialGradient>
<linearGradient id="paint1_linear_925_4366" x1="48.8656" y1="38.1366" x2="44.5604" y2="90.8763" gradientUnits="userSpaceOnUse">
<stop offset="0.139111" stop-color="#5E35F1"/>
<stop offset="0.581145" stop-color="#EFEAFF"/>
<stop offset="0.895219" stop-color="#4ED0AA"/>
</linearGradient>
<linearGradient id="paint2_linear_925_4366" x1="67.1822" y1="52.3447" x2="67.1822" y2="63.5385" gradientUnits="userSpaceOnUse">
<stop stop-color="#4823CF"/>
<stop offset="1" stop-color="#A187FF"/>
</linearGradient>
<linearGradient id="paint3_linear_925_4366" x1="34.3463" y1="52.7975" x2="35.3554" y2="63.9456" gradientUnits="userSpaceOnUse">
<stop stop-color="#4823CF"/>
<stop offset="1" stop-color="#A187FF"/>
</linearGradient>
<radialGradient id="paint4_radial_925_4366" cx="0" cy="0" r="1" gradientUnits="userSpaceOnUse" gradientTransform="translate(64.7947 15.1037) rotate(108.525) scale(43.3622)">
<stop stop-color="#A187FF"/>
<stop offset="1" stop-color="#A6F9E1"/>
</radialGradient>
<radialGradient id="paint5_radial_925_4366" cx="0" cy="0" r="1" gradientUnits="userSpaceOnUse" gradientTransform="translate(19.159 43.0883) rotate(104.036) scale(21.3013 29.4942)">
<stop stop-color="#4ED0AA"/>
<stop offset="1" stop-color="#5E35F1"/>
</radialGradient>
<radialGradient id="paint6_radial_925_4366" cx="0" cy="0" r="1" gradientUnits="userSpaceOnUse" gradientTransform="translate(74.4048 72.0978) rotate(-43.825) scale(21.3013 29.4942)">
<stop stop-color="#5E35F1"/>
<stop offset="1" stop-color="#4ED0AA"/>
</radialGradient>
<radialGradient id="paint7_radial_925_4366" cx="0" cy="0" r="1" gradientTransform="matrix(-21.746 16.6773 -19.8083 -18.3088 60.3085 20.7796)" gradientUnits="userSpaceOnUse">
<stop stop-color="#4823CF"/>
<stop offset="1" stop-color="#261172"/>
</radialGradient>
<radialGradient id="paint8_radial_925_4366" cx="0" cy="0" r="1" gradientTransform="matrix(-21.7418 16.6773 -19.8044 -18.3088 67.3781 13.8911)" gradientUnits="userSpaceOnUse">
<stop stop-color="#7B56FF"/>
<stop offset="1" stop-color="#3618A3"/>
</radialGradient>
<linearGradient id="paint9_linear_925_4366" x1="79.8636" y1="30.3872" x2="69.1004" y2="30.3872" gradientUnits="userSpaceOnUse">
<stop stop-color="#7B56FF"/>
<stop offset="1" stop-color="#3618A3"/>
</linearGradient>
<linearGradient id="paint10_linear_925_4366" x1="22.1725" y1="30.3872" x2="32.9357" y2="30.3872" gradientUnits="userSpaceOnUse">
<stop stop-color="#7B56FF"/>
<stop offset="1" stop-color="#3618A3"/>
</linearGradient>
<linearGradient id="paint11_linear_925_4366" x1="51.0174" y1="45.8865" x2="51.0174" y2="56.3858" gradientUnits="userSpaceOnUse">
<stop stop-color="#A187FF"/>
<stop offset="1" stop-color="#4823CF"/>
</linearGradient>
<radialGradient id="paint12_radial_925_4366" cx="0" cy="0" r="1" gradientUnits="userSpaceOnUse" gradientTransform="translate(57.6908 61.8164) rotate(139.086) scale(17.0915 26.9519)">
<stop stop-color="#EFEAFF"/>
<stop offset="1" stop-color="#4ED0AA"/>
</radialGradient>
<linearGradient id="paint13_linear_925_4366" x1="51.0179" y1="38.9976" x2="51.0179" y2="51.0524" gradientUnits="userSpaceOnUse">
<stop stop-color="#A187FF"/>
<stop offset="1" stop-color="#4823CF"/>
</linearGradient>
<linearGradient id="paint14_linear_925_4366" x1="51.0183" y1="76.0237" x2="51.0183" y2="65.2605" gradientUnits="userSpaceOnUse">
<stop stop-color="#5E35F1"/>
<stop offset="1" stop-color="#A187FF"/>
</linearGradient>
<linearGradient id="paint15_linear_925_4366" x1="71.252" y1="82.0512" x2="53.1698" y2="82.0512" gradientUnits="userSpaceOnUse">
<stop stop-color="#A187FF"/>
<stop offset="1" stop-color="#5E35F1"/>
</linearGradient>
<linearGradient id="paint16_linear_925_4366" x1="31.2128" y1="82.0512" x2="49.295" y2="82.0512" gradientUnits="userSpaceOnUse">
<stop stop-color="#A187FF"/>
<stop offset="1" stop-color="#5E35F1"/>
</linearGradient>
<linearGradient id="paint17_linear_925_4366" x1="7.31883" y1="35.123" x2="7.31883" y2="40.2894" gradientUnits="userSpaceOnUse">
<stop stop-color="#3618A3"/>
<stop offset="1" stop-color="#5E35F1"/>
</linearGradient>
<linearGradient id="paint18_linear_925_4366" x1="7.31897" y1="35.1232" x2="7.31897" y2="40.2895" gradientUnits="userSpaceOnUse">
<stop stop-color="#A187FF"/>
<stop offset="1" stop-color="#4823CF"/>
</linearGradient>
<linearGradient id="paint19_linear_925_4366" x1="80.3236" y1="83.4315" x2="83.3391" y2="79.2365" gradientUnits="userSpaceOnUse">
<stop stop-color="#3618A3"/>
<stop offset="1" stop-color="#5E35F1"/>
</linearGradient>
<linearGradient id="paint20_linear_925_4366" x1="80.324" y1="83.4313" x2="83.3395" y2="79.2363" gradientUnits="userSpaceOnUse">
<stop stop-color="#A187FF"/>
<stop offset="1" stop-color="#4823CF"/>
</linearGradient>
<linearGradient id="paint21_linear_925_4366" x1="7.53352" y1="27.8047" x2="7.53352" y2="38.9984" gradientUnits="userSpaceOnUse">
<stop stop-color="#A6F9E1"/>
<stop offset="1" stop-color="#4ED0AA"/>
</linearGradient>
<linearGradient id="paint22_linear_925_4366" x1="75.8763" y1="89.2492" x2="82.4098" y2="80.16" gradientUnits="userSpaceOnUse">
<stop stop-color="#A6F9E1"/>
<stop offset="1" stop-color="#4ED0AA"/>
</linearGradient>
<radialGradient id="paint23_radial_925_4366" cx="0" cy="0" r="1" gradientUnits="userSpaceOnUse" gradientTransform="translate(48.4349 66.1214) rotate(90) scale(2.15264)">
<stop stop-color="#7B56FF"/>
<stop offset="1" stop-color="#A187FF"/>
</radialGradient>
<radialGradient id="paint24_radial_925_4366" cx="0" cy="0" r="1" gradientUnits="userSpaceOnUse" gradientTransform="translate(52.7398 66.1217) rotate(90) scale(1.29158)">
<stop stop-color="#7B56FF"/>
<stop offset="1" stop-color="#A187FF"/>
</radialGradient>
<radialGradient id="paint25_radial_925_4366" cx="0" cy="0" r="1" gradientUnits="userSpaceOnUse" gradientTransform="translate(56.1842 66.1217) rotate(90) scale(1.29158)">
<stop stop-color="#7B56FF"/>
<stop offset="1" stop-color="#A187FF"/>
</radialGradient>
</defs>
</svg>
