<svg width="304" height="204" viewBox="0 0 304 204" fill="none" xmlns="http://www.w3.org/2000/svg">
<path d="M247.734 114.304C241.116 110.307 232.51 112.432 228.513 119.05C224.323 125.988 216.703 132.277 208.872 132.279C204.145 132.28 196.295 130.091 185.891 118.569C180.709 112.831 171.856 112.379 166.118 117.561C160.379 122.743 159.928 131.596 165.109 137.334C179.083 152.809 193.956 160.282 208.878 160.279C230.851 160.275 245.963 144.318 252.481 133.525C256.478 126.906 254.353 118.301 247.734 114.304Z" fill="url(#paint0_radial_493_5077)"/>
<path d="M121.147 161.331L107.398 207.616C100.396 231.189 114.075 255.926 137.764 262.529L138.179 262.644C148.819 265.61 159.849 259.389 162.814 248.749C165.78 238.109 159.558 227.079 148.918 224.113L148.503 223.997C146.35 223.397 145.106 221.149 145.743 219.006L152.896 194.924L154.681 194.501L171.498 216.881C171.848 217.346 172.092 217.883 172.213 218.453L180.153 255.825L180.267 256.329C182.781 266.843 193.237 273.492 203.873 271.232C214.509 268.973 221.359 258.646 219.381 248.018L219.28 247.512L211.34 210.139C210.008 203.873 207.324 197.973 203.476 192.852L170.938 149.55L121.147 161.331Z" fill="url(#paint1_radial_493_5077)"/>
<path d="M174.792 116.269L97.9146 134.459L102.161 174.086C102.442 176.712 103.174 179.27 104.324 181.647C125.609 225.63 191.737 210.387 191.637 161.525C191.63 158.528 191.038 155.561 189.893 152.792L174.792 116.269Z" fill="url(#paint2_linear_493_5077)"/>
<path d="M165.944 60.4301C166.034 55.7971 169.249 51.8127 173.759 50.7458Lnan nanL173.759 50.7458C180.475 49.1565 187.209 53.3131 188.798 60.0298L191.332 70.7393C192.921 77.456 188.764 84.1892 182.048 85.7785Lnan nanL182.048 85.7785C177.538 86.8454 172.879 84.7243 170.722 80.6229L169.567 78.4257C167.054 73.647 165.791 68.3101 165.896 62.912L165.944 60.4301Z" fill="url(#paint3_linear_493_5077)"/>
<path d="M99.3826 161.396C109.369 153.418 105.307 143.423 102.51 139.262L106.611 138.946C106.611 138.946 112.003 145.578 109.639 154.277C108.199 159.574 104.706 163.407 102.194 165.594C101.02 166.617 99.3759 165.74 99.3783 164.183L99.3826 161.396Z" fill="url(#paint4_linear_493_5077)"/>
<path d="M73.2376 97.1378C80.3589 127.235 110.53 145.86 140.627 138.739C170.724 131.618 189.35 101.446 182.228 71.3493C175.107 41.2524 144.936 22.627 114.839 29.7483C84.7418 36.8696 66.1163 67.0409 73.2376 97.1378Z" fill="url(#paint5_radial_493_5077)"/>
<path d="M35.6237 79.3191C43.0301 77.567 50.4543 82.0517 52.3828 89.3689L52.4711 89.7203L52.9008 91.4837C57.4314 109.526 64.6327 121.99 70.3843 127.479C75.5235 132.384 82.3684 134.567 95.9127 136.404C103.575 137.443 108.943 144.498 107.904 152.159C106.865 159.821 99.811 165.189 92.1495 164.15C78.0901 162.243 63.169 159.299 51.0527 147.735C40.088 137.27 30.9845 119.216 25.7202 98.2094L25.2226 96.1665L25.144 95.8145C23.5886 88.4086 28.217 81.0716 35.6237 79.3191Z" fill="url(#paint6_radial_493_5077)"/>
<path d="M123.212 40.0982C105.831 44.2106 92.6051 55.8715 87.5368 69.6802C86.4815 72.5551 87.7466 75.6381 89.5433 78.1182C91.4866 80.8006 93.0652 84.2335 93.9843 88.1183C94.9035 92.0029 95.0305 95.779 94.4953 99.0476C94.0004 102.07 94.2511 105.392 96.4826 107.49C107.202 117.563 124.251 122.061 141.632 117.949C167.161 111.908 183.732 89.584 178.646 68.0863C173.559 46.5887 148.74 34.0581 123.212 40.0982Z" fill="url(#paint7_radial_493_5077)"/>
<path d="M231.898 113.726C230.123 116.524 234.165 122.27 240.927 126.561C247.689 130.851 254.61 132.061 256.385 129.263C258.16 126.465 254.118 120.719 247.356 116.428C240.594 112.138 233.674 110.928 231.898 113.726Z" fill="url(#paint8_linear_493_5077)"/>
<path d="M234.02 115.052C234.029 115.043 234.051 115.024 234.092 114.999C234.177 114.947 234.345 114.87 234.629 114.81C235.219 114.685 236.119 114.671 237.326 114.882C239.728 115.302 242.842 116.526 246.016 118.539C249.189 120.553 251.623 122.849 253.026 124.844C253.731 125.846 254.102 126.666 254.24 127.253C254.306 127.536 254.308 127.72 254.297 127.82C254.292 127.868 254.284 127.895 254.28 127.907C254.276 127.919 254.274 127.923 254.273 127.924C254.272 127.925 254.27 127.929 254.261 127.937C254.252 127.946 254.23 127.965 254.189 127.99C254.104 128.042 253.936 128.119 253.652 128.179C253.062 128.304 252.162 128.318 250.955 128.107C248.553 127.687 245.439 126.463 242.265 124.45C239.092 122.436 236.658 120.14 235.255 118.146C234.55 117.143 234.179 116.323 234.041 115.737C233.975 115.453 233.973 115.269 233.984 115.169C233.989 115.122 233.997 115.094 234.001 115.082C234.005 115.07 234.007 115.066 234.008 115.066C234.009 115.065 234.011 115.061 234.02 115.052ZM229.786 112.387C228.872 113.827 228.84 115.457 229.175 116.881C229.507 118.293 230.236 119.702 231.165 121.022C233.03 123.673 235.998 126.395 239.587 128.672C243.175 130.949 246.902 132.475 250.094 133.033C251.685 133.311 253.27 133.371 254.689 133.07C256.12 132.766 257.581 132.043 258.495 130.602C259.409 129.162 259.441 127.532 259.106 126.108C258.774 124.696 258.045 123.287 257.116 121.967C255.251 119.316 252.283 116.594 248.694 114.317C245.106 112.041 241.379 110.515 238.187 109.956C236.596 109.678 235.011 109.619 233.592 109.92C232.161 110.223 230.7 110.947 229.786 112.387Z" fill="url(#paint9_linear_493_5077)"/>
<path d="M123.213 40.0984C105.832 44.2109 92.6056 55.8714 87.5372 69.68C86.482 72.555 87.7472 75.6385 89.5439 78.1185C91.4872 80.8009 93.0661 84.2338 93.9853 88.1185C94.9044 92.003 95.0311 95.7789 94.496 99.0475C94.2338 100.649 94.1818 102.334 94.5218 103.877C103.614 107.223 114.264 107.983 125.04 105.433C150.569 99.3929 167.14 77.0688 162.053 55.571C160.903 50.7073 158.74 46.3043 155.789 42.4698C146.267 38.4451 134.814 37.3536 123.213 40.0984Z" fill="url(#paint10_radial_493_5077)"/>
<path d="M259.745 118.367C263.295 112.771 261.637 105.356 256.041 101.806C250.445 98.2551 243.03 99.9132 239.48 105.509L236.622 110.013C234.058 114.054 235.256 119.409 239.297 121.974L244.926 125.545C248.968 128.11 254.323 126.912 256.887 122.871L259.745 118.367Z" fill="url(#paint11_linear_493_5077)"/>
<path d="M86.7934 79.1583C84.6369 75.0569 79.9772 72.9358 75.4679 74.0027Lnan nanL75.4679 74.0027C68.7513 75.592 64.5947 82.3253 66.1839 89.0419L68.7179 99.7514C70.3072 106.468 77.0405 110.625 83.7571 109.035Lnan nanL83.7571 109.035C88.2664 107.968 91.4814 103.984 91.5713 99.3512L91.6195 96.8692C91.7242 91.4711 90.4615 86.1343 87.9488 81.3555L86.7934 79.1583Z" fill="url(#paint12_linear_493_5077)"/>
<path d="M137.907 127.25C119.131 131.692 101.932 129.125 93.6134 127.48C90.9146 126.946 89.4953 128.778 90.6701 131.265C92.9405 136.073 96.226 140.326 101.354 141.729C109.841 144.051 124.639 145.605 141.317 141.658C157.994 137.712 170.526 129.692 177.073 123.813C181.029 120.261 182.06 114.986 181.935 109.671C181.871 106.921 179.781 105.919 177.607 107.606C170.908 112.804 156.683 122.807 137.907 127.25Z" fill="url(#paint13_linear_493_5077)"/>
<path d="M126.651 162.376C126.337 158.44 128.941 154.863 132.784 153.954L151.539 149.516C155.382 148.607 159.313 150.637 160.796 154.297L164.595 163.674C166.437 168.218 163.794 173.334 159.023 174.463L137.273 179.609C132.502 180.738 127.847 177.349 127.457 172.461L126.651 162.376Z" fill="url(#paint14_radial_493_5077)"/>
<path d="M142.031 162.042C142.667 164.729 141.004 167.423 138.317 168.059C135.629 168.694 132.936 167.031 132.3 164.344C131.664 161.657 133.327 158.963 136.014 158.327C138.701 157.691 141.395 159.354 142.031 162.042Z" fill="url(#paint15_radial_493_5077)"/>
<path d="M149.817 160.2C150.198 161.812 149.2 163.429 147.588 163.81C145.976 164.192 144.359 163.194 143.978 161.582C143.596 159.969 144.594 158.353 146.207 157.971C147.819 157.59 149.435 158.588 149.817 160.2Z" fill="url(#paint16_radial_493_5077)"/>
<path d="M157.602 158.358C157.983 159.97 156.986 161.586 155.373 161.968C153.761 162.349 152.145 161.352 151.763 159.739C151.382 158.127 152.379 156.511 153.992 156.129C155.604 155.748 157.22 156.745 157.602 158.358Z" fill="url(#paint17_radial_493_5077)"/>
<path d="M134.64 113.437C112.652 118.64 92.5444 115.719 82.8969 113.864C79.8132 113.271 78.1958 115.383 79.546 118.218C82.1817 123.752 85.998 128.63 91.9195 130.214C101.795 132.854 119.064 134.592 138.555 129.981C158.045 125.369 172.705 116.076 180.349 109.29C184.933 105.221 186.159 99.15 186.035 93.0216C185.972 89.8822 183.579 88.7189 181.089 90.6308C173.295 96.6124 156.629 108.235 134.64 113.437Z" fill="url(#paint18_linear_493_5077)"/>
<path d="M114.578 186.471C111.157 186.068 107.871 185.399 104.906 184.387C102.326 183.507 100.73 181.044 100.483 178.328L100.175 174.943C99.971 172.695 102.261 170.97 104.461 171.475C107.005 172.059 109.785 172.419 112.674 172.605C122.36 173.228 134.781 171.978 147.765 168.906C160.75 165.834 172.414 161.385 180.793 156.487C183.292 155.027 185.616 153.459 187.628 151.797C189.369 150.36 192.19 150.876 193.014 152.977L194.255 156.141C195.251 158.679 194.928 161.596 193.016 163.539C190.819 165.772 188.181 167.843 185.303 169.736C176.734 175.374 164.699 180.313 151.218 183.503C137.737 186.693 124.765 187.671 114.578 186.471Z" fill="url(#paint19_linear_493_5077)"/>
<path d="M111.589 192.974C121.634 202.421 140.964 207.415 150.504 207.537C151.213 207.546 151.809 208.081 151.865 208.787C152.098 211.706 149.908 214.28 146.984 214.126C132.381 213.356 116.54 205.656 109.518 200.401C107.257 198.709 107.121 195.709 108.604 193.306C109.243 192.27 110.702 192.14 111.589 192.974Z" fill="url(#paint20_linear_493_5077)"/>
<path d="M189.916 174.441C185.169 187.387 170.127 200.515 161.654 204.899C161.025 205.225 160.731 205.969 160.997 206.626C162.097 209.34 165.208 210.659 167.754 209.211C180.463 201.979 191.173 187.997 195.096 180.151C196.359 177.626 195.136 174.883 192.733 173.399C191.698 172.76 190.335 173.298 189.916 174.441Z" fill="url(#paint21_linear_493_5077)"/>
<path d="M52.5472 84.7639C52.9549 88.0524 46.8428 91.517 38.8955 92.5023C30.9483 93.4875 24.1752 91.6204 23.7675 88.3319C23.3598 85.0433 29.4718 81.5787 37.4191 80.5934C45.3664 79.6082 52.1395 81.4753 52.5472 84.7639Z" fill="url(#paint22_linear_493_5077)"/>
<path d="M50.0606 85.0544C50.056 85.0424 50.0448 85.0161 50.0184 84.976C49.9633 84.8923 49.845 84.751 49.6134 84.5746C49.1343 84.2096 48.3265 83.8118 47.1453 83.4862C44.7946 82.8382 41.4559 82.6121 37.7262 83.0745C33.9966 83.5369 30.8141 84.5714 28.6928 85.7738C27.627 86.378 26.9407 86.9611 26.5653 87.432C26.3838 87.6596 26.3036 87.8255 26.2706 87.9202C26.2548 87.9655 26.2503 87.9937 26.2488 88.0065C26.2474 88.0186 26.2479 88.0233 26.248 88.0244C26.2482 88.0254 26.2488 88.0301 26.2531 88.0414C26.2577 88.0535 26.2689 88.0797 26.2953 88.1198C26.3505 88.2036 26.4688 88.3449 26.7003 88.5213C27.1794 88.8863 27.9872 89.2841 29.1684 89.6097C31.5191 90.2577 34.8578 90.4837 38.5875 90.0213C42.3172 89.559 45.4996 88.5244 47.6209 87.322C48.6868 86.7178 49.373 86.1348 49.7485 85.6639C49.9299 85.4363 50.0101 85.2704 50.0432 85.1757C50.059 85.1303 50.0634 85.1021 50.065 85.0893C50.0664 85.0773 50.0658 85.0726 50.0657 85.0715C50.0656 85.0704 50.065 85.0658 50.0606 85.0544ZM55.0277 84.4564C55.2376 86.1491 54.5691 87.6364 53.6576 88.7798C52.7534 89.9142 51.4913 90.8757 50.0869 91.6718C47.2673 93.2701 43.4201 94.4605 39.2027 94.9834C34.9852 95.5062 30.9638 95.2913 27.8393 94.43C26.2829 94.0009 24.8243 93.3767 23.6704 92.4975C22.5073 91.6113 21.4959 90.3322 21.286 88.6395C21.0762 86.9468 21.7446 85.4594 22.6561 84.316C23.5604 83.1817 24.8224 82.2202 26.2268 81.4241C29.0465 79.8258 32.8936 78.6354 37.1111 78.1125C41.3285 77.5897 45.3499 77.8045 48.4745 78.6659C50.0308 79.0949 51.4894 79.7192 52.6433 80.5983C53.8064 81.4845 54.8179 82.7637 55.0277 84.4564Z" fill="url(#paint23_linear_493_5077)"/>
<path d="M25.3905 77.046C24.5751 70.469 29.2458 64.4762 35.8229 63.6608C42.4 62.8454 48.3927 67.5161 49.2081 74.0932L49.8643 79.386C50.4532 84.1361 47.0799 88.4642 42.3298 89.0531L35.7138 89.8734C30.9637 90.4623 26.6356 87.0889 26.0467 82.3388L25.3905 77.046Z" fill="url(#paint24_linear_493_5077)"/>
<path d="M107.136 57.4364L109.219 56.2944C111.443 55.0749 114.145 56.7598 114.029 59.2939L113.785 64.5924C113.682 66.8317 112.802 68.9652 111.297 70.6263L107.304 75.033C104.25 78.4034 98.7091 77.325 97.142 73.0554C96.5726 71.504 96.6626 69.7871 97.3913 68.3038L98.0729 66.9162C100.046 62.8988 103.211 59.5882 107.136 57.4364Z" fill="white" fill-opacity="0.5"/>
<defs>
<radialGradient id="paint0_radial_493_5077" cx="0" cy="0" r="1" gradientUnits="userSpaceOnUse" gradientTransform="translate(214.225 117.316) rotate(108.359) scale(49.4773 68.507)">
<stop stop-color="#4ED0AA"/>
<stop offset="1" stop-color="#5E35F1"/>
</radialGradient>
<radialGradient id="paint1_radial_493_5077" cx="0" cy="0" r="1" gradientUnits="userSpaceOnUse" gradientTransform="translate(148.655 194.386) rotate(92.7302) scale(81.7209 98.5587)">
<stop offset="0.197115" stop-color="#87EFD0"/>
<stop offset="1" stop-color="#7B56FF"/>
</radialGradient>
<linearGradient id="paint2_linear_493_5077" x1="135.821" y1="96.7164" x2="173.759" y2="213.622" gradientUnits="userSpaceOnUse">
<stop offset="0.139111" stop-color="#5E35F1"/>
<stop offset="0.581145" stop-color="#EFEAFF"/>
<stop offset="0.895219" stop-color="#4ED0AA"/>
</linearGradient>
<linearGradient id="paint3_linear_493_5077" x1="190.065" y1="65.3846" x2="165.737" y2="71.1409" gradientUnits="userSpaceOnUse">
<stop stop-color="#7B56FF"/>
<stop offset="1" stop-color="#3618A3"/>
</linearGradient>
<linearGradient id="paint4_linear_493_5077" x1="99.1382" y1="140.389" x2="107.381" y2="165.048" gradientUnits="userSpaceOnUse">
<stop stop-color="#4823CF"/>
<stop offset="1" stop-color="#A187FF"/>
</linearGradient>
<radialGradient id="paint5_radial_493_5077" cx="0" cy="0" r="1" gradientUnits="userSpaceOnUse" gradientTransform="translate(87.4977 53.1731) rotate(58.163) scale(100.719)">
<stop stop-color="#A187FF"/>
<stop offset="1" stop-color="#A6F9E1"/>
</radialGradient>
<radialGradient id="paint6_radial_493_5077" cx="0" cy="0" r="1" gradientTransform="matrix(-13.133 68.2145 -60.8505 -25.5398 68.6477 104.845)" gradientUnits="userSpaceOnUse">
<stop stop-color="#4ED0AA"/>
<stop offset="1" stop-color="#5E35F1"/>
</radialGradient>
<radialGradient id="paint7_radial_493_5077" cx="0" cy="0" r="1" gradientTransform="matrix(60.5146 25.4879 37.2058 -52.5039 107.54 61.9789)" gradientUnits="userSpaceOnUse">
<stop stop-color="#4823CF"/>
<stop offset="1" stop-color="#261172"/>
</radialGradient>
<linearGradient id="paint8_linear_493_5077" x1="247.356" y1="116.428" x2="240.927" y2="126.561" gradientUnits="userSpaceOnUse">
<stop stop-color="#3618A3"/>
<stop offset="1" stop-color="#5E35F1"/>
</linearGradient>
<linearGradient id="paint9_linear_493_5077" x1="247.355" y1="116.428" x2="240.926" y2="126.561" gradientUnits="userSpaceOnUse">
<stop stop-color="#A187FF"/>
<stop offset="1" stop-color="#4823CF"/>
</linearGradient>
<radialGradient id="paint10_radial_493_5077" cx="0" cy="0" r="1" gradientTransform="matrix(58.0632 26.068 34.9728 -51.9755 86.8487 50.4334)" gradientUnits="userSpaceOnUse">
<stop stop-color="#7B56FF"/>
<stop offset="1" stop-color="#3618A3"/>
</radialGradient>
<linearGradient id="paint11_linear_493_5077" x1="256.041" y1="101.806" x2="242.112" y2="123.759" gradientUnits="userSpaceOnUse">
<stop stop-color="#A6F9E1"/>
<stop offset="1" stop-color="#4ED0AA"/>
</linearGradient>
<linearGradient id="paint12_linear_493_5077" x1="67.4509" y1="94.3967" x2="91.7792" y2="88.6403" gradientUnits="userSpaceOnUse">
<stop stop-color="#7B56FF"/>
<stop offset="1" stop-color="#3618A3"/>
</linearGradient>
<linearGradient id="paint13_linear_493_5077" x1="135.1" y1="115.384" x2="140.715" y2="139.116" gradientUnits="userSpaceOnUse">
<stop stop-color="#A187FF"/>
<stop offset="1" stop-color="#4823CF"/>
</linearGradient>
<radialGradient id="paint14_radial_493_5077" cx="0" cy="0" r="1" gradientUnits="userSpaceOnUse" gradientTransform="translate(155.785 148.511) rotate(125.774) scale(39.6989 62.6021)">
<stop stop-color="#EFEAFF"/>
<stop offset="1" stop-color="#4ED0AA"/>
</radialGradient>
<radialGradient id="paint15_radial_493_5077" cx="0" cy="0" r="1" gradientUnits="userSpaceOnUse" gradientTransform="translate(137.165 163.193) rotate(76.6879) scale(5)">
<stop stop-color="#7B56FF"/>
<stop offset="1" stop-color="#A187FF"/>
</radialGradient>
<radialGradient id="paint16_radial_493_5077" cx="0" cy="0" r="1" gradientUnits="userSpaceOnUse" gradientTransform="translate(146.897 160.891) rotate(76.6879) scale(3)">
<stop stop-color="#7B56FF"/>
<stop offset="1" stop-color="#A187FF"/>
</radialGradient>
<radialGradient id="paint17_radial_493_5077" cx="0" cy="0" r="1" gradientUnits="userSpaceOnUse" gradientTransform="translate(154.682 159.048) rotate(76.6879) scale(3)">
<stop stop-color="#7B56FF"/>
<stop offset="1" stop-color="#A187FF"/>
</radialGradient>
<linearGradient id="paint18_linear_493_5077" x1="131.417" y1="99.8136" x2="137.864" y2="127.061" gradientUnits="userSpaceOnUse">
<stop stop-color="#A187FF"/>
<stop offset="1" stop-color="#4823CF"/>
</linearGradient>
<linearGradient id="paint19_linear_493_5077" x1="151.218" y1="183.503" x2="145.462" y2="159.175" gradientUnits="userSpaceOnUse">
<stop stop-color="#5E35F1"/>
<stop offset="1" stop-color="#A187FF"/>
</linearGradient>
<linearGradient id="paint20_linear_493_5077" x1="108.705" y1="207.949" x2="149.577" y2="198.278" gradientUnits="userSpaceOnUse">
<stop stop-color="#A187FF"/>
<stop offset="1" stop-color="#5E35F1"/>
</linearGradient>
<linearGradient id="paint21_linear_493_5077" x1="199.205" y1="186.535" x2="158.334" y2="196.206" gradientUnits="userSpaceOnUse">
<stop stop-color="#A187FF"/>
<stop offset="1" stop-color="#5E35F1"/>
</linearGradient>
<linearGradient id="paint22_linear_493_5077" x1="37.4191" y1="80.5934" x2="38.8955" y2="92.5023" gradientUnits="userSpaceOnUse">
<stop stop-color="#3618A3"/>
<stop offset="1" stop-color="#5E35F1"/>
</linearGradient>
<linearGradient id="paint23_linear_493_5077" x1="37.4187" y1="80.5935" x2="38.8951" y2="92.5024" gradientUnits="userSpaceOnUse">
<stop stop-color="#A187FF"/>
<stop offset="1" stop-color="#4823CF"/>
</linearGradient>
<linearGradient id="paint24_linear_493_5077" x1="35.8229" y1="63.6608" x2="39.0218" y2="89.4633" gradientUnits="userSpaceOnUse">
<stop stop-color="#A6F9E1"/>
<stop offset="1" stop-color="#4ED0AA"/>
</linearGradient>
</defs>
</svg>
