<svg width="120" height="120" viewBox="0 0 120 120" fill="none" xmlns="http://www.w3.org/2000/svg">
<rect width="120" height="120" rx="60" fill="#5E35F1"/>
<path d="M58.134 62.5667L67.3673 53.3333C67.984 52.7167 68.334 51.8667 68.334 50.9833L68.334 34.3333C68.334 32.5 66.834 31 65.0007 31L50.0007 31C48.6673 31 47.4673 31.8 46.934 33.0167L41.5007 45.7C40.1007 49 42.5173 52.6667 46.1007 52.6667L55.5173 52.6667L53.934 60.3C53.7673 61.1333 54.0173 61.9833 54.6173 62.5833C55.6007 63.55 57.1673 63.55 58.134 62.5667ZM75.0007 31C73.1673 31 71.6673 32.5 71.6673 34.3333L71.6673 47.6667C71.6673 49.5 73.1673 51 75.0007 51C76.834 51 78.334 49.5 78.334 47.6667L78.334 34.3333C78.334 32.5 76.834 31 75.0007 31Z" fill="white"/>
<path d="M59.6155 79.2V89H58.4815L53.2455 80.992V89H52.1255V79.2H53.2595L58.4955 87.194V79.2H59.6155ZM64.9086 89.098C64.246 89.098 63.6533 88.9533 63.1306 88.664C62.608 88.3747 62.1973 87.964 61.8986 87.432C61.6 86.8907 61.4506 86.2513 61.4506 85.514C61.4506 84.7673 61.6 84.1233 61.8986 83.582C62.2066 83.0407 62.622 82.6253 63.1446 82.336C63.6766 82.0467 64.274 81.902 64.9366 81.902C65.5993 81.902 66.192 82.0467 66.7146 82.336C67.2466 82.6253 67.662 83.0407 67.9606 83.582C68.2686 84.114 68.4226 84.7487 68.4226 85.486C68.4226 86.2327 68.2686 86.8767 67.9606 87.418C67.6526 87.9593 67.2326 88.3747 66.7006 88.664C66.1686 88.9533 65.5713 89.098 64.9086 89.098ZM64.8946 88.104C65.3053 88.104 65.6926 88.0153 66.0566 87.838C66.4206 87.6513 66.7146 87.3667 66.9386 86.984C67.172 86.592 67.2886 86.0973 67.2886 85.5C67.2886 84.8933 67.1766 84.3987 66.9526 84.016C66.7286 83.6333 66.4346 83.3533 66.0706 83.176C65.716 82.9893 65.3333 82.896 64.9226 82.896C64.512 82.896 64.1293 82.9893 63.7746 83.176C63.42 83.3533 63.1306 83.638 62.9066 84.03C62.692 84.4127 62.5846 84.9027 62.5846 85.5C62.5846 86.1067 62.692 86.6013 62.9066 86.984C63.1213 87.3667 63.4013 87.6513 63.7466 87.838C64.1013 88.0153 64.484 88.104 64.8946 88.104Z" fill="white"/>
</svg>
