<svg width="120" height="120" viewBox="0 0 120 120" fill="none" xmlns="http://www.w3.org/2000/svg">
<rect width="120" height="120" rx="60" fill="#0F8864"/>
<g clip-path="url(#clip0_2520_4726)">
<path d="M61.866 29.4333L52.6327 38.6667C52.016 39.2833 51.666 40.1333 51.666 41.0167V57.6667C51.666 59.5 53.166 61 54.9993 61H69.9993C71.3327 61 72.5327 60.2 73.066 58.9833L78.4993 46.3C79.8993 43 77.4827 39.3333 73.8993 39.3333H64.4827L66.066 31.7C66.2327 30.8667 65.9827 30.0167 65.3827 29.4167C64.3993 28.45 62.8327 28.45 61.866 29.4333ZM44.9993 61C46.8327 61 48.3327 59.5 48.3327 57.6667V44.3333C48.3327 42.5 46.8327 41 44.9993 41C43.166 41 41.666 42.5 41.666 44.3333V57.6667C41.666 59.5 43.166 61 44.9993 61Z" fill="white"/>
</g>
<path d="M55.6147 79.2H56.8607L53.2767 85.234V89H52.1567V85.248L48.5727 79.2H49.8187L52.7167 84.17L55.6147 79.2ZM61.2905 89.098C60.6371 89.098 60.0538 88.9393 59.5405 88.622C59.0365 88.3047 58.6398 87.8707 58.3505 87.32C58.0611 86.7693 57.9165 86.1393 57.9165 85.43C57.9165 84.7487 58.0611 84.142 58.3505 83.61C58.6398 83.078 59.0365 82.6627 59.5405 82.364C60.0445 82.056 60.6185 81.902 61.2625 81.902C61.8971 81.902 62.4618 82.042 62.9565 82.322C63.4605 82.602 63.8525 82.9893 64.1325 83.484C64.4125 83.9787 64.5431 84.5433 64.5245 85.178C64.5245 85.2807 64.5198 85.388 64.5105 85.5C64.5011 85.612 64.4918 85.7333 64.4825 85.864H59.0645C59.0831 86.3027 59.1905 86.69 59.3865 87.026C59.5825 87.362 59.8391 87.628 60.1565 87.824C60.4831 88.0107 60.8518 88.104 61.2625 88.104C61.8038 88.104 62.2611 88.0013 62.6345 87.796C63.0171 87.5907 63.2925 87.2967 63.4605 86.914L64.3705 87.278C64.0905 87.866 63.6845 88.3187 63.1525 88.636C62.6205 88.944 61.9998 89.098 61.2905 89.098ZM63.3765 84.954C63.3858 84.5527 63.2971 84.198 63.1105 83.89C62.9331 83.582 62.6811 83.3393 62.3545 83.162C62.0278 82.9847 61.6498 82.896 61.2205 82.896C60.8471 82.896 60.5065 82.9847 60.1985 83.162C59.8905 83.3393 59.6338 83.5867 59.4285 83.904C59.2325 84.212 59.1158 84.562 59.0785 84.954H63.3765ZM66.8268 86.858C66.8828 87.138 66.9855 87.3713 67.1348 87.558C67.2841 87.7353 67.4755 87.8707 67.7088 87.964C67.9515 88.0573 68.2315 88.104 68.5488 88.104C69.0435 88.104 69.4168 88.0107 69.6688 87.824C69.9301 87.628 70.0608 87.3853 70.0608 87.096C70.0608 86.8533 69.9815 86.6573 69.8228 86.508C69.6735 86.3587 69.4728 86.2373 69.2208 86.144C68.9688 86.0413 68.6888 85.9527 68.3808 85.878C68.1381 85.822 67.8768 85.7567 67.5968 85.682C67.3168 85.598 67.0508 85.486 66.7988 85.346C66.5468 85.206 66.3415 85.024 66.1828 84.8C66.0241 84.576 65.9448 84.282 65.9448 83.918C65.9448 83.5167 66.0521 83.1667 66.2668 82.868C66.4908 82.56 66.7941 82.322 67.1768 82.154C67.5688 81.986 68.0168 81.902 68.5208 81.902C69.0995 81.902 69.6128 82.028 70.0608 82.28C70.5181 82.532 70.8355 82.924 71.0128 83.456L70.0328 83.792C69.9675 83.5493 69.8461 83.3627 69.6688 83.232C69.5008 83.1013 69.3095 83.0127 69.0948 82.966C68.8895 82.9193 68.6841 82.896 68.4788 82.896C68.0588 82.896 67.7181 82.98 67.4568 83.148C67.2048 83.3067 67.0788 83.5493 67.0788 83.876C67.0788 84.0533 67.1208 84.2027 67.2048 84.324C67.2888 84.436 67.4055 84.5293 67.5548 84.604C67.7041 84.6787 67.8815 84.744 68.0868 84.8C68.2921 84.8467 68.5161 84.9027 68.7588 84.968C69.0295 85.0333 69.3048 85.1173 69.5848 85.22C69.8648 85.3133 70.1261 85.4393 70.3688 85.598C70.6115 85.7473 70.8075 85.9433 70.9568 86.186C71.1155 86.4193 71.1948 86.7133 71.1948 87.068C71.1948 87.4787 71.0828 87.838 70.8588 88.146C70.6348 88.4447 70.3221 88.678 69.9208 88.846C69.5288 89.014 69.0715 89.098 68.5488 89.098C67.8301 89.098 67.2328 88.9393 66.7568 88.622C66.2901 88.2953 65.9775 87.8193 65.8188 87.194L66.8268 86.858Z" fill="white"/>
<defs>
<clipPath id="clip0_2520_4726">
<rect width="40" height="40" fill="white" transform="translate(40 26)"/>
</clipPath>
</defs>
</svg>
