<svg width="139" height="261" viewBox="0 0 139 261" fill="none" xmlns="http://www.w3.org/2000/svg">
<g filter="url(#filter0_dd_1_439)">
<path d="M33.9549 118.779C38.8858 116.076 45.0747 117.881 47.7779 122.812C50.6114 127.981 55.9569 132.783 61.647 133.022C65.0819 133.166 70.8526 131.814 78.7629 123.758C82.7027 119.746 89.1493 119.687 93.1616 123.627C97.1739 127.566 97.233 134.013 93.2934 138.025C82.6694 148.845 71.6347 153.823 60.792 153.368C44.8255 152.697 34.3297 140.642 29.9216 132.602C27.2185 127.671 29.0243 121.483 33.9549 118.779Z" fill="url(#paint0_radial_1_439)"/>
<path d="M137.491 116.525L171.735 136.411C184.166 143.63 190.257 158.251 186.629 172.161L185.078 178.108C183.05 185.881 175.105 190.539 167.332 188.511C159.559 186.483 154.901 178.539 156.929 170.766L158.481 164.818C158.81 163.554 158.257 162.224 157.127 161.568L137.448 150.14L136.293 150.807L138.347 169.145C138.416 169.765 138.683 170.347 139.108 170.803L157.296 190.345C162.77 196.225 162.44 205.429 156.559 210.902C150.679 216.375 141.476 216.045 136.003 210.165L117.814 190.624C113.137 185.599 110.2 179.204 109.437 172.383L105.264 135.13L137.491 116.525Z" fill="url(#paint1_radial_1_439)"/>
<path d="M86.6211 119.441L136.378 90.714L153.901 113.803C155.062 115.332 155.951 117.051 156.528 118.883C167.207 152.777 124.609 177.701 100.285 151.794C98.7933 150.205 97.6266 148.34 96.851 146.303L86.6211 119.441Z" fill="url(#paint2_linear_1_439)"/>
<path d="M63.4461 85.4784C61.0872 83.0716 57.3982 82.567 54.4796 84.252Lnan nanL54.4796 84.252C50.1324 86.7619 48.6429 92.3207 51.1528 96.6679L55.1547 103.599C57.6646 107.947 63.2233 109.436 67.5705 106.926Lnan nanL67.5705 106.926C70.4891 105.241 71.8967 101.794 70.9917 98.5477L70.507 96.8087C69.4526 93.0262 67.4583 89.5721 64.7099 86.7678L63.4461 85.4784Z" fill="url(#paint3_linear_1_439)"/>
<path d="M149.04 105.701C139.776 106.461 136.938 99.146 136.343 95.5486L134.015 97.427C134.015 97.427 134.47 103.627 140.061 107.05C143.466 109.135 147.226 109.421 149.647 109.325C150.778 109.281 151.211 107.996 150.433 107.174L149.04 105.701Z" fill="url(#paint4_linear_1_439)"/>
<path d="M130.819 58.6528C142.065 78.1324 135.391 103.041 115.911 114.287C96.4318 125.534 71.5234 118.86 60.2769 99.3801C49.0303 79.9006 55.7045 54.9921 75.1841 43.7456C94.6637 32.4991 119.572 39.1733 130.819 58.6528Z" fill="url(#paint5_radial_1_439)"/>
<path d="M141.833 30.4589C137.04 33.2266 135.348 39.3037 137.978 44.138L138.107 44.368L138.759 45.5155C145.363 57.3236 147.77 67.5118 147.465 73.286C147.192 78.4455 144.659 83.0153 138.408 90.7448C134.872 95.1172 135.551 101.529 139.923 105.065C144.295 108.6 150.706 107.922 154.242 103.55C160.73 95.5267 167.158 86.5248 167.8 74.3608C168.382 63.3529 164.193 49.2574 156.498 35.5146L155.742 34.1852L155.608 33.9597C152.737 29.2647 146.627 27.6911 141.833 30.4589Z" fill="url(#paint6_radial_1_439)"/>
<path d="M75.916 53.4003C87.1651 46.9056 99.9818 46.4779 109.553 51.2567C111.546 52.2516 112.414 54.5142 112.701 56.723C113.011 59.112 113.888 61.7162 115.339 64.2305C116.791 66.7447 118.608 68.8063 120.522 70.269C122.291 71.6214 123.816 73.5048 123.682 75.7278C123.035 86.4063 116.256 97.2924 105.007 103.787C88.4842 113.327 68.5774 109.78 60.5442 95.8665C52.5111 81.9526 59.3934 62.9398 75.916 53.4003Z" fill="url(#paint7_radial_1_439)"/>
<path d="M45.4792 118.841C46.6842 120.928 43.5722 124.98 38.5284 127.893C33.4846 130.805 28.4189 131.473 27.2139 129.386C26.0089 127.299 29.1209 123.247 34.1647 120.334C39.2086 117.422 44.2742 116.754 45.4792 118.841Z" fill="url(#paint8_linear_1_439)"/>
<path d="M43.8962 119.74C43.8897 119.733 43.8747 119.719 43.8457 119.699C43.785 119.659 43.6657 119.598 43.4606 119.545C43.0363 119.436 42.3825 119.399 41.4991 119.516C39.741 119.748 37.4407 120.542 35.0736 121.909C32.7066 123.276 30.8682 124.87 29.7881 126.277C29.2454 126.984 28.951 127.569 28.8329 127.99C28.7759 128.194 28.7692 128.328 28.7739 128.401C28.7762 128.436 28.7811 128.456 28.7838 128.465C28.7862 128.473 28.7879 128.476 28.7883 128.477C28.7887 128.478 28.7904 128.481 28.7966 128.487C28.803 128.494 28.818 128.508 28.847 128.528C28.9077 128.568 29.027 128.629 29.2321 128.682C29.6564 128.79 30.3102 128.828 31.1936 128.711C32.9517 128.479 35.252 127.685 37.6191 126.318C39.9862 124.951 41.8246 123.356 42.9046 121.95C43.4474 121.243 43.7418 120.658 43.8598 120.236C43.9168 120.033 43.9235 119.899 43.9188 119.826C43.9166 119.791 43.9116 119.771 43.909 119.762C43.9065 119.753 43.9048 119.75 43.9044 119.75C43.904 119.749 43.9023 119.746 43.8962 119.74ZM47.0536 117.932C47.6738 119.006 47.6476 120.192 47.3611 121.216C47.0769 122.232 46.5041 123.233 45.789 124.165C44.3534 126.034 42.1139 127.922 39.4373 129.467C36.7606 131.012 34.0062 132.008 31.6693 132.317C30.5054 132.47 29.3515 132.466 28.3295 132.204C27.2993 131.94 26.2594 131.37 25.6391 130.295C25.0189 129.221 25.0451 128.035 25.3316 127.011C25.6158 125.995 26.1886 124.993 26.9037 124.062C28.3393 122.193 30.5788 120.305 33.2554 118.76C35.9321 117.214 38.6865 116.219 41.0234 115.91C42.1874 115.757 43.3413 115.761 44.3633 116.023C45.3934 116.287 46.4333 116.857 47.0536 117.932Z" fill="url(#paint9_linear_1_439)"/>
<path d="M75.9163 53.4002C87.1654 46.9056 99.982 46.4784 109.553 51.2572C111.545 52.2522 112.414 54.5146 112.701 56.7232C113.011 59.1121 113.888 61.7162 115.34 64.2304C116.791 66.7445 118.608 68.8062 120.521 70.269C121.459 70.9856 122.327 71.8516 122.917 72.8378C119.775 79.1444 114.519 84.8593 107.544 88.886C91.0214 98.4254 71.1148 94.8792 63.0815 80.9652C61.2641 77.8174 60.212 74.4083 59.8603 70.9073C62.8912 64.027 68.4077 57.7354 75.9163 53.4002Z" fill="url(#paint10_radial_1_439)"/>
<path d="M25.1034 121.367C22.6934 117.193 24.1236 111.855 28.2978 109.445C32.472 107.035 37.8095 108.466 40.2195 112.64L42.1589 115.999C43.8994 119.014 42.8665 122.868 39.8518 124.609L35.6529 127.033C32.6382 128.774 28.7833 127.741 27.0428 124.726L25.1034 121.367Z" fill="url(#paint11_linear_1_439)"/>
<path d="M114.675 55.901C113.77 52.6548 115.178 49.2077 118.096 47.5226Lnan nanL118.096 47.5226C122.444 45.0128 128.002 46.5022 130.512 50.8494L134.514 57.7809C137.024 62.1281 135.534 67.6869 131.187 70.1968Lnan nanL131.187 70.1968C128.269 71.8818 124.58 71.3772 122.221 68.9704L120.957 67.681C118.209 64.8767 116.214 61.4226 115.16 57.6401L114.675 55.901Z" fill="url(#paint12_linear_1_439)"/>
<path d="M111.618 106.851C123.77 99.8351 131.591 89.8954 135.172 84.875C136.334 83.2462 137.999 83.5075 138.619 85.41C139.816 89.0868 140.199 92.9765 138.185 96.2773C134.852 101.74 127.796 109.945 117.002 116.177C106.208 122.409 95.5748 124.417 89.1775 124.572C85.3119 124.665 82.1349 122.389 79.5492 119.514C78.2113 118.026 78.8175 116.453 80.809 116.262C86.9475 115.67 99.4658 113.867 111.618 106.851Z" fill="url(#paint13_linear_1_439)"/>
<path d="M113.001 132.582C111.96 129.905 113.027 126.87 115.514 125.434L127.653 118.426C130.14 116.99 133.302 117.583 135.1 119.823L139.705 125.562C141.937 128.343 141.165 132.459 138.076 134.242L123.999 142.369C120.911 144.152 116.961 142.763 115.668 139.44L113.001 132.582Z" fill="url(#paint14_radial_1_439)"/>
<path d="M123.645 129.137C124.649 130.877 124.053 133.1 122.314 134.105C120.575 135.109 118.351 134.513 117.347 132.774C116.343 131.034 116.939 128.81 118.678 127.806C120.417 126.802 122.641 127.398 123.645 129.137Z" fill="url(#paint15_radial_1_439)"/>
<path d="M128.684 126.228C129.286 127.272 128.929 128.606 127.885 129.208C126.842 129.811 125.507 129.453 124.905 128.41C124.302 127.366 124.66 126.032 125.703 125.429C126.747 124.827 128.081 125.184 128.684 126.228Z" fill="url(#paint16_radial_1_439)"/>
<path d="M133.723 123.319C134.325 124.363 133.968 125.697 132.924 126.3C131.881 126.902 130.546 126.545 129.944 125.501C129.341 124.457 129.699 123.123 130.742 122.521C131.786 121.918 133.12 122.276 133.723 123.319Z" fill="url(#paint17_radial_1_439)"/>
<path d="M106.457 97.9116C120.688 89.6951 129.872 78.1178 134.052 72.3231C135.388 70.471 137.297 70.7818 137.997 72.9556C139.363 77.199 139.777 81.6842 137.433 85.4764C133.525 91.8004 125.253 101.336 112.639 108.619C100.024 115.902 87.6301 118.298 80.1992 118.521C75.7433 118.654 72.066 116.053 69.0741 112.748C67.5414 111.055 68.2271 109.246 70.4991 109.015C77.6074 108.293 92.2254 106.128 106.457 97.9116Z" fill="url(#paint18_linear_1_439)"/>
<path d="M153.509 126.551C155.118 124.631 156.523 122.637 157.588 120.623C158.514 118.87 158.13 116.77 156.906 115.21L155.38 113.265C154.366 111.974 152.294 112.203 151.382 113.568C150.326 115.146 149.035 116.724 147.599 118.263C142.785 123.425 135.588 128.96 127.184 133.812C118.78 138.664 110.388 142.129 103.511 143.718C101.46 144.192 99.4477 144.521 97.5535 144.646C95.9154 144.754 94.6803 146.434 95.2924 147.957L96.2141 150.251C96.9534 152.091 98.5793 153.473 100.561 153.547C102.837 153.633 105.266 153.413 107.734 152.979C115.081 151.687 123.914 148.297 132.639 143.26C141.364 138.222 148.717 132.268 153.509 126.551Z" fill="url(#paint19_linear_1_439)"/>
<path d="M158.335 128.501C157.732 138.511 149.995 150.798 145.007 155.622C144.637 155.98 144.588 156.56 144.911 156.962C146.243 158.623 148.687 158.892 150.157 157.352C157.501 149.66 162.042 137.682 163.136 131.398C163.489 129.374 162.064 127.719 160.08 127.187C159.225 126.958 158.388 127.617 158.335 128.501Z" fill="url(#paint20_linear_1_439)"/>
<path d="M107.639 157.771C116.609 162.254 131.119 161.696 137.79 159.789C138.285 159.647 138.812 159.895 138.999 160.375C139.771 162.36 138.783 164.611 136.713 165.114C126.379 167.628 113.736 165.571 107.746 163.377C105.818 162.67 105.097 160.609 105.628 158.625C105.857 157.77 106.847 157.375 107.639 157.771Z" fill="url(#paint21_linear_1_439)"/>
<path d="M135.595 41.7823C137.019 43.7259 141.982 42.5101 146.679 39.0667C151.377 35.6233 154.029 31.2562 152.604 29.3125C151.179 27.3689 146.217 28.5847 141.52 32.0281C136.822 35.4716 134.17 39.8386 135.595 41.7823Z" fill="url(#paint22_linear_1_439)"/>
<path d="M137.055 40.6957C137.052 40.6871 137.044 40.6676 137.038 40.6332C137.026 40.5614 137.018 40.4276 137.052 40.2187C137.124 39.7865 137.353 39.173 137.816 38.4114C138.736 36.8958 140.39 35.1105 142.595 33.4945C144.799 31.8785 146.999 30.8383 148.722 30.4163C149.587 30.2043 150.241 30.1704 150.675 30.2323C150.884 30.2623 151.009 30.31 151.074 30.3437C151.105 30.3598 151.122 30.3725 151.129 30.3785C151.136 30.3842 151.138 30.3869 151.138 30.3875C151.139 30.3882 151.141 30.3909 151.144 30.3991C151.148 30.4078 151.155 30.4273 151.161 30.4616C151.173 30.5335 151.181 30.6673 151.147 30.8762C151.075 31.3083 150.846 31.9218 150.384 32.6834C149.463 34.1991 147.809 35.9843 145.605 37.6003C143.4 39.2163 141.2 40.2566 139.478 40.6786C138.612 40.8906 137.958 40.9244 137.524 40.8625C137.315 40.8326 137.19 40.7848 137.125 40.7512C137.094 40.7351 137.077 40.7224 137.07 40.7164C137.064 40.7107 137.061 40.708 137.061 40.7073C137.061 40.7067 137.059 40.7039 137.055 40.6957ZM134.128 42.8573C134.862 43.8577 135.957 44.3113 137.01 44.4617C138.055 44.6108 139.202 44.49 140.343 44.2106C142.632 43.6498 145.262 42.3604 147.754 40.533C150.247 38.7057 152.268 36.5858 153.492 34.5711C154.101 33.5677 154.562 32.5096 154.734 31.4687C154.907 30.4195 154.804 29.238 154.071 28.2376C153.337 27.2371 152.242 26.7835 151.189 26.6332C150.144 26.484 148.997 26.6048 147.857 26.8842C145.567 27.4451 142.937 28.7344 140.445 30.5618C137.952 32.3891 135.931 34.5091 134.707 36.5237C134.098 37.5272 133.637 38.5852 133.465 39.6261C133.292 40.6753 133.395 41.8568 134.128 42.8573Z" fill="url(#paint23_linear_1_439)"/>
<path d="M146.115 24.1505C143.265 20.2632 137.804 19.4221 133.916 22.2718C130.029 25.1216 129.188 30.583 132.038 34.4702L134.331 37.5985C136.389 40.406 140.333 41.0134 143.141 38.9553L147.051 36.0887C149.859 34.0305 150.466 30.0862 148.408 27.2787L146.115 24.1505Z" fill="url(#paint24_linear_1_439)"/>
<path d="M93.0728 54.5555L91.4009 54.9904C89.6153 55.4547 89.0262 57.6943 90.3521 58.9771L93.1244 61.6594C94.2961 62.793 95.8259 63.4832 97.4512 63.6113L101.763 63.9513C105.06 64.2113 107.454 60.8762 106.154 57.835C105.681 56.7299 104.777 55.8663 103.651 55.4448L102.598 55.0506C99.5498 53.9091 96.2233 53.7362 93.0728 54.5555Z" fill="white" fill-opacity="0.5"/>
</g>
<defs>
<filter id="filter0_dd_1_439" x="19.9327" y="20.5825" width="171.735" height="209.686" filterUnits="userSpaceOnUse" color-interpolation-filters="sRGB">
<feFlood flood-opacity="0" result="BackgroundImageFix"/>
<feColorMatrix in="SourceAlpha" type="matrix" values="0 0 0 0 0 0 0 0 0 0 0 0 0 0 0 0 0 0 127 0" result="hardAlpha"/>
<feOffset dy="4"/>
<feGaussianBlur stdDeviation="2"/>
<feComposite in2="hardAlpha" operator="out"/>
<feColorMatrix type="matrix" values="0 0 0 0 0 0 0 0 0 0 0 0 0 0 0 0 0 0 0.25 0"/>
<feBlend mode="normal" in2="BackgroundImageFix" result="effect1_dropShadow_1_439"/>
<feColorMatrix in="SourceAlpha" type="matrix" values="0 0 0 0 0 0 0 0 0 0 0 0 0 0 0 0 0 0 127 0" result="hardAlpha"/>
<feOffset dy="4"/>
<feGaussianBlur stdDeviation="2"/>
<feComposite in2="hardAlpha" operator="out"/>
<feColorMatrix type="matrix" values="0 0 0 0 0 0 0 0 0 0 0 0 0 0 0 0 0 0 0.25 0"/>
<feBlend mode="normal" in2="effect1_dropShadow_1_439" result="effect2_dropShadow_1_439"/>
<feBlend mode="normal" in="SourceGraphic" in2="effect2_dropShadow_1_439" result="shape"/>
</filter>
<radialGradient id="paint0_radial_1_439" cx="0" cy="0" r="1" gradientUnits="userSpaceOnUse" gradientTransform="translate(58.2125 121.986) rotate(74.0362) scale(35.9835 49.8233)">
<stop stop-color="#4ED0AA"/>
<stop offset="1" stop-color="#5E35F1"/>
</radialGradient>
<radialGradient id="paint1_radial_1_439" cx="0" cy="0" r="1" gradientUnits="userSpaceOnUse" gradientTransform="translate(139.424 147.74) rotate(43.9577) scale(59.4334 71.6791)">
<stop offset="0.197115" stop-color="#87EFD0"/>
<stop offset="1" stop-color="#7B56FF"/>
</radialGradient>
<linearGradient id="paint2_linear_1_439" x1="97.4896" y1="89.6524" x2="135.737" y2="170.444" gradientUnits="userSpaceOnUse">
<stop offset="0.139111" stop-color="#5E35F1"/>
<stop offset="0.581145" stop-color="#EFEAFF"/>
<stop offset="0.895219" stop-color="#4ED0AA"/>
</linearGradient>
<linearGradient id="paint3_linear_1_439" x1="53.1537" y1="100.134" x2="68.8997" y2="91.0427" gradientUnits="userSpaceOnUse">
<stop stop-color="#7B56FF"/>
<stop offset="1" stop-color="#3618A3"/>
</linearGradient>
<linearGradient id="paint4_linear_1_439" x1="138.69" y1="94.4628" x2="146.629" y2="111.624" gradientUnits="userSpaceOnUse">
<stop stop-color="#4823CF"/>
<stop offset="1" stop-color="#A187FF"/>
</linearGradient>
<radialGradient id="paint5_radial_1_439" cx="0" cy="0" r="1" gradientUnits="userSpaceOnUse" gradientTransform="translate(101.339 42.5015) rotate(78.5249) scale(73.25)">
<stop stop-color="#A187FF"/>
<stop offset="1" stop-color="#A6F9E1"/>
</radialGradient>
<radialGradient id="paint6_radial_1_439" cx="0" cy="0" r="1" gradientTransform="matrix(40.9812 29.5462 19.4596 -43.8729 137.092 60.4422)" gradientUnits="userSpaceOnUse">
<stop stop-color="#4ED0AA"/>
<stop offset="1" stop-color="#5E35F1"/>
</radialGradient>
<radialGradient id="paint7_radial_1_439" cx="0" cy="0" r="1" gradientTransform="matrix(-19.3078 43.6779 -45.8823 -9.22269 95.1255 57.1606)" gradientUnits="userSpaceOnUse">
<stop stop-color="#4823CF"/>
<stop offset="1" stop-color="#261172"/>
</radialGradient>
<linearGradient id="paint8_linear_1_439" x1="34.1647" y1="120.334" x2="38.5284" y2="127.893" gradientUnits="userSpaceOnUse">
<stop stop-color="#3618A3"/>
<stop offset="1" stop-color="#5E35F1"/>
</linearGradient>
<linearGradient id="paint9_linear_1_439" x1="34.1645" y1="120.334" x2="38.5282" y2="127.892" gradientUnits="userSpaceOnUse">
<stop stop-color="#A187FF"/>
<stop offset="1" stop-color="#4823CF"/>
</linearGradient>
<radialGradient id="paint10_radial_1_439" cx="0" cy="0" r="1" gradientTransform="matrix(-17.7206 42.7616 -44.4366 -10.0574 100.315 40.7281)" gradientUnits="userSpaceOnUse">
<stop stop-color="#7B56FF"/>
<stop offset="1" stop-color="#3618A3"/>
</radialGradient>
<linearGradient id="paint11_linear_1_439" x1="28.2978" y1="109.445" x2="37.7523" y2="125.821" gradientUnits="userSpaceOnUse">
<stop stop-color="#A6F9E1"/>
<stop offset="1" stop-color="#4ED0AA"/>
</linearGradient>
<linearGradient id="paint12_linear_1_439" x1="132.513" y1="54.3152" x2="116.767" y2="63.4061" gradientUnits="userSpaceOnUse">
<stop stop-color="#7B56FF"/>
<stop offset="1" stop-color="#3618A3"/>
</linearGradient>
<linearGradient id="paint13_linear_1_439" x1="107.184" y1="99.1712" x2="116.052" y2="114.531" gradientUnits="userSpaceOnUse">
<stop stop-color="#A187FF"/>
<stop offset="1" stop-color="#4823CF"/>
</linearGradient>
<radialGradient id="paint14_radial_1_439" cx="0" cy="0" r="1" gradientUnits="userSpaceOnUse" gradientTransform="translate(130.401 116.839) rotate(109.086) scale(28.8719 45.5288)">
<stop stop-color="#EFEAFF"/>
<stop offset="1" stop-color="#4ED0AA"/>
</radialGradient>
<radialGradient id="paint15_radial_1_439" cx="0" cy="0" r="1" gradientUnits="userSpaceOnUse" gradientTransform="translate(120.496 130.955) rotate(60) scale(3.63637 3.63637)">
<stop stop-color="#7B56FF"/>
<stop offset="1" stop-color="#A187FF"/>
</radialGradient>
<radialGradient id="paint16_radial_1_439" cx="0" cy="0" r="1" gradientUnits="userSpaceOnUse" gradientTransform="translate(126.794 127.319) rotate(60) scale(2.18182)">
<stop stop-color="#7B56FF"/>
<stop offset="1" stop-color="#A187FF"/>
</radialGradient>
<radialGradient id="paint17_radial_1_439" cx="0" cy="0" r="1" gradientUnits="userSpaceOnUse" gradientTransform="translate(131.833 124.41) rotate(60) scale(2.18182)">
<stop stop-color="#7B56FF"/>
<stop offset="1" stop-color="#A187FF"/>
</radialGradient>
<linearGradient id="paint18_linear_1_439" x1="101.366" y1="89.0939" x2="111.548" y2="106.729" gradientUnits="userSpaceOnUse">
<stop stop-color="#A187FF"/>
<stop offset="1" stop-color="#4823CF"/>
</linearGradient>
<linearGradient id="paint19_linear_1_439" x1="132.639" y1="143.26" x2="123.548" y2="127.514" gradientUnits="userSpaceOnUse">
<stop stop-color="#5E35F1"/>
<stop offset="1" stop-color="#A187FF"/>
</linearGradient>
<linearGradient id="paint20_linear_1_439" x1="167.332" y1="134.987" x2="140.879" y2="150.259" gradientUnits="userSpaceOnUse">
<stop stop-color="#A187FF"/>
<stop offset="1" stop-color="#5E35F1"/>
</linearGradient>
<linearGradient id="paint21_linear_1_439" x1="108.757" y1="168.805" x2="135.21" y2="153.532" gradientUnits="userSpaceOnUse">
<stop stop-color="#A187FF"/>
<stop offset="1" stop-color="#5E35F1"/>
</linearGradient>
<linearGradient id="paint22_linear_1_439" x1="141.52" y1="32.0281" x2="146.679" y2="39.0667" gradientUnits="userSpaceOnUse">
<stop stop-color="#3618A3"/>
<stop offset="1" stop-color="#5E35F1"/>
</linearGradient>
<linearGradient id="paint23_linear_1_439" x1="141.52" y1="32.0282" x2="146.679" y2="39.0667" gradientUnits="userSpaceOnUse">
<stop stop-color="#A187FF"/>
<stop offset="1" stop-color="#4823CF"/>
</linearGradient>
<linearGradient id="paint24_linear_1_439" x1="133.916" y1="22.2718" x2="145.096" y2="37.522" gradientUnits="userSpaceOnUse">
<stop stop-color="#A6F9E1"/>
<stop offset="1" stop-color="#4ED0AA"/>
</linearGradient>
</defs>
</svg>
